<?xml version="1.0" encoding="UTF-8" standalone="no"?>
<!-- Created with Inkscape (http://www.inkscape.org/) -->

<svg
   xmlns:dc="http://purl.org/dc/elements/1.1/"
   xmlns:cc="http://creativecommons.org/ns#"
   xmlns:rdf="http://www.w3.org/1999/02/22-rdf-syntax-ns#"
   xmlns:svg="http://www.w3.org/2000/svg"
   xmlns="http://www.w3.org/2000/svg"
   xmlns:xlink="http://www.w3.org/1999/xlink"
   xmlns:sodipodi="http://sodipodi.sourceforge.net/DTD/sodipodi-0.dtd"
   xmlns:inkscape="http://www.inkscape.org/namespaces/inkscape"
   width="64"
   height="64"
   viewBox="0 0 16.933333 16.933333"
   version="1.1"
   id="svg8"
   inkscape:version="0.92.1 r"
   sodipodi:docname="mini_analyser.svg"
   inkscape:export-filename="mini_analyser.png"
   inkscape:export-xdpi="384"
   inkscape:export-ydpi="384">
  <title
     id="title4542">mini_analyser icon</title>
  <defs
     id="defs2">
    <linearGradient
       id="linearGradient4533"
       inkscape:collect="always">
      <stop
         id="stop4529"
         offset="0"
         style="stop-color:#e1e1e1;stop-opacity:1" />
      <stop
         id="stop4531"
         offset="1"
         style="stop-color:#c8c8c8;stop-opacity:1" />
    </linearGradient>
    <inkscape:perspective
       sodipodi:type="inkscape:persp3d"
       inkscape:vp_x="0 : 8.4666665 : 1"
       inkscape:vp_y="0 : 1000 : 0"
       inkscape:vp_z="16.933333 : 8.4666665 : 1"
       inkscape:persp3d-origin="8.4666665 : 5.6444443 : 1"
       id="perspective3705" />
    <filter
       inkscape:collect="always"
       style="color-interpolation-filters:sRGB"
       id="filter4704"
       x="-0.011142856"
       width="1.0222857"
       y="-0.013000002"
       height="1.026">
      <feGaussianBlur
         inkscape:collect="always"
         stdDeviation="0.068791659"
         id="feGaussianBlur4706" />
    </filter>
    <linearGradient
       inkscape:collect="always"
       xlink:href="#linearGradient4533"
       id="linearGradient4519"
       x1="1.0583333"
       y1="66.675003"
       x2="15.875"
       y2="68.791672"
       gradientUnits="userSpaceOnUse" />
    <linearGradient
       inkscape:collect="always"
       xlink:href="#linearGradient4533"
       id="linearGradient4527"
       x1="5"
       y1="9.0000076"
       x2="61"
       y2="15.000008"
       gradientUnits="userSpaceOnUse" />
  </defs>
  <sodipodi:namedview
     id="base"
     pagecolor="#ffffff"
     bordercolor="#666666"
     borderopacity="1.0"
     inkscape:pageopacity="0.0"
     inkscape:pageshadow="2"
     inkscape:zoom="8.7999609"
     inkscape:cx="-9.8993631"
     inkscape:cy="14.957052"
     inkscape:document-units="px"
     inkscape:current-layer="layer2"
     showgrid="true"
     inkscape:pagecheckerboard="true"
     fit-margin-top="0"
     fit-margin-left="0"
     fit-margin-right="0"
     fit-margin-bottom="0"
     units="px"
     inkscape:snap-bbox="true"
     inkscape:bbox-paths="true"
     inkscape:bbox-nodes="true"
     inkscape:snap-bbox-edge-midpoints="true"
     inkscape:snap-bbox-midpoints="true"
     inkscape:object-paths="true"
     inkscape:snap-intersection-paths="true"
     inkscape:snap-smooth-nodes="true"
     inkscape:snap-midpoints="true"
     inkscape:snap-global="true"
     inkscape:window-width="1920"
     inkscape:window-height="1017"
     inkscape:window-x="1016"
     inkscape:window-y="-8"
     inkscape:window-maximized="1">
    <inkscape:grid
       type="xygrid"
       id="grid22"
       spacingx="0.26458333"
       spacingy="0.26458333"
       empspacing="4" />
  </sodipodi:namedview>
  <metadata
     id="metadata5">
    <rdf:RDF>
      <cc:Work
         rdf:about="">
        <dc:format>image/svg+xml</dc:format>
        <dc:type
           rdf:resource="http://purl.org/dc/dcmitype/StillImage" />
        <dc:title>mini_analyser icon</dc:title>
        <cc:license
           rdf:resource="http://creativecommons.org/licenses/by-sa/4.0/" />
        <dc:creator>
          <cc:Agent>
            <dc:title>JuM &lt;jujumo@gmail.com&gt;</dc:title>
          </cc:Agent>
        </dc:creator>
        <dc:source>https://github.com/emericg/MiniVideo</dc:source>
      </cc:Work>
      <cc:License
         rdf:about="http://creativecommons.org/licenses/by-sa/4.0/">
        <cc:permits
           rdf:resource="http://creativecommons.org/ns#Reproduction" />
        <cc:permits
           rdf:resource="http://creativecommons.org/ns#Distribution" />
        <cc:requires
           rdf:resource="http://creativecommons.org/ns#Notice" />
        <cc:requires
           rdf:resource="http://creativecommons.org/ns#Attribution" />
        <cc:permits
           rdf:resource="http://creativecommons.org/ns#DerivativeWorks" />
        <cc:requires
           rdf:resource="http://creativecommons.org/ns#ShareAlike" />
      </cc:License>
    </rdf:RDF>
  </metadata>
  <g
     inkscape:groupmode="layer"
     id="layer2"
     inkscape:label="Layer 2"
     transform="translate(0,-62.44167)"
     style="display:inline">
    <rect
       ry="1.0583336"
       rx="1.0583336"
       y="63.500004"
       x="0.79374999"
       height="15.08125"
       width="15.875001"
       id="rect4678"
       style="fill:#111111;fill-opacity:0.30601118;stroke-width:0.26458332;filter:url(#filter4704)" />
    <path
       style="fill:#3870d0;fill-opacity:1;stroke-width:0.99999994"
       d="m 2,16 v 40 c 0,2.216001 1.7839993,4 4,4 h 51.999995 c 2.216,0 4,-1.783999 4,-4 V 16 Z"
       transform="matrix(0.26458333,0,0,0.26458333,0,62.44167)"
       id="rect3721"
       inkscape:connector-curvature="0"
       sodipodi:nodetypes="csssscc" />
    <rect
       style="opacity:1;vector-effect:none;fill:none;fill-opacity:1;stroke:#c6daf3;stroke-width:0.39687499;stroke-linecap:round;stroke-linejoin:miter;stroke-miterlimit:4;stroke-dasharray:none;stroke-dashoffset:0;stroke-opacity:1"
       id="rect4656"
       width="14.287499"
       height="10.847917"
       x="1.3229166"
       y="66.675003"
       rx="0.52916574"
       ry="0.52916574" />
    <path
       style="fill:#484848;fill-opacity:0.59075904;stroke-width:0.26458332"
       d="m 0.52916666,76.96068 v 0.297656 c 0,0.586317 0.47201644,1.058334 1.05833334,1.058334 h 13.758333 c 0.586317,0 1.058333,-0.472017 1.058333,-1.058334 V 76.96068 c 0,0.586317 -0.472016,1.175264 -1.058333,1.175264 H 1.5875 c -0.5863169,0 -1.05833334,-0.588947 -1.05833334,-1.175264 z"
       id="rect3723"
       inkscape:connector-curvature="0"
       sodipodi:nodetypes="csssscssc" />
    <g
       id="g4584"
       transform="translate(0,-1.0583334)">
      <rect
         ry="0"
         rx="0"
         y="66.675003"
         x="0.52916664"
         height="2.1166687"
         width="15.874999"
         id="rect4538"
         style="fill:url(#linearGradient4519);fill-opacity:1;stroke-width:0.26458332" />
      <path
         style="fill:#333333;stroke:none;stroke-width:0.26458332px;stroke-linecap:butt;stroke-linejoin:miter;stroke-opacity:1"
         d="m 11.641666,66.675003 -2.1166706,2.116671 h -2.116662 l 2.116666,-2.116667 z"
         id="path4574"
         inkscape:connector-curvature="0" />
      <path
         inkscape:connector-curvature="0"
         id="path4576"
         d="m 7.4083329,66.675003 -2.1166706,2.116671 h -2.116662 l 2.116666,-2.116667 z"
         style="fill:#333333;stroke:none;stroke-width:0.26458332px;stroke-linecap:butt;stroke-linejoin:miter;stroke-opacity:1" />
      <path
         inkscape:connector-curvature="0"
         id="path4572"
         d="m 15.875,66.675003 -2.116671,2.116671 h -2.116662 l 2.116666,-2.116667 z"
         style="fill:#333333;stroke:none;stroke-width:0.26458332px;stroke-linecap:butt;stroke-linejoin:miter;stroke-opacity:1" />
      <rect
         y="68.527077"
         x="0.52916664"
         height="0.2645874"
         width="15.874999"
         id="rect4542"
         style="fill:#484848;fill-opacity:0.59075904;stroke-width:0.26458332" />
      <rect
         y="66.675003"
         x="1.0583333"
         height="0.26458332"
         width="14.816667"
         id="rect4546"
         style="fill:#ececec;fill-opacity:0.41089113;stroke-width:0.26458332" />
    </g>
    <g
       id="g4650"
       transform="translate(0,-1.0583334)">
      <path
         sodipodi:nodetypes="ssccsss"
         inkscape:connector-curvature="0"
         id="rect4533"
         transform="matrix(0.26458333,0,0,0.26458333,0,62.441668)"
         d="M 6,8 C 3.7839993,8 2,9.7839993 2,12 v 4 H 62 V 12 C 62,9.7839993 60.216001,8 58,8 Z"
         style="opacity:1;vector-effect:none;fill:url(#linearGradient4527);fill-opacity:1;stroke-width:0.99999994;stroke-linecap:butt;stroke-linejoin:miter;stroke-miterlimit:4;stroke-dasharray:none;stroke-dashoffset:0;stroke-opacity:1" />
      <path
         style="display:inline;fill:#333333;stroke:none;stroke-width:0.26458332px;stroke-linecap:butt;stroke-linejoin:miter;stroke-opacity:1"
         d="m 15.875,66.675005 -2.116671,-2.116671 h -2.116662 l 2.116666,2.116667 z"
         id="path4572-4"
         inkscape:connector-curvature="0" />
      <path
         inkscape:connector-curvature="0"
         id="path4621"
         d="M 11.641669,66.675005 9.5249977,64.558334 h -2.116662 l 2.116666,2.116667 z"
         style="display:inline;fill:#333333;stroke:none;stroke-width:0.26458332px;stroke-linecap:butt;stroke-linejoin:miter;stroke-opacity:1" />
      <path
         style="display:inline;fill:#333333;stroke:none;stroke-width:0.26458332px;stroke-linecap:butt;stroke-linejoin:miter;stroke-opacity:1"
         d="M 7.4083356,66.675005 5.2916643,64.558334 h -2.116662 l 2.116666,2.116667 z"
         id="path4623"
         inkscape:connector-curvature="0" />
      <rect
         y="66.400963"
         x="0.52916664"
         height="0.27403259"
         width="15.875"
         id="rect4544"
         style="fill:#484848;fill-opacity:0.59075904;stroke-width:0.26458332" />
      <path
         id="path4625"
         transform="matrix(0.26458333,0,0,0.26458333,0,62.44167)"
         d="M 6,8 C 3.7839993,8 2,9.7839993 2,12 v 1 C 2,10.783999 3.7839995,9 6,9 h 52 c 2.216001,0 4,1.783999 4,4 V 12 C 62,9.7839993 60.216001,8 58,8 Z"
         style="opacity:1;vector-effect:none;fill:#ececec;fill-opacity:0.41089113;stroke-width:0.99999994;stroke-linecap:butt;stroke-linejoin:miter;stroke-miterlimit:4;stroke-dasharray:none;stroke-dashoffset:0;stroke-opacity:1"
         inkscape:connector-curvature="0"
         sodipodi:nodetypes="sscsscsss" />
    </g>
    <path
       style="fill:none;stroke:#c6daf3;stroke-width:0.39687499;stroke-linecap:round;stroke-linejoin:miter;stroke-miterlimit:4;stroke-dasharray:none;stroke-opacity:1"
       d="m 8.4666666,68.79167 v 7.672916"
       id="path4662"
       inkscape:connector-curvature="0"
       sodipodi:nodetypes="cc" />
    <rect
       style="opacity:1;vector-effect:none;fill:#333333;fill-opacity:0.62376236;stroke:none;stroke-width:0.26458332px;stroke-linecap:butt;stroke-linejoin:miter;stroke-miterlimit:4;stroke-dasharray:none;stroke-dashoffset:0;stroke-opacity:1"
       id="rect4534"
       width="15.875"
       height="0.26458138"
       x="0.52916664"
       y="67.733337" />
  </g>
  <g
     inkscape:groupmode="layer"
     id="layer1"
     inkscape:label="text_font"
     style="display:none">
    <text
       xml:space="preserve"
       style="font-style:normal;font-variant:normal;font-weight:bold;font-stretch:normal;font-size:2.82222223px;line-height:2.9104166px;font-family:Consolas;-inkscape-font-specification:'Consolas Bold';text-align:start;letter-spacing:-0.09789583px;word-spacing:0px;text-anchor:start;display:inline;opacity:1;vector-effect:none;fill:#c6daf3;fill-opacity:1;stroke:none;stroke-width:0.26458332px;stroke-linecap:butt;stroke-linejoin:miter;stroke-miterlimit:4;stroke-dasharray:none;stroke-dashoffset:0;stroke-opacity:1"
       x="1.8647059"
       y="8.2532148"
       id="text4654"><tspan
         sodipodi:role="line"
         id="tspan4652"
         x="1.8647059"
         y="8.2532148"
         style="font-style:normal;font-variant:normal;font-weight:bold;font-stretch:normal;font-size:2.82222223px;line-height:2.9104166px;font-family:Consolas;-inkscape-font-specification:'Consolas Bold';text-align:start;letter-spacing:-0.09789583px;text-anchor:start;vector-effect:none;fill:#c6daf3;fill-opacity:1;stroke:none;stroke-width:0.26458332px;stroke-linecap:butt;stroke-linejoin:miter;stroke-miterlimit:4;stroke-dasharray:none;stroke-dashoffset:0;stroke-opacity:1">0x00 5249</tspan><tspan
         sodipodi:role="line"
         x="1.8647059"
         y="11.163631"
         style="font-style:normal;font-variant:normal;font-weight:bold;font-stretch:normal;font-size:2.82222223px;line-height:2.9104166px;font-family:Consolas;-inkscape-font-specification:'Consolas Bold';text-align:start;letter-spacing:-0.09789583px;text-anchor:start;vector-effect:none;fill:#c6daf3;fill-opacity:1;stroke:none;stroke-width:0.26458332px;stroke-linecap:butt;stroke-linejoin:miter;stroke-miterlimit:4;stroke-dasharray:none;stroke-dashoffset:0;stroke-opacity:1"
         id="tspan4658">0x08 4547</tspan><tspan
         sodipodi:role="line"
         x="1.8647059"
         y="14.074048"
         style="font-style:normal;font-variant:normal;font-weight:bold;font-stretch:normal;font-size:2.82222223px;line-height:2.9104166px;font-family:Consolas;-inkscape-font-specification:'Consolas Bold';text-align:start;letter-spacing:-0.09789583px;text-anchor:start;vector-effect:none;fill:#c6daf3;fill-opacity:1;stroke:none;stroke-width:0.26458332px;stroke-linecap:butt;stroke-linejoin:miter;stroke-miterlimit:4;stroke-dasharray:none;stroke-dashoffset:0;stroke-opacity:1"
         id="tspan4514">0x0F 4A4D</tspan></text>
  </g>
  <g
     inkscape:groupmode="layer"
     id="layer3"
     inkscape:label="text_curve">
    <g
       aria-label="0x00 5249 0x08 4547 0x0F 4A4D"
       style="font-style:normal;font-variant:normal;font-weight:bold;font-stretch:normal;font-size:2.82222223px;line-height:2.9104166px;font-family:Consolas;-inkscape-font-specification:'Consolas Bold';text-align:start;letter-spacing:-0.09789583px;word-spacing:0px;text-anchor:start;display:inline;opacity:1;vector-effect:none;fill:#c6daf3;fill-opacity:1;stroke:none;stroke-width:0.26458332px;stroke-linecap:butt;stroke-linejoin:miter;stroke-miterlimit:4;stroke-dasharray:none;stroke-dashoffset:0;stroke-opacity:1"
       id="text4654-8">
      <path
         d="m 3.3433409,7.3450877 q 0,0.2218641 -0.048231,0.396875 -0.048231,0.1750108 -0.141938,0.2962782 -0.092328,0.1198893 -0.2259982,0.1832791 -0.1336697,0.06339 -0.3059245,0.06339 -0.1488281,0 -0.2742296,-0.052365 -0.1254015,-0.052366 -0.216352,-0.1639866 -0.09095,-0.1129991 -0.1419379,-0.28801 -0.050987,-0.1750108 -0.050987,-0.4189236 0,-0.2218641 0.048231,-0.396875 0.049609,-0.1750108 0.1419379,-0.2949002 0.092329,-0.1212673 0.2273763,-0.1846571 0.1350478,-0.06339 0.3059245,-0.06339 0.1488281,0 0.2742296,0.052365 0.1254015,0.052365 0.214974,0.1639866 0.09095,0.1116211 0.1419379,0.2866319 0.050987,0.1750109 0.050987,0.4203017 z m -1.0666016,0.00551 q 0,0.027561 0,0.052365 0,0.023427 0.00276,0.048231 L 2.9547341,6.9633711 Q 2.9065028,6.8269453 2.8265766,6.7621775 2.7480284,6.6960317 2.6405414,6.6960317 q -0.07717,0 -0.1433159,0.039963 -0.066146,0.038585 -0.1157553,0.1198893 -0.048231,0.081304 -0.07717,0.2039497 -0.027561,0.1226454 -0.027561,0.290766 z m 0.7276042,0.00551 q 0,-0.023427 -0.00138,-0.046853 -0.00138,-0.024805 -0.00138,-0.046853 L 2.3304828,7.7474748 q 0.044097,0.1336697 0.1240235,0.1984375 0.079926,0.064768 0.1860351,0.064768 0.07717,0 0.143316,-0.039963 0.067524,-0.039963 0.1157552,-0.1198893 0.049609,-0.081304 0.07717,-0.2039497 0.027561,-0.1240234 0.027561,-0.290766 z"
         style="font-style:normal;font-variant:normal;font-weight:bold;font-stretch:normal;font-size:2.82222223px;line-height:2.9104166px;font-family:Consolas;-inkscape-font-specification:'Consolas Bold';text-align:start;letter-spacing:-0.09789583px;text-anchor:start;vector-effect:none;fill:#c6daf3;fill-opacity:1;stroke:none;stroke-width:0.26458332px;stroke-linecap:butt;stroke-linejoin:miter;stroke-miterlimit:4;stroke-dasharray:none;stroke-dashoffset:0;stroke-opacity:1"
         id="path4606" />
      <path
         d="M 4.4140215,8.2532148 4.0943166,7.7819258 3.7732337,8.2532148 H 3.3667125 L 3.891745,7.5476593 3.3942732,6.853128 H 3.8035506 L 4.1177433,7.3133928 4.4278019,6.853128 H 4.8053843 L 4.323071,7.5449032 4.8315671,8.2532148 Z"
         style="font-style:normal;font-variant:normal;font-weight:bold;font-stretch:normal;font-size:2.82222223px;line-height:2.9104166px;font-family:Consolas;-inkscape-font-specification:'Consolas Bold';text-align:start;letter-spacing:-0.09789583px;text-anchor:start;vector-effect:none;fill:#c6daf3;fill-opacity:1;stroke:none;stroke-width:0.26458332px;stroke-linecap:butt;stroke-linejoin:miter;stroke-miterlimit:4;stroke-dasharray:none;stroke-dashoffset:0;stroke-opacity:1"
         id="path4608" />
      <path
         d="m 6.2564035,7.3450877 q 0,0.2218641 -0.048231,0.396875 -0.048231,0.1750108 -0.1419379,0.2962782 -0.092329,0.1198893 -0.2259983,0.1832791 -0.1336697,0.06339 -0.3059244,0.06339 -0.1488282,0 -0.2742296,-0.052365 -0.1254015,-0.052366 -0.216352,-0.1639866 -0.090951,-0.1129991 -0.141938,-0.28801 -0.050987,-0.1750108 -0.050987,-0.4189236 0,-0.2218641 0.048231,-0.396875 0.049609,-0.1750108 0.1419379,-0.2949002 0.092329,-0.1212673 0.2273763,-0.1846571 0.1350477,-0.06339 0.3059245,-0.06339 0.1488281,0 0.2742296,0.052365 0.1254014,0.052365 0.2149739,0.1639866 0.090951,0.1116211 0.141938,0.2866319 0.050987,0.1750109 0.050987,0.4203017 z m -1.0666016,0.00551 q 0,0.027561 0,0.052365 0,0.023427 0.00276,0.048231 L 5.8677967,6.9633711 Q 5.8195654,6.8269453 5.7396392,6.7621775 5.661091,6.6960317 5.553604,6.6960317 q -0.07717,0 -0.143316,0.039963 -0.066146,0.038585 -0.1157552,0.1198893 -0.048231,0.081304 -0.07717,0.2039497 -0.027561,0.1226454 -0.027561,0.290766 z m 0.7276042,0.00551 q 0,-0.023427 -0.00138,-0.046853 Q 5.91465,7.284454 5.91465,7.2624054 L 5.2435454,7.7474748 q 0.044097,0.1336697 0.1240234,0.1984375 0.079926,0.064768 0.1860352,0.064768 0.07717,0 0.143316,-0.039963 0.067524,-0.039963 0.1157552,-0.1198893 0.049609,-0.081304 0.07717,-0.2039497 0.027561,-0.1240234 0.027561,-0.290766 z"
         style="font-style:normal;font-variant:normal;font-weight:bold;font-stretch:normal;font-size:2.82222223px;line-height:2.9104166px;font-family:Consolas;-inkscape-font-specification:'Consolas Bold';text-align:start;letter-spacing:-0.09789583px;text-anchor:start;vector-effect:none;fill:#c6daf3;fill-opacity:1;stroke:none;stroke-width:0.26458332px;stroke-linecap:butt;stroke-linejoin:miter;stroke-miterlimit:4;stroke-dasharray:none;stroke-dashoffset:0;stroke-opacity:1"
         id="path4610" />
      <path
         d="m 7.712935,7.3450877 q 0,0.2218641 -0.048231,0.396875 -0.048231,0.1750108 -0.141938,0.2962782 -0.092328,0.1198893 -0.2259982,0.1832791 -0.1336697,0.06339 -0.3059245,0.06339 -0.1488281,0 -0.2742296,-0.052365 Q 6.5912119,8.1801788 6.5002614,8.0685577 6.4093109,7.9555586 6.3583235,7.7805477 6.307336,7.6055369 6.307336,7.3616241 q 0,-0.2218641 0.048231,-0.396875 0.049609,-0.1750108 0.1419379,-0.2949002 0.092329,-0.1212673 0.2273763,-0.1846571 0.1350478,-0.06339 0.3059245,-0.06339 0.1488281,0 0.2742296,0.052365 0.1254015,0.052365 0.214974,0.1639866 0.09095,0.1116211 0.1419379,0.2866319 0.050987,0.1750109 0.050987,0.4203017 z m -1.0666016,0.00551 q 0,0.027561 0,0.052365 0,0.023427 0.00276,0.048231 L 7.3243282,6.9633711 Q 7.2760969,6.8269453 7.1961707,6.7621775 7.1176225,6.6960317 7.0101355,6.6960317 q -0.07717,0 -0.1433159,0.039963 -0.066146,0.038585 -0.1157553,0.1198893 -0.048231,0.081304 -0.07717,0.2039497 -0.027561,0.1226454 -0.027561,0.290766 z m 0.7276042,0.00551 q 0,-0.023427 -0.00138,-0.046853 -0.00138,-0.024805 -0.00138,-0.046853 L 6.7000769,7.7474748 q 0.044097,0.1336697 0.1240235,0.1984375 0.079926,0.064768 0.1860351,0.064768 0.07717,0 0.143316,-0.039963 0.067524,-0.039963 0.1157552,-0.1198893 0.049609,-0.081304 0.07717,-0.2039497 0.027561,-0.1240234 0.027561,-0.290766 z"
         style="font-style:normal;font-variant:normal;font-weight:bold;font-stretch:normal;font-size:2.82222223px;line-height:2.9104166px;font-family:Consolas;-inkscape-font-specification:'Consolas Bold';text-align:start;letter-spacing:-0.09789583px;text-anchor:start;vector-effect:none;fill:#c6daf3;fill-opacity:1;stroke:none;stroke-width:0.26458332px;stroke-linecap:butt;stroke-linejoin:miter;stroke-miterlimit:4;stroke-dasharray:none;stroke-dashoffset:0;stroke-opacity:1"
         id="path4612" />
      <path
         d="m 10.533669,7.6771949 q 0,0.144694 -0.06063,0.2576931 -0.06063,0.1116211 -0.16812,0.1887912 -0.107487,0.07717 -0.253559,0.1171333 -0.1460724,0.039963 -0.3169491,0.039963 -0.042719,0 -0.090951,-0.00276 -0.048231,-0.00276 -0.097841,-0.00689 -0.049609,-0.00413 -0.096463,-0.011024 -0.046853,-0.00551 -0.086817,-0.012402 V 7.9541805 q 0.078548,0.019293 0.1805231,0.031695 0.1019748,0.011024 0.2080837,0.011024 0.2067058,0 0.3141927,-0.078548 0.108865,-0.079926 0.108865,-0.2204862 0,-0.146072 -0.100597,-0.216352 Q 9.9728075,7.4098555 9.7481872,7.4098555 H 9.3954095 V 6.4521189 H 10.43445 V 6.7690677 H 9.7096022 v 0.3665582 h 0.1295356 q 0.1378038,0 0.2632052,0.024805 0.125402,0.024805 0.220486,0.086816 0.09646,0.060634 0.152962,0.1653645 0.05788,0.1047309 0.05788,0.2645834 z"
         style="font-style:normal;font-variant:normal;font-weight:bold;font-stretch:normal;font-size:2.82222223px;line-height:2.9104166px;font-family:Consolas;-inkscape-font-specification:'Consolas Bold';text-align:start;letter-spacing:-0.09789583px;text-anchor:start;vector-effect:none;fill:#c6daf3;fill-opacity:1;stroke:none;stroke-width:0.26458332px;stroke-linecap:butt;stroke-linejoin:miter;stroke-miterlimit:4;stroke-dasharray:none;stroke-dashoffset:0;stroke-opacity:1"
         id="path4614" />
      <path
         d="M 10.781661,8.2532148 V 8.005168 l 0.425814,-0.4258138 q 0.119889,-0.1198894 0.191547,-0.2067058 0.07304,-0.086816 0.111621,-0.1543403 0.03996,-0.068902 0.05237,-0.1267795 0.0124,-0.057878 0.0124,-0.1198893 0,-0.050987 -0.01654,-0.096463 -0.01654,-0.046853 -0.04823,-0.079926 -0.03169,-0.034451 -0.07993,-0.053743 -0.04823,-0.020671 -0.110243,-0.020671 -0.106109,0 -0.197059,0.046853 -0.09095,0.045475 -0.172255,0.1226454 L 10.773393,6.6615807 q 0.117133,-0.108865 0.263205,-0.1736328 0.14745,-0.066146 0.318327,-0.066146 0.132292,0 0.239779,0.034451 0.107487,0.033073 0.183279,0.099219 0.07717,0.066146 0.118511,0.1653646 0.04272,0.099219 0.04272,0.2287543 0,0.107487 -0.02894,0.2011936 -0.02894,0.092328 -0.08406,0.180523 -0.05512,0.088194 -0.136426,0.1763889 -0.07993,0.088194 -0.183279,0.1860351 l -0.261827,0.2494249 h 0.759299 v 0.3100586 z"
         style="font-style:normal;font-variant:normal;font-weight:bold;font-stretch:normal;font-size:2.82222223px;line-height:2.9104166px;font-family:Consolas;-inkscape-font-specification:'Consolas Bold';text-align:start;letter-spacing:-0.09789583px;text-anchor:start;vector-effect:none;fill:#c6daf3;fill-opacity:1;stroke:none;stroke-width:0.26458332px;stroke-linecap:butt;stroke-linejoin:miter;stroke-miterlimit:4;stroke-dasharray:none;stroke-dashoffset:0;stroke-opacity:1"
         id="path4616" />
      <path
         d="M 13.279988,7.8866567 V 8.2532148 H 12.952015 V 7.8866567 h -0.837847 v -0.28801 l 0.7028,-1.1465278 h 0.46302 V 7.5903785 H 13.55284 V 7.8866567 Z M 12.95615,6.7773359 12.443519,7.5903785 h 0.512631 z"
         style="font-style:normal;font-variant:normal;font-weight:bold;font-stretch:normal;font-size:2.82222223px;line-height:2.9104166px;font-family:Consolas;-inkscape-font-specification:'Consolas Bold';text-align:start;letter-spacing:-0.09789583px;text-anchor:start;vector-effect:none;fill:#c6daf3;fill-opacity:1;stroke:none;stroke-width:0.26458332px;stroke-linecap:butt;stroke-linejoin:miter;stroke-miterlimit:4;stroke-dasharray:none;stroke-dashoffset:0;stroke-opacity:1"
         id="path4618" />
      <path
         d="m 14.925311,7.2458689 q 0,0.2122179 -0.03583,0.3706923 -0.03583,0.1570963 -0.101975,0.2687174 -0.06477,0.1116211 -0.155718,0.1832791 -0.09095,0.071658 -0.202572,0.1129991 -0.110243,0.041341 -0.237022,0.0565 -0.125402,0.015158 -0.260449,0.015158 H 13.723662 V 7.9652049 h 0.245291 q 0.16123,0 0.268717,-0.027561 0.108865,-0.028939 0.175011,-0.082682 0.06752,-0.055122 0.09922,-0.1364258 0.03307,-0.081304 0.0441,-0.1874132 l 0.0028,-0.034451 q -0.07304,0.034451 -0.166743,0.0565 -0.09371,0.022049 -0.188791,0.022049 -0.130913,0 -0.2384,-0.030317 -0.107487,-0.030317 -0.186036,-0.096463 -0.07717,-0.066146 -0.119889,-0.1708767 -0.04272,-0.106109 -0.04272,-0.2549371 0,-0.1350477 0.04823,-0.2452908 0.04961,-0.1116211 0.136426,-0.1901692 0.0882,-0.078548 0.208084,-0.1212674 0.121267,-0.044097 0.264583,-0.044097 0.14056,0 0.259071,0.039963 0.11989,0.039963 0.206706,0.1364258 0.08819,0.095085 0.136426,0.253559 0.04961,0.1584744 0.04961,0.3941189 z m -0.668348,-0.541569 q -0.06615,0 -0.11989,0.022049 -0.05374,0.022049 -0.09233,0.062012 -0.03721,0.039963 -0.05788,0.096463 -0.02067,0.055122 -0.02067,0.1240234 0,0.1460721 0.07717,0.2177301 0.07717,0.07028 0.213596,0.07028 0.03721,0 0.07855,-0.00689 0.04272,-0.00689 0.08406,-0.019292 0.04272,-0.012402 0.07993,-0.027561 0.03859,-0.016536 0.06752,-0.034451 0,-0.1226454 -0.01654,-0.216352 -0.01516,-0.093707 -0.05237,-0.1570964 -0.03583,-0.064768 -0.09508,-0.097841 -0.05926,-0.033073 -0.146072,-0.033073 z"
         style="font-style:normal;font-variant:normal;font-weight:bold;font-stretch:normal;font-size:2.82222223px;line-height:2.9104166px;font-family:Consolas;-inkscape-font-specification:'Consolas Bold';text-align:start;letter-spacing:-0.09789583px;text-anchor:start;vector-effect:none;fill:#c6daf3;fill-opacity:1;stroke:none;stroke-width:0.26458332px;stroke-linecap:butt;stroke-linejoin:miter;stroke-miterlimit:4;stroke-dasharray:none;stroke-dashoffset:0;stroke-opacity:1"
         id="path4620" />
      <path
         d="m 3.3433409,10.255504 q 0,0.221864 -0.048231,0.396875 -0.048231,0.175011 -0.141938,0.296279 -0.092328,0.119889 -0.2259982,0.183279 -0.1336697,0.06339 -0.3059245,0.06339 -0.1488281,0 -0.2742296,-0.05236 -0.1254015,-0.05237 -0.216352,-0.163987 -0.09095,-0.112999 -0.1419379,-0.28801 -0.050987,-0.17501 -0.050987,-0.418923 0,-0.221864 0.048231,-0.3968752 0.049609,-0.1750109 0.1419379,-0.2949002 0.092329,-0.1212673 0.2273763,-0.1846571 0.1350478,-0.06339 0.3059245,-0.06339 0.1488281,0 0.2742296,0.052366 0.1254015,0.052365 0.214974,0.1639865 0.09095,0.1116211 0.1419379,0.286632 0.050987,0.1750113 0.050987,0.4203013 z m -1.0666016,0.0055 q 0,0.02756 0,0.05237 0,0.02343 0.00276,0.04823 L 2.9547341,9.8737878 Q 2.9065028,9.737362 2.8265766,9.6725942 2.7480284,9.6064483 2.6405414,9.6064483 q -0.07717,0 -0.1433159,0.039963 -0.066146,0.038585 -0.1157553,0.1198893 -0.048231,0.081304 -0.07717,0.2039496 -0.027561,0.1226456 -0.027561,0.2907656 z m 0.7276042,0.0055 q 0,-0.02343 -0.00138,-0.04685 -0.00138,-0.0248 -0.00138,-0.04685 l -0.6711046,0.485069 q 0.044097,0.13367 0.1240235,0.198438 0.079926,0.06477 0.1860351,0.06477 0.07717,0 0.143316,-0.03996 0.067524,-0.03996 0.1157552,-0.11989 0.049609,-0.0813 0.07717,-0.203949 0.027561,-0.124024 0.027561,-0.290766 z"
         style="font-style:normal;font-variant:normal;font-weight:bold;font-stretch:normal;font-size:2.82222223px;line-height:2.9104166px;font-family:Consolas;-inkscape-font-specification:'Consolas Bold';text-align:start;letter-spacing:-0.09789583px;text-anchor:start;vector-effect:none;fill:#c6daf3;fill-opacity:1;stroke:none;stroke-width:0.26458332px;stroke-linecap:butt;stroke-linejoin:miter;stroke-miterlimit:4;stroke-dasharray:none;stroke-dashoffset:0;stroke-opacity:1"
         id="path4622" />
      <path
         d="m 4.4140215,11.163632 -0.3197049,-0.47129 -0.3210829,0.47129 H 3.3667125 L 3.891745,10.458076 3.3942732,9.7635447 H 3.8035506 L 4.1177433,10.223809 4.4278019,9.7635447 H 4.8053843 L 4.323071,10.45532 4.8315671,11.163632 Z"
         style="font-style:normal;font-variant:normal;font-weight:bold;font-stretch:normal;font-size:2.82222223px;line-height:2.9104166px;font-family:Consolas;-inkscape-font-specification:'Consolas Bold';text-align:start;letter-spacing:-0.09789583px;text-anchor:start;vector-effect:none;fill:#c6daf3;fill-opacity:1;stroke:none;stroke-width:0.26458332px;stroke-linecap:butt;stroke-linejoin:miter;stroke-miterlimit:4;stroke-dasharray:none;stroke-dashoffset:0;stroke-opacity:1"
         id="path4624" />
      <path
         d="m 6.2564035,10.255504 q 0,0.221864 -0.048231,0.396875 -0.048231,0.175011 -0.1419379,0.296279 -0.092329,0.119889 -0.2259983,0.183279 -0.1336697,0.06339 -0.3059244,0.06339 -0.1488282,0 -0.2742296,-0.05236 -0.1254015,-0.05237 -0.216352,-0.163987 -0.090951,-0.112999 -0.141938,-0.28801 -0.050987,-0.17501 -0.050987,-0.418923 0,-0.221864 0.048231,-0.3968752 0.049609,-0.1750109 0.1419379,-0.2949002 0.092329,-0.1212673 0.2273763,-0.1846571 0.1350477,-0.06339 0.3059245,-0.06339 0.1488281,0 0.2742296,0.052366 0.1254014,0.052365 0.2149739,0.1639865 0.090951,0.1116211 0.141938,0.286632 0.050987,0.1750113 0.050987,0.4203013 z m -1.0666016,0.0055 q 0,0.02756 0,0.05237 0,0.02343 0.00276,0.04823 L 5.8677967,9.8737878 Q 5.8195654,9.737362 5.7396392,9.6725942 5.661091,9.6064483 5.553604,9.6064483 q -0.07717,0 -0.143316,0.039963 -0.066146,0.038585 -0.1157552,0.1198893 -0.048231,0.081304 -0.07717,0.2039496 -0.027561,0.1226456 -0.027561,0.2907656 z m 0.7276042,0.0055 q 0,-0.02343 -0.00138,-0.04685 -0.00138,-0.0248 -0.00138,-0.04685 l -0.6711046,0.485069 q 0.044097,0.13367 0.1240234,0.198438 0.079926,0.06477 0.1860352,0.06477 0.07717,0 0.143316,-0.03996 0.067524,-0.03996 0.1157552,-0.11989 0.049609,-0.0813 0.07717,-0.203949 0.027561,-0.124024 0.027561,-0.290766 z"
         style="font-style:normal;font-variant:normal;font-weight:bold;font-stretch:normal;font-size:2.82222223px;line-height:2.9104166px;font-family:Consolas;-inkscape-font-specification:'Consolas Bold';text-align:start;letter-spacing:-0.09789583px;text-anchor:start;vector-effect:none;fill:#c6daf3;fill-opacity:1;stroke:none;stroke-width:0.26458332px;stroke-linecap:butt;stroke-linejoin:miter;stroke-miterlimit:4;stroke-dasharray:none;stroke-dashoffset:0;stroke-opacity:1"
         id="path4626" />
      <path
         d="m 7.3091698,10.210029 q 0.067524,0.03721 0.1281576,0.08268 0.062012,0.0441 0.1074869,0.103353 0.046853,0.05788 0.073036,0.132292 0.027561,0.07304 0.027561,0.166743 0,0.122645 -0.049609,0.216352 -0.049609,0.09371 -0.1378039,0.157096 -0.086816,0.06339 -0.2053277,0.09508 -0.1171332,0.03169 -0.253559,0.03169 -0.1515842,0 -0.2687174,-0.03169 -0.1157552,-0.03307 -0.1956815,-0.09233 -0.078548,-0.05926 -0.1198893,-0.143316 -0.039963,-0.08406 -0.039963,-0.187413 0,-0.09233 0.026183,-0.163987 0.027561,-0.07304 0.074414,-0.132291 0.046853,-0.05926 0.107487,-0.106109 0.062012,-0.04685 0.1309136,-0.08682 -0.062012,-0.03583 -0.1171332,-0.07855 -0.053744,-0.04272 -0.095085,-0.09646 -0.041341,-0.05374 -0.066146,-0.1198889 -0.023427,-0.066146 -0.023427,-0.1502062 0,-0.097841 0.037207,-0.1832791 0.038585,-0.086816 0.1129991,-0.1515842 0.075792,-0.064768 0.1887912,-0.1019748 0.1143772,-0.037207 0.2673395,-0.037207 0.1405598,0 0.2508029,0.030317 0.1102431,0.028939 0.1846571,0.08406 0.075792,0.055122 0.1143772,0.1322917 0.039963,0.075792 0.039963,0.1681206 0,0.085438 -0.023427,0.1543403 -0.023427,0.068902 -0.06339,0.1254015 -0.039963,0.05512 -0.095085,0.100597 -0.055122,0.0441 -0.1171333,0.08268 z M 7.0445865,10.080493 q 0.049609,-0.02756 0.092328,-0.05788 0.044097,-0.031695 0.075792,-0.068902 0.031695,-0.037207 0.050987,-0.081304 0.019292,-0.044097 0.019292,-0.097841 0,-0.089572 -0.07028,-0.1364258 -0.07028,-0.046853 -0.2025716,-0.046853 -0.1295356,0 -0.1998155,0.048231 -0.07028,0.048231 -0.07028,0.144694 0,0.052365 0.023427,0.093707 0.023427,0.041341 0.064768,0.07717 0.041341,0.034451 0.096463,0.064768 0.0565,0.03032 0.1198893,0.06063 z m -0.07028,0.304547 q -0.053744,0.02894 -0.1019748,0.06201 -0.046853,0.03307 -0.082682,0.07304 -0.034451,0.03996 -0.055122,0.08819 -0.020671,0.04685 -0.020671,0.106109 0,0.104731 0.081304,0.159852 0.081304,0.05512 0.2149739,0.05512 0.060634,0 0.1143772,-0.0124 0.053743,-0.0124 0.093707,-0.03859 0.041341,-0.02618 0.064768,-0.06615 0.023427,-0.04134 0.023427,-0.09784 0,-0.05788 -0.026183,-0.103353 -0.026183,-0.04685 -0.071658,-0.08544 -0.045475,-0.03859 -0.1061089,-0.07304 -0.060634,-0.03445 -0.1281576,-0.06752 z"
         style="font-style:normal;font-variant:normal;font-weight:bold;font-stretch:normal;font-size:2.82222223px;line-height:2.9104166px;font-family:Consolas;-inkscape-font-specification:'Consolas Bold';text-align:start;letter-spacing:-0.09789583px;text-anchor:start;vector-effect:none;fill:#c6daf3;fill-opacity:1;stroke:none;stroke-width:0.26458332px;stroke-linecap:butt;stroke-linejoin:miter;stroke-miterlimit:4;stroke-dasharray:none;stroke-dashoffset:0;stroke-opacity:1"
         id="path4628" />
      <path
         d="m 10.366926,10.797073 v 0.366559 H 10.038953 V 10.797073 H 9.2011061 v -0.28801 L 9.9039056,9.3625356 h 0.4630204 v 1.1382594 h 0.272852 v 0.296278 z M 10.043087,9.6877526 9.5304572,10.500795 h 0.5126298 z"
         style="font-style:normal;font-variant:normal;font-weight:bold;font-stretch:normal;font-size:2.82222223px;line-height:2.9104166px;font-family:Consolas;-inkscape-font-specification:'Consolas Bold';text-align:start;letter-spacing:-0.09789583px;text-anchor:start;vector-effect:none;fill:#c6daf3;fill-opacity:1;stroke:none;stroke-width:0.26458332px;stroke-linecap:butt;stroke-linejoin:miter;stroke-miterlimit:4;stroke-dasharray:none;stroke-dashoffset:0;stroke-opacity:1"
         id="path4630" />
      <path
         d="m 11.990201,10.587612 q 0,0.144694 -0.06063,0.257693 -0.06063,0.111621 -0.168121,0.188791 -0.107487,0.07717 -0.253559,0.117133 -0.146072,0.03996 -0.316949,0.03996 -0.04272,0 -0.09095,-0.0028 -0.04823,-0.0028 -0.09784,-0.0069 -0.04961,-0.0041 -0.09646,-0.01102 -0.04685,-0.0055 -0.08682,-0.0124 v -0.293522 q 0.07855,0.01929 0.180523,0.0317 0.101975,0.01102 0.208084,0.01102 0.206706,0 0.314193,-0.07855 0.108865,-0.07993 0.108865,-0.220486 0,-0.146072 -0.100597,-0.216352 -0.100597,-0.07166 -0.325217,-0.07166 H 10.851941 V 9.3625356 h 1.039041 v 0.3169488 h -0.724848 v 0.3665586 h 0.129535 q 0.137804,0 0.263206,0.0248 0.125401,0.0248 0.220486,0.08682 0.09646,0.06063 0.152962,0.165364 0.05788,0.104731 0.05788,0.264584 z"
         style="font-style:normal;font-variant:normal;font-weight:bold;font-stretch:normal;font-size:2.82222223px;line-height:2.9104166px;font-family:Consolas;-inkscape-font-specification:'Consolas Bold';text-align:start;letter-spacing:-0.09789583px;text-anchor:start;vector-effect:none;fill:#c6daf3;fill-opacity:1;stroke:none;stroke-width:0.26458332px;stroke-linecap:butt;stroke-linejoin:miter;stroke-miterlimit:4;stroke-dasharray:none;stroke-dashoffset:0;stroke-opacity:1"
         id="path4632" />
      <path
         d="m 13.279988,10.797073 v 0.366559 h -0.327973 v -0.366559 h -0.837847 v -0.28801 l 0.7028,-1.1465274 h 0.46302 v 1.1382594 h 0.272852 v 0.296278 z M 12.95615,9.6877526 12.443519,10.500795 h 0.512631 z"
         style="font-style:normal;font-variant:normal;font-weight:bold;font-stretch:normal;font-size:2.82222223px;line-height:2.9104166px;font-family:Consolas;-inkscape-font-specification:'Consolas Bold';text-align:start;letter-spacing:-0.09789583px;text-anchor:start;vector-effect:none;fill:#c6daf3;fill-opacity:1;stroke:none;stroke-width:0.26458332px;stroke-linecap:butt;stroke-linejoin:miter;stroke-miterlimit:4;stroke-dasharray:none;stroke-dashoffset:0;stroke-opacity:1"
         id="path4634" />
      <path
         d="m 14.190817,11.163632 h -0.380339 l 0.71658,-1.4758794 h -0.86403 v -0.325217 h 1.251259 v 0.2935221 z"
         style="font-style:normal;font-variant:normal;font-weight:bold;font-stretch:normal;font-size:2.82222223px;line-height:2.9104166px;font-family:Consolas;-inkscape-font-specification:'Consolas Bold';text-align:start;letter-spacing:-0.09789583px;text-anchor:start;vector-effect:none;fill:#c6daf3;fill-opacity:1;stroke:none;stroke-width:0.26458332px;stroke-linecap:butt;stroke-linejoin:miter;stroke-miterlimit:4;stroke-dasharray:none;stroke-dashoffset:0;stroke-opacity:1"
         id="path4636" />
      <path
         d="m 3.3433409,13.165921 q 0,0.221864 -0.048231,0.396875 -0.048231,0.175011 -0.141938,0.296278 -0.092328,0.11989 -0.2259982,0.183279 -0.1336697,0.06339 -0.3059245,0.06339 -0.1488281,0 -0.2742296,-0.05236 -0.1254015,-0.05237 -0.216352,-0.163987 -0.09095,-0.112999 -0.1419379,-0.28801 -0.050987,-0.175011 -0.050987,-0.418924 0,-0.221864 0.048231,-0.396875 0.049609,-0.17501 0.1419379,-0.2949 0.092329,-0.121267 0.2273763,-0.184657 0.1350478,-0.06339 0.3059245,-0.06339 0.1488281,0 0.2742296,0.05237 0.1254015,0.05236 0.214974,0.163986 0.09095,0.111622 0.1419379,0.286632 0.050987,0.175011 0.050987,0.420302 z m -1.0666016,0.0055 q 0,0.02756 0,0.05237 0,0.02343 0.00276,0.04823 l 0.6752387,-0.487826 q -0.048231,-0.136425 -0.1281575,-0.201193 -0.078548,-0.06615 -0.1860352,-0.06615 -0.07717,0 -0.1433159,0.03996 -0.066146,0.03859 -0.1157553,0.119889 -0.048231,0.08131 -0.07717,0.20395 -0.027561,0.122646 -0.027561,0.290766 z m 0.7276042,0.0055 q 0,-0.02343 -0.00138,-0.04685 -0.00138,-0.0248 -0.00138,-0.04685 l -0.6711046,0.485069 q 0.044097,0.13367 0.1240235,0.198438 0.079926,0.06477 0.1860351,0.06477 0.07717,0 0.143316,-0.03996 0.067524,-0.03996 0.1157552,-0.119889 0.049609,-0.0813 0.07717,-0.20395 0.027561,-0.124023 0.027561,-0.290766 z"
         style="font-style:normal;font-variant:normal;font-weight:bold;font-stretch:normal;font-size:2.82222223px;line-height:2.9104166px;font-family:Consolas;-inkscape-font-specification:'Consolas Bold';text-align:start;letter-spacing:-0.09789583px;text-anchor:start;vector-effect:none;fill:#c6daf3;fill-opacity:1;stroke:none;stroke-width:0.26458332px;stroke-linecap:butt;stroke-linejoin:miter;stroke-miterlimit:4;stroke-dasharray:none;stroke-dashoffset:0;stroke-opacity:1"
         id="path4638" />
      <path
         d="M 4.4140215,14.074048 4.0943166,13.602759 3.7732337,14.074048 H 3.3667125 L 3.891745,13.368493 3.3942732,12.673961 h 0.4092774 l 0.3141927,0.460265 0.3100586,-0.460265 h 0.3775824 l -0.4823133,0.691776 0.5084961,0.708311 z"
         style="font-style:normal;font-variant:normal;font-weight:bold;font-stretch:normal;font-size:2.82222223px;line-height:2.9104166px;font-family:Consolas;-inkscape-font-specification:'Consolas Bold';text-align:start;letter-spacing:-0.09789583px;text-anchor:start;vector-effect:none;fill:#c6daf3;fill-opacity:1;stroke:none;stroke-width:0.26458332px;stroke-linecap:butt;stroke-linejoin:miter;stroke-miterlimit:4;stroke-dasharray:none;stroke-dashoffset:0;stroke-opacity:1"
         id="path4640" />
      <path
         d="m 6.2564035,13.165921 q 0,0.221864 -0.048231,0.396875 -0.048231,0.175011 -0.1419379,0.296278 -0.092329,0.11989 -0.2259983,0.183279 -0.1336697,0.06339 -0.3059244,0.06339 -0.1488282,0 -0.2742296,-0.05236 -0.1254015,-0.05237 -0.216352,-0.163987 -0.090951,-0.112999 -0.141938,-0.28801 -0.050987,-0.175011 -0.050987,-0.418924 0,-0.221864 0.048231,-0.396875 0.049609,-0.17501 0.1419379,-0.2949 0.092329,-0.121267 0.2273763,-0.184657 0.1350477,-0.06339 0.3059245,-0.06339 0.1488281,0 0.2742296,0.05237 0.1254014,0.05236 0.2149739,0.163986 0.090951,0.111622 0.141938,0.286632 0.050987,0.175011 0.050987,0.420302 z m -1.0666016,0.0055 q 0,0.02756 0,0.05237 0,0.02343 0.00276,0.04823 l 0.6752387,-0.487826 q -0.048231,-0.136425 -0.1281575,-0.201193 -0.078548,-0.06615 -0.1860352,-0.06615 -0.07717,0 -0.143316,0.03996 -0.066146,0.03859 -0.1157552,0.119889 -0.048231,0.08131 -0.07717,0.20395 -0.027561,0.122646 -0.027561,0.290766 z m 0.7276042,0.0055 q 0,-0.02343 -0.00138,-0.04685 -0.00138,-0.0248 -0.00138,-0.04685 l -0.6711046,0.485069 q 0.044097,0.13367 0.1240234,0.198438 0.079926,0.06477 0.1860352,0.06477 0.07717,0 0.143316,-0.03996 0.067524,-0.03996 0.1157552,-0.119889 0.049609,-0.0813 0.07717,-0.20395 0.027561,-0.124023 0.027561,-0.290766 z"
         style="font-style:normal;font-variant:normal;font-weight:bold;font-stretch:normal;font-size:2.82222223px;line-height:2.9104166px;font-family:Consolas;-inkscape-font-specification:'Consolas Bold';text-align:start;letter-spacing:-0.09789583px;text-anchor:start;vector-effect:none;fill:#c6daf3;fill-opacity:1;stroke:none;stroke-width:0.26458332px;stroke-linecap:butt;stroke-linejoin:miter;stroke-miterlimit:4;stroke-dasharray:none;stroke-dashoffset:0;stroke-opacity:1"
         id="path4642" />
      <path
         d="m 6.8323686,12.559584 v 0.49885 h 0.6807509 v 0.278364 H 6.8323686 v 0.73725 H 6.487859 v -1.801096 h 1.0638455 v 0.286632 z"
         style="font-style:normal;font-variant:normal;font-weight:bold;font-stretch:normal;font-size:2.82222223px;line-height:2.9104166px;font-family:Consolas;-inkscape-font-specification:'Consolas Bold';text-align:start;letter-spacing:-0.09789583px;text-anchor:start;vector-effect:none;fill:#c6daf3;fill-opacity:1;stroke:none;stroke-width:0.26458332px;stroke-linecap:butt;stroke-linejoin:miter;stroke-miterlimit:4;stroke-dasharray:none;stroke-dashoffset:0;stroke-opacity:1"
         id="path4644" />
      <path
         d="m 10.366926,13.70749 v 0.366558 H 10.038953 V 13.70749 H 9.2011061 v -0.28801 l 0.7027995,-1.146528 h 0.4630204 v 1.13826 h 0.272852 v 0.296278 z m -0.323839,-1.109321 -0.5126298,0.813043 h 0.5126298 z"
         style="font-style:normal;font-variant:normal;font-weight:bold;font-stretch:normal;font-size:2.82222223px;line-height:2.9104166px;font-family:Consolas;-inkscape-font-specification:'Consolas Bold';text-align:start;letter-spacing:-0.09789583px;text-anchor:start;vector-effect:none;fill:#c6daf3;fill-opacity:1;stroke:none;stroke-width:0.26458332px;stroke-linecap:butt;stroke-linejoin:miter;stroke-miterlimit:4;stroke-dasharray:none;stroke-dashoffset:0;stroke-opacity:1"
         id="path4646" />
      <path
         d="m 11.775227,14.074048 -0.09922,-0.355534 h -0.628386 l -0.101974,0.355534 h -0.336242 l 0.533301,-1.801096 h 0.474045 l 0.533301,1.801096 z m -0.409278,-1.470367 -0.237022,0.837848 h 0.471289 z"
         style="font-style:normal;font-variant:normal;font-weight:bold;font-stretch:normal;font-size:2.82222223px;line-height:2.9104166px;font-family:Consolas;-inkscape-font-specification:'Consolas Bold';text-align:start;letter-spacing:-0.09789583px;text-anchor:start;vector-effect:none;fill:#c6daf3;fill-opacity:1;stroke:none;stroke-width:0.26458332px;stroke-linecap:butt;stroke-linejoin:miter;stroke-miterlimit:4;stroke-dasharray:none;stroke-dashoffset:0;stroke-opacity:1"
         id="path4648" />
      <path
         d="m 13.279988,13.70749 v 0.366558 H 12.952015 V 13.70749 h -0.837847 v -0.28801 l 0.7028,-1.146528 h 0.46302 v 1.13826 h 0.272852 v 0.296278 z m -0.323838,-1.109321 -0.512631,0.813043 h 0.512631 z"
         style="font-style:normal;font-variant:normal;font-weight:bold;font-stretch:normal;font-size:2.82222223px;line-height:2.9104166px;font-family:Consolas;-inkscape-font-specification:'Consolas Bold';text-align:start;letter-spacing:-0.09789583px;text-anchor:start;vector-effect:none;fill:#c6daf3;fill-opacity:1;stroke:none;stroke-width:0.26458332px;stroke-linecap:butt;stroke-linejoin:miter;stroke-miterlimit:4;stroke-dasharray:none;stroke-dashoffset:0;stroke-opacity:1"
         id="path4650" />
      <path
         d="m 14.995591,13.150763 q 0,0.209461 -0.05236,0.380338 -0.05099,0.170877 -0.161231,0.292144 -0.108865,0.11989 -0.279741,0.186035 -0.170877,0.06477 -0.409278,0.06477 h -0.457509 v -1.801096 h 0.533301 q 0.206706,0 0.361046,0.05237 0.155719,0.05099 0.259071,0.158474 0.103353,0.107487 0.154341,0.272852 0.05236,0.165364 0.05236,0.394119 z m -0.363802,0.02205 q 0,-0.146072 -0.02343,-0.260449 -0.02343,-0.114377 -0.07993,-0.192925 -0.05512,-0.07993 -0.148828,-0.121268 -0.09371,-0.04134 -0.232888,-0.04134 h -0.172255 v 1.233344 h 0.148828 q 0.249425,0 0.378961,-0.148828 0.129535,-0.148828 0.129535,-0.468533 z"
         style="font-style:normal;font-variant:normal;font-weight:bold;font-stretch:normal;font-size:2.82222223px;line-height:2.9104166px;font-family:Consolas;-inkscape-font-specification:'Consolas Bold';text-align:start;letter-spacing:-0.09789583px;text-anchor:start;vector-effect:none;fill:#c6daf3;fill-opacity:1;stroke:none;stroke-width:0.26458332px;stroke-linecap:butt;stroke-linejoin:miter;stroke-miterlimit:4;stroke-dasharray:none;stroke-dashoffset:0;stroke-opacity:1"
         id="path4652" />
    </g>
  </g>
</svg>
