<svg xmlns="http://www.w3.org/2000/svg" width="1024" height="1024"><path d="M400 384h64v16h32v16h32v-16h32v-16h64v16h16v16h16v16h16v-16h80v32h48v32h-16v32h-16v16h-16v16h-48v16h-16v48h-64v-16h-32v16h-16v16h-16v16h-16v16h-64v-16h-16v-16h-16v-16h-16v-16h-32v16h-64v-48h-16v-16h-48v-16h-16v-16h-16v-32h-16v-32h48v-32h80v16h16v-16h16v-16h16Z"/><path fill="#fff" d="M416 400h32v16h32v16h16v32h32v-32h16v-16h32v-16h32v16h16v16h16v96h-16v16h-16v16h-16v16h-16v16h-16v16h-16v16h-16v16h-32v-16h-16v-16h-16v-16h-16v-16h-16v-16h-16v-16h-16v-16h-16v-96h16v-16h16Z"/><path fill="#CE2B37" d="M672 416h80v32h48v32h-32v16h-16v16h-16v16h-48v16h-16v16h-16v16h16v16h-32v-16h-32v-32h16v-16h32v-80h16Z"/><path fill="#009246" d="M272 416h80v32h16v96h16v16h16v16h-16v16h-32v-16h16v-16h-16v-16h-16v-16h-48v-16h-16v-16h-16v-16h-32v-32h48Z"/><path d="M672 416h80v32h48v32h-16v-16h-64v-16h16v-16h-64ZM272 416h80v16h-64v16h16v16h-64v16h-16v-32h48ZM608 544h16v16h-16Z"/><path d="M624 528h16v16h-16ZM704 464h16v16h-16ZM304 464h16v16h-16Z"/></svg>