<?xml version="1.0" encoding="UTF-8" standalone="no"?>
<!-- Created with Inkscape (http://www.inkscape.org/) -->

<svg
   xmlns:dc="http://purl.org/dc/elements/1.1/"
   xmlns:cc="http://creativecommons.org/ns#"
   xmlns:rdf="http://www.w3.org/1999/02/22-rdf-syntax-ns#"
   xmlns:svg="http://www.w3.org/2000/svg"
   xmlns="http://www.w3.org/2000/svg"
   xmlns:xlink="http://www.w3.org/1999/xlink"
   xmlns:sodipodi="http://sodipodi.sourceforge.net/DTD/sodipodi-0.dtd"
   xmlns:inkscape="http://www.inkscape.org/namespaces/inkscape"
   width="284.61575"
   height="315.51797"
   id="svg4229"
   version="1.1"
   inkscape:version="0.48.5 r10040"
   sodipodi:docname="Nouveau document 8">
  <defs
     id="defs4231">
    <linearGradient
       id="linearGradient4047">
      <stop
         style="stop-color:#bdbdbd;stop-opacity:1;"
         offset="0"
         id="stop4049" />
      <stop
         style="stop-color:#000000;stop-opacity:0.5106383;"
         offset="1"
         id="stop4051" />
    </linearGradient>
    <linearGradient
       id="linearGradient3938">
      <stop
         style="stop-color:#0745d0;stop-opacity:1;"
         offset="0"
         id="stop3940" />
      <stop
         style="stop-color:#7888ab;stop-opacity:0.4609929;"
         offset="1"
         id="stop3942" />
    </linearGradient>
    <linearGradient
       id="linearGradient3978">
      <stop
         style="stop-color:#0063c6;stop-opacity:1;"
         offset="0"
         id="stop3981" />
      <stop
         style="stop-color:#95a6b7;stop-opacity:0.53191489;"
         offset="1"
         id="stop3983" />
    </linearGradient>
    <linearGradient
       inkscape:collect="always"
       xlink:href="#linearGradient3898"
       id="linearGradient3920"
       gradientUnits="userSpaceOnUse"
       gradientTransform="matrix(0.62671682,-0.29642431,0.475469,1.0351926,-233.44621,196.18433)"
       x1="598.20306"
       y1="339.17004"
       x2="610.20306"
       y2="339.17004" />
    <linearGradient
       id="linearGradient3898">
      <stop
         style="stop-color:#708aa4;stop-opacity:1;"
         offset="0"
         id="stop3900" />
      <stop
         style="stop-color:#9ca7bc;stop-opacity:0.81560284;"
         offset="1"
         id="stop3902" />
    </linearGradient>
    <linearGradient
       gradientTransform="translate(-229.81291,651.73413)"
       inkscape:collect="always"
       xlink:href="#linearGradient4074"
       id="linearGradient4080"
       x1="256.52228"
       y1="363.9075"
       x2="975.78491"
       y2="363.9075"
       gradientUnits="userSpaceOnUse" />
    <linearGradient
       inkscape:collect="always"
       id="linearGradient4074">
      <stop
         style="stop-color:#000000;stop-opacity:1;"
         offset="0"
         id="stop4076" />
      <stop
         style="stop-color:#000000;stop-opacity:0;"
         offset="1"
         id="stop4078" />
    </linearGradient>
    <linearGradient
       inkscape:collect="always"
       xlink:href="#linearGradient4457"
       id="linearGradient3098"
       gradientUnits="userSpaceOnUse"
       x1="62.252197"
       y1="282.51736"
       x2="302.26953"
       y2="282.51736" />
    <linearGradient
       id="linearGradient4457">
      <stop
         style="stop-color:#0c6c9b;stop-opacity:1;"
         offset="0"
         id="stop4459" />
      <stop
         id="stop4465"
         offset="1"
         style="stop-color:#656d84;stop-opacity:0.49803922;" />
    </linearGradient>
    <linearGradient
       inkscape:collect="always"
       xlink:href="#linearGradient3978"
       id="linearGradient4496"
       gradientUnits="userSpaceOnUse"
       x1="764.78876"
       y1="234.53206"
       x2="836.61969"
       y2="234.53206" />
    <linearGradient
       inkscape:collect="always"
       xlink:href="#linearGradient3938"
       id="linearGradient4498"
       gradientUnits="userSpaceOnUse"
       gradientTransform="matrix(0.60017085,0,0,0.56019332,103.0919,32.051732)"
       x1="695.28296"
       y1="239.59866"
       x2="901.737"
       y2="239.59866" />
    <linearGradient
       inkscape:collect="always"
       xlink:href="#linearGradient4047"
       id="linearGradient4500"
       gradientUnits="userSpaceOnUse"
       gradientTransform="matrix(0.60017085,0,0,0.56019332,101.70261,33.867182)"
       x1="663.75446"
       y1="226.18797"
       x2="952.06952"
       y2="226.18797" />
  </defs>
  <sodipodi:namedview
     id="base"
     pagecolor="#ffffff"
     bordercolor="#666666"
     borderopacity="1.0"
     inkscape:pageopacity="0.0"
     inkscape:pageshadow="2"
     inkscape:zoom="0.71"
     inkscape:cx="191.9085"
     inkscape:cy="110.7835"
     inkscape:document-units="px"
     inkscape:current-layer="layer1"
     showgrid="false"
     fit-margin-top="0"
     fit-margin-left="0"
     fit-margin-right="0"
     fit-margin-bottom="0"
     inkscape:window-width="985"
     inkscape:window-height="578"
     inkscape:window-x="20"
     inkscape:window-y="21"
     inkscape:window-maximized="0" />
  <metadata
     id="metadata4234">
    <rdf:RDF>
      <cc:Work
         rdf:about="">
        <dc:format>image/svg+xml</dc:format>
        <dc:type
           rdf:resource="http://purl.org/dc/dcmitype/StillImage" />
        <dc:title></dc:title>
      </cc:Work>
    </rdf:RDF>
  </metadata>
  <g
     inkscape:label="Calque 1"
     inkscape:groupmode="layer"
     id="layer1"
     transform="translate(-126.75347,-129.21718)">
    <g
       id="g3056"
       transform="translate(109.09971,10.723333)">
      <path
         sodipodi:nodetypes="cccccccccccccccccccccssc"
         inkscape:connector-curvature="0"
         id="path3171"
         d="m 162.74655,195.41626 c 20.46224,13.83655 26.45395,35.09754 81.15589,20.36055 18.13197,-4.85845 36.10056,-22.72216 31.07886,-41.46341 -11.36239,-19.68023 -27.12355,-13.76204 -60.34715,-8.53658 7.52931,-24.7285 6.83208,-28.92768 1.95734,-29.61824 -11.2681,-5.06193 -42.35833,-7.10916 -47.07929,4.00848 -1.59791,8.18816 3.05955,18.27113 4.87804,26.82927 -12.83032,1.52424 -39.52307,-2.63454 -48.23965,23.17073 8.28798,37.43692 40.33446,15.70914 45.20958,24.98129 20.23759,36.49335 55.43769,48.08083 68.88373,60.38457 16.52622,15.15346 15.07329,50.41353 14.63415,69.51219 C 243.93442,388.86809 220.77062,394.33329 200,399.92316 152.34644,407.83191 124.1974,388.92674 98.780488,364.55731 90.884519,349.28255 76.34261,338.2147 74.390243,316.99633 c 1.016849,-10.56793 12.773791,-20.99339 21.951218,-25.60976 14.335999,-8.27689 3.736999,-14.13876 -4.272031,-11.58911 -5.998031,4.30402 -22.250811,5.9818 -28.654796,29.8818 -1.132862,13.24133 6.447529,33.4464 15.853659,48.78049 14.707256,26.93494 39.754087,51.37773 69.512197,64.63414 12.80586,7.73433 65.84742,15.05937 102.43902,4.87805 38.71787,-19.24459 50.00001,-41.96161 50.00001,-91.46341 0,-39.22509 -16.90467,-53.62909 -45.12196,-75.60976 -22.74648,-17.71902 -68.57139,-19.72703 -57.31708,-36.58537 l 3.65107,-5.4691"
         style="fill:url(#linearGradient3098);fill-opacity:1;stroke:#000000;stroke-width:2.0999999;stroke-linecap:butt;stroke-linejoin:miter;stroke-miterlimit:4;stroke-opacity:1;stroke-dasharray:none" />
      <path
         transform="matrix(1.3623131,0.57422751,-0.26556211,1.5344408,-25.181308,-242.18768)"
         sodipodi:open="true"
         sodipodi:end="6.2064134"
         sodipodi:start="0"
         d="m 207.31707,179.19145 c 0,8.75574 -5.45994,15.85366 -12.19512,15.85366 -6.73518,0 -12.19512,-7.09792 -12.19512,-15.85366 0,-8.75573 5.45994,-15.85366 12.19512,-15.85366 6.37239,0 11.67046,6.37803 12.1592,14.63774"
         sodipodi:ry="15.853659"
         sodipodi:rx="12.195122"
         sodipodi:cy="179.19145"
         sodipodi:cx="195.12195"
         id="path3173"
         style="fill:#ffffff;fill-opacity:1;stroke:#000000;stroke-width:1.33628261;stroke-linecap:butt;stroke-miterlimit:4;stroke-opacity:1;stroke-dasharray:none;stroke-dashoffset:0"
         sodipodi:type="arc" />
      <path
         transform="matrix(0.11293887,0.75414524,-0.0747065,0.55939022,183.90082,-99.972584)"
         sodipodi:open="true"
         sodipodi:end="6.2064134"
         sodipodi:start="0"
         d="m 207.31707,179.19145 c 0,8.75574 -5.45994,15.85366 -12.19512,15.85366 -6.73518,0 -12.19512,-7.09792 -12.19512,-15.85366 0,-8.75573 5.45994,-15.85366 12.19512,-15.85366 6.37239,0 11.67046,6.37803 12.1592,14.63774"
         sodipodi:ry="15.853659"
         sodipodi:rx="12.195122"
         sodipodi:cy="179.19145"
         sodipodi:cx="195.12195"
         id="path3173-0"
         style="fill:#000000;fill-opacity:1;stroke:#000000;stroke-width:5.35210037;stroke-linecap:butt;stroke-miterlimit:4;stroke-opacity:1;stroke-dasharray:none;stroke-dashoffset:0"
         sodipodi:type="arc" />
      <path
         sodipodi:nodetypes="cscscccsscsssccc"
         inkscape:connector-curvature="0"
         id="path3968"
         d="m 292.63804,338.25175 c 0.55628,13.47612 -0.0761,25.18207 -3.61758,37.44163 -2.35516,8.15296 -9.06437,16.27943 -15.40082,24.52156 -4.51578,5.84829 -13.8964,11.99533 -20.7648,15.52076 -10.42485,5.35088 -19.56646,9.58714 -27.49944,12.0792 -6.43513,2.62036 -13.3538,2.62102 -19.93495,4.20827 l 1.91929,0 c 5.476,-0.49158 25.01921,0.81944 43.31036,-4.96433 8.56316,-2.70773 16.87952,-8.46547 26.11179,-17.16237 5.07163,-4.77753 11.2534,-13.01072 13.44438,-16.63943 1.53054,-2.94379 3.40564,-7.54702 4.52784,-11.38333 1.97103,-6.73804 3.60734,-14.74867 4.89879,-24.22313 0.7015,-5.14637 1.11591,-9.90301 1.0546,-15.62378 -0.0973,-9.08102 -0.79348,-22.07325 -3.75498,-30.76891 -5.94492,-22.34295 -15.9628,-26.49084 -25.76688,-37.13508 10.83965,20.94361 20.64916,42.09245 21.4724,64.12894 z"
         style="fill:#eff0a7;fill-opacity:1;stroke:none" />
      <path
         sodipodi:nodetypes="cccc"
         inkscape:connector-curvature="0"
         id="path3970"
         d="m 255.87944,210.93679 c 2.11201,4.59017 1.50684,6.28256 -2.27273,10.51137 7.84807,-1.091 8.8036,-9.3893 8.80683,-15.34091 z"
         style="fill:#d6d6a9;fill-opacity:1;stroke:#000000;stroke-width:1px;stroke-linecap:butt;stroke-linejoin:miter;stroke-opacity:1" />
      <path
         sodipodi:nodetypes="cscsccccccccc"
         inkscape:connector-curvature="0"
         id="path3972"
         d="m 229.32735,214.61782 c 7.90145,9.74494 9.20718,18.08729 7.39006,19.88916 -2.0037,1.98692 -3.1338,2.5799 -3.63485,3.62733 0.13945,0.89181 1.5457,1.91481 3.5597,2.27363 7.0815,1.26165 13.95756,2.5836 14.03587,5.48036 l -4.22596,6.6464 0,0 8.02175,-4.75181 7.39033,4.27843 c -3.40899,-3.22169 -2.75333,-6.3782 -10.24681,-9.66539 -4.47359,-1.44777 -10.18759,-0.95764 -13.54707,-4.54397 6.47766,-8.67261 2.4666,-10.84161 -2.41227,-19.52305 z"
         style="fill:#ff7e7d;fill-opacity:1;stroke:#000000;stroke-width:0.77647746px;stroke-linecap:butt;stroke-linejoin:miter;stroke-opacity:1" />
      <path
         transform="matrix(0.29416696,-0.08796001,0.11275105,0.22948727,189.50526,302.50374)"
         sodipodi:open="true"
         sodipodi:end="6.2064134"
         sodipodi:start="0"
         d="m 207.31707,179.19145 c 0,8.75574 -5.45994,15.85366 -12.19512,15.85366 -6.73518,0 -12.19512,-7.09792 -12.19512,-15.85366 0,-8.75573 5.45994,-15.85366 12.19512,-15.85366 6.37239,0 11.67046,6.37803 12.1592,14.63774"
         sodipodi:ry="15.853659"
         sodipodi:rx="12.195122"
         sodipodi:cy="179.19145"
         sodipodi:cx="195.12195"
         id="path3173-0-2"
         style="fill:#981b92;fill-opacity:1;stroke:none"
         sodipodi:type="arc" />
      <path
         transform="matrix(0.12698777,0.05326643,-0.0567639,0.12860129,256.19097,284.76495)"
         sodipodi:open="true"
         sodipodi:end="6.2064134"
         sodipodi:start="0"
         d="m 207.31707,179.19145 c 0,8.75574 -5.45994,15.85366 -12.19512,15.85366 -6.73518,0 -12.19512,-7.09792 -12.19512,-15.85366 0,-8.75573 5.45994,-15.85366 12.19512,-15.85366 6.37239,0 11.67046,6.37803 12.1592,14.63774"
         sodipodi:ry="15.853659"
         sodipodi:rx="12.195122"
         sodipodi:cy="179.19145"
         sodipodi:cx="195.12195"
         id="path3173-0-2-2"
         style="fill:#981b92;fill-opacity:1;stroke:none"
         sodipodi:type="arc" />
      <path
         transform="matrix(0.12698777,0.05326643,-0.0567639,0.12860129,259.10041,292.41586)"
         sodipodi:open="true"
         sodipodi:end="6.2064134"
         sodipodi:start="0"
         d="m 207.31707,179.19145 c 0,8.75574 -5.45994,15.85366 -12.19512,15.85366 -6.73518,0 -12.19512,-7.09792 -12.19512,-15.85366 0,-8.75573 5.45994,-15.85366 12.19512,-15.85366 6.37239,0 11.67046,6.37803 12.1592,14.63774"
         sodipodi:ry="15.853659"
         sodipodi:rx="12.195122"
         sodipodi:cy="179.19145"
         sodipodi:cx="195.12195"
         id="path3173-0-2-2-3"
         style="fill:#981b92;fill-opacity:1;stroke:none"
         sodipodi:type="arc" />
      <path
         transform="matrix(0.12698777,0.05326643,-0.0567639,0.12860129,257.59178,301.89862)"
         sodipodi:open="true"
         sodipodi:end="6.2064134"
         sodipodi:start="0"
         d="m 207.31707,179.19145 c 0,8.75574 -5.45994,15.85366 -12.19512,15.85366 -6.73518,0 -12.19512,-7.09792 -12.19512,-15.85366 0,-8.75573 5.45994,-15.85366 12.19512,-15.85366 6.37239,0 11.67046,6.37803 12.1592,14.63774"
         sodipodi:ry="15.853659"
         sodipodi:rx="12.195122"
         sodipodi:cy="179.19145"
         sodipodi:cx="195.12195"
         id="path3173-0-2-2-3-6"
         style="fill:#981b92;fill-opacity:1;stroke:none"
         sodipodi:type="arc" />
      <path
         transform="matrix(0.29416696,-0.08796001,0.11275105,0.22948727,169.56018,372.70851)"
         sodipodi:open="true"
         sodipodi:end="6.2064134"
         sodipodi:start="0"
         d="m 207.31707,179.19145 c 0,8.75574 -5.45994,15.85366 -12.19512,15.85366 -6.73518,0 -12.19512,-7.09792 -12.19512,-15.85366 0,-8.75573 5.45994,-15.85366 12.19512,-15.85366 6.37239,0 11.67046,6.37803 12.1592,14.63774"
         sodipodi:ry="15.853659"
         sodipodi:rx="12.195122"
         sodipodi:cy="179.19145"
         sodipodi:cx="195.12195"
         id="path3173-0-2-8"
         style="fill:#981b92;fill-opacity:1;stroke:none"
         sodipodi:type="arc" />
      <path
         transform="matrix(0.12698777,0.05326643,-0.0567639,0.12860129,224.17692,360.35765)"
         sodipodi:open="true"
         sodipodi:end="6.2064134"
         sodipodi:start="0"
         d="m 207.31707,179.19145 c 0,8.75574 -5.45994,15.85366 -12.19512,15.85366 -6.73518,0 -12.19512,-7.09792 -12.19512,-15.85366 0,-8.75573 5.45994,-15.85366 12.19512,-15.85366 6.37239,0 11.67046,6.37803 12.1592,14.63774"
         sodipodi:ry="15.853659"
         sodipodi:rx="12.195122"
         sodipodi:cy="179.19145"
         sodipodi:cx="195.12195"
         id="path3173-0-2-2-5"
         style="fill:#981b92;fill-opacity:1;stroke:none"
         sodipodi:type="arc" />
      <path
         transform="matrix(0.12698777,0.05326643,-0.0567639,0.12860129,239.58636,356.80166)"
         sodipodi:open="true"
         sodipodi:end="6.2064134"
         sodipodi:start="0"
         d="m 207.31707,179.19145 c 0,8.75574 -5.45994,15.85366 -12.19512,15.85366 -6.73518,0 -12.19512,-7.09792 -12.19512,-15.85366 0,-8.75573 5.45994,-15.85366 12.19512,-15.85366 6.37239,0 11.67046,6.37803 12.1592,14.63774"
         sodipodi:ry="15.853659"
         sodipodi:rx="12.195122"
         sodipodi:cy="179.19145"
         sodipodi:cx="195.12195"
         id="path3173-0-2-2-3-2"
         style="fill:#981b92;fill-opacity:1;stroke:none"
         sodipodi:type="arc" />
      <path
         transform="matrix(0.12698777,0.05326643,-0.0567639,0.12860129,238.07773,366.28442)"
         sodipodi:open="true"
         sodipodi:end="6.2064134"
         sodipodi:start="0"
         d="m 207.31707,179.19145 c 0,8.75574 -5.45994,15.85366 -12.19512,15.85366 -6.73518,0 -12.19512,-7.09792 -12.19512,-15.85366 0,-8.75573 5.45994,-15.85366 12.19512,-15.85366 6.37239,0 11.67046,6.37803 12.1592,14.63774"
         sodipodi:ry="15.853659"
         sodipodi:rx="12.195122"
         sodipodi:cy="179.19145"
         sodipodi:cx="195.12195"
         id="path3173-0-2-2-3-6-4"
         style="fill:#981b92;fill-opacity:1;stroke:none"
         sodipodi:type="arc" />
      <path
         transform="matrix(0.07991127,-0.11214898,0.11295311,0.08367812,207.70181,410.11257)"
         sodipodi:open="true"
         sodipodi:end="6.2064134"
         sodipodi:start="0"
         d="m 207.31707,179.19145 c 0,8.75574 -5.45994,15.85366 -12.19512,15.85366 -6.73518,0 -12.19512,-7.09792 -12.19512,-15.85366 0,-8.75573 5.45994,-15.85366 12.19512,-15.85366 6.37239,0 11.67046,6.37803 12.1592,14.63774"
         sodipodi:ry="15.853659"
         sodipodi:rx="12.195122"
         sodipodi:cy="179.19145"
         sodipodi:cx="195.12195"
         id="path3173-0-2-2-3-2-5"
         style="fill:#981b92;fill-opacity:1;stroke:none"
         sodipodi:type="arc" />
      <path
         transform="matrix(0.11369517,-0.18191773,0.16070603,0.13573493,195.57015,398.98838)"
         sodipodi:open="true"
         sodipodi:end="6.2064134"
         sodipodi:start="0"
         d="m 207.31707,179.19145 c 0,8.75574 -5.45994,15.85366 -12.19512,15.85366 -6.73518,0 -12.19512,-7.09792 -12.19512,-15.85366 0,-8.75573 5.45994,-15.85366 12.19512,-15.85366 6.37239,0 11.67046,6.37803 12.1592,14.63774"
         sodipodi:ry="15.853659"
         sodipodi:rx="12.195122"
         sodipodi:cy="179.19145"
         sodipodi:cx="195.12195"
         id="path3173-0-2-2-3-2-5-0"
         style="fill:#981b92;fill-opacity:1;stroke:none"
         sodipodi:type="arc" />
      <path
         transform="matrix(0.11369517,-0.18191773,0.16070603,0.13573493,148.44577,423.68104)"
         sodipodi:open="true"
         sodipodi:end="6.2064134"
         sodipodi:start="0"
         d="m 207.31707,179.19145 c 0,8.75574 -5.45994,15.85366 -12.19512,15.85366 -6.73518,0 -12.19512,-7.09792 -12.19512,-15.85366 0,-8.75573 5.45994,-15.85366 12.19512,-15.85366 6.37239,0 11.67046,6.37803 12.1592,14.63774"
         sodipodi:ry="15.853659"
         sodipodi:rx="12.195122"
         sodipodi:cy="179.19145"
         sodipodi:cx="195.12195"
         id="path3173-0-2-2-3-2-5-0-5"
         style="fill:#981b92;fill-opacity:1;stroke:none"
         sodipodi:type="arc" />
      <path
         transform="matrix(0.12698777,0.05326643,-0.0567639,0.12860129,179.64983,376.79011)"
         sodipodi:open="true"
         sodipodi:end="6.2064134"
         sodipodi:start="0"
         d="m 207.31707,179.19145 c 0,8.75574 -5.45994,15.85366 -12.19512,15.85366 -6.73518,0 -12.19512,-7.09792 -12.19512,-15.85366 0,-8.75573 5.45994,-15.85366 12.19512,-15.85366 6.37239,0 11.67046,6.37803 12.1592,14.63774"
         sodipodi:ry="15.853659"
         sodipodi:rx="12.195122"
         sodipodi:cy="179.19145"
         sodipodi:cx="195.12195"
         id="path3173-0-2-2-3-2-4"
         style="fill:#981b92;fill-opacity:1;stroke:none"
         sodipodi:type="arc" />
      <path
         transform="matrix(0.12698777,0.05326643,-0.0567639,0.12860129,183.31275,385.84191)"
         sodipodi:open="true"
         sodipodi:end="6.2064134"
         sodipodi:start="0"
         d="m 207.31707,179.19145 c 0,8.75574 -5.45994,15.85366 -12.19512,15.85366 -6.73518,0 -12.19512,-7.09792 -12.19512,-15.85366 0,-8.75573 5.45994,-15.85366 12.19512,-15.85366 6.37239,0 11.67046,6.37803 12.1592,14.63774"
         sodipodi:ry="15.853659"
         sodipodi:rx="12.195122"
         sodipodi:cy="179.19145"
         sodipodi:cx="195.12195"
         id="path3173-0-2-2-3-6-4-5"
         style="fill:#981b92;fill-opacity:1;stroke:none"
         sodipodi:type="arc" />
      <path
         transform="matrix(0.17764111,0.12026757,-0.1415174,0.15563812,154.66179,360.27145)"
         sodipodi:open="true"
         sodipodi:end="6.2064134"
         sodipodi:start="0"
         d="m 207.31707,179.19145 c 0,8.75574 -5.45994,15.85366 -12.19512,15.85366 -6.73518,0 -12.19512,-7.09792 -12.19512,-15.85366 0,-8.75573 5.45994,-15.85366 12.19512,-15.85366 6.37239,0 11.67046,6.37803 12.1592,14.63774"
         sodipodi:ry="15.853659"
         sodipodi:rx="12.195122"
         sodipodi:cy="179.19145"
         sodipodi:cx="195.12195"
         id="path3173-0-2-2-3-2-5-0-5-7"
         style="fill:#981b92;fill-opacity:1;stroke:none"
         sodipodi:type="arc" />
      <path
         transform="matrix(0.12698777,0.05326643,-0.0567639,0.12860129,147.85018,384.9618)"
         sodipodi:open="true"
         sodipodi:end="6.2064134"
         sodipodi:start="0"
         d="m 207.31707,179.19145 c 0,8.75574 -5.45994,15.85366 -12.19512,15.85366 -6.73518,0 -12.19512,-7.09792 -12.19512,-15.85366 0,-8.75573 5.45994,-15.85366 12.19512,-15.85366 6.37239,0 11.67046,6.37803 12.1592,14.63774"
         sodipodi:ry="15.853659"
         sodipodi:rx="12.195122"
         sodipodi:cy="179.19145"
         sodipodi:cx="195.12195"
         id="path3173-0-2-2-3-6-4-5-3"
         style="fill:#981b92;fill-opacity:1;stroke:none"
         sodipodi:type="arc" />
      <path
         inkscape:transform-center-y="148.91459"
         inkscape:transform-center-x="-32.932564"
         transform="matrix(0.29416696,-0.08796001,0.11275105,0.22948727,143.2296,230.92459)"
         sodipodi:open="true"
         sodipodi:end="6.2064134"
         sodipodi:start="0"
         d="m 207.31707,179.19145 c 0,8.75574 -5.45994,15.85366 -12.19512,15.85366 -6.73518,0 -12.19512,-7.09792 -12.19512,-15.85366 0,-8.75573 5.45994,-15.85366 12.19512,-15.85366 6.37239,0 11.67046,6.37803 12.1592,14.63774"
         sodipodi:ry="15.853659"
         sodipodi:rx="12.195122"
         sodipodi:cy="179.19145"
         sodipodi:cx="195.12195"
         id="path3173-0-2-8-5"
         style="fill:#981b92;fill-opacity:1;stroke:none"
         sodipodi:type="arc" />
      <path
         inkscape:transform-center-y="142.48609"
         inkscape:transform-center-x="-39.962777"
         transform="matrix(0.12698777,0.05326643,-0.0567639,0.12860129,212.39386,218.46544)"
         sodipodi:open="true"
         sodipodi:end="6.2064134"
         sodipodi:start="0"
         d="m 207.31707,179.19145 c 0,8.75574 -5.45994,15.85366 -12.19512,15.85366 -6.73518,0 -12.19512,-7.09792 -12.19512,-15.85366 0,-8.75573 5.45994,-15.85366 12.19512,-15.85366 6.37239,0 11.67046,6.37803 12.1592,14.63774"
         sodipodi:ry="15.853659"
         sodipodi:rx="12.195122"
         sodipodi:cy="179.19145"
         sodipodi:cx="195.12195"
         id="path3173-0-2-2-3-2-56"
         style="fill:#981b92;fill-opacity:1;stroke:none"
         sodipodi:type="arc" />
      <path
         inkscape:transform-center-y="142.48609"
         inkscape:transform-center-x="-39.962777"
         transform="matrix(0.12698777,0.05326643,-0.0567639,0.12860129,212.94152,224.66127)"
         sodipodi:open="true"
         sodipodi:end="6.2064134"
         sodipodi:start="0"
         d="m 207.31707,179.19145 c 0,8.75574 -5.45994,15.85366 -12.19512,15.85366 -6.73518,0 -12.19512,-7.09792 -12.19512,-15.85366 0,-8.75573 5.45994,-15.85366 12.19512,-15.85366 6.37239,0 11.67046,6.37803 12.1592,14.63774"
         sodipodi:ry="15.853659"
         sodipodi:rx="12.195122"
         sodipodi:cy="179.19145"
         sodipodi:cx="195.12195"
         id="path3173-0-2-2-3-2-56-6"
         style="fill:#981b92;fill-opacity:1;stroke:none"
         sodipodi:type="arc" />
      <path
         sodipodi:nodetypes="cc"
         inkscape:connector-curvature="0"
         id="path4163"
         d="m 280.37179,293.46456 c 2.84837,0.33864 5.46579,-0.93678 7.15942,-4.15709"
         style="fill:none;stroke:#805f25;stroke-width:1px;stroke-linecap:butt;stroke-linejoin:miter;stroke-opacity:1" />
      <path
         sodipodi:nodetypes="cc"
         inkscape:connector-curvature="0"
         id="path4163-6"
         d="m 283.9515,301.05941 c 2.84837,0.33864 6.38959,-1.16773 8.08322,-4.38804"
         style="fill:none;stroke:#805f25;stroke-width:1px;stroke-linecap:butt;stroke-linejoin:miter;stroke-opacity:1" />
      <path
         sodipodi:nodetypes="cc"
         inkscape:connector-curvature="0"
         id="path4163-6-8"
         d="m 286.95383,309.03024 c 2.53495,0.67298 5.68634,-0.41753 8.08322,-4.38804"
         style="fill:none;stroke:#805f25;stroke-width:1px;stroke-linecap:butt;stroke-linejoin:miter;stroke-opacity:1" />
      <path
         sodipodi:nodetypes="cc"
         inkscape:connector-curvature="0"
         id="path4163-6-8-4"
         d="m 289.49427,317.04407 c 2.53495,0.67298 5.68634,-0.41753 8.08322,-4.38804"
         style="fill:none;stroke:#805f25;stroke-width:1px;stroke-linecap:butt;stroke-linejoin:miter;stroke-opacity:1" />
      <path
         sodipodi:nodetypes="cc"
         inkscape:connector-curvature="0"
         id="path4163-6-8-4-0"
         d="m 291.1109,324.66537 c 2.53495,0.67298 5.68634,-0.41753 8.08322,-4.38804"
         style="fill:none;stroke:#805f25;stroke-width:1px;stroke-linecap:butt;stroke-linejoin:miter;stroke-opacity:1" />
      <path
         sodipodi:nodetypes="cc"
         inkscape:connector-curvature="0"
         id="path4163-6-8-4-0-7"
         d="m 292.0347,334.59617 c 2.53495,0.67298 5.68634,-0.41753 8.08322,-4.38804"
         style="fill:none;stroke:#805f25;stroke-width:1px;stroke-linecap:butt;stroke-linejoin:miter;stroke-opacity:1" />
      <path
         sodipodi:nodetypes="cc"
         inkscape:connector-curvature="0"
         id="path4163-6-8-4-0-7-8"
         d="m 292.4966,344.98887 c 2.53495,0.67298 6.37919,-0.41753 8.77607,-4.38804"
         style="fill:none;stroke:#805f25;stroke-width:1px;stroke-linecap:butt;stroke-linejoin:miter;stroke-opacity:1" />
      <path
         sodipodi:nodetypes="cc"
         inkscape:connector-curvature="0"
         id="path4163-6-8-4-0-7-8-3"
         d="m 291.91923,357.69105 c 2.53495,0.67298 6.37919,-0.41753 8.77607,-4.38804"
         style="fill:none;stroke:#805f25;stroke-width:1px;stroke-linecap:butt;stroke-linejoin:miter;stroke-opacity:1" />
      <path
         sodipodi:nodetypes="cc"
         inkscape:connector-curvature="0"
         id="path4163-6-8-4-0-7-8-3-1"
         d="m 289.14784,373.85746 c 2.53495,0.67298 6.37919,-0.41753 8.77607,-4.38804"
         style="fill:none;stroke:#805f25;stroke-width:1px;stroke-linecap:butt;stroke-linejoin:miter;stroke-opacity:1" />
      <path
         sodipodi:nodetypes="cc"
         inkscape:connector-curvature="0"
         id="path4163-6-8-4-0-7-8-3-1-0"
         d="m 278.06229,393.48811 c 2.53495,0.67298 9.84343,-0.41753 14.54979,-5.08089"
         style="fill:none;stroke:#805f25;stroke-width:1px;stroke-linecap:butt;stroke-linejoin:miter;stroke-opacity:1" />
      <path
         sodipodi:nodetypes="cc"
         inkscape:connector-curvature="0"
         id="path4163-6-8-4-0-7-8-3-1-0-0"
         d="m 263.1661,409.0791 c 2.53495,0.67298 13.30766,1.43006 18.01402,-3.2333"
         style="fill:none;stroke:#805f25;stroke-width:1px;stroke-linecap:butt;stroke-linejoin:miter;stroke-opacity:1" />
      <path
         sodipodi:nodetypes="cc"
         inkscape:connector-curvature="0"
         id="path4163-6-8-4-0-7-8-3-1-0-0-3"
         d="m 240.1867,421.62064 c 2.53495,0.67298 16.54094,2.81575 22.86394,-0.46191"
         style="fill:none;stroke:#805f25;stroke-width:1px;stroke-linecap:butt;stroke-linejoin:miter;stroke-opacity:1" />
      <path
         sodipodi:nodetypes="cccc"
         inkscape:connector-curvature="0"
         id="path3970-1"
         d="m 217.1307,221.26922 c -0.0806,5.0521 -1.35806,6.31639 -6.59463,8.49499 7.54814,2.40999 11.99811,-4.65914 14.57465,-10.02413 z"
         style="fill:#d6d6a9;fill-opacity:1;stroke:#000000;stroke-width:1px;stroke-linecap:butt;stroke-linejoin:miter;stroke-opacity:1" />
      <path
         sodipodi:nodetypes="cccccc"
         inkscape:connector-curvature="0"
         id="path4409"
         d="m 206.94813,218.90583 c -7.34133,-2.49985 -10.63839,-5.40956 -11.54553,-12.19905 0.65544,-10.33391 15.97326,-16.1699 35.72578,-16.33802 17.52544,-11.86472 34.73964,-8.39346 37.25067,-3.48543 3.03102,9.73019 0.31267,10.3111 -4.13897,15.90233 -16.25921,15.30677 -36.44124,16.88366 -57.29195,16.12017 z"
         style="fill:#afa84f;fill-opacity:1;stroke:#805f25;stroke-opacity:1" />
      <path
         transform="matrix(0.18429483,0.23986638,-0.12190684,0.17792184,232.04402,123.66471)"
         sodipodi:open="true"
         sodipodi:end="6.2064134"
         sodipodi:start="0"
         d="m 207.31707,179.19145 c 0,8.75574 -5.45994,15.85366 -12.19512,15.85366 -6.73518,0 -12.19512,-7.09792 -12.19512,-15.85366 0,-8.75573 5.45994,-15.85366 12.19512,-15.85366 6.37239,0 11.67046,6.37803 12.1592,14.63774"
         sodipodi:ry="15.853659"
         sodipodi:rx="12.195122"
         sodipodi:cy="179.19145"
         sodipodi:cx="195.12195"
         id="path3173-0-9"
         style="fill:#000000;fill-opacity:1;stroke:#000000;stroke-width:5.35210037;stroke-linecap:butt;stroke-miterlimit:4;stroke-opacity:1;stroke-dasharray:none;stroke-dashoffset:0"
         sodipodi:type="arc" />
      <path
         transform="matrix(0.18429483,0.23986638,-0.12190684,0.17792184,209.6065,131.07128)"
         sodipodi:open="true"
         sodipodi:end="6.2064134"
         sodipodi:start="0"
         d="m 207.31707,179.19145 c 0,8.75574 -5.45994,15.85366 -12.19512,15.85366 -6.73518,0 -12.19512,-7.09792 -12.19512,-15.85366 0,-8.75573 5.45994,-15.85366 12.19512,-15.85366 6.37239,0 11.67046,6.37803 12.1592,14.63774"
         sodipodi:ry="15.853659"
         sodipodi:rx="12.195122"
         sodipodi:cy="179.19145"
         sodipodi:cx="195.12195"
         id="path3173-0-9-2"
         style="fill:#000000;fill-opacity:1;stroke:#000000;stroke-width:5.35210037;stroke-linecap:butt;stroke-miterlimit:4;stroke-opacity:1;stroke-dasharray:none;stroke-dashoffset:0"
         sodipodi:type="arc" />
    </g>
    <path
       sodipodi:nodetypes="ccccccc"
       inkscape:connector-curvature="0"
       id="path3111"
       d="m 226.50388,403.12189 1.06383,-117.55319 c 1.32014,-10.5593 12.40035,-11.35853 23.40426,-12.23405 l 99.46808,13.29787 2.12766,87.76596 c -2.90019,8.93703 -9.38431,11.90085 -16.48936,13.82979 z"
       style="fill:#8be860;fill-opacity:1;stroke:none" />
    <path
       sodipodi:nodetypes="cccccsccss"
       inkscape:connector-curvature="0"
       id="path3113"
       d="m 262.66985,334.75483 c 1.5436,23.41563 6.06147,40.70799 29.8136,41.71675 22.95633,-1.58809 25.23359,-24.81272 27.08482,-35.94643 -0.0829,-32.34576 -10.79448,-43.09068 -31.11717,-42.32255 -15.71741,-0.26634 -25.38887,23.3986 -25.78125,36.55223 z m 28.86717,-25.26088 c 9.04483,-0.67665 12.31628,14.75844 11.625,28.3125 -0.68473,13.42568 -2.2405,26.75249 -13.375,26.0625 -10.57703,-1.12669 -15.35456,-52.91454 0.875,-54.25 0.30389,-0.0559 0.58323,-0.10317 0.875,-0.125 z"
       style="fill:#ffffff;fill-opacity:1;stroke:none" />
    <path
       style="fill:url(#linearGradient3920);fill-opacity:1;fill-rule:nonzero;stroke:none"
       d="m 296.23093,357.99298 c -3.71191,1.75566 -6.08673,4.49894 -5.32365,6.16034 l 0.17723,0.38544 c 0.76302,1.66138 4.36048,1.5799 8.07239,-0.17575 l 0.82236,-0.38948 6.23951,13.58465 c 0.70246,1.52938 2.94184,1.9604 5.02504,0.97508 2.08323,-0.98529 3.198,-3.00279 2.49551,-4.53221 l -6.23948,-13.58463 1.17508,-0.55581 c 3.71191,-1.75566 6.08673,-4.49894 5.32367,-6.16031 l -0.17723,-0.38545 c -0.76304,-1.66141 -4.3605,-1.57992 -8.0724,0.17574 l -9.51827,4.50195 z"
       id="rect3894"
       inkscape:connector-curvature="0" />
    <g
       id="g4486"
       transform="matrix(0.77227446,0,0,0.7939706,-259.37674,106.23782)">
      <path
         sodipodi:open="true"
         sodipodi:end="6.2064134"
         sodipodi:start="0"
         transform="matrix(0.60017085,0,0,0.56019332,103.39323,35.445182)"
         d="m 836.61972,234.53206 c 0,19.05771 -16.07992,34.50704 -35.9155,34.50704 -19.83558,0 -35.91549,-15.44933 -35.91549,-34.50704 0,-19.05771 16.07991,-34.50704 35.91549,-34.50704 18.76715,0 34.37033,13.8824 35.80971,31.86047"
         sodipodi:ry="34.507042"
         sodipodi:rx="35.915493"
         sodipodi:cy="234.53206"
         sodipodi:cx="800.70422"
         id="path3934"
         style="fill:url(#linearGradient4496);fill-opacity:1;fill-rule:nonzero;stroke:none"
         sodipodi:type="arc" />
      <path
         sodipodi:nodetypes="cccc"
         inkscape:connector-curvature="0"
         id="path3936"
         d="m 559.60682,170.09774 c -10.81819,6.91658 -38.61836,24.22127 -34.93952,30.38397 20.68614,10.55178 126.70497,-51.93621 115.70586,-67.63888 -4.01467,-2.16973 -30.42127,11.68803 -39.44001,15.42212"
         style="fill:none;stroke:url(#linearGradient4498);stroke-width:5.91434383;stroke-linecap:butt;stroke-linejoin:miter;stroke-miterlimit:4;stroke-opacity:1;stroke-dasharray:none" />
      <path
         sodipodi:nodetypes="cccc"
         inkscape:connector-curvature="0"
         id="path3946"
         d="m 567.45079,151.48369 c -12.14355,-8.48992 -26.41764,-16.84268 -34.21689,-18.97692 -0.46419,13.46911 80.33523,70.6829 98.47874,70.22142 0.1058,-3.16928 -20.77334,-16.30919 -29.16323,-23.27564"
         style="fill:none;stroke:#000000;stroke-width:1.15967524;stroke-linecap:butt;stroke-linejoin:miter;stroke-miterlimit:4;stroke-opacity:1;stroke-dasharray:1.15967529, 1.15967529;stroke-dashoffset:0" />
      <g
         transform="matrix(1.2622979,0,0,2.076907,-358.29736,-413.56399)"
         id="g3973">
        <path
           style="fill:none;stroke:#000000;stroke-width:1px;stroke-linecap:butt;stroke-linejoin:miter;stroke-opacity:1"
           d="m 773.57497,296.07152 -12.5,-6.46552"
           id="path3950"
           inkscape:connector-curvature="0" />
        <g
           id="g3970">
          <rect
             ry="1.3714644"
             rx="0"
             y="291.36218"
             x="764.19183"
             height="3.0172222"
             width="6.0344644"
             id="rect3948-5"
             style="fill:#d25f66;fill-opacity:1;fill-rule:nonzero;stroke:none" />
        </g>
      </g>
      <path
         style="fill:none;stroke:url(#linearGradient4500);stroke-width:1.15967524;stroke-linecap:butt;stroke-linejoin:miter;stroke-miterlimit:4;stroke-opacity:1;stroke-dasharray:1.15967529, 1.15967529;stroke-dashoffset:0"
         d="m 556.22224,79.451022 c -30.98443,48.276818 -74.46974,129.053438 -46.8426,151.662088 28.78868,24.99386 102.22422,-0.0643 163.21719,-15.71274"
         id="path4045"
         inkscape:connector-curvature="0"
         sodipodi:nodetypes="ccc" />
    </g>
  </g>
</svg>
