<svg id="Layer_1" data-name="Layer 1" xmlns="http://www.w3.org/2000/svg" xmlns:xlink="http://www.w3.org/1999/xlink" viewBox="0 0 512 512"><defs><style>.cls-1{fill:url(#linear-gradient);}.cls-2{fill:url(#linear-gradient-2);}.cls-3{fill:url(#linear-gradient-3);}</style><linearGradient id="linear-gradient" x1="87.95" y1="26" x2="405.7" y2="276.54" gradientUnits="userSpaceOnUse"><stop offset="0" stop-color="#52b57a"/><stop offset="1" stop-color="#1b5c38"/></linearGradient><linearGradient id="linear-gradient-2" x1="113.21" y1="231.34" x2="389.99" y2="449.57" xlink:href="#linear-gradient"/><linearGradient id="linear-gradient-3" x1="113.21" y1="285.18" x2="389.99" y2="503.41" xlink:href="#linear-gradient"/></defs><path class="cls-1" d="M43.64,86.66l277.3,72.53a37,37,0,0,0,45.47-27.59h0a37,37,0,0,0-21.77-42.38l-7.87-3.3,5.15-20.36h0A93.73,93.73,0,0,1,412.46,177.8L397.7,242.54l-2.86-.65A22.45,22.45,0,0,0,368,258.79h0a22.46,22.46,0,0,0,16.9,26.89l2.86.65L377.5,331.08l-93.3-21.29,10.53-46.17h0a23.93,23.93,0,0,0,28.65-18l.43-1.91a23.91,23.91,0,0,0-18-28.64L29.24,152Z"/><path class="cls-2" d="M22.51,386a13.82,13.82,0,0,0,3.6-.49c22-6.25,40.1-18.92,58.22-31.6,17.55-12.37,34.12-24.06,53.44-28.5a110.16,110.16,0,0,1,24-2.62c28,0,55.37,9.85,75.44,27.26.74.56,1.44,1.17,2.14,1.78.88.76,1.75,1.52,2.4,2,13.62,12,29.05,25.55,50.13,32.66a111.9,111.9,0,0,0,37.74,6.15,152.19,152.19,0,0,0,42.76-6.5c22.45-6.61,45.29-17.45,69.79-33.15,20.72-13.27,35.8-22.22,55.89-25.63l3.68-3.2c2.08-6.63,1.82-12-.76-16.07-1.58-2.46-4.82-5.56-11.31-6.38l-1.57.07c-22.25,4.76-39.08,14.69-60.43,28.18-37.61,23.87-69.64,35.48-97.91,35.48a92,92,0,0,1-29.14-4.62c-15.93-5.44-28.18-16.14-41.18-27.51l-4.6-4c-16-13.88-36.13-24.13-58.13-29.63a150.31,150.31,0,0,0-35-4.2,134.94,134.94,0,0,0-30.1,3.35c-25.15,5.79-45.31,20.22-63,32.91-16.5,11.55-32.08,22.46-50,27.56A13.7,13.7,0,0,0,10.41,366a13.29,13.29,0,0,0-1,10.17A13.53,13.53,0,0,0,22.51,386Z"/><path class="cls-3" d="M489.72,355.52l-1.57.07c-22.25,4.76-39.08,14.69-60.43,28.18-37.61,23.87-69.64,35.48-97.91,35.48a92,92,0,0,1-29.14-4.62c-15.93-5.44-28.18-16.14-41.18-27.51l-4.6-4c-16-13.88-36.13-24.13-58.13-29.63a150.31,150.31,0,0,0-35-4.2,134.94,134.94,0,0,0-30.1,3.35c-25.15,5.79-45.31,20.21-63,32.91-16.5,11.55-32.08,22.46-50,27.56a13.67,13.67,0,0,0-8.23,6.67A13.29,13.29,0,0,0,9.4,430a13.53,13.53,0,0,0,13.11,9.85,13.82,13.82,0,0,0,3.6-.49c22-6.25,40.1-18.92,58.22-31.6,17.55-12.37,34.12-24.06,53.44-28.5a110.16,110.16,0,0,1,24-2.62c28,0,55.37,9.85,75.44,27.26.74.56,1.44,1.17,2.14,1.78.88.76,1.75,1.52,2.4,2,13.62,12,29.05,25.55,50.13,32.66a111.9,111.9,0,0,0,37.74,6.14A152.17,152.17,0,0,0,372.43,440c22.45-6.61,45.29-17.45,69.79-33.15,20.72-13.27,35.8-22.22,55.89-25.63l3.68-3.2c2.08-6.63,1.82-12-.76-16.07C499.45,359.44,496.21,356.34,489.72,355.52Z"/></svg>