<?xml version="1.0" encoding="UTF-8" standalone="no"?>
<!-- Created with Inkscape (http://www.inkscape.org/) -->

<svg
   xmlns:dc="http://purl.org/dc/elements/1.1/"
   xmlns:cc="http://creativecommons.org/ns#"
   xmlns:rdf="http://www.w3.org/1999/02/22-rdf-syntax-ns#"
   xmlns:svg="http://www.w3.org/2000/svg"
   xmlns="http://www.w3.org/2000/svg"
   xmlns:sodipodi="http://sodipodi.sourceforge.net/DTD/sodipodi-0.dtd"
   xmlns:inkscape="http://www.inkscape.org/namespaces/inkscape"
   id="svg2"
   version="1.1"
   inkscape:version="0.91 r13725"
   width="128"
   height="129"
   viewBox="0 0 128 129"
   sodipodi:docname="AppIcon.svg">
  <metadata
     id="metadata8">
    <rdf:RDF>
      <cc:Work
         rdf:about="">
        <dc:format>image/svg+xml</dc:format>
        <dc:type
           rdf:resource="http://purl.org/dc/dcmitype/StillImage" />
        <dc:title></dc:title>
      </cc:Work>
    </rdf:RDF>
  </metadata>
  <defs
     id="defs6" />
  <sodipodi:namedview
     pagecolor="#ffffff"
     bordercolor="#666666"
     borderopacity="1"
     objecttolerance="10"
     gridtolerance="10"
     guidetolerance="10"
     inkscape:pageopacity="0"
     inkscape:pageshadow="2"
     inkscape:window-width="1597"
     inkscape:window-height="937"
     id="namedview4"
     showgrid="false"
     inkscape:zoom="1"
     inkscape:cx="72.492417"
     inkscape:cy="64.484357"
     inkscape:window-x="0"
     inkscape:window-y="0"
     inkscape:window-maximized="0"
     inkscape:current-layer="svg2" />
  <rect
     style="fill:#000000;fill-opacity:1;stroke:none;stroke-width:0.35433072;stroke-linejoin:miter;stroke-miterlimit:4;stroke-dasharray:none;stroke-opacity:1"
     id="rect4138"
     width="128"
     height="129"
     x="0"
     y="0"
     ry="14.494191"
     rx="14.300935" />
  <path
     style="fill:#0f5757;fill-opacity:1;stroke:none;stroke-width:0.35433072;stroke-linejoin:miter;stroke-miterlimit:4;stroke-dasharray:none;stroke-opacity:1"
     d="M 79.525391 11.742188 L 79.525391 20.082031 A 47.106968 47.106968 0 0 1 108.42578 48.992188 L 116.76562 48.992188 A 55.03046 55.03046 0 0 0 79.525391 11.742188 z M 48.023438 11.853516 A 55.03046 55.03046 0 0 0 11.076172 49.472656 C 12.231036 49.169644 13.436602 48.992188 14.6875 48.992188 L 19.576172 48.992188 A 47.106968 47.106968 0 0 1 48.023438 20.230469 L 48.023438 11.853516 z M 11.246094 80.054688 A 55.03046 55.03046 0 0 0 48.023438 117.10938 L 48.023438 108.75391 A 47.106968 47.106968 0 0 1 19.736328 80.492188 L 14.6875 80.492188 C 13.49777 80.492188 12.349793 80.329643 11.246094 80.054688 z M 108.24805 80.492188 A 47.106968 47.106968 0 0 1 79.525391 108.91992 L 79.525391 117.26172 A 55.03046 55.03046 0 0 0 116.60352 80.492188 L 108.24805 80.492188 z "
     id="path4140" />
  <path
     style="opacity:1;fill:#0dfafb;fill-opacity:1;stroke:none;stroke-width:0.35433072;stroke-linejoin:miter;stroke-miterlimit:4;stroke-dasharray:none;stroke-opacity:1"
     d="M 64 51.599609 A 12.900681 12.900681 0 0 0 51.099609 64.5 A 12.900681 12.900681 0 0 0 64 77.400391 A 12.900681 12.900681 0 0 0 76.900391 64.5 A 12.900681 12.900681 0 0 0 64 51.599609 z M 64 54.691406 A 9.8085861 9.8085861 0 0 1 73.808594 64.5 A 9.8085861 9.8085861 0 0 1 64 74.308594 A 9.8085861 9.8085861 0 0 1 54.191406 64.5 A 9.8085861 9.8085861 0 0 1 64 54.691406 z "
     id="circle4155" />
  <path
     style="opacity:1;fill:#0dfafb;fill-opacity:1;stroke:none;stroke-width:0.35433072;stroke-linejoin:miter;stroke-miterlimit:4;stroke-dasharray:none;stroke-opacity:1"
     d="M 64 28.214844 A 36.284641 36.284641 0 0 0 27.714844 64.5 A 36.284641 36.284641 0 0 0 64 100.78516 A 36.284641 36.284641 0 0 0 100.28516 64.5 A 36.284641 36.284641 0 0 0 64 28.214844 z M 64 33.240234 A 31.259989 31.259989 0 0 1 95.259766 64.5 A 31.259989 31.259989 0 0 1 64 95.759766 A 31.259989 31.259989 0 0 1 32.740234 64.5 A 31.259989 31.259989 0 0 1 64 33.240234 z "
     id="circle4159" />
  <path
     style="fill:#0dfafb;fill-opacity:1;fill-rule:evenodd;stroke:#0dfafb;stroke-width:4.15390205;stroke-linecap:butt;stroke-linejoin:miter;stroke-miterlimit:4;stroke-dasharray:none;stroke-opacity:1"
     d="m 64.295021,43.04555 0,-11.273834"
     id="path4163"
     inkscape:connector-curvature="0" />
  <path
     inkscape:connector-curvature="0"
     id="path4165"
     d="m 64.295021,97.023304 0,-11.273834"
     style="fill:#0dfafb;fill-opacity:1;fill-rule:evenodd;stroke:#0dfafb;stroke-width:4.15390205;stroke-linecap:butt;stroke-linejoin:miter;stroke-miterlimit:4;stroke-dasharray:none;stroke-opacity:1" />
  <path
     inkscape:connector-curvature="0"
     id="path4173"
     d="m 85.64698,64.39751 11.273834,0"
     style="fill:#0dfafb;fill-opacity:1;fill-rule:evenodd;stroke:#0dfafb;stroke-width:4.15390205;stroke-linecap:butt;stroke-linejoin:miter;stroke-miterlimit:4;stroke-dasharray:none;stroke-opacity:1" />
  <path
     style="fill:#0dfafb;fill-opacity:1;fill-rule:evenodd;stroke:#0dfafb;stroke-width:4.15390205;stroke-linecap:butt;stroke-linejoin:miter;stroke-miterlimit:4;stroke-dasharray:none;stroke-opacity:1"
     d="m 31.669226,64.39751 11.273834,0"
     id="path4175"
     inkscape:connector-curvature="0" />
  <g
     id="g4185"
     transform="matrix(0.70710678,0.70710678,-0.70710678,0.70710678,64.367491,-26.601851)">
    <g
       id="g4187">
      <path
         inkscape:connector-curvature="0"
         id="path4189"
         d="m 64.295021,43.04555 0,-11.273834"
         style="fill:#0dfafb;fill-opacity:1;fill-rule:evenodd;stroke:#0dfafb;stroke-width:4.15390205;stroke-linecap:butt;stroke-linejoin:miter;stroke-miterlimit:4;stroke-dasharray:none;stroke-opacity:1" />
      <path
         style="fill:#0dfafb;fill-opacity:1;fill-rule:evenodd;stroke:#0dfafb;stroke-width:4.15390205;stroke-linecap:butt;stroke-linejoin:miter;stroke-miterlimit:4;stroke-dasharray:none;stroke-opacity:1"
         d="m 64.295021,97.023304 0,-11.273834"
         id="path4191"
         inkscape:connector-curvature="0" />
    </g>
    <g
       id="g4193"
       transform="matrix(0,1,-1,0,128.69253,0.102489)">
      <path
         style="fill:#0dfafb;fill-opacity:1;fill-rule:evenodd;stroke:#0dfafb;stroke-width:4.15390205;stroke-linecap:butt;stroke-linejoin:miter;stroke-miterlimit:4;stroke-dasharray:none;stroke-opacity:1"
         d="m 64.295021,43.04555 0,-11.273834"
         id="path4195"
         inkscape:connector-curvature="0" />
      <path
         inkscape:connector-curvature="0"
         id="path4197"
         d="m 64.295021,97.023304 0,-11.273834"
         style="fill:#0dfafb;fill-opacity:1;fill-rule:evenodd;stroke:#0dfafb;stroke-width:4.15390205;stroke-linecap:butt;stroke-linejoin:miter;stroke-miterlimit:4;stroke-dasharray:none;stroke-opacity:1" />
    </g>
  </g>
  <g
     id="g4251">
    <g
       transform="matrix(0,-1,1,0,-0.10248931,128.69253)"
       id="g4217">
      <g
         id="g4221">
        <g
           transform="matrix(0.92387953,-0.38268343,0.38268343,0.92387953,-19.749693,29.506608)"
           id="g4225">
          <path
             sodipodi:nodetypes="cc"
             inkscape:connector-curvature="0"
             id="path4199"
             d="m 64.295021,38.809321 0,-7.037605"
             style="fill:#0dfafb;fill-opacity:1;fill-rule:evenodd;stroke:#0dfafb;stroke-width:4.15390205;stroke-linecap:butt;stroke-linejoin:miter;stroke-miterlimit:4;stroke-dasharray:none;stroke-opacity:1" />
          <path
             sodipodi:nodetypes="cc"
             style="fill:#0dfafb;fill-opacity:1;fill-rule:evenodd;stroke:#0dfafb;stroke-width:4.15390205;stroke-linecap:butt;stroke-linejoin:miter;stroke-miterlimit:4;stroke-dasharray:none;stroke-opacity:1"
             d="m 64.295021,97.023304 0,-6.490995"
             id="path4201"
             inkscape:connector-curvature="0" />
        </g>
        <g
           id="g4229"
           transform="matrix(0.92387953,-0.38268343,0.38268343,0.92387953,-19.749693,29.506608)">
          <path
             style="fill:#0dfafb;fill-opacity:1;fill-rule:evenodd;stroke:#0dfafb;stroke-width:4.15390205;stroke-linecap:butt;stroke-linejoin:miter;stroke-miterlimit:4;stroke-dasharray:none;stroke-opacity:1"
             d="m 64.295021,38.809321 0,-7.037605"
             id="path4231"
             inkscape:connector-curvature="0"
             sodipodi:nodetypes="cc" />
          <path
             inkscape:connector-curvature="0"
             id="path4233"
             d="m 64.295021,97.023304 0,-6.490995"
             style="fill:#0dfafb;fill-opacity:1;fill-rule:evenodd;stroke:#0dfafb;stroke-width:4.15390205;stroke-linecap:butt;stroke-linejoin:miter;stroke-miterlimit:4;stroke-dasharray:none;stroke-opacity:1"
             sodipodi:nodetypes="cc" />
        </g>
      </g>
    </g>
    <g
       id="g4235">
      <g
         id="g4237">
        <g
           id="g4239"
           transform="matrix(0.92387953,-0.38268343,0.38268343,0.92387953,-19.749693,29.506608)">
          <path
             style="fill:#0dfafb;fill-opacity:1;fill-rule:evenodd;stroke:#0dfafb;stroke-width:4.15390205;stroke-linecap:butt;stroke-linejoin:miter;stroke-miterlimit:4;stroke-dasharray:none;stroke-opacity:1"
             d="m 64.295021,38.809321 0,-7.037605"
             id="path4241"
             inkscape:connector-curvature="0"
             sodipodi:nodetypes="cc" />
          <path
             inkscape:connector-curvature="0"
             id="path4243"
             d="m 64.295021,97.023304 0,-6.490995"
             style="fill:#0dfafb;fill-opacity:1;fill-rule:evenodd;stroke:#0dfafb;stroke-width:4.15390205;stroke-linecap:butt;stroke-linejoin:miter;stroke-miterlimit:4;stroke-dasharray:none;stroke-opacity:1"
             sodipodi:nodetypes="cc" />
        </g>
        <g
           transform="matrix(0.92387953,-0.38268343,0.38268343,0.92387953,-19.749693,29.506608)"
           id="g4245">
          <path
             sodipodi:nodetypes="cc"
             inkscape:connector-curvature="0"
             id="path4247"
             d="m 64.295021,38.809321 0,-7.037605"
             style="fill:#0dfafb;fill-opacity:1;fill-rule:evenodd;stroke:#0dfafb;stroke-width:4.15390205;stroke-linecap:butt;stroke-linejoin:miter;stroke-miterlimit:4;stroke-dasharray:none;stroke-opacity:1" />
          <path
             sodipodi:nodetypes="cc"
             style="fill:#0dfafb;fill-opacity:1;fill-rule:evenodd;stroke:#0dfafb;stroke-width:4.15390205;stroke-linecap:butt;stroke-linejoin:miter;stroke-miterlimit:4;stroke-dasharray:none;stroke-opacity:1"
             d="m 64.295021,97.023304 0,-6.490995"
             id="path4249"
             inkscape:connector-curvature="0" />
        </g>
      </g>
    </g>
  </g>
  <g
     id="g4269"
     transform="matrix(0.70710678,0.70710678,-0.70710678,0.70710678,64.367492,-26.601851)">
    <g
       id="g4271"
       transform="matrix(0,-1,1,0,-0.10248931,128.69253)">
      <g
         id="g4273">
        <g
           id="g4275"
           transform="matrix(0.92387953,-0.38268343,0.38268343,0.92387953,-19.749693,29.506608)">
          <path
             style="fill:#0dfafb;fill-opacity:1;fill-rule:evenodd;stroke:#0dfafb;stroke-width:4.15390205;stroke-linecap:butt;stroke-linejoin:miter;stroke-miterlimit:4;stroke-dasharray:none;stroke-opacity:1"
             d="m 64.295021,38.809321 0,-7.037605"
             id="path4277"
             inkscape:connector-curvature="0"
             sodipodi:nodetypes="cc" />
          <path
             inkscape:connector-curvature="0"
             id="path4279"
             d="m 64.295021,97.023304 0,-6.490995"
             style="fill:#0dfafb;fill-opacity:1;fill-rule:evenodd;stroke:#0dfafb;stroke-width:4.15390205;stroke-linecap:butt;stroke-linejoin:miter;stroke-miterlimit:4;stroke-dasharray:none;stroke-opacity:1"
             sodipodi:nodetypes="cc" />
        </g>
        <g
           transform="matrix(0.92387953,-0.38268343,0.38268343,0.92387953,-19.749693,29.506608)"
           id="g4281">
          <path
             sodipodi:nodetypes="cc"
             inkscape:connector-curvature="0"
             id="path4283"
             d="m 64.295021,38.809321 0,-7.037605"
             style="fill:#0dfafb;fill-opacity:1;fill-rule:evenodd;stroke:#0dfafb;stroke-width:4.15390205;stroke-linecap:butt;stroke-linejoin:miter;stroke-miterlimit:4;stroke-dasharray:none;stroke-opacity:1" />
          <path
             sodipodi:nodetypes="cc"
             style="fill:#0dfafb;fill-opacity:1;fill-rule:evenodd;stroke:#0dfafb;stroke-width:4.15390205;stroke-linecap:butt;stroke-linejoin:miter;stroke-miterlimit:4;stroke-dasharray:none;stroke-opacity:1"
             d="m 64.295021,97.023304 0,-6.490995"
             id="path4285"
             inkscape:connector-curvature="0" />
        </g>
      </g>
    </g>
    <g
       id="g4287">
      <g
         id="g4289">
        <g
           transform="matrix(0.92387953,-0.38268343,0.38268343,0.92387953,-19.749693,29.506608)"
           id="g4291">
          <path
             sodipodi:nodetypes="cc"
             inkscape:connector-curvature="0"
             id="path4293"
             d="m 64.295021,38.809321 0,-7.037605"
             style="fill:#0dfafb;fill-opacity:1;fill-rule:evenodd;stroke:#0dfafb;stroke-width:4.15390205;stroke-linecap:butt;stroke-linejoin:miter;stroke-miterlimit:4;stroke-dasharray:none;stroke-opacity:1" />
          <path
             sodipodi:nodetypes="cc"
             style="fill:#0dfafb;fill-opacity:1;fill-rule:evenodd;stroke:#0dfafb;stroke-width:4.15390205;stroke-linecap:butt;stroke-linejoin:miter;stroke-miterlimit:4;stroke-dasharray:none;stroke-opacity:1"
             d="m 64.295021,97.023304 0,-6.490995"
             id="path4295"
             inkscape:connector-curvature="0" />
        </g>
        <g
           id="g4297"
           transform="matrix(0.92387953,-0.38268343,0.38268343,0.92387953,-19.749693,29.506608)">
          <path
             style="fill:#0dfafb;fill-opacity:1;fill-rule:evenodd;stroke:#0dfafb;stroke-width:4.15390205;stroke-linecap:butt;stroke-linejoin:miter;stroke-miterlimit:4;stroke-dasharray:none;stroke-opacity:1"
             d="m 64.295021,38.809321 0,-7.037605"
             id="path4299"
             inkscape:connector-curvature="0"
             sodipodi:nodetypes="cc" />
          <path
             inkscape:connector-curvature="0"
             id="path4301"
             d="m 64.295021,97.023304 0,-6.490995"
             style="fill:#0dfafb;fill-opacity:1;fill-rule:evenodd;stroke:#0dfafb;stroke-width:4.15390205;stroke-linecap:butt;stroke-linejoin:miter;stroke-miterlimit:4;stroke-dasharray:none;stroke-opacity:1"
             sodipodi:nodetypes="cc" />
        </g>
      </g>
    </g>
  </g>
</svg>
