<?xml version="1.0" encoding="UTF-8" standalone="no"?>
<!-- Generator: Adobe Illustrator 15.0.0, SVG Export Plug-In . SVG Version: 6.00 Build 0)  -->

<svg
   xmlns:dc="http://purl.org/dc/elements/1.1/"
   xmlns:cc="http://creativecommons.org/ns#"
   xmlns:rdf="http://www.w3.org/1999/02/22-rdf-syntax-ns#"
   xmlns:svg="http://www.w3.org/2000/svg"
   xmlns="http://www.w3.org/2000/svg"
   xmlns:sodipodi="http://sodipodi.sourceforge.net/DTD/sodipodi-0.dtd"
   xmlns:inkscape="http://www.inkscape.org/namespaces/inkscape"
   version="1.1"
   id="Calque_1"
   x="0px"
   y="0px"
   width="547.96893"
   height="547.96893"
   viewBox="0 0 547.96891 547.96894"
   enable-background="new 0 0 595.28 419.53"
   xml:space="preserve"
   inkscape:version="0.91 r13725"
   sodipodi:docname="siril.svg"><metadata
     id="metadata3068"><rdf:RDF><cc:Work
         rdf:about=""><dc:format>image/svg+xml</dc:format><dc:type
           rdf:resource="http://purl.org/dc/dcmitype/StillImage" /><dc:title></dc:title></cc:Work></rdf:RDF></metadata><defs
     id="defs3066" /><sodipodi:namedview
     pagecolor="#ffffff"
     bordercolor="#666666"
     borderopacity="1"
     objecttolerance="10"
     gridtolerance="10"
     guidetolerance="10"
     inkscape:pageopacity="0"
     inkscape:pageshadow="2"
     inkscape:window-width="1920"
     inkscape:window-height="1022"
     id="namedview3064"
     showgrid="false"
     inkscape:zoom="0.6531118"
     inkscape:cx="436.86145"
     inkscape:cy="206.99363"
     inkscape:window-x="0"
     inkscape:window-y="0"
     inkscape:window-maximized="1"
     inkscape:current-layer="Calque_1"
     inkscape:snap-page="false"
     fit-margin-top="0"
     fit-margin-left="0"
     fit-margin-right="0"
     fit-margin-bottom="0" /><path
     d="m 480.19745,67.912972 -412.401418,0 C 30.364599,67.912972 0,94.913512 0,128.20965 l 0,291.52578 c 0,33.29613 30.364599,60.32053 67.796032,60.32053 l 412.401418,0 c 37.40691,0 67.77149,-27.0244 67.77149,-60.32053 l 0,-291.52379 c 0,-33.298128 -30.36458,-60.298668 -67.77149,-60.298668 z m -33.91034,45.040008 45.16237,0 0,33.9088 -45.16237,0 0,-33.9088 z m -79.0727,0 45.16237,0 0,33.9088 -45.16237,0 0,-33.9088 z m -84.77585,0 45.21155,0 0,33.9088 -45.21155,0 0,-33.9088 z m 237.24496,306.78245 c 0,19.40004 -17.70188,35.17786 -39.48607,35.17786 l -412.401418,0 c -21.810947,0 -39.562007,-15.77782 -39.562007,-35.17786 l 0,-231.19725 491.451725,0 0,231.19725 z"
     id="path3046"
     inkscape:connector-curvature="0"
     style="fill:#13120d" /><g
     id="g3048"
     transform="matrix(2.23565,0,0,1.9891357,-391.43556,-49.541496)"><path
       d="m 271.101,196.965 c -0.271,-0.334 -0.327,-0.786 -0.147,-1.174 l 4.796,-10.412 -5.853,-9.849 c -0.216,-0.369 -0.213,-0.829 0.02,-1.187 0.234,-0.358 0.652,-0.551 1.071,-0.5 l 11.385,1.344 7.563,-8.61 c 0.281,-0.321 0.716,-0.456 1.129,-0.341 0.416,0.109 0.727,0.441 0.812,0.863 l 2.236,11.238 10.526,4.531 c 0.394,0.161 0.659,0.541 0.68,0.969 0.02,0.424 -0.196,0.826 -0.577,1.035 l -9.994,5.604 -1.056,11.41 c -0.014,0.188 -0.078,0.355 -0.173,0.509 -0.13,0.194 -0.315,0.346 -0.54,0.435 -0.397,0.153 -0.854,0.067 -1.163,-0.219 l -8.417,-7.787 -11.18,2.527 c -0.417,0.099 -0.847,-0.055 -1.118,-0.386 z"
       id="path3050"
       inkscape:connector-curvature="0"
       style="fill:#951b81" /><path
       d="m 372.143,132.268 c 0.243,-0.374 0.359,-0.833 0.301,-1.31 -0.136,-1.076 -1.111,-1.842 -2.188,-1.71 -0.433,0.059 -43.541,5.751 -74.098,43.13 -0.689,0.841 -0.561,2.078 0.28,2.76 0.835,0.689 2.073,0.562 2.756,-0.272 29.531,-36.122 71.126,-41.667 71.54,-41.717 0.598,-0.078 1.103,-0.413 1.409,-0.881 z"
       id="path3052"
       inkscape:connector-curvature="0" /><path
       d="m 389.949,149.293 c 0.196,-0.3 0.311,-0.663 0.314,-1.048 0.008,-1.084 -0.867,-1.972 -1.949,-1.978 -56.105,-0.433 -85.51,29.731 -86.736,31.02 -0.745,0.783 -0.715,2.02 0.066,2.774 0.781,0.748 2.023,0.717 2.776,-0.067 0.288,-0.305 29.543,-30.219 83.866,-29.802 0.695,0.006 1.311,-0.349 1.663,-0.899 z"
       id="path3054"
       inkscape:connector-curvature="0" /><path
       d="m 373.912,168.148 c 0.184,-0.28 0.3,-0.615 0.314,-0.977 0.052,-1.083 -0.785,-2 -1.869,-2.049 -36.164,-1.649 -61.418,14.385 -62.479,15.07 -0.906,0.584 -1.174,1.8 -0.583,2.71 0.589,0.911 1.805,1.171 2.712,0.587 0.253,-0.16 25.32,-16.037 60.174,-14.445 0.721,0.035 1.368,-0.331 1.731,-0.896 z"
       id="path3056"
       inkscape:connector-curvature="0" /></g><g
     id="g3058"
     transform="matrix(2.23565,0,0,1.9891357,-391.43556,-49.541496)"><path
       d="m 289.008,239.953 c 29.221,0 52.999,-23.773 52.999,-52.997 0,-29.226 -23.778,-53 -52.999,-53 -29.226,0 -52.999,23.775 -52.999,53 0,29.224 23.773,52.997 52.999,52.997 z m 0,-102.071 c 27.06,0 49.07,22.013 49.07,49.074 0,6.525 -1.29,12.753 -3.613,18.458 -3.245,1.116 -7.506,2.041 -7.506,-0.793 0,-4.582 -4.584,-5.89 -5.894,-1.964 -1.311,3.926 -3.27,0.655 -7.193,-0.655 -3.929,-1.305 -11.126,-2.616 -11.781,3.929 -0.655,6.541 9.163,21.592 1.964,18.973 -7.198,-2.616 -1.309,-9.159 -7.198,-7.193 -5.887,1.959 -4.58,-1.966 -5.232,-3.929 -0.655,-1.962 -1.965,-4.583 -5.891,-1.31 -3.927,3.272 -9.16,-1.308 -11.122,-4.578 -1.962,-3.273 -9.163,-3.928 -9.818,3.27 -0.655,7.198 -4.577,1.962 -4.577,0 0,-1.826 -5.676,-7.058 -14.383,-0.898 -1.572,-2.896 -2.854,-5.979 -3.823,-9.192 1.396,-0.514 3.407,-1.035 5.771,-1.035 4.583,0 8.511,-1.961 8.511,-5.887 0,-3.926 -0.658,-5.889 2.614,-9.162 3.273,-3.269 5.232,-9.815 -1.31,-10.468 -6.542,-0.654 -8.505,-0.654 -7.853,-5.236 0.457,-3.187 -1.622,-5.418 -3.812,-5.82 8.341,-15.231 24.519,-25.584 43.076,-25.584 z"
       id="path3060"
       inkscape:connector-curvature="0" /><path
       d="m 264.795,171.252 c 0,0 5.894,0 5.894,-5.235 0,-5.236 2.614,-4.579 1.962,-8.506 -0.655,-3.923 -1.31,-4.58 -4.58,-2.618 -3.275,1.962 -4.583,1.307 -7.2,4.581 -2.616,3.272 -1.963,12.434 3.924,11.778 z"
       id="path3062"
       inkscape:connector-curvature="0" /></g><path
     style="color:#000000;display:inline;overflow:visible;visibility:visible;fill:#ffffff;fill-opacity:1;fill-rule:nonzero;stroke-width:1;stroke-linecap:butt;stroke-linejoin:miter;stroke-miterlimit:4;stroke-dasharray:none;stroke-dashoffset:0;stroke-opacity:1;marker:none;enable-background:accumulate"
     d="m 28.069483,188.83369 c 0.187093,76.73089 -0.430858,153.46905 0.485672,230.19506 -1.162252,16.98909 13.681123,31.38863 29.443163,34.73853 60.121752,1.32665 120.274812,0.92129 180.410352,1.15112 83.17467,-0.10197 166.36144,0.3747 249.52658,-0.98365 16.46914,-2.16518 32.28708,-16.5837 31.22072,-34.0916 0.90117,-75.76917 0.25681,-151.55098 0.45456,-227.32517 1.80436,-6.67433 -6.52776,-3.29431 -10.35906,-4.09099 -160.25842,0 -320.51685,0 -480.77528,0 l -0.406707,0.4067 z M 437.16867,207.7336 c 3.75667,-0.087 4.87662,6.20122 0.83734,6.79439 -16.88095,3.77206 -33.91172,7.24583 -50.22839,13.17882 -16.30495,5.65541 -32.18031,12.97617 -47.21377,21.29556 2.56998,4.8133 7.68906,8.56845 11.18062,12.96362 3.4818,1.81246 8.23529,-2.31412 12.20219,-2.82101 36.02533,-12.28326 74.18761,-17.52455 112.17017,-17.34371 3.29465,-0.6456 5.83188,3.91269 3.44504,6.17237 -15.13423,2.08929 -30.65967,1.51698 -45.87335,3.54308 -25.50415,2.95538 -50.9173,8.6198 -74.84679,18.01238 -0.86616,3.23808 2.55103,6.5763 3.56197,9.67438 1.68966,2.32714 1.90401,7.49221 6.05545,5.92403 22.42609,-4.44038 45.29438,-6.24741 68.17843,-6.41822 3.65499,-1.31309 8.6054,1.25599 8.06713,5.38949 -1.76008,3.44757 -6.93512,1.24725 -10.02413,2.201 -19.48658,0.47136 -39.07008,1.15157 -58.15907,5.31111 -2.36995,1.03348 -8.71775,0.0123 -7.36857,4.30631 5.50239,20.44754 4.94252,43.03581 -3.54074,62.58499 -11.5956,27.79002 -35.3822,49.15945 -63.26744,60.03325 -22.20235,8.99544 -46.87893,10.41789 -70.38373,7.03507 -40.60491,-6.94416 -78.63187,-34.93082 -91.05514,-74.96192 -9.80056,-30.77471 -2.48458,-66.0992 18.69736,-90.40982 28.02818,-34.10928 76.06829,-48.95736 119.03355,-40.77534 19.88849,3.50867 38.35663,12.23485 54.5824,24.10036 19.27662,-9.49229 38.76953,-19.0289 59.42673,-25.39297 14.52605,-4.58891 29.42468,-8.5471 44.52274,-10.39722 z"
     id="path2992"
     inkscape:connector-curvature="0" /><path
     style="color:#000000;display:inline;overflow:visible;visibility:visible;fill:#ffffff;fill-opacity:1;fill-rule:nonzero;stroke-width:1;stroke-linecap:butt;stroke-linejoin:miter;stroke-miterlimit:4;stroke-dasharray:none;stroke-dashoffset:0;stroke-opacity:1;marker:none;enable-background:accumulate"
     d="m 251.35152,224.74351 c -36.14549,0.83217 -72.45227,18.74638 -92.15498,49.49861 -0.69277,3.06999 4.61905,2.86309 5.50251,5.35896 3.84629,4.4524 -0.61209,12.28924 4.9044,15.52663 7.08573,3.367 16.19123,0.99194 22.53634,5.86136 4.34214,5.41701 -0.57121,12.48695 -4.39782,16.82561 -4.52104,4.02058 -7.25463,9.6677 -6.55934,15.7827 0.71179,5.4658 -2.07181,10.93816 -7.51211,12.51222 -7.33573,3.32644 -16.33542,0.86589 -23.3976,4.61732 -0.056,4.5612 3.49889,8.74251 5.1619,12.9522 1.23463,1.75451 2.33986,6.39354 5.26893,3.98594 8.1269,-4.84645 20.48152,-7.06987 27.67999,0.33493 2.42579,3.18532 3.89407,10.20438 9.09109,9.40211 4.59311,-3.5729 2.3118,-11.538 7.24895,-15.07208 5.38782,-4.67325 13.66821,-2.98528 17.91011,2.31171 5.43875,6.09306 13.3794,13.00105 22.16247,9.65026 4.20749,-1.03904 9.24002,-6.51755 13.18209,-2.34455 3.86101,3.03466 1.59443,9.68994 5.81351,12.10551 4.62572,1.22716 9.855,-1.89904 14.23474,-0.0957 1.18721,5.69536 3.68327,12.27466 10.04805,13.75626 2.70879,1.42537 7.33553,0.1923 6.22022,-3.66036 -2.51171,-11.8907 -10.45471,-22.84821 -10.0002,-35.21602 1.546,-7.87231 10.74233,-9.10607 17.39269,-8.06236 7.82368,0.28391 14.43835,5.4496 22.01002,6.38768 3.44742,-2.3809 4.21706,-9.13569 9.64134,-7.77527 4.89274,0.94268 5.57624,6.27274 6.98579,10.14374 3.32152,3.46064 9.00031,1.08045 13.03854,0.40671 6.48958,-2.89847 6.52573,-11.46287 8.58869,-17.34485 2.98394,-15.08895 3.58864,-31.39263 -1.65075,-46.05356 -2.71399,-2.15266 -6.66053,0.84452 -9.68919,1.1005 -15.43808,4.63642 -30.28307,10.95077 -45.00091,17.36877 -2.58374,1.26503 -6.54204,0.10489 -5.57428,-3.37327 1.17648,-4.42497 7.43181,-4.9869 10.84188,-7.32387 14.91832,-6.551 30.40036,-12.11543 46.16884,-16.40867 -1.22022,-4.26062 -3.90378,-8.94695 -6.45946,-12.91892 -3.60433,-2.96936 -8.26216,1.64223 -11.81183,2.68195 -17.55573,7.98076 -33.84493,18.44787 -49.26596,29.83067 -2.08116,2.05309 -5.13556,2.57558 -7.05756,0.0239 -2.72023,-2.59939 2.14895,-5.15271 3.58808,-6.91857 17.40289,-14.33508 37.81855,-24.36104 57.99212,-34.30236 -2.57328,-4.63898 -7.21639,-8.87192 -11.1964,-12.7993 -19.63244,11.27257 -37.20543,26.3525 -53.42213,42.24966 -2.11492,2.08846 -6.31372,5.63188 -8.70831,1.91391 -1.96633,-3.18922 2.75009,-5.9677 4.35904,-8.27869 15.02439,-15.91927 32.30171,-29.22878 50.66599,-41.07637 -4.51412,-4.48274 -11.30077,-7.78443 -17.17738,-10.98108 -17.67889,-8.76422 -37.45968,-13.23388 -57.20211,-12.58399 z m -37.4888,31.8906 c 3.61382,0.87535 3.58206,6.23221 3.97137,9.23463 0.0238,5.04366 -4.51745,8.96648 -4.25846,14.23474 -0.0482,5.68636 -4.79821,9.94124 -10.38298,10.40691 -6.14355,2.21952 -12.66143,-2.06986 -13.78018,-8.34945 -2.31514,-8.094 2.24287,-17.1389 10.38298,-19.68939 4.59615,-2.15394 9.2539,-4.53668 14.06727,-5.83744 z m 44.85737,24.47418 c 3.16586,1.83376 2.60527,6.96647 3.94389,10.00637 1.20004,4.75877 1.91878,9.73695 3.35291,14.37211 7.98951,3.50453 16.97052,5.42259 24.23493,10.0959 1.19792,2.55254 -3.70722,3.11031 -5.04794,4.54554 -5.87263,3.38021 -12.24604,5.99861 -18.03865,9.40211 -1.03219,7.71463 -0.88256,15.98605 -2.89479,23.37368 -1.98873,2.49723 -4.60294,-1.92507 -6.50731,-2.58379 -5.38553,-3.97372 -10.32924,-8.65454 -15.71802,-12.53614 -8.87843,1.44542 -17.87437,4.34169 -26.74695,4.5934 -1.3664,-3.01218 2.21045,-6.5454 2.99394,-9.46681 2.18979,-4.68842 4.98203,-9.24556 6.83879,-14.00257 -4.26632,-7.01142 -9.87305,-13.61334 -13.22993,-20.98128 2.17367,-2.27893 6.47196,-0.44505 9.27926,-0.69535 6.28009,0.4637 12.59202,1.53464 18.83135,1.81977 6.23143,-5.99805 11.98226,-12.61675 18.70852,-17.94294 z"
     id="path2994"
     inkscape:connector-curvature="0" /><path
     style="color:#000000;display:inline;overflow:visible;visibility:visible;fill:#ffffff;fill-opacity:1;fill-rule:nonzero;stroke-width:1;stroke-linecap:butt;stroke-linejoin:miter;stroke-miterlimit:4;stroke-dasharray:none;stroke-dashoffset:0;stroke-opacity:1;marker:none;enable-background:accumulate"
     d="m 282.23731,113.04269 c 0.27122,11.30768 -0.54239,23.06471 0.40671,34.0916 14.80093,0 29.60187,0 44.40281,0 0.94909,-11.02689 0.13549,-22.78392 0.4067,-34.0916 -12.04765,-0.94908 -24.82542,-0.1355 -37.15386,-0.4067 -2.60535,0.27185 -5.74911,-0.54314 -8.06236,0.4067 z"
     id="path2996"
     inkscape:connector-curvature="0" /><path
     style="color:#000000;display:inline;overflow:visible;visibility:visible;fill:#ffffff;fill-opacity:1;fill-rule:nonzero;stroke-width:1;stroke-linecap:butt;stroke-linejoin:miter;stroke-miterlimit:4;stroke-dasharray:none;stroke-dashoffset:0;stroke-opacity:1;marker:none;enable-background:accumulate"
     d="m 367.2151,113.04269 c 0.27122,11.30768 -0.54238,23.06471 0.40671,34.0916 14.80094,0 29.60187,0 44.40281,0 0.94909,-11.02689 0.13549,-22.78392 0.40671,-34.0916 -12.04766,-0.94908 -24.82543,-0.1355 -37.15386,-0.4067 -2.60535,0.27185 -5.74911,-0.54314 -8.06237,0.4067 z"
     id="path2998"
     inkscape:connector-curvature="0" /><path
     style="color:#000000;display:inline;overflow:visible;visibility:visible;fill:#ffffff;fill-opacity:1;fill-rule:nonzero;stroke-width:1;stroke-linecap:butt;stroke-linejoin:miter;stroke-miterlimit:4;stroke-dasharray:none;stroke-dashoffset:0;stroke-opacity:1;marker:none;enable-background:accumulate"
     d="m 446.06837,113.04269 c 0.27122,11.30768 -0.54238,23.06471 0.40671,34.0916 14.80093,0 29.60187,0 44.40281,0 0.94909,-11.02689 0.13549,-22.78392 0.40671,-34.0916 -12.04766,-0.94908 -24.82543,-0.1355 -37.15387,-0.4067 -2.60534,0.27185 -5.74911,-0.54314 -8.06236,0.4067 z"
     id="path3000"
     inkscape:connector-curvature="0"
     inkscape:export-filename="/home/lock/Projet/siril/pixmaps/siril_1.svg.png"
     inkscape:export-xdpi="46"
     inkscape:export-ydpi="46" /></svg>