<?xml version="1.0" encoding="iso-8859-1"?>
<!-- Generator: Adobe Illustrator 19.0.0, SVG Export Plug-In . SVG Version: 6.00 Build 0)  -->
<svg version="1.1" id="Capa_1" xmlns="http://www.w3.org/2000/svg" xmlns:xlink="http://www.w3.org/1999/xlink" x="0px" y="0px"
	 viewBox="0 0 508 508" style="enable-background:new 0 0 508 508;" xml:space="preserve">
<path style="fill:#F2F2F2;" d="M468.3,29.7H39.7c-11.6,0-21.2,9.4-21.2,21.2v435.9c0,11.6,9.5,21.2,21.2,21.2h428.6
	c11.6,0,21.2-9.5,21.2-21.2V50.9C489.5,39.2,480,29.7,468.3,29.7z"/>
<path style="fill:#CDD5DF;" d="M489.5,477.4v9.4c0,11.6-9.5,21.2-21.2,21.2H39.7c-11.6,0-21.2-9.5-21.2-21.2v-9.4H489.5z"/>
<rect x="62.1" y="272.7" style="fill:#41596B;" width="151.5" height="235.3"/>
<rect x="78.4" y="289.8" style="fill:#89D6F7;" width="117.7" height="125.9"/>
<rect x="257.1" y="276.3" style="fill:#FFFFFF;" width="189.7" height="121.7"/>
<rect x="273.4" y="293.3" style="fill:#89D6F7;" width="155.8" height="87.8"/>
<polygon style="fill:#F2705B;" points="17.7,83 0,149.6 72.6,149.6 85.2,83 "/>
<polygon style="fill:#FFFFFF;" points="85.2,83 72.6,149.6 145.1,149.6 152.7,83 "/>
<polygon style="fill:#F2705B;" points="152.7,83 145.1,149.6 217.7,149.6 220.3,83 "/>
<polygon style="fill:#FFFFFF;" points="220.2,83 217.7,149.6 290.3,149.6 287.8,83 "/>
<polygon style="fill:#F2705B;" points="287.7,83 290.3,149.6 362.9,149.6 355.3,83 "/>
<polygon style="fill:#FFFFFF;" points="355.3,83 362.9,149.6 435.4,149.6 422.8,83 "/>
<g>
	<path style="fill:#CDD5DF;" d="M72.6,189.8c0,20,16.2,36.3,36.3,36.3c20,0,36.3-16.2,36.3-36.3v-40.2H72.6V189.8z"/>
	<path style="fill:#CDD5DF;" d="M217.7,189.8c0,20,16.2,36.3,36.3,36.3c20,0,36.3-16.2,36.3-36.3v-40.2h-72.6L217.7,189.8
		L217.7,189.8z"/>
	<path style="fill:#CDD5DF;" d="M362.9,149.6v40.2c0,20,16.2,36.3,36.3,36.3c20,0,36.3-16.2,36.3-36.3v-40.2H362.9z"/>
</g>
<polygon style="fill:#F2705B;" points="422.8,83 435.4,149.6 508,149.6 490.3,83 "/>
<g>
	<path style="fill:#F05540;" d="M0,189.8c0,20,16.2,36.3,36.3,36.3c20,0,36.3-16.2,36.3-36.3v-40.2H0V189.8z"/>
	<path style="fill:#F05540;" d="M145.1,189.8c0,20,16.2,36.3,36.3,36.3c20,0,36.3-16.2,36.3-36.3v-40.2h-72.6V189.8z"/>
	<path style="fill:#F05540;" d="M290.3,189.8c0,20,16.2,36.3,36.3,36.3c20,0,36.3-16.2,36.3-36.3v-40.2h-72.6L290.3,189.8
		L290.3,189.8z"/>
	<path style="fill:#F05540;" d="M435.4,149.6v40.2c0,20,16.2,36.3,36.3,36.3c20,0,36.3-16.2,36.3-36.3v-40.2H435.4z"/>
</g>
<rect x="81.8" style="fill:#FFD05C;" width="344.4" height="59.4"/>
<g>
</g>
<g>
</g>
<g>
</g>
<g>
</g>
<g>
</g>
<g>
</g>
<g>
</g>
<g>
</g>
<g>
</g>
<g>
</g>
<g>
</g>
<g>
</g>
<g>
</g>
<g>
</g>
<g>
</g>
</svg>
