<?xml version="1.0" encoding="UTF-8" standalone="no"?>
<!-- Created by sixsixfive and published under CC0 v1.0(http://creativecommons.org/publicdomain/zero/1.0/deed.en) on openclipart.org -->

<svg
   version="1.0"
   viewBox="0 0 48 48"
   id="svg83272"
   xmlns:xlink="http://www.w3.org/1999/xlink"
   xmlns="http://www.w3.org/2000/svg"
   xmlns:svg="http://www.w3.org/2000/svg"
   xmlns:rdf="http://www.w3.org/1999/02/22-rdf-syntax-ns#"
   xmlns:cc="http://creativecommons.org/ns#"
   xmlns:dc="http://purl.org/dc/elements/1.1/">
  <defs
     id="defs4">
    <linearGradient
       id="linearGradient91644">
      <stop
         id="stop91640"
         stop-color="#3465a4"
         offset="0"
         style="stop-color:#ffb700;stop-opacity:1" />
      <stop
         id="stop91642"
         stop-color="#204a87"
         offset="1"
         style="stop-color:#ff7200;stop-opacity:1" />
    </linearGradient>
    <linearGradient
       id="linearGradient3195">
      <stop
         id="stop3197"
         stop-color="#3465a4"
         offset="0" />
      <stop
         id="stop3199"
         stop-color="#204a87"
         offset="1" />
    </linearGradient>
    <radialGradient
       id="radialGradient2666"
       gradientUnits="userSpaceOnUse"
       cy="45.941"
       cx="24.377"
       gradientTransform="matrix(1,0,0,0.14554,-0.37703,36.4549)"
       r="23.077">
      <stop
         id="stop3478"
         stop-color="#2e3436"
         offset="0" />
      <stop
         id="stop3480"
         stop-color="#2e3436"
         stop-opacity="0"
         offset="1" />
    </radialGradient>
    <linearGradient
       id="linearGradient2946"
       gradientUnits="userSpaceOnUse"
       x2="0"
       y1="4.2188"
       y2="43.781"
       gradientTransform="translate(0,-1.5)">
      <stop
         id="stop3435"
         stop-color="#ffffff"
         stop-opacity=".8"
         offset="0" />
      <stop
         id="stop3437"
         stop-color="#ffffff"
         stop-opacity="0"
         offset="1" />
    </linearGradient>
    <linearGradient
       id="linearGradient2500"
       y2="33.906"
       gradientUnits="userSpaceOnUse"
       x2="15.298"
       gradientTransform="translate(0,-1.5)"
       y1="-58.012"
       x1="4.0938">
      <stop
         id="stop3458"
         stop-color="#eeeeec"
         offset="0" />
      <stop
         id="stop3460"
         stop-color="#eeeeec"
         stop-opacity="0"
         offset="1" />
    </linearGradient>
    <radialGradient
       id="radialGradient3928"
       xlink:href="#linearGradient91644"
       gradientUnits="userSpaceOnUse"
       cy="14.209"
       cx="42.623"
       gradientTransform="matrix(0.5138,0.24418,-0.20238,0.42585,9.7686,-13.865)"
       r="26.132" />
    <radialGradient
       id="radialGradient3930"
       xlink:href="#linearGradient3195"
       gradientUnits="userSpaceOnUse"
       cy="54.693"
       cx="34.994"
       gradientTransform="matrix(0.5138,0.24418,-0.20225,0.42559,7.8408,-9.8045)"
       r="26.132" />
  </defs>
  <g
     id="g97845"
     transform="translate(0,1.5)">
    <rect
       id="rect2653"
       rx="6"
       height="42"
       width="42"
       y="1.5"
       x="3"
       fill="#2e3436" />
    <path
       id="path2659"
       fill="#555753"
       d="M 9,2.5938 C 6.2609,2.5938 4.0938,4.7609 4.0938,7.5 v 30 c 0,2.7391 2.1671,4.9062 4.9062,4.9062 h 30 c 2.7391,0 4.9062,-2.1671 4.9062,-4.9062 v -30 c 0,-2.7391 -2.167,-4.9062 -4.906,-4.9062 h -30 z" />
    <path
       id="rect3256"
       fill="#2e3436"
       d="m 9,2.5938 c -0.24626,0 -0.4829,0.028627 -0.71875,0.0625 l -4.1875,8.8125 v 14.375 l 11.062,-23.25 h -6.1562 z" />
    <path
       id="rect3258"
       fill="#2e3436"
       d="M 43.906,18.469 32.5,42.406 H 39 c 0.12856,0 0.24912,-0.02187 0.375,-0.03125 l 4.5312,-9.5312 v -14.375 z" />
    <path
       id="rect3260"
       fill="url(#radialGradient3930)"
       d="M 9.25,18.469 4.0938,29.313 v 8.1875 c 0,2.7391 2.1671,4.9062 4.9062,4.9062 h 21.812 l 5.3125,-11.188 -26.875,-12.75 z"
       style="fill:url(#radialGradient3930)" />
    <path
       id="rect3265"
       fill="#eeeeec"
       d="m 43.906,21.438 -0.5625,1.1875 0.5625,0.25 z m -1.5,3.1875 -0.96875,2 2.4688,1.1562 v -2.4375 l -1.5,-0.71875 z m -1.9062,4 -0.96875,2.0312 3.25,1.5312 0.96875,-2 -3.25,-1.5625 z m -1.9062,4.0312 -0.96875,2.0312 3.25,1.5312 0.9375,-2 -3.2188,-1.5625 z m -1.9062,4.0312 -0.96875,2 3.25,1.5312 0.9375,-2 -3.2188,-1.5312 z m -1.9375,4 -0.78125,1.7188 h 3.9688 l 0.062,-0.157 -3.25,-1.562 z" />
    <path
       id="path3433"
       fill="#eeeeec"
       d="m 11.594,2.5938 1.7188,0.8125 0.40625,-0.8125 h -2.125 z M 9.125,3.875 8.1562,5.9062 l 3.25,1.5312 0.96875,-2 -3.25,-1.5625 z m -1.9062,4.0312 -0.96875,2 3.25,1.5312 0.96875,-2 z m -1.9062,4 -0.96875,2.0312 3.25,1.5312 0.96875,-2 -3.25,-1.5625 z m -1.2188,4.344 V 18.719 L 5.6875,19.5 6.625,17.469 4.0938,16.25 Z m 0,4.9375 v 1.6562 l 0.625,-1.3438 -0.625,-0.3125 z" />
    <path
       id="path3362"
       fill="url(#radialGradient3928)"
       d="m 16.781,2.5938 -6.8748,14.531 26.844,12.75 7.1562,-15.031 V 7.5 c 0,-0.58112 -0.1014,-1.1419 -0.28125,-1.6562 l -6.875,-3.25 h -19.969 z"
       style="fill:url(#radialGradient3928)" />
    <path
       id="path3431"
       opacity="0.8"
       d="M 9,3.2188 C 6.5944,3.2188 4.7188,5.0944 4.7188,7.5 v 30 c 0,2.4056 1.8756,4.2812 4.2812,4.2812 h 30 c 2.4056,0 4.2812,-1.8756 4.2812,-4.2812 v -30 c 0,-2.4056 -1.875,-4.2812 -4.281,-4.2812 h -30 z"
       stroke-dashoffset="30"
       stroke="url(#linearGradient2946)"
       stroke-linecap="round"
       fill="none"
       style="stroke:url(#linearGradient2946)" />
    <path
       id="path3451"
       opacity="0.6"
       fill="url(#linearGradient2500)"
       d="M 9,2.5938 C 6.2609,2.5938 4.0938,4.7609 4.0938,7.5 v 17.156 c 12.085,-5.1331 25.681,-9.5695 39.812,-12.531 V 7.5 c 0,-2.7391 -2.1671,-4.9062 -4.9062,-4.9062 h -30 z"
       style="fill:url(#linearGradient2500)" />
  </g>
  <metadata
     id="metadata83270">
    <rdf:RDF>
      <cc:Work>
        <dc:format>image/svg+xml</dc:format>
        <dc:type
           rdf:resource="http://purl.org/dc/dcmitype/StillImage" />
        <cc:license
           rdf:resource="http://creativecommons.org/publicdomain/zero/1.0/" />
        <dc:publisher>
          <cc:Agent
             rdf:about="http://openclipart.org/">
            <dc:title>Openclipart</dc:title>
          </cc:Agent>
        </dc:publisher>
      </cc:Work>
      <cc:License
         rdf:about="http://creativecommons.org/licenses/publicdomain/">
        <cc:permits
           rdf:resource="http://creativecommons.org/ns#Reproduction" />
        <cc:permits
           rdf:resource="http://creativecommons.org/ns#Distribution" />
        <cc:permits
           rdf:resource="http://creativecommons.org/ns#DerivativeWorks" />
      </cc:License>
    </rdf:RDF>
  </metadata>
</svg>
