<?xml version="1.0" encoding="UTF-8"?>
<svg version="1.1" xmlns="http://www.w3.org/2000/svg" width="512" height="512">
<path d="M0 0 C0.91991226 -0.00705963 1.83982452 -0.01411926 2.78761292 -0.02139282 C41.56009433 -0.25136566 41.56009433 -0.25136566 59.0234375 3.203125 C60.58384766 3.50911621 60.58384766 3.50911621 62.17578125 3.82128906 C108.22141757 13.13617486 149.80128892 33.23697749 184.546875 64.94921875 C186.22595955 66.4773446 187.91924573 67.98998358 189.625 69.48828125 C194.86703812 74.10475893 199.5477283 78.85073049 204.0234375 84.203125 C204.84457031 85.13640625 205.66570312 86.0696875 206.51171875 87.03125 C221.479461 104.12724753 233.45049876 123.6319961 243.0234375 144.203125 C243.51626221 145.26128418 243.51626221 145.26128418 244.01904297 146.34082031 C252.20095667 164.19009032 257.9960821 182.9729613 261.8984375 202.203125 C262.08946045 203.14365723 262.2804834 204.08418945 262.47729492 205.05322266 C265.52138281 221.09784372 266.40170226 237.02639356 266.3359375 253.328125 C266.33320328 254.74127991 266.33320328 254.74127991 266.33041382 256.1829834 C266.28318867 270.71233159 265.69632972 284.8884202 263.0234375 299.203125 C262.86246582 300.11723145 262.70149414 301.03133789 262.53564453 301.97314453 C258.33287798 325.35279975 250.53968668 347.92776773 240.0234375 369.203125 C239.65750488 369.94739746 239.29157227 370.69166992 238.91455078 371.45849609 C231.25819956 386.8624663 221.79297779 400.81877508 211.0234375 414.203125 C210.6104541 414.72052246 210.1974707 415.23791992 209.77197266 415.77099609 C198.95978561 429.2307237 186.76217243 441.72477642 173.0234375 452.203125 C171.66605469 453.26853516 171.66605469 453.26853516 170.28125 454.35546875 C114.23908174 497.56413236 44.41021882 513.02232974 -25.15625 504.82861328 C-63.04610534 499.64639666 -101.84321074 485.5605269 -132.9765625 463.203125 C-133.646875 462.72520508 -134.3171875 462.24728516 -135.0078125 461.75488281 C-155.74877166 446.85713895 -174.83474628 429.86122497 -189.9765625 409.203125 C-190.61368164 408.34920166 -190.61368164 408.34920166 -191.26367188 407.47802734 C-197.78191462 398.73362227 -203.56121439 389.66560162 -208.9765625 380.203125 C-209.63269531 379.08035156 -210.28882813 377.95757812 -210.96484375 376.80078125 C-225.77158073 350.42164462 -234.16658381 320.90275579 -238.9765625 291.203125 C-239.10933594 290.41147949 -239.24210938 289.61983398 -239.37890625 288.80419922 C-246.79508604 242.56765133 -238.89746938 191.75070723 -219.9765625 149.203125 C-219.41243652 147.933479 -219.41243652 147.933479 -218.83691406 146.63818359 C-205.34491478 116.64491443 -185.76353814 86.425202 -160.23828125 65.09375 C-158.43929997 63.58993836 -156.68278342 62.06030501 -154.93359375 60.5 C-113.46784952 23.7726845 -55.57153316 0.2855267 0 0 Z " fill="#0DC95B" transform="translate(242.9765625,1.796875)"/>
<path d="M0 0 C0.91991226 -0.00705963 1.83982452 -0.01411926 2.78761292 -0.02139282 C41.56009433 -0.25136566 41.56009433 -0.25136566 59.0234375 3.203125 C60.58384766 3.50911621 60.58384766 3.50911621 62.17578125 3.82128906 C108.22141757 13.13617486 149.80128892 33.23697749 184.546875 64.94921875 C186.22595955 66.4773446 187.91924573 67.98998358 189.625 69.48828125 C194.86703812 74.10475893 199.5477283 78.85073049 204.0234375 84.203125 C204.84457031 85.13640625 205.66570312 86.0696875 206.51171875 87.03125 C221.479461 104.12724753 233.45049876 123.6319961 243.0234375 144.203125 C243.51626221 145.26128418 243.51626221 145.26128418 244.01904297 146.34082031 C252.20095667 164.19009032 257.9960821 182.9729613 261.8984375 202.203125 C262.08946045 203.14365723 262.2804834 204.08418945 262.47729492 205.05322266 C265.52138281 221.09784372 266.40170226 237.02639356 266.3359375 253.328125 C266.33320328 254.74127991 266.33320328 254.74127991 266.33041382 256.1829834 C266.28318867 270.71233159 265.69632972 284.8884202 263.0234375 299.203125 C262.86246582 300.11723145 262.70149414 301.03133789 262.53564453 301.97314453 C258.33287798 325.35279975 250.53968668 347.92776773 240.0234375 369.203125 C239.65750488 369.94739746 239.29157227 370.69166992 238.91455078 371.45849609 C231.25819956 386.8624663 221.79297779 400.81877508 211.0234375 414.203125 C210.6104541 414.72052246 210.1974707 415.23791992 209.77197266 415.77099609 C198.95978561 429.2307237 186.76217243 441.72477642 173.0234375 452.203125 C171.66605469 453.26853516 171.66605469 453.26853516 170.28125 454.35546875 C114.23908174 497.56413236 44.41021882 513.02232974 -25.15625 504.82861328 C-63.04610534 499.64639666 -101.84321074 485.5605269 -132.9765625 463.203125 C-133.646875 462.72520508 -134.3171875 462.24728516 -135.0078125 461.75488281 C-155.74877166 446.85713895 -174.83474628 429.86122497 -189.9765625 409.203125 C-190.61368164 408.34920166 -190.61368164 408.34920166 -191.26367188 407.47802734 C-197.78191462 398.73362227 -203.56121439 389.66560162 -208.9765625 380.203125 C-209.63269531 379.08035156 -210.28882813 377.95757812 -210.96484375 376.80078125 C-225.77158073 350.42164462 -234.16658381 320.90275579 -238.9765625 291.203125 C-239.10933594 290.41147949 -239.24210938 289.61983398 -239.37890625 288.80419922 C-246.79508604 242.56765133 -238.89746938 191.75070723 -219.9765625 149.203125 C-219.41243652 147.933479 -219.41243652 147.933479 -218.83691406 146.63818359 C-205.34491478 116.64491443 -185.76353814 86.425202 -160.23828125 65.09375 C-158.43929997 63.58993836 -156.68278342 62.06030501 -154.93359375 60.5 C-113.46784952 23.7726845 -55.57153316 0.2855267 0 0 Z M-29.9765625 35.203125 C-31.39582031 35.50114014 -31.39582031 35.50114014 -32.84375 35.80517578 C-66.18460244 43.0308313 -98.3506556 56.58605207 -124.9765625 78.203125 C-126.45189453 79.37488281 -126.45189453 79.37488281 -127.95703125 80.5703125 C-142.543619 92.3751228 -156.09348153 105.89184609 -166.9765625 121.203125 C-167.39309082 121.78594238 -167.80961914 122.36875977 -168.23876953 122.96923828 C-188.50394933 151.62965943 -201.06203844 183.64585768 -206.9765625 218.203125 C-207.10788574 218.94030762 -207.23920898 219.67749023 -207.37451172 220.43701172 C-216.95870622 276.69206637 -201.16867661 336.88778 -168.65234375 383.08447266 C-163.41624347 390.35661039 -157.56721023 397.02637293 -151.44140625 403.55078125 C-149.48107382 405.66023564 -147.61601567 407.79258442 -145.7890625 410.015625 C-142.52905311 413.84179849 -138.83316562 416.99126075 -134.9765625 420.203125 C-134.20022461 420.87190674 -134.20022461 420.87190674 -133.40820312 421.55419922 C-101.06775642 449.40900769 -62.04530607 466.58540496 -19.9765625 473.203125 C-19.15317383 473.33299805 -18.32978516 473.46287109 -17.48144531 473.59667969 C38.06205357 481.86911569 97.69191773 466.57675097 143.02636719 433.75292969 C149.98410146 428.57959154 156.54267474 422.9971804 162.91796875 417.12109375 C164.64028935 415.55215235 166.38452678 414.08353741 168.2109375 412.640625 C171.1403145 410.1018316 173.56295395 407.4173643 176.0625 404.46484375 C177.41120967 402.90926028 178.80530166 401.39225175 180.234375 399.91015625 C188.32362433 391.46749312 194.69511152 382.00272686 201.0234375 372.203125 C201.48282715 371.49381836 201.9422168 370.78451172 202.41552734 370.05371094 C213.59985398 352.54817167 221.54903005 333.20661869 227.0234375 313.203125 C227.21631348 312.50058594 227.40918945 311.79804688 227.60791016 311.07421875 C232.41847695 293.12371668 234.54562936 274.963622 234.41455078 256.40087891 C234.39843638 253.70293687 234.41454287 251.00649185 234.43359375 248.30859375 C234.49848492 194.95839597 213.23266944 141.52747476 176.49609375 102.8515625 C174.72548764 100.95508392 173.06464206 99.06908056 171.42578125 97.06640625 C169.53131495 94.80844885 167.75721698 92.90926079 165.5234375 91.015625 C164.83378906 90.43039063 164.14414062 89.84515625 163.43359375 89.2421875 C162.63824219 88.56929687 161.84289062 87.89640625 161.0234375 87.203125 C160.07339844 86.36523438 159.12335938 85.52734375 158.14453125 84.6640625 C146.17076455 74.17226255 133.02961278 65.74257079 119.0234375 58.203125 C118.41983398 57.87602539 117.81623047 57.54892578 117.19433594 57.21191406 C93.81878964 44.67400985 68.26850209 36.86952096 42.0234375 33.203125 C41.35554199 33.1088623 40.68764648 33.01459961 39.99951172 32.91748047 C17.49066606 30.19105691 -7.8177424 30.48929343 -29.9765625 35.203125 Z " fill="#FFFFFF" transform="translate(242.9765625,1.796875)"/>
<path d="M0 0 C94.71 0 189.42 0 287 0 C287 8.25 287 16.5 287 25 C243.44 25 199.88 25 155 25 C155 31.27 155 37.54 155 44 C198.56 44 242.12 44 287 44 C287 52.58 287 61.16 287 70 C243.44 70 199.88 70 155 70 C155 126.43 155 182.86 155 241 C146.75 241 138.5 241 130 241 C130 184.57 130 128.14 130 70 C87.43 70 44.86 70 1 70 C1 61.42 1 52.84 1 44 C43.57 44 86.14 44 130 44 C130 37.73 130 31.46 130 25 C87.1 25 44.2 25 0 25 C0 16.75 0 8.5 0 0 Z " fill="#FBFEFC" transform="translate(113,154)"/>
</svg>
