<?xml version="1.0" encoding="UTF-8" standalone="no"?>
<svg
   xmlns:dc="http://purl.org/dc/elements/1.1/"
   xmlns:cc="http://creativecommons.org/ns#"
   xmlns:rdf="http://www.w3.org/1999/02/22-rdf-syntax-ns#"
   xmlns:svg="http://www.w3.org/2000/svg"
   xmlns="http://www.w3.org/2000/svg"
   xmlns:sodipodi="http://sodipodi.sourceforge.net/DTD/sodipodi-0.dtd"
   xmlns:inkscape="http://www.inkscape.org/namespaces/inkscape"
   viewBox="0 0 256 256"
   version="1.1"
   id="svg4"
   sodipodi:docname="j2dx-server.svg"
   width="256"
   height="256"
   inkscape:version="0.92.4 (5da689c313, 2019-01-14)">
  <metadata
     id="metadata10">
    <rdf:RDF>
      <cc:Work
         rdf:about="">
        <dc:format>image/svg+xml</dc:format>
        <dc:type
           rdf:resource="http://purl.org/dc/dcmitype/StillImage" />
        <dc:title></dc:title>
      </cc:Work>
    </rdf:RDF>
  </metadata>
  <defs
     id="defs8">
    <linearGradient
       gradientTransform="rotate(-90,23.999998,24)"
       gradientUnits="userSpaceOnUse"
       x2="47"
       x1="1"
       id="linearGradient3764">
      <stop
         id="stop972"
         style="stop-color:#575757;stop-opacity:1" />
      <stop
         id="stop974"
         style="stop-color:#616161;stop-opacity:1"
         offset="1" />
    </linearGradient>
    <filter
       inkscape:collect="always"
       style="color-interpolation-filters:sRGB"
       id="filter1112"
       x="-0.017894737"
       width="1.0357895"
       y="-0.036428572"
       height="1.0728571">
      <feGaussianBlur
         inkscape:collect="always"
         stdDeviation="1.7"
         id="feGaussianBlur1114" />
    </filter>
    <filter
       inkscape:collect="always"
       style="color-interpolation-filters:sRGB"
       id="filter1346"
       x="-0.022889245"
       width="1.0457785"
       y="-0.025224057"
       height="1.0504481">
      <feGaussianBlur
         inkscape:collect="always"
         stdDeviation="1.8311396"
         id="feGaussianBlur1348" />
    </filter>
  </defs>
  <sodipodi:namedview
     pagecolor="#ffffff"
     bordercolor="#666666"
     borderopacity="1"
     objecttolerance="10"
     gridtolerance="10"
     guidetolerance="10"
     inkscape:pageopacity="0"
     inkscape:pageshadow="2"
     inkscape:window-width="1366"
     inkscape:window-height="683"
     id="namedview6"
     showgrid="false"
     inkscape:pagecheckerboard="true"
     inkscape:zoom="2.6074563"
     inkscape:cx="170.85141"
     inkscape:cy="135.02842"
     inkscape:window-x="0"
     inkscape:window-y="0"
     inkscape:window-maximized="1"
     inkscape:current-layer="layer4" />
  <g
     inkscape:groupmode="layer"
     id="layer2"
     inkscape:label="bg"
     style="display:inline">
    <g
       id="g985"
       transform="matrix(5.4470426,0,0,5.4470426,-5.4470967,-5.4525437)">
      <path
         inkscape:connector-curvature="0"
         d="m 36.31,5 c 5.859,4.062 9.688,10.831 9.688,18.5 0,12.426 -10.07,22.5 -22.5,22.5 -7.669,0 -14.438,-3.828 -18.5,-9.688 1.037,1.822 2.306,3.499 3.781,4.969 4.085,3.712 9.514,5.969 15.469,5.969 12.703,0 23,-10.298 23,-23 0,-5.954 -2.256,-11.384 -5.969,-15.469 C 39.81,7.306 38.132,6.037 36.31,5 Z m 4.969,3.781 c 3.854,4.113 6.219,9.637 6.219,15.719 0,12.703 -10.297,23 -23,23 -6.081,0 -11.606,-2.364 -15.719,-6.219 4.16,4.144 9.883,6.719 16.219,6.719 12.703,0 23,-10.298 23,-23 0,-6.335 -2.575,-12.06 -6.719,-16.219 z"
         style="opacity:0.05"
         id="path979" />
      <path
         inkscape:connector-curvature="0"
         d="m 41.28,8.781 c 3.712,4.085 5.969,9.514 5.969,15.469 0,12.703 -10.297,23 -23,23 -5.954,0 -11.384,-2.256 -15.469,-5.969 4.113,3.854 9.637,6.219 15.719,6.219 12.703,0 23,-10.298 23,-23 0,-6.081 -2.364,-11.606 -6.219,-15.719 z"
         style="opacity:0.1"
         id="path981" />
      <path
         inkscape:connector-curvature="0"
         d="M 31.25,2.375 C 39.865,5.529 46,13.792 46,23.505 c 0,12.426 -10.07,22.5 -22.5,22.5 -9.708,0 -17.971,-6.135 -21.12,-14.75 a 23,23 0 0 0 44.875,-7 23,23 0 0 0 -16,-21.875 z"
         style="opacity:0.2"
         id="path983" />
    </g>
    <g
       id="g989"
       transform="matrix(5.4470426,0,0,5.4470426,-5.4470967,-5.4525437)"
       style="fill:#575757;fill-opacity:1">
      <path
         inkscape:connector-curvature="0"
         d="M 24,1 C 36.703,1 47,11.297 47,24 47,36.703 36.703,47 24,47 11.297,47 1,36.703 1,24 1,11.297 11.297,1 24,1 Z"
         style="fill:#575757;fill-opacity:1"
         id="path987" />
    </g>
    <g
       id="g1017"
       transform="matrix(5.4470426,0,0,5.4470426,-5.4470967,-5.4525437)">
      <path
         inkscape:connector-curvature="0"
         d="m 40.03,7.531 c 3.712,4.084 5.969,9.514 5.969,15.469 0,12.703 -10.297,23 -23,23 C 17.045,46 11.615,43.744 7.53,40.031 11.708,44.322 17.54,47 23.999,47 c 12.703,0 23,-10.298 23,-23 0,-6.462 -2.677,-12.291 -6.969,-16.469 z"
         style="opacity:0.1"
         id="path1015" />
    </g>
  </g>
  <g
     inkscape:label="frame shadow"
     id="g1272"
     inkscape:groupmode="layer"
     style="opacity:1">
    <path
       id="path1270"
       style="color:#000000;display:inline;opacity:0.8;fill:#1a1a1a;fill-opacity:1;stroke-width:5.99999762;filter:url(#filter1346)"
       d="m 35.801136,53.061614 c -3.515998,0.372 -6.467997,3.665999 -6.449997,7.199997 V 189.86156 c 0,3.76799 3.431999,7.19999 7.199997,7.19999 h 64.799974 v 12.15 h 47.99998 v -12.15 h 64.79997 c 3.768,0 7.2,-3.432 7.2,-7.19999 V 60.261611 c 0,-3.767998 -3.432,-7.199997 -7.2,-7.199997 H 36.551136 Z m 9.521996,12.149995 c 0.3,-0.06 0.6,-0.06 0.9,0 H 204.45506 c 2.514,0 4.8,2.285999 4.8,4.799998 V 180.48956 c 0,2.514 -2.286,4.8 -4.8,4.8 H 46.223132 c -2.513999,0 -4.799998,-2.286 -4.799998,-4.8 V 70.011607 c -0.042,-2.237999 1.697999,-4.379998 3.899998,-4.799998 z M 71.495121,215.13954 v 12.15 H 185.49507 v -12.15 z"
       inkscape:connector-curvature="0" />
  </g>
  <g
     inkscape:groupmode="layer"
     id="layer3"
     inkscape:label="screen">
    <g
       style="fill:none;stroke:#ffffff"
       id="g1225"
       transform="matrix(5.9999974,0,0,5.9999974,-20.67884,-3.1783622)">
      <g
         transform="translate(-38.38147,-1006.1003)"
         style="stroke-width:0.5"
         id="g1221" />
      <g
         transform="translate(-39.59798,-1004.3622)"
         style="stroke-width:0.40000001"
         id="g1223" />
    </g>
    <rect
       width="179.99992"
       height="131.99994"
       x="33.321136"
       y="56.821613"
       style="fill:#303030;fill-opacity:1;stroke:none;stroke-width:5.99999762"
       id="rect1227" />
  </g>
  <g
     transform="translate(0,-256)"
     style="display:inline"
     inkscape:label="braces shadow"
     id="g1090"
     inkscape:groupmode="layer">
    <flowRoot
       style="font-style:normal;font-variant:normal;font-weight:normal;font-stretch:normal;font-size:170.66667175px;line-height:1.25;font-family:'Fira Code';-inkscape-font-specification:'Fira Code, Normal';font-variant-ligatures:normal;font-variant-caps:normal;font-variant-numeric:normal;font-feature-settings:normal;text-align:start;letter-spacing:0px;word-spacing:0px;writing-mode:lr-tb;text-anchor:start;fill:#000000;fill-opacity:1;stroke:none"
       id="flowRoot1076"
       xml:space="preserve"><flowRegion
         style="font-style:normal;font-variant:normal;font-weight:normal;font-stretch:normal;font-size:170.66667175px;font-family:'Fira Code';-inkscape-font-specification:'Fira Code, Normal';font-variant-ligatures:normal;font-variant-caps:normal;font-variant-numeric:normal;font-feature-settings:normal;text-align:start;writing-mode:lr-tb;text-anchor:start"
         id="flowRegion1072"><rect
           style="font-style:normal;font-variant:normal;font-weight:normal;font-stretch:normal;font-size:170.66667175px;font-family:'Fira Code';-inkscape-font-specification:'Fira Code, Normal';font-variant-ligatures:normal;font-variant-caps:normal;font-variant-numeric:normal;font-feature-settings:normal;text-align:start;writing-mode:lr-tb;text-anchor:start"
           y="161.62712"
           x="144.27118"
           height="196.33899"
           width="357.96609"
           id="rect1070" /></flowRegion><flowPara
         id="flowPara1074"></flowPara></flowRoot>    <g
       style="opacity:0.8;fill:#1a1a1a;fill-opacity:1;filter:url(#filter1112)"
       id="g1088"
       transform="matrix(0.67750675,0,0,0.67750675,37.279135,121.83741)">
      <g
         aria-label="{"
         style="font-style:normal;font-variant:normal;font-weight:500;font-stretch:normal;font-size:170.66667175px;line-height:1.25;font-family:'Fira Code';-inkscape-font-specification:'Fira Code, Medium';font-variant-ligatures:normal;font-variant-caps:normal;font-variant-numeric:normal;font-feature-settings:normal;text-align:start;letter-spacing:0px;word-spacing:0px;writing-mode:lr-tb;text-anchor:start;fill:#1a1a1a;fill-opacity:1;stroke:none"
         id="g1080"
         transform="matrix(0.67376798,0,0,0.67376798,-106.43089,198.22187)">
        <path
           style="fill:#1a1a1a;fill-opacity:1"
           d="m 237.4517,192.61546 c -23.72267,0 -39.25333,6.656 -37.03467,28.50133 l 3.24267,29.52533 c 1.19467,12.11734 -5.29067,17.408 -24.91733,17.408 v 15.36 c 19.79733,0 26.112,5.46134 24.91733,17.57867 l -3.24267,29.52534 c -2.21866,21.67466 13.312,28.33066 37.03467,28.33066 v -14.16533 c -11.60533,0 -20.30933,-2.56 -19.28533,-12.45867 l 3.072,-31.40266 c 1.70666,-16.55467 -5.46134,-22.69867 -19.79734,-25.08801 13.824,-2.38933 21.504,-9.04533 19.79734,-25.088 l -3.072,-31.40266 c -1.024,-9.728 7.50933,-12.45867 19.28533,-12.45867 z"
           id="path1078"
           inkscape:connector-curvature="0" />
      </g>
      <g
         aria-label="}"
         style="font-style:normal;font-variant:normal;font-weight:500;font-stretch:normal;font-size:170.66667175px;line-height:1.25;font-family:'Fira Code';-inkscape-font-specification:'Fira Code, Medium';font-variant-ligatures:normal;font-variant-caps:normal;font-variant-numeric:normal;font-feature-settings:normal;text-align:start;letter-spacing:0px;word-spacing:0px;writing-mode:lr-tb;text-anchor:start;fill:#1a1a1a;fill-opacity:1;stroke:none"
         id="g1084"
         transform="matrix(0.67375992,0,0,0.67375992,-82.954558,200.41644)">
        <path
           style="fill:#1a1a1a;fill-opacity:1"
           d="m 423.59088,189.36155 v 14.16533 c 11.60533,0 20.30933,2.73067 19.28533,12.45867 l -3.072,31.40267 c -1.70666,16.21333 5.80267,22.69866 20.99201,25.25866 -15.18934,2.21867 -22.69867,8.36267 -20.99201,24.91734 l 3.072,31.40267 c 1.024,9.89866 -7.50933,12.45866 -19.28533,12.45866 v 14.16534 c 23.72267,0 39.25334,-6.656 37.03467,-28.50134 l -3.24267,-29.35466 c -1.19466,-12.11734 6.48534,-17.57867 24.91734,-17.57867 v -15.36 c -18.432,0 -26.112,-5.29067 -24.91734,-17.408 l 3.24267,-29.696 c 2.21867,-21.67467 -13.312,-28.33067 -37.03467,-28.33067 z"
           id="path1082"
           inkscape:connector-curvature="0" />
      </g>
      <path
         d="m 168.0125,87.999999 h -80 C 65.912503,87.999999 48.012501,105.9 48.012501,128 c 0,22.1 17.900002,40 39.999999,40 11.200002,0 21.3,-4.6 28.55,-12 h 22.875 c 7.25,7.4 17.375,12 28.55,12 22.1,0 40,-17.9 40,-40 0,-22.1 -17.875,-40.000001 -39.975,-40.000001 z M 112.0125,133 c 0,1.64999 -1.35,3 -3,3 h -13 v 13 c 0,1.64999 -1.349997,3 -3,3 h -10 c -1.649998,0 -3,-1.35001 -3,-3 V 136 H 67.012501 c -1.649999,0 -3,-1.35001 -3,-3 v -10 c 0,-1.65 1.350001,-3 3,-3 H 80.0125 v -13 c 0,-1.65 1.350002,-3 3,-3 h 10 c 1.650003,0 3,1.35 3,3 v 13 h 13 c 1.65,0 3,1.35 3,3 z m 45.99999,16.99999 c -6.62499,0 -12,-5.37499 -12,-11.99999 0,-6.625 5.37501,-12 12,-12 6.62501,0 12,5.375 12,12 0,6.625 -5.37499,11.99999 -12,11.99999 z m 20,-19.99999 c -6.62499,0 -12,-5.375 -12,-12 0,-6.625 5.37501,-12 12,-12 6.62501,0 12,5.375 12,12 0,6.625 -5.37499,12 -12,12 z"
         id="path1086"
         inkscape:connector-curvature="0"
         style="fill:#1a1a1a;fill-opacity:1;stroke-width:0.24999999"
         transform="translate(0,256)" />
    </g>
  </g>
  <g
     inkscape:groupmode="layer"
     id="layer1"
     inkscape:label="braces"
     style="display:inline"
     transform="translate(0,-256)">
    <flowRoot
       xml:space="preserve"
       id="flowRoot818"
       style="font-style:normal;font-variant:normal;font-weight:normal;font-stretch:normal;font-size:170.66667175px;line-height:1.25;font-family:'Fira Code';-inkscape-font-specification:'Fira Code, Normal';font-variant-ligatures:normal;font-variant-caps:normal;font-variant-numeric:normal;font-feature-settings:normal;text-align:start;letter-spacing:0px;word-spacing:0px;writing-mode:lr-tb;text-anchor:start;fill:#000000;fill-opacity:1;stroke:none"><flowRegion
         id="flowRegion820"
         style="font-style:normal;font-variant:normal;font-weight:normal;font-stretch:normal;font-size:170.66667175px;font-family:'Fira Code';-inkscape-font-specification:'Fira Code, Normal';font-variant-ligatures:normal;font-variant-caps:normal;font-variant-numeric:normal;font-feature-settings:normal;text-align:start;writing-mode:lr-tb;text-anchor:start"><rect
           id="rect822"
           width="357.96609"
           height="196.33899"
           x="144.27118"
           y="161.62712"
           style="font-style:normal;font-variant:normal;font-weight:normal;font-stretch:normal;font-size:170.66667175px;font-family:'Fira Code';-inkscape-font-specification:'Fira Code, Normal';font-variant-ligatures:normal;font-variant-caps:normal;font-variant-numeric:normal;font-feature-settings:normal;text-align:start;writing-mode:lr-tb;text-anchor:start" /></flowRegion><flowPara
         id="flowPara824"></flowPara></flowRoot>    <g
       id="g857"
       transform="matrix(0.67750675,0,0,0.67750675,35.924122,119.12738)"
       style="fill:#76ff03;fill-opacity:1">
      <g
         transform="matrix(0.67376798,0,0,0.67376798,-106.43089,198.22187)"
         id="flowRoot826"
         style="font-style:normal;font-variant:normal;font-weight:500;font-stretch:normal;font-size:170.66667175px;line-height:1.25;font-family:'Fira Code';-inkscape-font-specification:'Fira Code, Medium';font-variant-ligatures:normal;font-variant-caps:normal;font-variant-numeric:normal;font-feature-settings:normal;text-align:start;letter-spacing:0px;word-spacing:0px;writing-mode:lr-tb;text-anchor:start;fill:#76ff03;fill-opacity:1;stroke:none"
         aria-label="{">
        <path
           inkscape:connector-curvature="0"
           id="path847"
           d="m 237.4517,192.61546 c -23.72267,0 -39.25333,6.656 -37.03467,28.50133 l 3.24267,29.52533 c 1.19467,12.11734 -5.29067,17.408 -24.91733,17.408 v 15.36 c 19.79733,0 26.112,5.46134 24.91733,17.57867 l -3.24267,29.52534 c -2.21866,21.67466 13.312,28.33066 37.03467,28.33066 v -14.16533 c -11.60533,0 -20.30933,-2.56 -19.28533,-12.45867 l 3.072,-31.40266 c 1.70666,-16.55467 -5.46134,-22.69867 -19.79734,-25.08801 13.824,-2.38933 21.504,-9.04533 19.79734,-25.088 l -3.072,-31.40266 c -1.024,-9.728 7.50933,-12.45867 19.28533,-12.45867 z"
           style="fill:#76ff03;fill-opacity:1" />
      </g>
      <g
         transform="matrix(0.67375992,0,0,0.67375992,-82.954558,200.41644)"
         id="flowRoot834"
         style="font-style:normal;font-variant:normal;font-weight:500;font-stretch:normal;font-size:170.66667175px;line-height:1.25;font-family:'Fira Code';-inkscape-font-specification:'Fira Code, Medium';font-variant-ligatures:normal;font-variant-caps:normal;font-variant-numeric:normal;font-feature-settings:normal;text-align:start;letter-spacing:0px;word-spacing:0px;writing-mode:lr-tb;text-anchor:start;fill:#76ff03;fill-opacity:1;stroke:none"
         aria-label="}">
        <path
           inkscape:connector-curvature="0"
           id="path844"
           d="m 423.59088,189.36155 v 14.16533 c 11.60533,0 20.30933,2.73067 19.28533,12.45867 l -3.072,31.40267 c -1.70666,16.21333 5.80267,22.69866 20.99201,25.25866 -15.18934,2.21867 -22.69867,8.36267 -20.99201,24.91734 l 3.072,31.40267 c 1.024,9.89866 -7.50933,12.45866 -19.28533,12.45866 v 14.16534 c 23.72267,0 39.25334,-6.656 37.03467,-28.50134 l -3.24267,-29.35466 c -1.19466,-12.11734 6.48534,-17.57867 24.91734,-17.57867 v -15.36 c -18.432,0 -26.112,-5.29067 -24.91734,-17.408 l 3.24267,-29.696 c 2.21867,-21.67467 -13.312,-28.33067 -37.03467,-28.33067 z"
           style="fill:#76ff03;fill-opacity:1" />
      </g>
      <path
         transform="translate(0,256)"
         style="fill:#76ff03;fill-opacity:1;stroke-width:0.24999999"
         inkscape:connector-curvature="0"
         id="path2"
         d="m 168.0125,87.999999 h -80 C 65.912503,87.999999 48.012501,105.9 48.012501,128 c 0,22.1 17.900002,40 39.999999,40 11.200002,0 21.3,-4.6 28.55,-12 h 22.875 c 7.25,7.4 17.375,12 28.55,12 22.1,0 40,-17.9 40,-40 0,-22.1 -17.875,-40.000001 -39.975,-40.000001 z M 112.0125,133 c 0,1.64999 -1.35,3 -3,3 h -13 v 13 c 0,1.64999 -1.349997,3 -3,3 h -10 c -1.649998,0 -3,-1.35001 -3,-3 V 136 H 67.012501 c -1.649999,0 -3,-1.35001 -3,-3 v -10 c 0,-1.65 1.350001,-3 3,-3 H 80.0125 v -13 c 0,-1.65 1.350002,-3 3,-3 h 10 c 1.650003,0 3,1.35 3,3 v 13 h 13 c 1.65,0 3,1.35 3,3 z m 45.99999,16.99999 c -6.62499,0 -12,-5.37499 -12,-11.99999 0,-6.625 5.37501,-12 12,-12 6.62501,0 12,5.375 12,12 0,6.625 -5.37499,11.99999 -12,11.99999 z m 20,-19.99999 c -6.62499,0 -12,-5.375 -12,-12 0,-6.625 5.37501,-12 12,-12 6.62501,0 12,5.375 12,12 0,6.625 -5.37499,12 -12,12 z" />
    </g>
  </g>
  <g
     inkscape:groupmode="layer"
     id="layer4"
     inkscape:label="glare"
     style="display:inline">
    <path
       inkscape:connector-curvature="0"
       d="M 147.32109,56.821612 101.38511,188.82155 H 213.32106 V 56.821612 Z"
       style="opacity:0.23200001;fill:#ede8d5;fill-opacity:0.63649998;stroke:none;stroke-width:5.99999762"
       id="path1229" />
  </g>
  <g
     inkscape:groupmode="layer"
     id="layer5"
     inkscape:label="frame"
     style="display:inline">
    <path
       inkscape:connector-curvature="0"
       d="m 33.801136,51.061614 c -3.515998,0.372 -6.467997,3.665999 -6.449997,7.199997 V 187.86156 c 0,3.76799 3.431999,7.19999 7.199997,7.19999 h 64.799972 v 12.15 h 47.999982 v -12.15 h 64.79997 c 3.768,0 7.2,-3.432 7.2,-7.19999 V 58.261611 c 0,-3.767998 -3.432,-7.199997 -7.2,-7.199997 H 34.551136 Z m 9.521996,12.149995 c 0.3,-0.06 0.6,-0.06 0.9,0 H 202.45506 c 2.514,0 4.8,2.285999 4.8,4.799998 V 178.48956 c 0,2.514 -2.286,4.8 -4.8,4.8 H 44.223132 c -2.513999,0 -4.799998,-2.286 -4.799998,-4.8 V 68.011607 c -0.042,-2.237999 1.697999,-4.379998 3.899998,-4.799998 z M 69.495121,213.13954 v 12.15 H 183.49507 v -12.15 z"
       style="color:#000000;display:inline;fill:#9e9e9e;fill-opacity:1;stroke-width:5.99999762"
       id="path1231" />
  </g>
</svg>
