<?xml version="1.0" encoding="utf-8"?>
<!-- Generator: Adobe Illustrator 16.0.0, SVG Export Plug-In . SVG Version: 6.00 Build 0)  -->
<!DOCTYPE svg PUBLIC "-//W3C//DTD SVG 1.1//EN" "http://www.w3.org/Graphics/SVG/1.1/DTD/svg11.dtd">
<svg version="1.1" id="Layer_1" xmlns="http://www.w3.org/2000/svg" xmlns:xlink="http://www.w3.org/1999/xlink" x="0px" y="0px"
	 width="57.02px" height="57.02px" viewBox="-2.01 0.002 57.02 57.02" enable-background="new -2.01 0.002 57.02 57.02"
	 xml:space="preserve">
<g>
	<circle fill="#5F81D4" cx="36.881" cy="28.663" r="16.119"/>
	<circle fill="#5F81D4" cx="17.41" cy="17.126" r="17.126"/>
	<circle fill="#5F81D4" cx="16.177" cy="40.847" r="16.177"/>
	<circle fill="#F2F2F2" cx="11.179" cy="28.862" r="10.28"/>
	<circle fill="#F2F2F2" cx="28.947" cy="39.042" r="10.281"/>
	<circle fill="#F2F2F2" cx="28.947" cy="18.48" r="10.281"/>
	<path fill="#FFBF00" d="M11.887,9.175c0.687-0.335,1.347,0.2,1.347,0.2l15.761,9.086l15.239,8.794c0,0,0.965,0.459,0.965,1.556
		c0,1.1-0.973,1.458-0.973,1.458L28.96,39.063l-16.116,9.283c0,0-0.47,0.407-1.076,0.146c-0.692-0.3-0.512-1.063-0.512-1.063V28.762
		V10.396C11.257,10.396,11.18,9.52,11.887,9.175z"/>
</g>
</svg>
