<?xml version="1.0" encoding="UTF-8" standalone="no"?>
<svg
   xmlns:dc="http://purl.org/dc/elements/1.1/"
   xmlns:cc="http://creativecommons.org/ns#"
   xmlns:rdf="http://www.w3.org/1999/02/22-rdf-syntax-ns#"
   xmlns:svg="http://www.w3.org/2000/svg"
   xmlns="http://www.w3.org/2000/svg"
   xmlns:sodipodi="http://sodipodi.sourceforge.net/DTD/sodipodi-0.dtd"
   xmlns:inkscape="http://www.inkscape.org/namespaces/inkscape"
   width="100mm"
   height="100mm"
   viewBox="0 0 100 100"
   version="1.1"
   id="svg8"
   inkscape:version="1.0.1 (3bc2e813f5, 2020-09-07, custom)"
   sodipodi:docname="icon.svg">
  <defs
     id="defs2">
    <style
       id="style1070">.cls-1,.cls-6{fill:none;stroke-miterlimit:10;}.cls-1{stroke:#666;stroke-width:8px;}.cls-2{fill:#4d4d4d;}.cls-3{fill:#666;}.cls-4{fill:gray;}.cls-5{fill:#e6e6e6;}.cls-6{stroke:#4d4d4d;stroke-width:4px;}.cls-7{fill:#75c4e0;}</style>
  </defs>
  <sodipodi:namedview
     id="base"
     pagecolor="#ffffff"
     bordercolor="#666666"
     borderopacity="1.0"
     inkscape:pageopacity="0.0"
     inkscape:pageshadow="2"
     inkscape:zoom="1.979899"
     inkscape:cx="76.37935"
     inkscape:cy="184.36524"
     inkscape:document-units="mm"
     inkscape:current-layer="layer1"
     inkscape:document-rotation="0"
     showgrid="false"
     inkscape:window-width="1920"
     inkscape:window-height="1050"
     inkscape:window-x="0"
     inkscape:window-y="30"
     inkscape:window-maximized="0" />
  <metadata
     id="metadata5">
    <rdf:RDF>
      <cc:Work
         rdf:about="">
        <dc:format>image/svg+xml</dc:format>
        <dc:type
           rdf:resource="http://purl.org/dc/dcmitype/StillImage" />
        <dc:title></dc:title>
      </cc:Work>
    </rdf:RDF>
  </metadata>
  <g
     inkscape:label="Layer 1"
     inkscape:groupmode="layer"
     id="layer1">
    <circle
       style="fill:#39ba61;fill-opacity:1;stroke-width:1.91857;stop-color:#000000"
       id="path10"
       cx="50"
       cy="50"
       r="49.198982" />
    <g
       id="Layer_1-2"
       data-name="Layer 1"
       transform="matrix(0.63956536,0,0,0.63956536,14.823905,14.896245)">
      <path
         class="cls-1"
         d="M 33.38,45.74 V 25.59 a 21.59,21.59 0 0 1 43.18,0 v 20.15"
         id="path1076" />
      <rect
         class="cls-2"
         x="92.57"
         y="32.09"
         width="6.9000001"
         height="8.2200003"
         id="rect1078" />
      <rect
         class="cls-2"
         x="9.5"
         y="30.33"
         width="9.3699999"
         height="8.2200003"
         id="rect1080" />
      <path
         class="cls-3"
         d="M 103.43,98.19 H 6.52 A 6.5,6.5 0 0 1 0,91.71 V 40 a 6.5,6.5 0 0 1 6.52,-6.48 h 34.19 a 3.22,3.22 0 0 0 2.35,-1 l 4.7,-5.06 a 3.23,3.23 0 0 1 2.35,-1 h 9.73 a 3.23,3.23 0 0 1 2.35,1 l 4.7,5.06 a 3.22,3.22 0 0 0 2.35,1 h 34.19 A 6.5,6.5 0 0 1 110,40 v 51.71 a 6.5,6.5 0 0 1 -6.57,6.48 z"
         id="path1082" />
      <path
         class="cls-4"
         d="M 0,51.57 V 40 a 6.5,6.5 0 0 1 6.52,-6.48 h 34.19 a 3.22,3.22 0 0 0 2.35,-1 l 4.7,-5.06 a 3.23,3.23 0 0 1 2.35,-1 h 9.73 a 3.23,3.23 0 0 1 2.35,1 l 4.7,5.06 a 3.22,3.22 0 0 0 2.35,1 h 34.19 A 6.5,6.5 0 0 1 110,40 v 11.57"
         id="path1084" />
      <circle
         class="cls-5"
         cx="54.970001"
         cy="70.43"
         r="22.08"
         id="circle1086" />
      <circle
         class="cls-6"
         cx="54.970001"
         cy="70.43"
         r="24.01"
         id="circle1088" />
      <circle
         class="cls-5"
         cx="93.540001"
         cy="42.790001"
         r="4.6399999"
         id="circle1090" />
      <circle
         class="cls-7"
         cx="54.970001"
         cy="70.43"
         r="17.59"
         id="circle1092" />
      <circle
         class="cls-2"
         cx="54.970001"
         cy="64.959999"
         r="5.4699998"
         id="circle1094" />
      <polygon
         class="cls-2"
         points="50.38,81.71 52.76,68 57.19,68 59.56,81.71 "
         id="polygon1096" />
      <rect
         class="cls-5"
         x="5.9000001"
         y="38.150002"
         width="20.049999"
         height="9.2799997"
         id="rect1098" />
    </g>
  </g>
</svg>
