<?xml version="1.0" encoding="UTF-8" standalone="no"?>
<!-- Created with Inkscape (http://www.inkscape.org/) -->

<svg
   xmlns:dc="http://purl.org/dc/elements/1.1/"
   xmlns:cc="http://creativecommons.org/ns#"
   xmlns:rdf="http://www.w3.org/1999/02/22-rdf-syntax-ns#"
   xmlns:svg="http://www.w3.org/2000/svg"
   xmlns="http://www.w3.org/2000/svg"
   xmlns:sodipodi="http://sodipodi.sourceforge.net/DTD/sodipodi-0.dtd"
   xmlns:inkscape="http://www.inkscape.org/namespaces/inkscape"
   id="svg2"
   version="1.1"
   inkscape:version="0.48.5 r10040"
   width="512"
   height="512"
   viewBox="0 0 512 512"
   sodipodi:docname="cycle.svg">
  <metadata
     id="metadata8">
    <rdf:RDF>
      <cc:Work
         rdf:about="">
        <dc:format>image/svg+xml</dc:format>
        <dc:type
           rdf:resource="http://purl.org/dc/dcmitype/StillImage" />
        <dc:title />
      </cc:Work>
    </rdf:RDF>
  </metadata>
  <defs
     id="defs6" />
  <sodipodi:namedview
     pagecolor="#ffffff"
     bordercolor="#666666"
     borderopacity="1"
     objecttolerance="10"
     gridtolerance="10"
     guidetolerance="10"
     inkscape:pageopacity="0"
     inkscape:pageshadow="2"
     inkscape:window-width="1366"
     inkscape:window-height="716"
     id="namedview4"
     showgrid="false"
     inkscape:zoom="0.73606238"
     inkscape:cx="124.68614"
     inkscape:cy="234.09145"
     inkscape:window-x="0"
     inkscape:window-y="0"
     inkscape:window-maximized="1"
     inkscape:current-layer="svg2" />
  <g
     transform="matrix(12.484842,0,0,12.484842,-545.32007,-790.99194)"
     id="g20"
     style="fill:#006680;stroke:#006680;stroke-opacity:1">
    <linearGradient
       id="SVGID_2_"
       gradientUnits="userSpaceOnUse"
       x1="64.779297"
       y1="89.454102"
       x2="81.225601"
       y2="89.454102">
      <stop
         offset="0"
         style="stop-color:#80C11B"
         id="stop23" />
      <stop
         offset="1"
         style="stop-color:#80E21B"
         id="stop25" />
    </linearGradient>
    <path
       inkscape:connector-curvature="0"
       d="m 68.818,87.321 -4.039,7.105 4.105,7.037 -0.016,-3.096 3.416,-0.063 c 2.135,-0.059 3.303,-1.699 3.303,-1.699 l 5.166,-8.844 c 1.104,-2.484 -0.076,-4.172 -0.076,-4.172 l -3.594,-6.146 -7.104,4.107 4.563,7.889 c 0.168,0.416 -0.1,0.754 -0.596,0.746 l -5.107,0.035 -0.021,-2.899 0,0 z"
       id="path27"
       style="fill:#006680;stroke:#006680;stroke-opacity:1" />
    <linearGradient
       id="SVGID_3_"
       gradientUnits="userSpaceOnUse"
       x1="46.181198"
       y1="88.808601"
       x2="62.918499"
       y2="88.808601">
      <stop
         offset="0"
         style="stop-color:#80C11B"
         id="stop30" />
      <stop
         offset="1"
         style="stop-color:#80E21B"
         id="stop32" />
    </linearGradient>
    <path
       inkscape:connector-curvature="0"
       d="m 58.476,86.259 -4.15,-7.043 -8.145,0.055 2.689,1.529 -1.651,2.99 c -1.013,1.881 -0.17,3.711 -0.17,3.711 l 5.096,8.885 c 1.604,2.197 3.656,2.011 3.656,2.011 l 7.118,-0.05 -0.024,-8.207 -9.112,0.027 C 53.34,90.104 53.179,89.706 53.432,89.278 l 2.515,-4.447 2.529,1.428 0,0 z"
       id="path34"
       style="fill:#006680;stroke:#006680;stroke-opacity:1" />
    <linearGradient
       id="SVGID_4_"
       gradientUnits="userSpaceOnUse"
       x1="51.8843"
       y1="73.499001"
       x2="76.783203"
       y2="73.499001">
      <stop
         offset="0"
         style="stop-color:#80C11B"
         id="stop37" />
      <stop
         offset="1"
         style="stop-color:#80E21B"
         id="stop39" />
    </linearGradient>
    <path
       inkscape:connector-curvature="0"
       d="m 64.572,77.841 8.174,-0.063 4.037,-7.074 -2.672,1.561 -1.762,-2.928 C 71.232,67.519 69.224,67.329 69.224,67.329 L 58.981,67.282 c -2.707,0.287 -3.573,2.154 -3.573,2.154 l -3.524,6.188 7.111,4.092 4.546,-7.896 c 0.276,-0.354 0.701,-0.291 0.944,0.145 l 2.588,4.402 -2.501,1.474 0,0 z"
       id="path41"
       style="fill:#006680;stroke:#006680;stroke-opacity:1" />
  </g>
</svg>
