<?xml version="1.0" encoding="UTF-8" standalone="no"?>
<!-- Created with Inkscape (http://www.inkscape.org/) -->

<svg
   width="639.85999"
   height="639.86005"
   viewBox="0 0 169.29629 169.2963"
   version="1.1"
   id="svg5547"
   inkscape:version="1.2.2 (b0a8486541, 2022-12-01)"
   sodipodi:docname="emulsion-logo.svg"
   inkscape:export-filename="logo-150px.png"
   inkscape:export-xdpi="22.504923"
   inkscape:export-ydpi="22.504923"
   xmlns:inkscape="http://www.inkscape.org/namespaces/inkscape"
   xmlns:sodipodi="http://sodipodi.sourceforge.net/DTD/sodipodi-0.dtd"
   xmlns="http://www.w3.org/2000/svg"
   xmlns:svg="http://www.w3.org/2000/svg">
  <sodipodi:namedview
     id="namedview5549"
     pagecolor="#545454"
     bordercolor="#000000"
     borderopacity="0.25"
     inkscape:showpageshadow="2"
     inkscape:pageopacity="0"
     inkscape:pagecheckerboard="0"
     inkscape:deskcolor="#d1d1d1"
     inkscape:document-units="mm"
     showgrid="false"
     inkscape:zoom="0.27433372"
     inkscape:cx="-58.323125"
     inkscape:cy="111.17846"
     inkscape:window-width="1187"
     inkscape:window-height="1036"
     inkscape:window-x="0"
     inkscape:window-y="20"
     inkscape:window-maximized="1"
     inkscape:current-layer="layer1" />
  <defs
     id="defs5544" />
  <g
     inkscape:label="Layer 1"
     inkscape:groupmode="layer"
     id="layer1"
     transform="translate(-137.87831,-101.48004)">
    <g
       id="g6108"
       transform="matrix(2.0327913,0,0,2.0327913,45.079082,-86.282738)">
      <g
         id="rect393">
        <path
           style="color:#000000;fill:#fdfdfd;fill-opacity:0.00565736;stroke-width:2.92243;stroke-linecap:round;stroke-linejoin:round;-inkscape-stroke:none;paint-order:fill markers stroke"
           d="M 97.715194,98.787918 52.252742,144.25037 c -6.868956,6.86895 -6.868956,17.92875 0,24.7977 6.868955,6.86896 17.928745,6.86896 24.7977,0 l 45.462448,-45.46245 z"
           id="path5998" />
        <path
           style="color:#000000;fill:#b0f0f4;stroke-linecap:round;stroke-linejoin:round;-inkscape-stroke:none;paint-order:fill markers stroke"
           d="M 96.681641,97.753906 51.21875,143.2168 c -7.423491,7.42348 -7.423491,19.44175 0,26.86523 7.423489,7.4235 19.441745,7.4235 26.865234,0 l 45.462896,-45.46289 a 1.4613611,1.4613611 0 0 0 0,-2.06641 L 98.748047,97.753906 a 1.4613611,1.4613611 0 0 0 -2.066406,0 z m 1.033203,3.099614 22.732426,22.73242 -44.429692,44.42968 c -6.314407,6.31442 -16.418014,6.31442 -22.732422,0 -6.314407,-6.3144 -6.314407,-16.41802 0,-22.73242 z"
           id="path6000" />
      </g>
      <g
         id="circle9410">
        <path
           style="color:#000000;fill:#05ed00;stroke-width:1.49166;stroke-linecap:square;-inkscape-stroke:none;paint-order:fill markers stroke"
           d="m 127.42901,98.502703 a 4.8694055,4.8694055 0 0 1 -4.8694,4.869407 4.8694055,4.8694055 0 0 1 -4.86941,-4.869407 4.8694055,4.8694055 0 0 1 4.86941,-4.869406 4.8694055,4.8694055 0 0 1 4.8694,4.869406 z"
           id="path5992" />
        <path
           style="color:#000000;fill:#cfd2f7;stroke-linecap:square;-inkscape-stroke:none;paint-order:fill markers stroke"
           d="m 122.56055,92.886719 c -3.09238,-3e-6 -5.61524,2.52286 -5.61524,5.615234 0,3.092377 2.52286,5.615237 5.61524,5.615237 3.09237,-10e-6 5.61523,-2.52287 5.61523,-5.615237 0,-3.092369 -2.52286,-5.615231 -5.61523,-5.615234 z m 0,1.492187 c 2.28621,3e-6 4.12304,1.836829 4.12304,4.123047 0,2.286217 -1.83682,4.124997 -4.12304,4.124997 -2.28622,1e-5 -4.125,-1.83878 -4.125,-4.124997 0,-2.286221 1.83878,-4.123049 4.125,-4.123047 z"
           id="path5994" />
      </g>
      <g
         id="path3983">
        <path
           style="color:#000000;fill:#0dfd00;stroke-width:2.92243;stroke-linecap:round;stroke-linejoin:round;-inkscape-stroke:none;paint-order:fill markers stroke"
           d="M 92.755654,93.828374 127.47243,128.54515"
           id="path5907" />
        <path
           style="color:#000000;fill:#b0f0f4;stroke-linecap:round;stroke-linejoin:round;-inkscape-stroke:none;paint-order:fill markers stroke"
           d="m 91.722656,92.794922 a 1.461215,1.461215 0 0 0 0,2.066406 l 34.716794,34.716792 a 1.461215,1.461215 0 0 0 2.06641,0 1.461215,1.461215 0 0 0 0,-2.0664 L 93.789062,92.794922 a 1.461215,1.461215 0 0 0 -2.066406,0 z"
           id="path5909" />
      </g>
      <path
         id="path5969"
         style="fill:#656ee4;fill-opacity:1;stroke:none;stroke-width:1.46122;stroke-linecap:round;stroke-linejoin:round;stroke-dasharray:none;stroke-opacity:1;paint-order:fill markers stroke;stop-color:#000000"
         d="m 64.266365,134.27254 -10.995669,10.9951 c -6.304768,6.30477 -6.304792,16.45711 0,22.76191 6.304792,6.30478 16.457113,6.30478 22.761903,0 l 33.758711,-33.75701 z" />
      <g
         id="circle7287">
        <path
           style="color:#000000;fill:#fd0000;stroke-width:1.49166;stroke-linecap:square;-inkscape-stroke:none;paint-order:fill markers stroke"
           d="m 89.366216,124.92074 a 3.3333068,3.3333068 0 0 1 -3.333307,3.33331 3.3333068,3.3333068 0 0 1 -3.333307,-3.33331 3.3333068,3.3333068 0 0 1 3.333307,-3.33331 3.3333068,3.3333068 0 0 1 3.333307,3.33331 z"
           id="path5980" />
        <path
           style="color:#000000;fill:#cfd2f7;stroke-linecap:square;-inkscape-stroke:none;paint-order:fill markers stroke"
           d="m 86.033203,120.8418 c -2.24401,0 -4.08008,1.83411 -4.080078,4.07812 -2e-6,2.24401 1.836068,4.08008 4.080078,4.08008 2.24401,0 4.078127,-1.83607 4.078125,-4.08008 2e-6,-2.24401 -1.834115,-4.07812 -4.078125,-4.07812 z m 0,1.49218 c 1.437858,0 2.587892,1.14808 2.587891,2.58594 10e-7,1.43786 -1.150033,2.58789 -2.587891,2.58789 -1.437858,0 -2.587892,-1.15003 -2.587891,-2.58789 -10e-7,-1.43786 1.150033,-2.58594 2.587891,-2.58594 z"
           id="path5982" />
      </g>
      <g
         id="circle7289">
        <path
           style="color:#000000;fill:#0081fd;stroke-width:1.49166;stroke-linecap:square;-inkscape-stroke:none;paint-order:fill markers stroke"
           d="m 108.06981,122.58279 a 5.6712606,5.6712606 0 0 1 -5.67126,5.67126 5.6712606,5.6712606 0 0 1 -5.671261,-5.67126 5.6712606,5.6712606 0 0 1 5.671261,-5.67126 5.6712606,5.6712606 0 0 1 5.67126,5.67126 z"
           id="path5974" />
        <path
           style="color:#000000;fill:#cfd2f7;stroke-linecap:square;-inkscape-stroke:none;paint-order:fill markers stroke"
           d="m 102.39844,116.16602 c -3.535226,0 -6.416018,2.88079 -6.416018,6.41601 0,3.53522 2.880792,6.41797 6.416018,6.41797 3.53522,0 6.41797,-2.88275 6.41797,-6.41797 0,-3.53522 -2.88275,-6.41601 -6.41797,-6.41601 z m 0,1.49218 c 2.72907,0 4.92578,2.19476 4.92578,4.92383 0,2.72907 -2.19671,4.92578 -4.92578,4.92578 -2.729074,0 -4.925783,-2.19671 -4.925784,-4.92578 10e-7,-2.72907 2.19671,-4.92383 4.925784,-4.92383 z"
           id="path5976" />
      </g>
      <g
         id="circle7291">
        <path
           style="color:#000000;fill:#ddfd00;stroke-width:1.49166;stroke-linecap:square;-inkscape-stroke:none;paint-order:fill markers stroke"
           d="m 111.45799,98.529288 a 3.3333068,3.3333068 0 0 1 -3.33331,3.333302 3.3333068,3.3333068 0 0 1 -3.33331,-3.333302 3.3333068,3.3333068 0 0 1 3.33331,-3.333307 3.3333068,3.3333068 0 0 1 3.33331,3.333307 z"
           id="path5967" />
        <path
           style="color:#000000;fill:#cfd2f7;stroke-linecap:square;-inkscape-stroke:none;paint-order:fill markers stroke"
           d="m 108.125,94.449219 c -2.24401,-2e-6 -4.08008,1.836068 -4.08008,4.080078 10e-6,2.244003 1.83607,4.080083 4.08008,4.080083 2.24401,0 4.07812,-1.83608 4.07813,-4.080083 0,-2.24401 -1.83412,-4.08008 -4.07813,-4.080078 z m 0,1.492187 c 1.43786,-10e-7 2.58789,1.150033 2.58789,2.587891 0,1.437856 -1.15003,2.587893 -2.58789,2.587893 -1.43786,0 -2.58789,-1.150037 -2.58789,-2.587893 0,-1.437858 1.15003,-2.587892 2.58789,-2.587891 z"
           id="path5970" />
      </g>
      <g
         id="path12763">
        <path
           style="color:#000000;fill:#7be3a5;stroke-width:1.35125;stroke-linecap:square;-inkscape-stroke:none;paint-order:fill markers stroke"
           d="M 55.976283,152.53048 58.70377,149.803 c 0,0 0.909163,-0.90917 1.818326,0 0.909164,0.90916 3.636646,3.63664 3.636646,3.63664 l 3.63665,-3.63665 c 0,0 0.909158,-0.90916 1.818322,1e-5 0.909164,0.90916 2.727486,2.72748 2.727486,2.72748 0,0 0.909164,0.90917 5e-6,1.81833 -0.909164,0.90916 -3.63665,3.63665 -3.63665,3.63665 l 3.63665,3.63665 c 0,0 0.909159,0.90915 -5e-6,1.81832 -0.909159,0.90916 -2.727486,2.72748 -2.727486,2.72748 0,0 -0.909164,0.90917 -1.818322,1e-5 -0.909164,-0.90916 -3.63665,-3.63665 -3.63665,-3.63665 l -3.636646,3.63664 c 0,0 -0.909163,0.90917 -1.818326,0 -0.909164,-0.90916 -2.727487,-2.72748 -2.727487,-2.72748 0,0 -0.909163,-0.90917 0,-1.81833 0.909164,-0.90916 3.636646,-3.63664 3.636646,-3.63664 l -3.636646,-3.63665 c 0,0 -0.909163,-0.90916 0,-1.81833 z"
           id="path5961" />
        <path
           style="color:#000000;fill:#625bcc;stroke-linecap:square;-inkscape-stroke:none;paint-order:fill markers stroke"
           d="m 59.990234,148.7793 c -0.344662,-0.0706 -0.675711,-0.0443 -0.93164,0.041 -0.511858,0.17062 -0.832032,0.50586 -0.832032,0.50586 l -2.728515,2.72656 c -0.613826,0.61383 -0.674525,1.42955 -0.503906,1.94141 0.170619,0.51186 0.503906,0.83203 0.503906,0.83203 l 3.158203,3.1582 c -0.554148,0.55415 -2.368424,2.37039 -3.158203,3.16016 -0.613828,0.61383 -0.674525,1.42955 -0.503906,1.94141 0.170618,0.51185 0.503906,0.83203 0.503906,0.83203 0,0 1.819352,1.81935 2.728515,2.72851 0.613827,0.61384 1.429549,0.67453 1.941407,0.50391 C 60.679826,166.97977 61,166.64648 61,166.64648 l 3.160156,-3.1582 c 0.554971,0.55497 2.368665,2.36867 3.158203,3.1582 0.613826,0.61383 1.429551,0.67453 1.941407,0.50391 0.511855,-0.17062 0.832031,-0.50391 0.832031,-0.50391 0,0 1.817403,-1.81935 2.726562,-2.72851 0.613825,-0.61383 0.674525,-1.42955 0.503907,-1.94141 -0.170619,-0.51185 -0.503907,-0.83203 -0.503907,-0.83203 l -3.158203,-3.16016 c 0.554971,-0.55497 2.368669,-2.36867 3.158203,-3.1582 0.613827,-0.61383 0.674526,-1.42955 0.503907,-1.9414 -0.17062,-0.51186 -0.503907,-0.83204 -0.503907,-0.83204 0,0 -1.817398,-1.8174 -2.726562,-2.72656 -0.613826,-0.61383 -1.429549,-0.67647 -1.941406,-0.50586 -0.511858,0.17062 -0.832032,0.50586 -0.832032,0.50586 l -3.158203,3.1582 C 63.606724,151.93094 61.789994,150.11616 61,149.32617 c -0.306913,-0.30691 -0.665103,-0.47624 -1.009766,-0.54687 z m -0.503906,1.32422 c 0.170014,-0.0567 0.263258,-0.11761 0.558594,0.17773 0.909161,0.90916 3.636719,3.63672 3.636719,3.63672 l 0.476562,0.47656 4.115234,-4.11328 c 0,0 0.134676,-0.12106 0.304688,-0.17773 0.170012,-0.0567 0.263256,-0.11761 0.558594,0.17773 0.909162,0.90916 2.726562,2.72656 2.726562,2.72656 0,0 0.121062,0.13467 0.177735,0.30469 0.05667,0.17002 0.117597,0.26326 -0.177735,0.55859 -0.909166,0.90917 -3.636719,3.63672 -3.636719,3.63672 l -0.476562,0.47852 4.113281,4.11328 c 0,0 0.121065,0.13468 0.177735,0.30469 0.05667,0.17001 0.117603,0.26325 -0.177735,0.55859 -0.909156,0.90916 -2.726562,2.72656 -2.726562,2.72656 0,0 -0.134673,0.12106 -0.304688,0.17774 -0.170015,0.0567 -0.263262,0.11759 -0.558594,-0.17774 -0.90916,-0.90915 -3.636718,-3.63672 -3.636718,-3.63672 l -0.478516,-0.47656 -4.113281,4.11328 c 0,0 -0.134674,0.12107 -0.304688,0.17774 -0.170014,0.0567 -0.263258,0.1176 -0.558593,-0.17774 -0.909163,-0.90916 -2.728516,-2.72656 -2.728516,-2.72656 0,0 -0.121062,-0.13467 -0.177734,-0.30469 -0.05667,-0.17001 -0.1176,-0.26326 0.177734,-0.55859 0.909165,-0.90916 3.636719,-3.63672 3.636719,-3.63672 l 0.478515,-0.47656 -4.115234,-4.11524 c 0,0 -0.121063,-0.13467 -0.177734,-0.30468 -0.05667,-0.17002 -0.117602,-0.26326 0.177734,-0.5586 l 2.728516,-2.72656 c 0,0 0.134673,-0.12106 0.304687,-0.17773 z"
           id="path5963" />
      </g>
    </g>
  </g>
</svg>
