<?xml version="1.0" encoding="UTF-8" standalone="no"?>
<!-- Created with Inkscape (http://www.inkscape.org/) -->

<svg
   xmlns:dc="http://purl.org/dc/elements/1.1/"
   xmlns:cc="http://creativecommons.org/ns#"
   xmlns:rdf="http://www.w3.org/1999/02/22-rdf-syntax-ns#"
   xmlns:svg="http://www.w3.org/2000/svg"
   xmlns="http://www.w3.org/2000/svg"
   xmlns:sodipodi="http://sodipodi.sourceforge.net/DTD/sodipodi-0.dtd"
   xmlns:inkscape="http://www.inkscape.org/namespaces/inkscape"
   id="svg2"
   version="1.1"
   inkscape:version="0.48.4 r9939"
   width="64"
   height="64"
   sodipodi:docname="Neues Dokument 1">
  <metadata
     id="metadata8">
    <rdf:RDF>
      <cc:Work
         rdf:about="">
        <dc:format>image/svg+xml</dc:format>
        <dc:type
           rdf:resource="http://purl.org/dc/dcmitype/StillImage" />
        <dc:title></dc:title>
      </cc:Work>
    </rdf:RDF>
  </metadata>
  <defs
     id="defs6" />
  <sodipodi:namedview
     pagecolor="#ffffff"
     bordercolor="#666666"
     borderopacity="1"
     objecttolerance="10"
     gridtolerance="10"
     guidetolerance="10"
     inkscape:pageopacity="0"
     inkscape:pageshadow="2"
     inkscape:window-width="1366"
     inkscape:window-height="726"
     id="namedview4"
     showgrid="false"
     inkscape:zoom="7.375"
     inkscape:cx="40.041355"
     inkscape:cy="29.298694"
     inkscape:window-x="-2"
     inkscape:window-y="19"
     inkscape:window-maximized="1"
     inkscape:current-layer="svg2" />
  <g
     id="g3090">
    <path
       style="fill:#fbe84e"
       d="M 36,45 36,36 22.5,36 9,36 9,31.5 9,27 l 18,0 18,0 0,13.5 0,13.5 -4.5,0 -4.5,0 0,-9 z"
       id="path3015"
       inkscape:connector-curvature="0" />
    <path
       style="fill:#fbae3d"
       d="m 0,50 0,-14 4.5,0 4.5,0 0,9.5 0,9.5 4.5,0 4.5,0 0,4.5 0,4.5 -9,0 -9,0 0,-14 z"
       id="path3013"
       inkscape:connector-curvature="0" />
    <path
       style="fill:#72d115"
       d="m 36,59 0,-5 9.5,0 9.5,0 0,-9 0,-9 4.5,0 4.5,0 0,14 0,14 -14,0 -14,0 0,-5 z"
       id="path3011"
       inkscape:connector-curvature="0" />
    <path
       style="fill:#3364a3"
       d="m 9,22.5 0,-4.5 4.5,0 4.5,0 0,-4.5 0,-4.5 9,0 9,0 0,9 0,9 L 22.5,27 9,27 9,22.5 z"
       id="path3009"
       inkscape:connector-curvature="0" />
    <path
       style="fill:#8e5801"
       d="m 0,18 0,-18 9,0 9,0 0,9 0,9 -4.5,0 L 9,18 9,27 9,36 4.5,36 0,36 0,18 z"
       id="path3007"
       inkscape:connector-curvature="0" />
    <path
       style="fill:#a30000"
       d="M 18,59.5 18,55 13.5,55 9,55 9,45.5 9,36 l 13.5,0 13.5,0 0,14 0,14 -9,0 -9,0 0,-4.5 z"
       id="path3005"
       inkscape:connector-curvature="0" />
  </g>
</svg>
