<?xml version="1.0" encoding="UTF-8" standalone="no"?>
<svg
   xmlns:dc="http://purl.org/dc/elements/1.1/"
   xmlns:cc="http://creativecommons.org/ns#"
   xmlns:rdf="http://www.w3.org/1999/02/22-rdf-syntax-ns#"
   xmlns:svg="http://www.w3.org/2000/svg"
   xmlns="http://www.w3.org/2000/svg"
   xmlns:xlink="http://www.w3.org/1999/xlink"
   xmlns:sodipodi="http://sodipodi.sourceforge.net/DTD/sodipodi-0.dtd"
   xmlns:inkscape="http://www.inkscape.org/namespaces/inkscape"
   inkscape:export-ydpi="96"
   inkscape:export-xdpi="96"
   inkscape:export-filename="/tmp/icon.png"
   sodipodi:docname="icon.svg"
   inkscape:version="1.0 (1.0+r73+1)"
   id="svg4575"
   version="1.1"
   viewBox="0 0 512 512"
   height="512"
   width="512">
  <defs
     id="defs4569" />
  <sodipodi:namedview
     inkscape:snap-bbox-midpoints="true"
     inkscape:snap-bbox="true"
     inkscape:snap-nodes="true"
     inkscape:snap-global="true"
     inkscape:snap-smooth-nodes="true"
     borderlayer="true"
     inkscape:document-rotation="0"
     inkscape:window-maximized="1"
     inkscape:window-y="0"
     inkscape:window-x="30"
     inkscape:window-height="1411"
     inkscape:window-width="2408"
     inkscape:pagecheckerboard="true"
     units="px"
     showgrid="false"
     inkscape:current-layer="layer1"
     inkscape:document-units="px"
     inkscape:cy="400.83057"
     inkscape:cx="314.96573"
     inkscape:zoom="1.979899"
     inkscape:pageshadow="2"
     inkscape:pageopacity="0.0"
     borderopacity="1.0"
     bordercolor="#666666"
     pagecolor="#ffffff"
     id="base" />
  <metadata
     id="metadata4572">
    <rdf:RDF>
      <cc:Work
         rdf:about="">
        <dc:format>image/svg+xml</dc:format>
        <dc:type
           rdf:resource="http://purl.org/dc/dcmitype/StillImage" />
        <dc:title></dc:title>
      </cc:Work>
    </rdf:RDF>
  </metadata>
  <g
     style="display:inline"
     transform="translate(0,-161.53332)"
     id="layer1"
     inkscape:groupmode="layer"
     inkscape:label="ref">
    <path
       style="fill:#3a3c3f;stroke-width:24;stroke-linecap:round;stroke-linejoin:round;stroke:#ffffff;stroke-miterlimit:4;stroke-dasharray:none"
       d="m 32,56 c -8.864,0 -16,7.136 -16,16 v 56 h 52.5 c 8.864,0 16,7.136 16,16 v 224 c 0,8.864 -7.136,16 -16,16 H 16 v 56 c 0,8.864 7.136,16 16,16 h 448 c 8.864,0 16,-7.136 16,-16 v -56 h -52.5 c -8.864,0 -16,-7.136 -16,-16 V 144 c 0,-8.864 7.136,-16 16,-16 H 496 V 72 c 0,-8.864 -7.136,-16 -16,-16 z"
       transform="translate(0,161.53332)"
       id="path7103" />
    <path
       id="rect879"
       transform="translate(0,161.53332)"
       d="m 32,56 c -8.864,0 -16,7.136 -16,16 v 56 h 52.5 c 8.864,0 16,7.136 16,16 v 224 c 0,8.864 -7.136,16 -16,16 H 16 v 56 c 0,8.864 7.136,16 16,16 h 448 c 8.864,0 16,-7.136 16,-16 v -56 h -52.5 c -8.864,0 -16,-7.136 -16,-16 V 144 c 0,-8.864 7.136,-16 16,-16 H 496 V 72 c 0,-8.864 -7.136,-16 -16,-16 z"
       style="fill:#3a3c3f;stroke-width:12;stroke-linecap:round;stroke-linejoin:round" />
    <path
       transform="translate(0,161.53332)"
       id="path7015"
       d="m 124.5,128 h 263 c 8.864,0 16,7.136 16,16 v 224 c 0,8.864 -7.136,16 -16,16 h -263 c -8.864,0 -16,-7.136 -16,-16 V 144 c 0,-8.864 7.136,-16 16,-16 z"
       style="fill:#ffffff;stroke-width:12;stroke-linecap:round;stroke-linejoin:round" />
    <g
       inkscape:groupmode="layer"
       transform="translate(-2)"
       id="g6992">
      <path
         sodipodi:nodetypes="ccccccccc"
         inkscape:connector-curvature="0"
         id="path850"
         d="m 365.65957,514.76849 c -8.95766,-5.08817 -52.45464,-29.88303 -81.13534,-33.25982 -34.56556,6.79897 -96.22435,22.63911 -114.15828,27.04687 -19.21608,-7.11204 -30.67243,-26.20361 -22.55862,-64.22835 10.48177,-5.9693 38.1755,-14.06465 43.90294,-16.06126 16.90941,-51.34338 56.06382,-47.90457 83.71695,-49.06023 35.30076,-18.26607 103.47777,-33.88787 117.65631,-36.849 -38.25542,29.9949 -56.7329,48.23226 -63.96345,69.37559 26.48005,3.98167 60.13646,22.37322 65.5167,28.39583"
         style="display:inline;fill:none;stroke:#3250b0;stroke-width:16;stroke-linecap:round;stroke-linejoin:round;stroke-miterlimit:10;stroke-dasharray:none" />
      <path
         inkscape:connector-curvature="0"
         id="path998"
         d="M 147.80733,444.32719 158.75047,400.2437"
         style="display:inline;fill:#b53147;stroke:#000000;stroke-width:7.0249;stroke-linecap:round;stroke-linejoin:round;stroke-miterlimit:10;stroke-dasharray:none" />
      <path
         inkscape:connector-curvature="0"
         id="path957"
         d="m 337.48201,483.70074 -52.95778,-2.19207"
         style="display:inline;fill:#ffffff;stroke:#000000;stroke-width:7.0249;stroke-linecap:round;stroke-linejoin:round;stroke-miterlimit:10;stroke-dasharray:none" />
      <path
         inkscape:connector-curvature="0"
         id="path959"
         d="m 217.03617,519.55457 -46.67022,-10.99903 -28.10127,14.12165"
         style="display:inline;fill:none;stroke:#000000;stroke-width:7.0249;stroke-linecap:round;stroke-linejoin:round;stroke-miterlimit:10;stroke-dasharray:none" />
      <path
         inkscape:connector-curvature="0"
         id="path961"
         d="m 123.42022,489.11583 24.38711,-44.78864"
         style="display:inline;fill:none;stroke:#000000;stroke-width:7.0249;stroke-linecap:round;stroke-linejoin:round;stroke-miterlimit:10;stroke-dasharray:none" />
      <path
         sodipodi:nodetypes="cc"
         inkscape:connector-curvature="0"
         id="path963"
         d="M 191.71027,428.26593 190.164,372.45073"
         style="display:inline;fill:none;stroke:#000000;stroke-width:7.0249;stroke-linecap:round;stroke-linejoin:round;stroke-miterlimit:10;stroke-dasharray:none" />
      <path
         inkscape:connector-curvature="0"
         id="path965"
         d="m 232.8086,346.38312 42.61862,32.82258"
         style="display:inline;fill:none;stroke:#000000;stroke-width:7.0249;stroke-linecap:round;stroke-linejoin:round;stroke-miterlimit:10;stroke-dasharray:none" />
      <ellipse
         ry="13.772437"
         rx="13.143066"
         cy="508.55557"
         cx="170.36592"
         id="path853-5"
         style="display:inline;fill:#b53147;stroke:none;stroke-width:9.87397;stroke-linecap:round;stroke-linejoin:round;stroke-miterlimit:10;stroke-dasharray:none" />
      <ellipse
         ry="9.7984695"
         rx="9.3507004"
         cy="346.38309"
         cx="232.80855"
         id="path853-9"
         style="display:inline;fill:#ffffff;stroke:#000000;stroke-width:3.51244;stroke-linecap:round;stroke-linejoin:round;stroke-miterlimit:10;stroke-dasharray:none" />
      <ellipse
         ry="9.7984695"
         rx="9.3507004"
         cy="372.45071"
         cx="190.16402"
         id="path853-9-1"
         style="display:inline;fill:#ffffff;stroke:#000000;stroke-width:3.51244;stroke-linecap:round;stroke-linejoin:round;stroke-miterlimit:10;stroke-dasharray:none" />
      <ellipse
         ry="9.7984695"
         rx="9.3507004"
         cy="489.11581"
         cx="123.42018"
         id="path853-9-7"
         style="display:inline;fill:#ffffff;stroke:#000000;stroke-width:3.51244;stroke-linecap:round;stroke-linejoin:round;stroke-miterlimit:10;stroke-dasharray:none" />
      <ellipse
         ry="9.7984695"
         rx="9.3507004"
         cy="522.67725"
         cx="142.26471"
         id="path853-9-0"
         style="display:inline;fill:#ffffff;stroke:#000000;stroke-width:3.51244;stroke-linecap:round;stroke-linejoin:round;stroke-miterlimit:10;stroke-dasharray:none" />
      <ellipse
         ry="9.7984695"
         rx="9.3507004"
         cy="519.55457"
         cx="217.03615"
         id="path853-9-9"
         style="display:inline;fill:#ffffff;stroke:#000000;stroke-width:3.51244;stroke-linecap:round;stroke-linejoin:round;stroke-miterlimit:10;stroke-dasharray:none" />
      <ellipse
         ry="9.7984695"
         rx="9.3507004"
         cy="483.70071"
         cx="337.48206"
         id="path853-9-6"
         style="display:inline;fill:#ffffff;stroke:#000000;stroke-width:3.51244;stroke-linecap:round;stroke-linejoin:round;stroke-miterlimit:10;stroke-dasharray:none" />
      <ellipse
         ry="9.7984695"
         rx="9.3507004"
         cy="400.24377"
         cx="158.75044"
         id="path853-9-7-0"
         style="display:inline;fill:#ffffff;stroke:#000000;stroke-width:3.51244;stroke-linecap:round;stroke-linejoin:round;stroke-miterlimit:10;stroke-dasharray:none" />
      <use
         height="100%"
         width="100%"
         transform="translate(-22.55861,-64.228339)"
         id="use1000"
         xlink:href="#path853-5"
         y="0"
         x="0"
         style="display:inline" />
      <use
         height="100%"
         width="100%"
         transform="translate(21.344332,-80.289599)"
         id="use1006"
         xlink:href="#path853-5"
         y="0"
         x="0"
         style="display:inline" />
      <use
         height="100%"
         width="100%"
         transform="translate(105.06129,-129.34983)"
         id="use1008"
         xlink:href="#path853-5"
         y="0"
         x="0"
         style="display:inline" />
      <use
         height="100%"
         width="100%"
         transform="translate(221.33885,-167.49762)"
         id="use1010"
         xlink:href="#path853-5"
         y="0"
         x="0"
         style="display:inline" />
      <use
         height="100%"
         width="100%"
         transform="translate(158.75415,-96.823219)"
         id="use1012"
         xlink:href="#path853-5"
         y="0"
         x="0"
         style="display:inline" />
      <use
         height="100%"
         width="100%"
         transform="translate(114.15833,-27.046859)"
         id="use1014"
         xlink:href="#path853-5"
         y="0"
         x="0"
         style="display:inline" />
    </g>
    <path
       d="m 54.787109,76 h 8 c 6.648,0 12,5.352 12,12 v 8 c 0,6.648 -5.352,12 -12,12 h -8 c -6.648,0 -12,-5.352 -12,-12 v -8 c 0,-6.648 5.352,-12 12,-12 z m 97.367191,0 h 8 c 6.648,0 12,5.352 12,12 v 8 c 0,6.648 -5.352,12 -12,12 h -8 c -6.648,0 -12,-5.352 -12,-12 v -8 c 0,-6.648 5.352,-12 12,-12 z m 97.36523,0 h 8 c 6.648,0 12,5.352 12,12 v 8 c 0,6.648 -5.352,12 -12,12 h -8 c -6.648,0 -12,-5.352 -12,-12 v -8 c 0,-6.648 5.352,-12 12,-12 z m 97.36524,0 h 8 c 6.648,0 12,5.352 12,12 v 8 c 0,6.648 -5.352,12 -12,12 h -8 c -6.648,0 -12,-5.352 -12,-12 v -8 c 0,-6.648 5.352,-12 12,-12 z M 444.25,76 h 8 c 6.648,0 12,5.352 12,12 v 8 c 0,6.648 -5.352,12 -12,12 h -8 c -6.648,0 -12,-5.352 -12,-12 v -8 c 0,-6.648 5.352,-12 12,-12 z M 54.787109,404 h 8 c 6.648,0 12,5.352 12,12 v 8 c 0,6.648 -5.352,12 -12,12 h -8 c -6.648,0 -12,-5.352 -12,-12 v -8 c 0,-6.648 5.352,-12 12,-12 z m 97.367191,0 h 8 c 6.648,0 12,5.352 12,12 v 8 c 0,6.648 -5.352,12 -12,12 h -8 c -6.648,0 -12,-5.352 -12,-12 v -8 c 0,-6.648 5.352,-12 12,-12 z m 97.36523,0 h 8 c 6.648,0 12,5.352 12,12 v 8 c 0,6.648 -5.352,12 -12,12 h -8 c -6.648,0 -12,-5.352 -12,-12 v -8 c 0,-6.648 5.352,-12 12,-12 z m 97.36524,0 h 8 c 6.648,0 12,5.352 12,12 v 8 c 0,6.648 -5.352,12 -12,12 h -8 c -6.648,0 -12,-5.352 -12,-12 v -8 c 0,-6.648 5.352,-12 12,-12 z m 97.36523,0 h 8 c 6.648,0 12,5.352 12,12 v 8 c 0,6.648 -5.352,12 -12,12 h -8 c -6.648,0 -12,-5.352 -12,-12 v -8 c 0,-6.648 5.352,-12 12,-12 z"
       transform="translate(0,161.53332)"
       style="fill:#ffffff;stroke-width:12;stroke-linecap:round;stroke-linejoin:round"
       id="path7082" />
  </g>
  <g
     style="display:none"
     inkscape:label="bits"
     id="layer2"
     inkscape:groupmode="layer">
    <rect
       style="display:inline;fill:#f01d0a;stroke-width:12;stroke-linecap:round;stroke-linejoin:round"
       id="rect854"
       width="295"
       height="256"
       x="134.18312"
       y="922.71613"
       ry="16"
       transform="translate(0,-161.53332)" />
    <rect
       ry="16"
       y="922.71613"
       x="429.18311"
       height="148.36375"
       width="24"
       id="rect856"
       style="display:inline;fill:#670d04;stroke-width:12;stroke-linecap:round;stroke-linejoin:round"
       transform="translate(0,-161.53332)" />
    <rect
       ry="16"
       y="-496"
       x="384"
       height="480"
       width="72"
       id="rect909"
       style="display:inline;fill:#670d04;stroke-width:12;stroke-linecap:round;stroke-linejoin:round"
       transform="rotate(90)" />
    <rect
       style="display:inline;fill:#ffffff;fill-opacity:1;stroke-width:12;stroke-linecap:round;stroke-linejoin:round"
       id="rect7037"
       width="32"
       height="32"
       x="434.73108"
       y="404"
       ry="12" />
  </g>
</svg>
