<?xml version="1.0" encoding="UTF-8"?>
<svg id="Layer_2" data-name="Layer 2" xmlns="http://www.w3.org/2000/svg" xmlns:xlink="http://www.w3.org/1999/xlink" viewBox="0 0 128 128">
  <defs>
    <style>
      .cls-1 {
        fill: #90caf9;
      }

      .cls-2 {
        fill: #37474f;
      }

      .cls-3 {
        fill: #ffc107;
      }

      .cls-4 {
        fill: #fff;
      }

      .cls-5 {
        opacity: .25;
      }

      .cls-6 {
        fill: #e5aa17;
      }

      .cls-7 {
        filter: url(#drop-shadow-3);
      }
    </style>
    <filter id="drop-shadow-3" x="52.06" y="22.28" width="25.18" height="33.67" filterUnits="userSpaceOnUse">
      <feOffset dx=".1" dy="1"/>
      <feGaussianBlur result="blur" stdDeviation="1"/>
      <feFlood flood-color="#000" flood-opacity=".15"/>
      <feComposite in2="blur" operator="in"/>
      <feComposite in="SourceGraphic"/>
    </filter>
  </defs>
  <rect class="cls-3" x="12.18" y="63.16" width="103.15" height="53.17" rx="8" ry="8"/>
  <path class="cls-6" d="M115.11,102.39c0-19.53-15.98-35.52-35.52-35.52h-31.83c-18.83,0-34.35,14.85-35.45,33.41-.12,3.14-.21,9.99,1.26,12.26,2.44,3.78,6.75,3.78,6.75,3.78h87.02s4.31,0,6.75-3.78c.65-1.01,1-2.93,1.17-5.02.02-2.8-.14-5.13-.14-5.13Z"/>
  <path class="cls-2" d="M24.51,63.16v5.68c0,4.4,3.6,8,8,8h15.21c-.1.26-.16.53-.16.8,0,3.27,7.25,5.92,16.2,5.92s16.2-2.65,16.2-5.92c0-.27-.07-.54-.16-.8h15.21c4.4,0,8-3.6,8-8v-5.68H24.51Z"/>
  <path class="cls-1" d="M89.43,16.37H31.71c-2.17,0-3.95,2.04-3.95,4.54v46.25h72V30.29"/>
  <path class="cls-1" d="M38.08,16.37h57.73c2.17,0,3.95,2.04,3.95,4.54v46.25H27.75V30.29"/>
  <ellipse class="cls-1" cx="63.83" cy="68.26" rx="10" ry="5.1"/>
  <g>
    <circle class="cls-2" cx="27.75" cy="91.6" r="3.56"/>
    <circle class="cls-2" cx="40.29" cy="91.6" r="3.56"/>
    <circle class="cls-2" cx="52.84" cy="91.6" r="3.56"/>
    <circle class="cls-2" cx="65.38" cy="91.6" r="3.56"/>
    <circle class="cls-2" cx="77.92" cy="91.6" r="3.56"/>
    <circle class="cls-2" cx="90.46" cy="91.6" r="3.56"/>
    <circle class="cls-2" cx="103" cy="91.6" r="3.56"/>
  </g>
  <g>
    <circle class="cls-2" cx="27.75" cy="103.2" r="3.56"/>
    <circle class="cls-2" cx="103" cy="103.2" r="3.56"/>
    <path class="cls-2" d="M90.46,99.64h0s-50.17,0-50.17,0h0c-4.62-.07-4.61,7.18,0,7.11h50.17c4.62.07,4.61-7.18,0-7.11Z"/>
  </g>
  <g class="cls-7">
    <path class="cls-4" d="M52.41,55.95h20.89c.39,0,.71-.13,1.03-.91l1.62-3.1c.71-1.42,1.29-2.98,1.29-4.79v-15.59c0-4.92-1.62-7.24-6.14-7.24h-14.16c-1.03,0-1.13-.22-1.38-.96l-.17-.56c-.07-.39-.26-.52-.52-.52s-.58.13-.58.52l-.13,3.14c-.13,2.84.71,4.72,3.36,4.72h12.68c2.52,0,4.01.97,4.01,4.46v12.03c0,1.75-.39,2.46-1.88,2.46h-15.98c-4.29,1.84-4.2,5.88-4.2,5.88-.19.19-.06.45.26.45Z"/>
  </g>
  <g class="cls-5">
    <path class="cls-2" d="M52.65,25.97h-20.61v3.54h21.14c-.41-.94-.59-2.11-.53-3.54Z"/>
    <path class="cls-2" d="M95.55,25.97h-17.96c.61,1.08.91,2.32,1.05,3.54h16.91v-3.54Z"/>
    <rect class="cls-2" x="78.74" y="32.62" width="16.81" height="3.54"/>
    <path class="cls-2" d="M72.07,32.62h-40.02v3.54h40.66v-1.04c0-1.36-.21-2.1-.64-2.5Z"/>
    <rect class="cls-2" x="78.74" y="39.26" width="16.81" height="3.54"/>
    <rect class="cls-2" x="32.05" y="39.26" width="40.66" height="3.54"/>
    <path class="cls-2" d="M78.47,49.45h17.08v-3.54h-16.81v1.24c0,.83-.1,1.59-.27,2.3Z"/>
    <path class="cls-2" d="M56.05,48.11h16.29c.14,0,.24,0,.3-.02.03-.12.08-.39.08-.94v-1.24h-40.66v3.54h21.63c.58-.46,1.27-.87,2.09-1.22l.28-.12Z"/>
    <path class="cls-2" d="M75.69,55.68s-.04.08-.06.13h19.92v-3.54h-18.09c-.06.12-.11.24-.17.35l-1.6,3.07Z"/>
    <path class="cls-2" d="M50.67,55.09c.04-.58.21-1.65.77-2.83h-19.39v3.54h18.52c-.02-.24.01-.48.1-.71Z"/>
    <rect class="cls-2" x="32.05" y="58.91" width="63.5" height="3.54"/>
  </g>
</svg>