<?xml version="1.0" standalone="no"?>
<!DOCTYPE svg PUBLIC "-//W3C//DTD SVG 20010904//EN"
 "http://www.w3.org/TR/2001/REC-SVG-20010904/DTD/svg10.dtd">
<svg version="1.0" xmlns="http://www.w3.org/2000/svg"
 width="1024.000000pt" height="1024.000000pt" viewBox="0 0 1024.000000 1024.000000"
 preserveAspectRatio="xMidYMid meet">

<g transform="translate(0.000000,1024.000000) scale(0.100000,-0.100000)"
fill="#000000" stroke="none">
<path d="M0 5120 l0 -5120 5120 0 5120 0 0 5120 0 5120 -5120 0 -5120 0 0
-5120z m5370 4463 c23 -10 21 -11 -32 -23 -53 -12 -58 -15 -58 -41 0 -24 -4
-28 -40 -33 -22 -3 -58 -9 -80 -12 -43 -6 -53 -22 -20 -31 26 -7 27 -43 1 -43
-10 0 -21 -9 -24 -19 -3 -11 -17 -22 -36 -26 -24 -5 -33 -13 -37 -35 -5 -25
-13 -29 -65 -40 -60 -13 -75 -28 -39 -37 34 -9 22 -31 -20 -38 -22 -4 -41 -12
-41 -18 -1 -7 -2 -23 -3 -37 -1 -20 -8 -27 -38 -34 -21 -5 -38 -13 -38 -18 0
-5 -11 -13 -24 -17 -21 -9 -23 -14 -19 -58 l5 -49 -55 -13 c-40 -9 -58 -18
-62 -32 -4 -10 -15 -19 -26 -19 -10 0 -19 -7 -19 -15 0 -8 -9 -15 -20 -15 -13
0 -20 -7 -20 -19 0 -15 -10 -21 -39 -26 -22 -4 -42 -13 -45 -21 -3 -8 -12 -14
-20 -14 -7 0 -16 -9 -19 -20 -3 -11 -12 -20 -21 -20 -13 0 -16 -12 -16 -60 0
-53 -2 -60 -20 -60 -13 0 -20 -7 -20 -19 0 -28 -11 -51 -24 -51 -6 0 -24 -8
-41 -17 -26 -15 -57 -18 -225 -17 -107 0 -278 4 -380 9 -216 9 -227 10 -300 7
-56 -2 -97 -19 -72 -29 6 -2 12 -11 12 -19 0 -8 6 -14 13 -14 8 0 7 -4 -3 -10
-10 -6 -11 -10 -2 -10 6 0 12 -5 12 -11 0 -26 35 -40 135 -54 59 -8 116 -20
127 -26 10 -6 70 -13 131 -16 62 -3 139 -12 172 -20 33 -8 132 -18 220 -22 94
-4 169 -12 183 -20 12 -6 91 -16 175 -22 168 -10 242 -23 271 -44 17 -13 18
-18 8 -40 -15 -32 -16 -192 -2 -197 16 -5 40 -217 26 -226 -35 -22 -985 -15
-1041 8 -16 7 -98 16 -181 20 -83 5 -177 15 -210 23 -32 8 -106 17 -163 21
-56 3 -109 10 -116 16 -8 7 -62 16 -121 21 -62 6 -116 17 -128 25 -11 8 -40
14 -64 14 -49 0 -132 19 -132 30 0 4 -33 9 -74 12 -45 3 -82 11 -97 21 -13 10
-37 17 -54 17 -17 0 -47 8 -68 19 -20 10 -52 22 -71 25 -19 4 -39 13 -46 21
-7 8 -23 15 -36 15 -26 0 -74 20 -74 30 0 4 -15 11 -34 14 -19 4 -36 13 -39
20 -3 8 -19 17 -36 21 -16 3 -35 13 -42 21 -6 8 -18 14 -26 14 -7 0 -17 8 -20
17 -4 9 -15 25 -25 35 -17 17 -18 37 -16 280 2 205 6 262 16 266 7 2 16 -5 19
-17 3 -12 13 -21 24 -21 11 0 19 -6 19 -14 0 -15 21 -26 51 -26 11 0 22 -6 25
-14 3 -8 24 -18 47 -22 23 -3 58 -15 77 -25 19 -11 46 -19 60 -19 14 0 35 -6
46 -14 11 -8 57 -17 102 -21 69 -6 82 -5 82 7 0 25 -21 78 -31 78 -5 0 -9 7
-9 15 0 29 -71 89 -148 124 -12 6 -32 20 -44 31 -12 11 -28 20 -35 20 -7 0
-17 9 -23 20 -6 11 -17 20 -24 20 -8 0 -16 9 -19 20 -3 11 -12 20 -20 20 -18
0 -31 74 -21 125 4 25 11 35 25 35 11 0 19 7 19 15 0 9 8 18 18 22 9 3 25 14
35 25 10 10 26 18 37 18 11 0 24 9 30 20 6 12 21 20 35 20 14 0 33 9 42 20 10
12 30 20 47 20 16 0 34 7 40 16 7 8 32 18 56 21 25 3 50 12 56 20 7 7 35 16
64 20 28 3 68 14 88 24 20 11 57 19 82 19 25 0 59 7 75 16 17 9 70 20 118 24
49 5 95 14 102 20 8 7 54 14 102 17 49 3 119 14 158 24 43 12 103 19 156 19
49 0 107 7 135 15 29 9 107 18 189 21 77 3 181 12 230 20 135 21 146 22 760
19 366 -1 579 -5 595 -12z m-3303 -1965 c26 -28 70 -72 96 -97 27 -25 76 -71
108 -102 33 -31 66 -59 74 -63 8 -3 15 -12 15 -21 0 -8 9 -15 20 -15 11 0 20
-7 20 -14 0 -8 10 -21 23 -28 56 -31 97 -61 97 -69 0 -5 9 -9 20 -9 11 0 20
-7 20 -15 0 -9 12 -20 27 -26 15 -6 34 -17 43 -24 43 -41 74 -65 81 -65 5 0 9
-7 9 -15 0 -8 9 -15 19 -15 10 0 29 -11 42 -25 13 -13 30 -25 37 -25 7 0 15
-6 18 -14 3 -8 20 -17 39 -20 38 -7 50 -35 46 -102 -2 -32 3 -47 22 -68 13
-14 30 -26 37 -26 6 0 23 -9 37 -20 16 -12 41 -20 64 -20 22 0 39 -5 39 -10 0
-14 35 -26 97 -33 43 -4 54 -2 69 15 15 16 20 17 29 6 13 -17 91 -55 130 -64
17 -4 32 -11 36 -15 3 -5 29 -13 58 -19 29 -5 62 -17 74 -25 12 -8 33 -15 47
-15 14 0 41 -8 60 -19 19 -10 50 -22 68 -25 17 -4 32 -11 32 -16 0 -18 -49
-23 -180 -20 -74 2 -150 3 -167 2 -18 0 -33 3 -33 9 0 5 -9 9 -21 9 -18 0 -20
-4 -14 -27 3 -15 11 -31 17 -34 6 -4 13 -39 16 -78 4 -56 9 -74 23 -82 11 -5
19 -18 19 -28 0 -22 72 -51 126 -51 18 0 34 -5 36 -11 5 -14 77 -28 148 -29
30 0 73 -6 95 -14 22 -8 81 -17 132 -21 78 -6 92 -10 96 -26 6 -21 -15 -20
342 -23 139 -2 175 -5 200 -19 24 -14 55 -17 159 -16 80 0 132 -3 139 -10 27
-27 -13 -32 -243 -32 -248 1 -302 6 -336 27 -17 10 -71 13 -220 12 -315 -1
-428 3 -441 14 -7 6 -19 8 -27 5 -8 -3 -27 -1 -43 5 -17 6 -48 8 -74 4 l-45
-7 -2 -70 c-1 -39 3 -79 9 -90 5 -11 12 -45 14 -77 3 -40 10 -60 22 -69 10 -7
24 -17 31 -23 7 -6 37 -16 67 -23 54 -11 74 -27 35 -27 -16 0 -20 -7 -20 -36
0 -27 5 -37 20 -41 11 -3 20 -9 20 -14 0 -5 6 -9 14 -9 8 0 15 16 19 41 5 40
13 57 22 48 2 -3 7 -68 10 -144 3 -77 8 -171 11 -210 l5 -70 49 -24 c44 -22
51 -30 58 -65 7 -38 10 -41 45 -44 33 -3 37 -6 37 -32 0 -16 4 -40 10 -54 8
-21 16 -26 45 -26 51 0 56 22 49 206 -6 129 -5 154 7 154 36 -1 38 -13 50
-305 13 -338 10 -328 109 -339 32 -4 60 -12 63 -19 3 -9 84 -13 315 -17 187
-3 315 -9 321 -15 15 -16 15 -37 2 -82 -11 -41 -24 -53 -35 -34 -3 4 -29 11
-58 14 -31 4 -58 13 -65 23 -8 11 -37 18 -101 23 -48 4 -95 12 -103 17 -8 5
-106 11 -219 14 -174 4 -209 8 -230 23 -35 24 -168 25 -177 0 -4 -9 -1 -19 5
-21 7 -2 12 -8 12 -14 0 -12 70 -78 82 -78 4 0 8 -6 8 -14 0 -10 16 -17 45
-22 63 -9 66 -24 6 -24 -36 0 -51 4 -51 14 0 9 -20 15 -62 20 -34 3 -72 13
-84 21 -13 8 -38 15 -57 15 -28 0 -35 -5 -44 -32 -7 -18 -10 -46 -7 -63 13
-76 12 -75 53 -75 23 0 41 -5 43 -12 4 -10 64 -14 237 -18 184 -4 234 -8 241
-19 5 -8 31 -16 64 -19 l56 -4 0 42 0 42 38 -7 c20 -4 51 -13 67 -20 17 -8 58
-17 93 -20 34 -4 69 -13 77 -21 7 -8 33 -14 58 -14 64 0 107 -10 107 -26 0
-23 -42 -54 -74 -54 -16 0 -37 -7 -47 -16 -16 -14 -18 -14 -29 5 -6 12 -17 21
-24 21 -8 0 -20 7 -27 16 -12 15 -15 14 -31 -6 -10 -13 -18 -39 -18 -61 0 -21
-4 -39 -10 -39 -15 0 -60 23 -60 30 0 4 -9 10 -19 13 -14 3 -21 15 -23 38 l-3
34 -71 3 c-54 2 -74 -1 -84 -13 -15 -19 -62 -19 -98 -1 -15 7 -62 16 -105 19
-43 3 -88 12 -100 20 -15 10 -56 15 -132 16 -60 1 -121 3 -134 4 -33 3 -38
-23 -31 -163 l5 -114 35 -10 c19 -6 40 -15 45 -22 6 -6 32 -14 58 -18 27 -3
63 -12 80 -20 18 -8 54 -17 81 -20 27 -3 54 -12 60 -20 6 -8 38 -16 78 -19 37
-2 76 -12 89 -21 13 -9 38 -16 55 -16 38 0 94 -19 94 -31 0 -5 18 -9 41 -9 22
0 61 -9 87 -19 26 -11 67 -22 92 -26 24 -3 52 -13 61 -21 11 -10 44 -15 110
-17 l94 -2 3 33 c3 31 26 45 34 20 2 -6 35 -15 72 -19 38 -5 74 -13 80 -18 7
-6 43 -15 81 -21 38 -6 72 -15 76 -21 3 -5 30 -12 60 -16 30 -3 65 -11 79 -18
14 -7 52 -16 85 -20 33 -4 74 -14 90 -22 17 -8 50 -17 75 -20 25 -3 54 -11 66
-18 11 -7 46 -16 78 -20 31 -4 63 -14 71 -21 7 -8 23 -14 35 -14 11 0 52 -7
91 -16 47 -11 74 -13 82 -6 7 6 29 13 50 17 20 4 37 10 37 14 0 4 24 15 54 24
30 10 57 24 60 32 3 8 12 15 20 15 11 0 17 15 22 50 8 58 18 70 34 40 9 -17
17 -20 39 -15 28 6 29 5 36 -52 4 -32 12 -61 17 -64 13 -8 27 -80 28 -140 0
-30 6 -52 19 -66 11 -11 21 -31 23 -44 1 -13 10 -24 18 -24 11 0 17 18 23 70
9 78 26 123 39 103 6 -10 8 -10 9 2 2 23 18 -67 25 -140 3 -36 10 -69 15 -74
5 -6 9 -27 9 -48 0 -21 5 -38 10 -38 6 0 10 -6 10 -14 0 -8 14 -19 30 -25 17
-5 30 -14 30 -19 0 -26 -24 -72 -37 -72 -10 0 -13 -6 -9 -16 3 -9 6 -38 6 -65
0 -41 3 -49 19 -49 16 0 19 -11 25 -72 4 -40 6 -91 5 -113 -1 -22 -2 -49 -2
-60 1 -106 3 -878 3 -903 l0 -34 -67 7 c-38 4 -72 11 -77 16 -13 12 -113 12
-121 0 -6 -11 15 -61 27 -61 4 0 8 -9 8 -20 0 -11 7 -20 15 -20 9 0 19 -8 22
-17 11 -28 50 -63 70 -63 10 0 29 -9 43 -20 14 -11 31 -20 38 -20 32 0 -16
-40 -49 -40 -6 0 -17 -6 -24 -14 -7 -7 -43 -16 -78 -20 -36 -3 -78 -13 -95
-21 -19 -10 -75 -17 -158 -21 -71 -4 -154 -13 -184 -21 -32 -8 -132 -16 -235
-19 -117 -3 -204 -11 -250 -22 -61 -15 -139 -17 -635 -17 -449 0 -573 3 -605
14 -26 8 -124 16 -275 21 -145 5 -247 13 -265 20 -16 7 -91 16 -166 20 -75 5
-147 13 -159 20 -12 7 -70 15 -129 20 -58 4 -119 13 -136 20 -16 6 -72 16
-124 20 -53 5 -97 14 -101 20 -4 7 -38 15 -76 18 -38 3 -79 12 -92 20 -12 8
-51 17 -87 20 -36 2 -65 8 -65 12 0 12 -58 30 -94 30 -17 0 -39 7 -49 15 -11
7 -37 17 -60 21 -23 3 -51 12 -62 20 -11 7 -37 16 -57 19 -20 4 -39 13 -42 20
-3 8 -21 17 -40 20 -19 4 -37 13 -40 20 -3 8 -21 17 -40 21 -20 3 -36 10 -36
15 0 5 -16 15 -35 23 -19 8 -38 22 -41 31 -3 8 -15 15 -25 15 -10 0 -19 7 -19
15 0 8 -7 15 -15 15 -8 0 -20 9 -27 20 -7 11 -17 20 -23 20 -6 0 -21 14 -35
31 -14 18 -32 40 -41 49 -10 10 -20 32 -24 50 -4 17 -13 34 -21 37 -21 8 -19
148 3 204 15 41 17 253 20 2684 2 1452 6 2646 8 2653 7 19 11 16 62 -40z
m2253 -1978 c0 -16 -7 -20 -35 -20 -19 0 -38 6 -42 14 -4 8 -24 16 -43 19 -19
2 0 5 43 5 71 2 77 0 77 -18z m160 -30 c0 -5 9 -10 19 -10 11 0 23 -4 26 -10
3 -5 37 -10 76 -10 39 0 69 -4 69 -10 0 -5 -7 -10 -16 -10 -8 0 -12 -4 -9 -10
4 -6 -12 -10 -39 -10 -33 0 -46 4 -46 14 0 11 -22 16 -85 21 -79 7 -84 9 -74
26 10 20 79 28 79 9z m326 -84 c22 -23 17 -26 -36 -26 -27 0 -50 5 -50 10 0 6
7 10 15 10 8 0 15 5 15 10 0 15 39 12 56 -4z m-326 -474 c0 -5 35 -14 77 -20
42 -7 80 -16 83 -21 3 -4 33 -11 68 -15 82 -9 91 -13 85 -37 -5 -19 -33 -27
-33 -9 0 19 -30 10 -57 -19 -16 -15 -38 -33 -50 -40 -13 -6 -23 -21 -23 -33 0
-19 -4 -20 -67 -14 -90 9 -101 13 -109 39 -9 28 -14 137 -8 160 5 17 34 25 34
9z m2298 -270 c2 -7 -9 -15 -27 -18 -17 -4 -31 -10 -31 -15 0 -16 -32 -10 -46
8 -20 28 2 44 54 41 25 -2 47 -9 50 -16z m-2458 -322 c0 -5 -20 -10 -44 -10
-25 0 -48 5 -51 10 -4 6 13 10 44 10 28 0 51 -4 51 -10z m2468 -37 c2 -7 -9
-18 -25 -24 -15 -6 -36 -18 -46 -26 -35 -32 -84 17 -54 55 13 17 119 12 125
-5z m-2323 -3 c4 -6 -13 -10 -44 -10 -28 0 -51 5 -51 10 0 6 20 10 44 10 25 0
48 -4 51 -10z m-287 -186 c12 -4 22 -13 22 -20 0 -10 13 -14 43 -14 65 0 117
-11 117 -25 0 -8 25 -15 70 -19 39 -4 76 -14 84 -22 10 -9 43 -15 105 -16 l91
-3 0 -32 c0 -28 -4 -33 -24 -33 -13 0 -29 6 -35 14 -6 7 -37 16 -68 19 -32 3
-62 12 -68 20 -6 8 -37 16 -75 20 -38 3 -68 11 -75 20 -6 8 -38 17 -80 21 -43
4 -74 12 -81 21 -6 8 -26 15 -43 15 -38 0 -74 17 -66 31 7 10 49 12 83 3z
m-2240 -2331 c17 -27 43 -58 59 -71 15 -12 42 -33 59 -47 18 -14 39 -25 48
-25 9 0 16 -6 16 -14 0 -15 21 -26 51 -26 11 0 22 -7 25 -15 4 -8 24 -18 45
-21 21 -4 39 -12 39 -19 0 -7 16 -16 36 -20 20 -3 43 -13 51 -21 8 -8 32 -17
54 -20 22 -4 47 -13 54 -21 8 -7 29 -16 47 -20 18 -3 38 -12 43 -19 6 -6 33
-15 60 -19 28 -4 57 -13 67 -22 9 -8 41 -18 71 -22 31 -4 62 -13 70 -20 8 -6
39 -14 68 -18 30 -3 64 -12 75 -20 12 -7 46 -16 75 -19 30 -4 72 -15 95 -25
22 -10 63 -19 90 -19 27 -1 67 -9 89 -20 27 -13 62 -19 106 -20 38 0 83 -7
105 -16 22 -9 85 -20 142 -24 56 -4 109 -13 117 -20 9 -8 71 -15 160 -20 91
-5 152 -13 161 -21 10 -8 72 -15 172 -20 98 -5 174 -14 201 -23 26 -10 78 -16
130 -16 80 0 155 -11 168 -24 3 -3 -1 -11 -9 -19 -18 -19 -25 -187 -8 -197 18
-11 36 -250 21 -260 -35 -21 -535 -21 -611 1 -19 6 -114 14 -210 18 -105 4
-184 13 -198 20 -13 7 -79 16 -147 20 -77 5 -131 13 -141 21 -9 8 -51 15 -102
18 -50 2 -102 10 -122 20 -19 8 -67 18 -106 21 -41 4 -81 13 -97 24 -16 11
-46 17 -79 17 -35 0 -64 7 -86 20 -19 12 -50 20 -74 20 -24 0 -49 7 -59 16
-10 9 -40 19 -66 22 -26 3 -53 11 -58 19 -6 8 -31 17 -55 20 -25 3 -52 12 -61
19 -8 8 -38 18 -64 23 -27 5 -51 14 -53 20 -2 6 -19 13 -39 17 -20 4 -44 15
-54 25 -11 11 -28 19 -40 19 -12 0 -23 8 -26 20 -3 11 -13 20 -23 20 -9 0 -25
9 -34 19 -10 11 -28 22 -42 25 -13 4 -24 13 -24 21 0 8 -7 15 -16 15 -18 0
-184 163 -184 181 0 6 -8 18 -17 25 -16 11 -18 38 -21 255 -3 238 0 289 17
289 4 0 22 -21 39 -47z"/>
<path d="M2878 6523 l-3 -98 34 -32 c19 -18 39 -33 45 -33 6 0 22 -9 36 -20
14 -11 35 -20 47 -20 12 0 28 -7 36 -15 8 -8 37 -19 63 -25 27 -6 56 -18 65
-26 10 -9 26 -12 46 -8 l31 6 4 127 c5 166 4 169 -41 176 -20 4 -61 15 -92 26
-39 13 -83 19 -143 19 -51 0 -86 4 -86 10 0 6 -9 10 -19 10 -18 0 -20 -9 -23
-97z"/>
<path d="M2849 6188 c-4 -165 -16 -290 -28 -297 -11 -7 -11 -10 0 -14 10 -4
10 -6 2 -6 -9 -1 -13 -25 -13 -84 l0 -83 90 4 c62 3 90 1 90 -7 0 -6 -5 -11
-10 -11 -6 0 -15 -11 -20 -25 -6 -15 -17 -25 -30 -25 -11 0 -20 -4 -20 -8 0
-5 -16 -17 -35 -28 -19 -10 -35 -24 -35 -31 0 -7 -8 -16 -17 -22 -15 -8 -19
-28 -21 -121 l-4 -112 79 3 c88 4 105 -9 49 -38 -17 -9 -35 -22 -39 -29 -4 -8
-17 -14 -27 -14 -13 0 -20 -7 -20 -20 0 -13 -7 -20 -20 -20 -13 0 -20 -7 -20
-20 0 -11 -6 -20 -14 -20 -28 0 -27 -21 3 -50 16 -17 34 -30 40 -30 6 0 11 -7
11 -15 0 -8 11 -17 24 -21 14 -3 32 -14 42 -25 9 -10 28 -19 41 -19 12 0 32
-9 43 -20 11 -11 33 -20 50 -20 16 0 33 -7 37 -15 5 -8 30 -19 56 -24 26 -5
56 -16 67 -26 21 -19 52 -9 69 24 6 11 10 242 10 610 0 678 8 623 -96 634 -31
3 -59 11 -63 18 -5 7 -50 15 -111 19 -57 5 -116 11 -131 14 -26 6 -28 4 -29
-26z m-22 -440 c-2 -18 -4 -4 -4 32 0 36 2 50 4 33 2 -18 2 -48 0 -65z"/>
<path d="M3578 5083 c-15 -4 -18 -16 -18 -68 0 -42 4 -65 13 -68 10 -4 10 -7
0 -18 -35 -36 5 -80 90 -98 31 -7 57 -17 57 -22 0 -5 22 -9 49 -9 31 0 55 -6
65 -15 8 -8 46 -26 84 -40 84 -30 202 -36 202 -9 0 22 -37 72 -82 113 -21 18
-38 39 -38 47 0 7 -9 18 -20 24 -11 6 -20 17 -20 24 0 8 -9 16 -20 19 -11 3
-20 12 -20 21 0 9 -7 16 -15 16 -8 0 -19 9 -24 19 -8 13 -27 21 -63 26 -29 4
-62 13 -73 19 -21 14 -138 27 -167 19z"/>
<path d="M2760 4840 c0 -61 3 -72 25 -95 14 -14 30 -25 35 -25 5 0 14 -9 20
-20 6 -11 17 -20 26 -20 8 0 24 -9 36 -20 12 -11 30 -20 40 -20 10 0 21 -6 24
-14 3 -8 27 -20 54 -26 27 -6 54 -18 61 -26 6 -8 25 -14 41 -14 16 0 41 -9 55
-20 30 -23 52 -25 75 -7 23 18 35 215 13 223 -8 3 -17 14 -20 25 -5 14 -16 19
-43 19 -20 1 -55 9 -77 20 -22 11 -58 20 -80 20 -22 0 -53 7 -70 16 -16 8 -52
18 -79 21 -28 4 -61 12 -75 20 -53 27 -61 20 -61 -57z"/>
<path d="M2734 4538 c-4 -7 -10 -126 -12 -265 l-5 -253 29 -11 c16 -6 51 -8
79 -5 28 3 57 1 65 -4 12 -7 8 -15 -23 -44 -20 -18 -44 -37 -52 -40 -8 -3 -15
-12 -15 -20 0 -7 -9 -16 -20 -19 -18 -5 -20 -14 -20 -116 l0 -111 54 0 c30 0
58 5 61 10 8 12 72 13 79 1 3 -5 -3 -11 -14 -14 -11 -3 -20 -12 -20 -21 0 -9
-4 -16 -10 -16 -5 0 -19 -9 -29 -19 -11 -11 -31 -27 -44 -36 -14 -9 -33 -32
-42 -51 -16 -33 -15 -35 7 -64 13 -16 33 -32 46 -36 12 -3 27 -15 33 -25 5
-11 17 -19 27 -19 9 0 28 -9 42 -20 14 -11 38 -20 54 -20 16 0 34 -7 40 -16 6
-8 32 -20 56 -25 25 -6 52 -17 61 -25 10 -9 31 -14 51 -12 32 3 33 5 40 58 4
30 7 134 7 230 0 96 0 189 1 205 8 263 8 665 1 665 -5 0 -13 9 -16 20 -5 15
-15 20 -43 20 -21 0 -54 9 -75 20 -20 11 -55 20 -77 20 -23 0 -54 7 -71 15
-16 9 -62 20 -101 25 -40 5 -74 13 -76 19 -5 15 -59 14 -68 -1z"/>
<path d="M3967 3900 c-14 -11 -33 -20 -42 -20 -9 0 -28 -9 -42 -20 -14 -11
-34 -20 -44 -20 -10 0 -24 -9 -33 -21 -12 -18 -13 -62 -9 -277 6 -240 7 -256
27 -276 33 -33 87 -58 144 -66 30 -5 62 -16 71 -24 10 -9 35 -16 57 -16 22 0
52 -9 69 -20 17 -11 47 -20 67 -20 39 0 88 -18 88 -32 0 -16 22 -7 50 21 l29
28 -10 99 c-5 55 -11 109 -14 122 -8 33 36 48 71 25 15 -9 51 -20 81 -24 30
-4 63 -15 72 -23 10 -9 29 -16 43 -16 43 0 60 -10 47 -26 -6 -8 -20 -14 -30
-14 -17 0 -19 -9 -19 -104 0 -108 5 -136 22 -136 6 0 17 -8 24 -17 13 -17 15
-17 29 1 10 14 15 44 15 98 0 77 3 84 34 72 14 -5 14 -8 1 -27 -22 -31 -19
-109 4 -138 18 -23 27 -24 143 -27 104 -3 126 -1 137 12 18 21 94 22 111 1 19
-23 109 -20 140 5 33 26 95 26 143 0 45 -24 105 -27 114 -4 3 8 -4 25 -17 40
-19 19 -33 24 -72 24 -35 0 -58 6 -78 22 -35 25 -38 43 -10 58 16 9 20 21 20
67 l0 56 43 -7 c46 -8 65 -20 48 -30 -19 -12 -13 -46 9 -46 11 0 20 -7 20 -15
0 -8 12 -17 28 -21 15 -3 33 -7 40 -10 14 -4 16 -30 2 -39 -19 -12 -9 -24 41
-49 44 -22 64 -26 145 -26 75 0 96 3 100 15 8 20 68 19 85 -1 10 -12 25 -15
61 -12 57 6 66 13 51 38 -10 14 -9 21 2 30 21 18 45 4 45 -25 0 -32 18 -40 56
-23 16 7 47 13 68 13 35 0 40 3 48 30 16 60 26 239 14 265 -18 43 -52 67 -103
75 -26 3 -57 13 -69 20 -11 7 -43 16 -70 20 -27 4 -56 13 -64 20 -8 8 -47 17
-87 20 -42 5 -74 13 -77 20 -2 7 -28 15 -58 19 -29 4 -66 14 -83 22 -16 7 -52
18 -79 23 -27 5 -51 13 -55 19 -3 5 -31 13 -61 17 -30 4 -68 13 -85 22 -16 8
-52 19 -79 24 -28 5 -53 15 -57 21 -5 8 -37 12 -91 13 l-83 0 -3 -43 -3 -42
-87 7 c-48 3 -91 12 -97 18 -5 7 -34 15 -64 18 -29 4 -64 13 -77 22 -13 8 -38
15 -56 15 -18 1 -51 8 -73 16 -22 9 -66 20 -98 25 -32 5 -68 16 -80 24 -12 8
-35 15 -52 15 -17 0 -47 8 -67 19 -20 10 -60 21 -89 24 -29 4 -56 12 -60 18
-4 7 -38 16 -76 21 -41 5 -72 14 -79 23 -15 21 -46 19 -77 -5z m73 -80 c0 -5
-9 -10 -20 -10 -11 0 -20 5 -20 10 0 6 9 10 20 10 11 0 20 -4 20 -10z m-80
-40 c0 -5 -9 -10 -20 -10 -11 0 -20 5 -20 10 0 6 9 10 20 10 11 0 20 -4 20
-10z m-50 -35 c0 -8 -4 -15 -10 -15 -5 0 -10 7 -10 15 0 8 5 15 10 15 6 0 10
-7 10 -15z m208 -254 c3 -149 -5 -185 -32 -148 -7 9 -18 17 -23 17 -13 0 -28
210 -17 242 8 28 23 39 49 36 19 -3 20 -12 23 -147z m1387 -114 c6 -8 37 -16
69 -20 63 -6 92 -22 62 -33 -26 -10 -110 4 -122 21 -7 10 -29 15 -63 15 -45 0
-51 2 -51 21 0 20 4 21 48 15 26 -3 52 -12 57 -19z m289 -80 c7 -8 38 -17 79
-21 37 -4 74 -14 81 -22 8 -8 29 -14 46 -14 25 0 31 -4 28 -17 -3 -14 -12 -17
-38 -15 -19 2 -39 9 -45 16 -5 7 -37 16 -70 19 -33 3 -64 12 -70 20 -5 7 -41
18 -79 23 -44 6 -71 14 -74 23 -7 20 127 9 142 -12z"/>
<path d="M2800 3208 c0 -58 15 -91 68 -148 30 -33 61 -60 69 -60 8 0 26 -9 40
-20 14 -11 33 -20 42 -20 9 0 27 -9 41 -20 14 -11 39 -20 57 -20 18 0 36 -6
40 -14 4 -8 24 -17 44 -21 l36 -7 6 108 c3 59 3 113 0 120 -10 26 -56 46 -124
53 -39 4 -74 13 -78 20 -4 7 -40 15 -82 18 -41 3 -77 10 -80 15 -3 5 -22 11
-42 15 -34 5 -37 4 -37 -19z"/>
<path d="M3680 3141 c0 -18 6 -21 41 -21 33 0 40 3 37 18 -2 12 -14 18 -41 20
-32 3 -37 0 -37 -17z"/>
<path d="M3770 3100 c0 -5 7 -10 15 -10 8 0 15 5 15 10 0 6 -7 10 -15 10 -8 0
-15 -4 -15 -10z"/>
<path d="M3793 3029 c-5 -5 -32 -13 -59 -17 -39 -6 -50 -11 -52 -28 -3 -18 4
-22 36 -28 22 -3 42 -13 46 -21 4 -10 20 -15 53 -15 29 0 58 -7 73 -17 13 -9
49 -20 79 -24 31 -5 60 -14 66 -22 6 -9 35 -16 79 -19 49 -3 72 -9 81 -21 8
-12 27 -17 59 -17 34 0 51 -5 63 -20 10 -11 23 -20 30 -20 7 0 26 -17 43 -39
31 -38 32 -39 121 -46 49 -3 91 -11 94 -16 4 -5 13 -9 21 -9 19 0 18 36 -2 52
-9 7 -35 33 -58 58 -23 24 -59 62 -82 85 -22 22 -43 48 -47 58 -4 9 -13 17
-22 17 -8 0 -15 8 -15 19 0 13 -10 20 -32 25 -17 3 -40 13 -49 22 -14 12 -33
15 -91 10 -99 -7 -93 -7 -182 2 -56 7 -81 14 -88 25 -7 13 -24 17 -81 17 -40
0 -78 -5 -84 -11z"/>
<path d="M6241 3013 c-8 -15 -23 -17 -104 -15 -73 2 -97 -1 -106 -12 -11 -13
-8 -16 16 -22 15 -4 34 -13 41 -21 7 -7 23 -15 35 -17 12 -2 49 -9 81 -15 71
-13 86 -5 86 46 0 60 -28 92 -49 56z"/>
<path d="M5741 2951 c-28 -24 -46 -26 -81 -6 -35 20 -154 20 -174 0 -19 -19
-46 -19 -74 0 -15 11 -40 15 -84 13 -68 -3 -86 -20 -38 -36 16 -6 30 -18 30
-26 0 -23 -50 -56 -86 -56 -18 0 -36 -4 -39 -10 -3 -5 -17 -10 -31 -10 -19 0
-26 -6 -31 -31 -6 -31 -6 -31 -59 -27 -31 3 -62 12 -72 21 -10 9 -33 17 -50
17 l-32 0 0 60 c0 82 -18 100 -99 100 l-60 0 -6 -55 c-4 -31 -5 -74 -1 -95 5
-32 3 -40 -9 -40 -12 0 -15 16 -15 83 0 45 -4 88 -9 95 -13 21 -44 10 -52 -19
-6 -25 6 -209 16 -236 3 -8 23 -13 51 -13 30 0 59 -8 81 -21 25 -16 42 -19 66
-14 31 7 62 8 177 6 30 -1 78 -1 105 -1 28 0 75 -2 105 -3 43 -2 55 1 55 13 0
8 -10 16 -22 18 -25 4 -31 27 -9 35 17 7 54 -2 81 -18 11 -7 47 -15 80 -18 33
-3 61 -11 63 -17 5 -15 68 -12 82 5 10 12 40 15 151 15 128 0 140 2 151 20 16
25 98 30 98 6 0 -33 82 -31 143 3 41 23 42 31 9 68 -16 17 -32 38 -35 47 -4 9
-13 16 -21 16 -7 0 -16 9 -19 20 -3 11 -12 20 -21 20 -9 0 -16 8 -16 20 0 15
-7 20 -26 20 -15 0 -41 9 -58 19 -20 12 -60 21 -111 26 -72 6 -82 5 -104 -14z
m-502 -207 c1 -1 0 -7 -4 -13 -8 -14 -51 -14 -77 0 -17 9 -18 13 -7 20 12 7
77 2 88 -7z"/>
<path d="M3180 2734 c-14 -7 -33 -14 -42 -14 -10 0 -32 -9 -50 -20 -18 -11
-45 -20 -60 -20 -18 0 -28 -5 -28 -15 0 -8 -14 -17 -36 -21 -20 -4 -45 -15
-55 -25 -11 -11 -28 -19 -39 -19 -10 0 -24 -9 -30 -19 -5 -11 -23 -22 -39 -26
-16 -3 -31 -14 -34 -23 -3 -9 -8 -25 -12 -34 -5 -13 -2 -18 9 -18 10 0 16 -9
16 -23 0 -12 9 -30 20 -40 11 -9 20 -26 20 -37 0 -11 5 -20 10 -20 6 0 10 -6
10 -13 0 -7 26 -40 59 -74 32 -33 61 -73 65 -87 3 -14 10 -26 15 -26 5 0 36
-27 69 -60 34 -33 68 -60 76 -60 8 0 20 -9 26 -20 6 -11 17 -20 26 -20 8 0 19
-11 25 -24 10 -20 16 -23 48 -19 27 4 42 0 54 -12 9 -9 17 -11 17 -5 0 6 24
-13 53 -43 28 -30 64 -57 80 -61 15 -3 27 -13 27 -20 0 -9 16 -17 40 -21 25
-4 40 -12 40 -21 0 -8 9 -14 20 -14 10 0 23 -8 29 -17 9 -16 30 -18 232 -16
123 0 224 5 228 10 3 6 35 10 71 11 232 6 496 26 503 39 6 10 47 13 182 13
140 0 175 3 175 13 0 15 151 27 322 27 43 0 78 4 78 9 0 4 35 11 78 14 42 4
114 10 160 13 45 4 82 10 82 14 0 4 35 10 78 14 178 16 202 19 202 26 0 4 -27
13 -60 20 -33 7 -60 16 -60 21 0 4 -26 13 -57 20 -32 7 -61 17 -65 22 -3 6
-32 16 -65 23 -32 7 -76 20 -98 28 -22 8 -52 15 -67 16 -15 0 -34 7 -42 16 -9
8 -41 18 -71 21 -30 3 -55 9 -55 13 0 14 -52 30 -95 30 -27 0 -58 8 -77 20
-18 11 -47 20 -64 20 -18 0 -51 9 -75 20 -24 11 -59 20 -78 20 -19 0 -42 7
-52 16 -9 8 -42 19 -72 23 -30 4 -67 15 -81 24 -14 9 -43 17 -65 17 -22 0 -46
7 -55 15 -9 9 -39 18 -68 22 -29 3 -68 14 -86 24 -19 11 -52 19 -78 19 -25 0
-62 9 -84 20 -22 11 -56 20 -76 20 -21 0 -45 7 -55 16 -9 8 -44 19 -78 24 -33
5 -70 15 -83 24 -12 9 -40 16 -62 16 -22 0 -47 7 -57 16 -9 8 -45 19 -79 24
-34 5 -70 16 -79 24 -10 9 -35 16 -58 16 -22 0 -57 7 -77 15 -20 9 -69 20
-108 25 -39 4 -74 14 -78 20 -4 7 -38 15 -75 17 -50 5 -69 10 -78 24 -7 11
-19 19 -28 19 -9 0 -19 7 -23 15 -7 18 -22 18 -56 -1z"/>
<path d="M6100 2630 c-13 -9 -13 -12 3 -24 9 -7 17 -21 17 -30 0 -9 7 -16 15
-16 9 0 18 -7 22 -16 8 -21 46 -59 67 -67 9 -4 16 -13 16 -22 0 -11 11 -15 39
-15 22 0 48 -8 62 -19 18 -14 45 -20 99 -22 68 -4 75 -2 78 16 3 11 10 24 18
28 22 12 17 23 -16 37 -16 7 -30 16 -30 20 0 5 14 13 30 19 38 13 38 20 -1 54
-23 20 -42 27 -74 27 -27 0 -51 7 -68 20 -22 17 -40 20 -144 20 -65 0 -125 -5
-133 -10z m220 -50 c0 -5 -9 -10 -20 -10 -11 0 -20 5 -20 10 0 6 9 10 20 10
11 0 20 -4 20 -10z m130 -39 c0 -17 -19 -22 -55 -15 -50 9 -44 24 10 24 25 0
45 -4 45 -9z"/>
<path d="M4556 2592 c-3 -5 -2 -22 3 -38 6 -23 14 -30 37 -32 16 -2 34 -10 41
-19 7 -9 34 -18 65 -21 30 -3 64 -13 77 -23 15 -13 40 -19 71 -19 34 0 52 -5
65 -20 14 -16 31 -20 81 -20 53 0 65 3 74 20 12 22 54 27 80 10 13 -9 13 -11
0 -20 -8 -5 -27 -10 -42 -10 -17 0 -28 -5 -28 -14 0 -16 30 -26 83 -26 25 0
37 -5 37 -14 0 -16 30 -26 83 -26 24 0 44 -7 57 -20 16 -16 33 -20 80 -20 44
0 60 -4 60 -14 0 -16 30 -26 79 -26 20 0 39 -7 46 -17 17 -23 120 -26 120 -3
0 11 -15 16 -62 18 -56 3 -63 5 -63 24 0 19 5 20 70 16 54 -3 73 -8 83 -22 8
-12 21 -17 30 -13 13 5 16 31 19 154 4 214 8 203 -63 203 l-59 0 0 -84 c0 -46
-3 -91 -6 -100 -10 -25 -95 -22 -117 4 -12 14 -29 20 -61 20 -31 0 -48 5 -54
16 -6 11 -28 18 -63 22 -30 2 -57 10 -61 17 -5 7 -32 19 -60 25 -29 7 -62 19
-73 26 -25 18 -176 19 -193 2 -9 -9 -15 -9 -24 0 -18 18 -188 16 -188 -2 0
-32 -84 -37 -100 -6 -7 14 -21 20 -44 20 -25 0 -35 5 -39 20 -5 20 -31 27 -41
12z m332 -78 c30 -8 28 -20 -4 -28 -30 -8 -84 1 -84 14 0 16 51 23 88 14z
m150 -56 c3 -15 -4 -18 -40 -18 -53 0 -81 15 -58 30 25 17 94 8 98 -12z m310
-75 c-2 -13 -15 -19 -47 -21 -54 -4 -72 3 -65 23 5 11 21 15 61 15 46 0 54 -3
51 -17z m110 -29 c12 -4 22 -13 22 -20 0 -10 16 -14 60 -14 53 0 60 -2 60 -20
0 -18 -7 -20 -60 -20 -53 0 -60 2 -60 20 0 18 -7 20 -60 20 -53 0 -60 2 -60
20 0 16 7 20 38 20 20 0 47 -3 60 -6z m292 -16 c0 -4 -23 -8 -51 -8 -27 0 -48
3 -46 8 7 10 97 11 97 0z"/>
<path d="M5840 2404 c1 -108 -2 -200 -7 -204 -4 -5 -21 -10 -38 -12 -29 -4
-29 -4 13 -17 24 -6 58 -11 75 -9 l32 3 3 218 2 217 -40 0 -41 0 1 -196z"/>
</g>
</svg>
