<?xml version="1.0" encoding="UTF-8" standalone="no"?>
<svg
   xmlns:dc="http://purl.org/dc/elements/1.1/"
   xmlns:cc="http://creativecommons.org/ns#"
   xmlns:rdf="http://www.w3.org/1999/02/22-rdf-syntax-ns#"
   xmlns:svg="http://www.w3.org/2000/svg"
   xmlns="http://www.w3.org/2000/svg"
   xmlns:sodipodi="http://sodipodi.sourceforge.net/DTD/sodipodi-0.dtd"
   xmlns:inkscape="http://www.inkscape.org/namespaces/inkscape"
   id="svg"
   version="1.1"
   width="400"
   height="400"
   viewBox="0 0 400 400.00001"
   sodipodi:docname="torrenttools-icon.svg"
   inkscape:version="1.0.1 (3bc2e813f5, 2020-09-07)">
  <metadata
     id="metadata18">
    <rdf:RDF>
      <cc:Work
         rdf:about="">
        <dc:format>image/svg+xml</dc:format>
        <dc:type
           rdf:resource="http://purl.org/dc/dcmitype/StillImage" />
        <dc:title />
      </cc:Work>
    </rdf:RDF>
  </metadata>
  <defs
     id="defs16" />
  <sodipodi:namedview
     pagecolor="#ffffff"
     bordercolor="#666666"
     borderopacity="1"
     objecttolerance="10"
     gridtolerance="10"
     guidetolerance="10"
     inkscape:pageopacity="0"
     inkscape:pageshadow="2"
     inkscape:window-width="1641"
     inkscape:window-height="1016"
     id="namedview14"
     showgrid="false"
     inkscape:zoom="1.7192518"
     inkscape:cx="52.387526"
     inkscape:cy="219.55686"
     inkscape:window-x="26"
     inkscape:window-y="23"
     inkscape:window-maximized="0"
     inkscape:current-layer="layer1"
     inkscape:document-rotation="0"
     showguides="true" />
  <path
     style="opacity:0.783;fill:#8469ae;fill-opacity:0.372549"
     id="path1516"
     sodipodi:type="arc"
     sodipodi:cx="-782.08789"
     sodipodi:cy="-653.85352"
     sodipodi:rx="92.522636"
     sodipodi:ry="89.478378"
     sodipodi:start="0"
     sodipodi:end="0.0034288389"
     sodipodi:open="true"
     sodipodi:arc-type="arc"
     d="m -689.56525,-653.85352 a 92.522636,89.478378 0 0 1 -5.5e-4,0.30681" />
  <path
     style="opacity:0.783;fill:#8469ae;fill-opacity:0.372549"
     id="path1518"
     sodipodi:type="arc"
     sodipodi:cx="-769.18781"
     sodipodi:cy="-685.75989"
     sodipodi:rx="4.8200765"
     sodipodi:ry="28.50441"
     sodipodi:start="0"
     sodipodi:end="0.0034288389"
     sodipodi:open="true"
     sodipodi:arc-type="arc"
     d="m -764.36773,-685.75989 a 4.8200765,28.50441 0 0 1 -3e-5,0.0977" />
  <g
     inkscape:groupmode="layer"
     id="layer4"
     inkscape:label="background"
     style="display:inline">
    <circle
       style="display:inline;opacity:1;mix-blend-mode:normal;fill:#e3dde8;fill-opacity:1;stroke:none;stroke-opacity:1;stroke-width:5.1;stroke-miterlimit:4;stroke-dasharray:none"
       id="path4980"
       cy="200"
       cx="200"
       r="200" />
    <circle
       style="display:inline;opacity:1;mix-blend-mode:normal;fill:#ffffff;fill-opacity:1;stroke:none;stroke-width:0.674747;stroke-opacity:1"
       id="path5093"
       cx="200"
       cy="200"
       r="120" />
  </g>
  <g
     inkscape:groupmode="layer"
     id="layer1"
     inkscape:label="tool layer"
     style="display:inline;opacity:0.99095313;mix-blend-mode:normal">
    <g
       id="g2234"
       transform="matrix(0.71583144,0,0,0.71583144,19.356101,20.713387)"
       style="opacity:1;fill:#9d9595;fill-opacity:1;stroke:none">
      <g
         id="g2178"
         style="fill:#9d9595;fill-opacity:1;stroke:none">
        <g
           id="g2540"
           style="fill:#9d9595;fill-opacity:1;stroke:none">
          <path
             id="path2176"
             style="fill:#9d9595;fill-opacity:1;stroke:none;stroke-width:0.715831;stroke-opacity:1"
             d="m 178.29297,26.335938 v 34.408203 c -10.09108,1.54548 -19.84295,4.176507 -29.13086,7.757812 L 131.99414,38.757812 94.384766,60.466797 111.51367,90.167969 C 103.67102,96.505224 96.50543,103.67245 90.1875,111.51367 L 60.466797,94.365234 38.757812,131.95117 68.521484,149.14453 c -3.601348,9.28434 -6.213048,19.03732 -7.757812,29.14844 H 26.335938 v 43.41406 h 34.429687 c 1.544764,10.11327 4.154511,19.86443 7.755859,29.15235 l -29.763672,17.17187 21.708985,37.60547 29.722656,-17.14844 c 6.31793,7.84408 13.481567,15.00682 21.324217,21.34766 L 94.386719,339.53516 131.99609,361.24023 149.16797,331.5 c 9.28433,3.60493 19.03588,6.19014 29.12695,7.75781 v 34.40625 h 43.41406 v -34.40625 c 10.1326,-1.56695 19.88846,-4.15288 29.16993,-7.75781 l 17.17187,29.74023 37.61133,-21.70507 -17.17188,-29.69922 c 7.88417,-6.34084 15.00736,-13.50339 21.3711,-21.3711 l 29.67578,17.15235 21.70898,-37.58594 -29.72656,-17.17187 c 3.60851,-9.28792 6.18956,-19.03908 7.76367,-29.15235 h 34.38086 v -43.41406 h -34.38281 c -1.56982,-10.11112 -4.15321,-19.8641 -7.76172,-29.14844 L 361.24609,131.9707 339.5332,94.365234 309.85352,111.51367 C 303.4955,103.66959 296.3744,96.505419 288.49023,90.166016 L 305.6543,60.466797 268.04883,38.757812 250.87891,68.501953 c -9.28505,-3.604927 -19.03733,-6.213375 -29.16993,-7.761719 V 26.335938 Z M 200,90 c 60.75132,0 110,49.24868 110,110 0,60.75132 -49.24868,110 -110,110 C 139.24868,310 90,260.75132 90,200 90,139.24868 139.24868,90 200,90 Z"
             transform="matrix(1.3969769,0,0,1.3969769,-27.040026,-28.936124)" />
        </g>
      </g>
      <g
         id="g2180"
         style="fill:#9d9595;fill-opacity:1;stroke:none" />
      <g
         id="g2182"
         style="fill:#9d9595;fill-opacity:1;stroke:none" />
      <g
         id="g2184"
         style="fill:#9d9595;fill-opacity:1;stroke:none" />
      <g
         id="g2186"
         style="fill:#9d9595;fill-opacity:1;stroke:none" />
      <g
         id="g2188"
         style="fill:#9d9595;fill-opacity:1;stroke:none" />
      <g
         id="g2190"
         style="fill:#9d9595;fill-opacity:1;stroke:none" />
      <g
         id="g2192"
         style="fill:#9d9595;fill-opacity:1;stroke:none" />
      <g
         id="g2194"
         style="fill:#9d9595;fill-opacity:1;stroke:none" />
      <g
         id="g2196"
         style="fill:#9d9595;fill-opacity:1;stroke:none" />
      <g
         id="g2198"
         style="fill:#9d9595;fill-opacity:1;stroke:none" />
      <g
         id="g2200"
         style="fill:#9d9595;fill-opacity:1;stroke:none" />
      <g
         id="g2202"
         style="fill:#9d9595;fill-opacity:1;stroke:none" />
      <g
         id="g2204"
         style="fill:#9d9595;fill-opacity:1;stroke:none" />
      <g
         id="g2206"
         style="fill:#9d9595;fill-opacity:1;stroke:none" />
      <g
         id="g2208"
         style="fill:#9d9595;fill-opacity:1;stroke:none" />
    </g>
  </g>
  <g
     inkscape:groupmode="layer"
     id="layer3"
     inkscape:label="bittorrent"
     style="display:inline;opacity:1">
    <ellipse
       style="opacity:0.5;fill:#663d44;fill-opacity:0;stroke-width:0.588807"
       id="path20"
       cx="196.45715"
       cy="199.91708"
       transform="matrix(0.99987146,-0.01603292,0.01601687,0.99987172,0,0)"
       rx="116.13042"
       ry="116.18861" />
    <ellipse
       style="opacity:0;fill:#241c1c;fill-opacity:0.372549;stroke-width:0.580798"
       id="path1520"
       cx="197.08478"
       cy="206.44467"
       transform="matrix(0.99987146,-0.01603292,0.01601687,0.99987172,0,0)"
       rx="116.13042"
       ry="116.18861" />
    <g
       id="svgg-6"
       transform="matrix(0.49055859,-0.0078661,0.00786216,0.49080458,100.02557,104.0611)">
      <path
         id="path0-7"
         d="M 189.023,0.367 C 96.388,5.17 18.51,74.546 3.026,166.057 c -13.494,79.754 20.563,157.281 88.821,202.185 12.503,8.226 23.506,13.667 24.472,12.103 0.329,-0.532 0.188,-0.634 -5.67,-4.087 -42.615,-25.122 -68.913,-64.75 -75.451,-113.696 -1.25,-9.353 -0.42,-29.151 1.758,-41.93 14.15,-83.043 90.646,-149.049 172.778,-149.083 l 4.575,-0.002 v 15.258 15.257 l -6.406,0.201 c -55.631,1.746 -107.216,36.981 -129.692,88.586 -17.551,40.296 -12.414,91.306 13.027,129.361 26.07,38.995 63.681,61.741 115.085,69.601 21.351,3.264 53.078,3.87 53.078,1.014 0,-0.614 -0.412,-0.651 -9.318,-0.856 -83.134,-1.907 -136.992,-33.665 -161.346,-95.141 -20.215,-51.027 -9.345,-102.406 30.065,-142.109 38.916,-39.205 95.738,-51.41 147.587,-31.7 2.116,0.804 2.595,-0.797 -4.456,14.921 l -6.119,13.644 -5.249,-1.755 c -17.58,-5.88 -37.582,-7.016 -56.222,-3.193 -47.311,9.702 -82.941,53.509 -82.922,101.953 0.029,77.384 76.691,128.538 178.783,119.296 16.103,-1.458 27.932,-3.419 27.932,-4.63 0,-0.789 -0.852,-0.837 -6.228,-0.353 -75.518,6.796 -125.303,-5.751 -159.669,-40.242 -25.677,-25.771 -35.562,-56.407 -28.802,-89.264 17.421,-84.675 126.332,-106.321 174.101,-34.603 1.811,2.72 3.294,5.138 3.294,5.373 0,0.324 -17.455,9.853 -25.528,13.936 l -1.069,0.541 -1.882,-2.858 c -29.505,-44.804 -98.319,-37.129 -115.561,12.888 -6.676,19.368 -4.501,42.552 5.366,57.187 28.746,42.641 83.163,56.973 176.777,46.559 15.799,-1.757 13.159,-0.494 20.101,-9.62 C 426.214,232.474 408.584,106.496 319.716,39.827 282.35,11.796 236.367,-2.088 189.023,0.367"
         stroke="none"
         fill="#64349c"
         fill-rule="evenodd" />
      <path
         id="path1-5"
         d=""
         stroke="none"
         fill="#6c349c"
         fill-rule="evenodd" />
    </g>
  </g>
</svg>
