<?xml version="1.0" encoding="UTF-8" standalone="no"?>
<!-- Generator: Adobe Illustrator 19.0.0, SVG Export Plug-In . SVG Version: 6.00 Build 0)  -->

<svg
   xmlns:dc="http://purl.org/dc/elements/1.1/"
   xmlns:cc="http://creativecommons.org/ns#"
   xmlns:rdf="http://www.w3.org/1999/02/22-rdf-syntax-ns#"
   xmlns:svg="http://www.w3.org/2000/svg"
   xmlns="http://www.w3.org/2000/svg"
   xmlns:sodipodi="http://sodipodi.sourceforge.net/DTD/sodipodi-0.dtd"
   xmlns:inkscape="http://www.inkscape.org/namespaces/inkscape"
   version="1.1"
   id="Layer_1"
   x="0px"
   y="0px"
   viewBox="0 0 500 500"
   xml:space="preserve"
   inkscape:version="0.48.5 r10040"
   width="100%"
   height="100%"
   sodipodi:docname="computer.svg"><metadata
     id="metadata57"><rdf:RDF><cc:Work
         rdf:about=""><dc:format>image/svg+xml</dc:format><dc:type
           rdf:resource="http://purl.org/dc/dcmitype/StillImage" /></cc:Work></rdf:RDF></metadata><defs
     id="defs55" /><sodipodi:namedview
     pagecolor="#ffffff"
     bordercolor="#666666"
     borderopacity="1"
     objecttolerance="10"
     gridtolerance="10"
     guidetolerance="10"
     inkscape:pageopacity="0"
     inkscape:pageshadow="2"
     inkscape:window-width="1366"
     inkscape:window-height="716"
     id="namedview53"
     showgrid="false"
     inkscape:zoom="0.52559509"
     inkscape:cx="757.79096"
     inkscape:cy="143.17093"
     inkscape:window-x="0"
     inkscape:window-y="0"
     inkscape:window-maximized="1"
     inkscape:current-layer="Layer_1" /><polygon
     style="fill:#cccccc"
     points="171.063,352.014 289.402,352.014 309.125,441.463 151.34,441.463 "
     id="polygon3"
     transform="matrix(0.90000001,0,0,0.90000001,42.204682,65.365406)" /><rect
     x="160.67709"
     y="453.5336"
     style="fill:#d8d9dd"
     width="177.47369"
     height="16.4664"
     id="rect5" /><rect
     x="160.67709"
     y="453.5336"
     style="opacity:0.4;fill:#394050;enable-background:new"
     width="177.47369"
     height="16.4664"
     id="rect11" /><g
     id="g23"
     transform="translate(0,39.767)" /><g
     id="g25"
     transform="translate(0,39.767)" /><g
     id="g27"
     transform="translate(0,39.767)" /><g
     id="g29"
     transform="translate(0,39.767)" /><g
     id="g31"
     transform="translate(0,39.767)" /><g
     id="g33"
     transform="translate(0,39.767)" /><g
     id="g35"
     transform="translate(0,39.767)" /><g
     id="g37"
     transform="translate(0,39.767)" /><g
     id="g39"
     transform="translate(0,39.767)" /><g
     id="g41"
     transform="translate(0,39.767)" /><g
     id="g43"
     transform="translate(0,39.767)" /><g
     id="g45"
     transform="translate(0,39.767)" /><g
     id="g47"
     transform="translate(0,39.767)" /><g
     id="g49"
     transform="translate(0,39.767)" /><g
     id="g51"
     transform="translate(0,39.767)" /><g
     id="g3101"
     transform="matrix(0.90000001,0,0,0.90000001,23.588761,29.575105)"><path
       id="path9"
       d="m 479.22456,103.36972 c 0.013,0 0.24565,0.15109 0.24565,0.16413 V 381.79146 H 23.664782 V 103.53385 c 0,-0.013 0.161957,-0.16413 0.175,-0.16413 H 479.22456 l 0,0 z"
       style="fill:#ff6600"
       inkscape:connector-curvature="0" /><path
       sodipodi:nodetypes="cccczzc"
       inkscape:connector-curvature="0"
       id="path3787"
       d="m 23.020921,252.06488 -0.729455,111.16364 458.586214,-0.28073 -1.21237,-91.98143 c 0,0 -64.75371,17.72766 -120.75773,12.24132 C 302.90357,277.72133 217.52129,222.72123 157.9238,220.64685 98.326385,218.57249 23.020921,252.06488 23.020921,252.06488 z"
       style="fill:#803300;stroke:#000000;stroke-width:0.55641943px;stroke-linecap:butt;stroke-linejoin:miter;stroke-opacity:1" /><path
       id="path7"
       d="m 479.22456,103.36972 c 0.013,0 0.24565,0.15109 0.24565,0.16413 V 381.79146 H 23.664782 V 103.53385 c 0,-0.013 0.161957,-0.16413 0.175,-0.16413 H 479.22456 l 0,0 z M 501.56804,242.5795 V 103.49472 c 0,-11.790219 -10.51304,-22.221743 -22.30435,-22.221743 l 0,0 H 23.800652 c -11.790218,0 -22.2326088,10.431524 -22.2326088,22.221743 v 139.08478 0.003 139.08587 c 0,11.79131 10.4423908,22.22174 22.2326088,22.22174 H 479.26369 l 0,0 c 11.79131,0 22.30435,-10.43152 22.30435,-22.22174 v -139.08587 -0.003 z"
       style="fill:#394050"
       inkscape:connector-curvature="0" /><rect
       y="363.00534"
       x="18.444229"
       height="20"
       width="467.14285"
       id="rect3062"
       style="fill:#394050;fill-opacity:0.58823529;stroke:none" /><path
       inkscape:connector-curvature="0"
       id="path2996"
       d="m 39.445597,117.45077 17.854008,0.0134 0.29996,0.1343 0.14774,0.28653 0,15.02011 1.6878,1.7281 0.0134,7.78091 -0.42531,0.291 -19.586585,0.14326 z"
       style="fill:#ffb800;stroke:none" /><path
       sodipodi:nodetypes="cccccccc"
       inkscape:connector-curvature="0"
       id="path3766"
       d="m 39.445611,117.45144 6.812524,5.58424 0.0253,15.5751 -0.53183,0.81041 0.0127,7.86352 -0.43054,0.24059 -5.898632,-4.68351 z"
       style="fill:#faec6d;stroke:none" /><path
       inkscape:connector-curvature="0"
       id="path3768"
       d="m 40.099228,142.4813 0.03581,-23.42331"
       style="fill:none;stroke:#ffb800;stroke-width:0.14182203px;stroke-linecap:round;stroke-linejoin:miter;stroke-opacity:1" /><path
       inkscape:connector-curvature="0"
       id="path3768-3"
       d="m 40.573675,142.82216 0.03581,-23.42332"
       style="fill:none;stroke:#ffb800;stroke-width:0.14182203px;stroke-linecap:round;stroke-linejoin:miter;stroke-opacity:1" /><path
       style="fill:#cccccc;fill-opacity:0.58823529;stroke-width:0.78468841"
       d="m 47.669985,170.19375 c -3.72385,-0.18566 -7.164975,-1.217 -8.650968,-2.59277 -0.377103,-0.3491 -0.677719,-0.84714 -0.676672,-1.12096 0.0017,-0.46347 0.571684,-1.15605 1.371203,-1.66633 3.421691,-2.18382 10.502457,-2.76536 15.693047,-1.28886 1.79294,0.51001 3.14767,1.20492 3.89603,1.99849 0.50597,0.53651 0.60138,0.87699 0.38149,1.36133 -0.51665,1.13798 -2.81728,2.29661 -5.71203,2.87668 -1.16517,0.23349 -2.27444,0.36607 -3.64877,0.43603 -1.20297,0.0613 -1.35537,0.0611 -2.65333,-0.004 z"
       id="path3340"
       inkscape:connector-curvature="0" /><path
       style="fill:#cccccc;fill-opacity:0.58823529;stroke-width:0.78468841"
       d="m 48.044815,189.43183 c -2.85713,-0.14245 -5.497349,-0.93372 -6.637483,-1.98929 -0.289336,-0.26789 -0.519985,-0.64998 -0.51918,-0.86007 0.0014,-0.35559 0.438627,-0.887 1.052061,-1.27849 2.625302,-1.67557 8.058052,-2.12173 12.040552,-0.98892 1.37564,0.39133 2.41507,0.9245 2.98925,1.53338 0.38821,0.41163 0.46141,0.67287 0.2927,1.04448 -0.39641,0.87313 -2.16157,1.76206 -4.38258,2.20715 -0.89398,0.17913 -1.74508,0.28082 -2.79953,0.33455 -0.92298,0.047 -1.03992,0.0469 -2.03579,-0.004 z"
       id="path3340-3"
       inkscape:connector-curvature="0" /><path
       style="fill:#969696;fill-opacity:0.58823529;stroke-width:0.78468841"
       d="m 47.854715,189.43947 c -3.06002,-0.20979 -5.551293,-1.04546 -6.627705,-2.22321 -0.383271,-0.41936 -0.487005,-0.64393 -0.600585,-1.30026 -0.313457,-1.81133 -3.393373,-18.38205 -3.473911,-18.69057 -0.551437,-2.11221 1.6986,-4.02531 5.966928,-5.07338 0.977503,-0.24002 2.462803,-0.47771 3.641443,-0.58274 1.05824,-0.0943 3.51443,-0.0943 4.57266,0 5.16358,0.46013 9.02892,2.24 9.61137,4.42577 0.11247,0.42206 0.10288,0.74467 -0.0395,1.32827 -0.15398,0.63129 -3.47502,18.63202 -3.47502,18.83533 0,0.0825 -0.0841,0.31835 -0.18692,0.52411 -0.52174,1.04405 -2.2711,1.96932 -4.63369,2.45078 -1.31499,0.26798 -3.37511,0.40052 -4.75511,0.3059 z"
       id="path3348"
       inkscape:connector-curvature="0" /><g
       style="fill:#006680;stroke:#006680;stroke-opacity:1"
       id="g20"
       transform="matrix(0.29299353,0,0,0.29299353,30.440431,154.99569)"><linearGradient
         y2="89.454102"
         x2="81.225601"
         y1="89.454102"
         x1="64.779297"
         gradientUnits="userSpaceOnUse"
         id="SVGID_2_"><stop
           id="stop23"
           style="stop-color:#80C11B"
           offset="0" /><stop
           id="stop25"
           style="stop-color:#80E21B"
           offset="1" /></linearGradient><path
         style="fill:#006680;stroke:#006680;stroke-opacity:1"
         id="path27"
         d="m 68.818,87.321 -4.039,7.105 4.105,7.037 -0.016,-3.096 3.416,-0.063 c 2.135,-0.059 3.303,-1.699 3.303,-1.699 l 5.166,-8.844 c 1.104,-2.484 -0.076,-4.172 -0.076,-4.172 l -3.594,-6.146 -7.104,4.107 4.563,7.889 c 0.168,0.416 -0.1,0.754 -0.596,0.746 l -5.107,0.035 -0.021,-2.899 0,0 z"
         inkscape:connector-curvature="0" /><linearGradient
         y2="88.808601"
         x2="62.918499"
         y1="88.808601"
         x1="46.181198"
         gradientUnits="userSpaceOnUse"
         id="SVGID_3_"><stop
           id="stop30"
           style="stop-color:#80C11B"
           offset="0" /><stop
           id="stop32"
           style="stop-color:#80E21B"
           offset="1" /></linearGradient><path
         style="fill:#006680;stroke:#006680;stroke-opacity:1"
         id="path34"
         d="m 58.476,86.259 -4.15,-7.043 -8.145,0.055 2.689,1.529 -1.651,2.99 c -1.013,1.881 -0.17,3.711 -0.17,3.711 l 5.096,8.885 c 1.604,2.197 3.656,2.011 3.656,2.011 l 7.118,-0.05 -0.024,-8.207 -9.112,0.027 C 53.34,90.104 53.179,89.706 53.432,89.278 l 2.515,-4.447 2.529,1.428 0,0 z"
         inkscape:connector-curvature="0" /><linearGradient
         y2="73.499001"
         x2="76.783203"
         y1="73.499001"
         x1="51.8843"
         gradientUnits="userSpaceOnUse"
         id="SVGID_4_"><stop
           id="stop37"
           style="stop-color:#80C11B"
           offset="0" /><stop
           id="stop39"
           style="stop-color:#80E21B"
           offset="1" /></linearGradient><path
         style="fill:#006680;stroke:#006680;stroke-opacity:1"
         id="path41"
         d="m 64.572,77.841 8.174,-0.063 4.037,-7.074 -2.672,1.561 -1.762,-2.928 C 71.232,67.519 69.224,67.329 69.224,67.329 L 58.981,67.282 c -2.707,0.287 -3.573,2.154 -3.573,2.154 l -3.524,6.188 7.111,4.092 4.546,-7.896 c 0.276,-0.354 0.701,-0.291 0.944,0.145 l 2.588,4.402 -2.501,1.474 0,0 z"
         inkscape:connector-curvature="0" /></g><path
       sodipodi:open="true"
       sodipodi:end="12.56186"
       sodipodi:start="6.2787571"
       transform="matrix(1.0967742,0,0,1,-7.9708778,-9.838942)"
       d="m 51.265163,382.53787 c 0.01915,4.53283 -3.470319,8.22368 -7.793938,8.24376 -4.32362,0.0201 -7.844126,-3.63824 -7.863272,-8.17107 -0.01915,-4.53282 3.470319,-8.22368 7.793938,-8.24375 4.323367,-0.0201 7.843768,3.63783 7.863269,8.17039"
       sodipodi:ry="8.207489"
       sodipodi:rx="7.8286819"
       sodipodi:cy="382.57422"
       sodipodi:cx="43.436558"
       id="path3832"
       style="fill:#ffffff;fill-opacity:0.58823529;stroke:none"
       sodipodi:type="arc" /><rect
       y="366.57678"
       x="467.48923"
       height="11.785714"
       width="6.4285712"
       id="rect3852"
       style="fill:#71c837;fill-opacity:0.58823529;stroke:none" /><rect
       y="366.46356"
       x="458.47525"
       height="11.785714"
       width="1.9460193"
       id="rect3852-6"
       style="fill:#ffffff;fill-opacity:0.58823529;stroke:none" /><rect
       y="368.61017"
       x="455.22385"
       height="9.8285437"
       width="1.9460193"
       id="rect3852-6-7"
       style="fill:#ffffff;fill-opacity:0.58823529;stroke:none" /><rect
       y="370.59888"
       x="451.87772"
       height="7.7451038"
       width="1.9460193"
       id="rect3852-6-7-5"
       style="fill:#ffffff;fill-opacity:0.58823529;stroke:none" /><rect
       y="372.90332"
       x="448.78412"
       height="5.5985298"
       width="1.9460193"
       id="rect3852-6-7-5-3"
       style="fill:#ffffff;fill-opacity:0.58823529;stroke:none" /><path
       sodipodi:open="true"
       sodipodi:end="6.2784904"
       sodipodi:start="0"
       transform="matrix(0.28253758,-0.14367359,0.13554112,0.26654488,130.57663,255.71377)"
       d="m 1014.2857,126.28571 c 0,41.02687 -31.97967,74.28572 -71.42858,74.28572 -39.44892,0 -71.42858,-33.25885 -71.42858,-74.28572 C 871.42854,85.258847 903.4082,52 942.85712,52 c 39.31801,0 71.24318,33.046669 71.42778,73.93695"
       sodipodi:ry="74.285713"
       sodipodi:rx="71.428574"
       sodipodi:cy="126.28571"
       sodipodi:cx="942.85712"
       id="path3767"
       style="fill:#faec6d;fill-opacity:1;stroke:none"
       sodipodi:type="arc" /></g><rect
     style="fill:none;stroke:#ffffff;stroke-width:5.65382528;stroke-linecap:butt;stroke-linejoin:miter;stroke-miterlimit:4;stroke-opacity:1;stroke-dasharray:11.30765078, 11.30765078;stroke-dashoffset:0"
     id="rect4235"
     width="342.71176"
     height="173.93739"
     x="76.934105"
     y="158.0822" /><g
     id="g4231"
     transform="matrix(0.21297764,0,0,-0.21297764,321.42047,384.74092)"
     style="fill:#cccccc;fill-opacity:1;stroke:none"><path
       style="fill:#cccccc;fill-opacity:1;stroke:none;stroke-width:7.54062271;marker-start:none"
       sodipodi:nodetypes="cccccczcccccccc"
       id="path49000"
       d="m 439.22937,396.96624 c -39.99272,-55.39455 -48.56918,-95.83447 -62.16419,-91.99646 -10.62669,3 -5.54306,12.10035 -33.62407,18.45086 -26.96162,6.09741 -54.44504,-16.08805 -60.10583,-42.79361 -7.56022,-26.17937 4.86229,-59.03621 32.50809,-67.09242 27.36294,-9.8341 59.91571,6.32203 69.58267,33.5745 14.0265,31.16135 21.16299,72.29173 66.64075,107.68138 l 34.90671,27.1638 120.6271,171.10904 c 13.48121,22.11788 21.53977,51.5201 3.93501,79.45404 L 439.22937,396.96624 z M 309.63984,293.56121 c 23.25361,23.30157 64.51312,9.21439 64.51152,-21.82128 1.71441,-28.54979 -32.933,-54.63199 -58.76636,-38.39095 -21.7463,11.37964 -21.66398,44.26065 -5.74516,60.21223 z"
       inkscape:connector-curvature="0" /><path
       style="fill:#cccccc;fill-opacity:1;stroke:none;stroke-width:6.30193853;marker-start:none"
       sodipodi:nodetypes="cccccczcccccccc"
       id="path48999"
       d="m 501.04181,395.45837 c 40.1155,-55.30522 48.78248,-95.72598 62.36912,-91.85768 10.62008,3.02363 5.5161,12.1129 33.5823,18.52574 26.94828,6.15744 54.48106,-15.96667 60.20111,-42.65946 7.61903,-26.16275 -4.73032,-59.04692 -32.35823,-67.16485 -27.34078,-9.895 -59.92949,6.18862 -69.65752,33.41935 -14.09572,31.13025 -21.32401,72.24438 -66.88019,107.53283 L 453.33141,380.33989 332.3229,551.17978 c -13.53038,22.08772 -21.65414,51.47196 -4.11168,79.44509 L 501.04181,395.45837 z M 630.86163,292.34246 c -23.30556,23.24971 -64.5336,9.07061 -64.4631,-21.96506 -1.65035,-28.55353 33.05479,-54.55845 58.85208,-38.25976 21.72094,11.42802 21.56521,44.30875 5.61102,60.22482 z"
       inkscape:connector-curvature="0" /></g></svg>