<svg clip-rule="evenodd" fill-rule="evenodd" stroke-linejoin="round" stroke-miterlimit="2" viewBox="0 0 512 512" xmlns="http://www.w3.org/2000/svg" xmlns:xlink="http://www.w3.org/1999/xlink"><filter id="a" color-interpolation-filters="sRGB" height="1.072" width="1.072" x="-.036" y="-.036"><feGaussianBlur stdDeviation="6.18"/></filter><path d="m463 124.66c0-40.93-33.23-74.16-74.16-74.16h-263.68c-40.93 0-74.16 33.23-74.16 74.16v263.68c0 40.93 33.23 74.16 74.16 74.16h263.68c40.93 0 74.16-33.23 74.16-74.16z" fill="#181715" filter="url(#a)" opacity=".21"/><path d="m462 124.16c0-40.93-33.23-74.16-74.16-74.16h-263.68c-40.93 0-74.16 33.23-74.16 74.16v263.68c0 40.93 33.23 74.16 74.16 74.16h263.68c40.93 0 74.16-33.23 74.16-74.16z" fill="#ff0"/><path d="m265 147h92v315h-92z" fill="#b3bd00"/><path d="m50.009 123c-.006.383-.009.771-.009 1.16v22.84h412v-22.84c0-.389-.003-.777-.009-1.16z" fill="#989494"/><path d="m50.009 123h411.982c-.623-40.398-33.61-73-74.151-73h-263.68c-40.541 0-73.528 32.602-74.151 73z" fill="#ff8fff"/><path d="m137.1 206.518c.476-.327 1.052-.518 1.672-.518h234.428c.62 0 1.196.191 1.672.518l60.028 55.482h-357.8z" fill="#323a3e"/><path d="m447 286.122c0-16.625-13.497-30.122-30.122-30.122h-321.756c-16.625 0-30.122 13.497-30.122 30.122v89.756c0 16.625 13.497 30.122 30.122 30.122h321.756c16.625 0 30.122-13.497 30.122-30.122z" fill="#181715"/><path d="m128 285h285v92h-285z" fill="#0d0d0d"/><path d="m251.99 346.412 2.005-4.812h4.01l2.005 4.812-2.005 4.812h-4.01z" fill="#404040"/><path d="m251.99 315.937 2.005-4.812h4.01l2.005 4.812-2.005 4.812h-4.01z" fill="#404040"/><path d="m172.193 356.88v-16.04l3.85-6.416h1.924l3.85 6.416v16.04l-3.85 6.416h-1.924z" fill="#404040"/><path d="m172.193 320.791v-16.04l3.85-6.416h1.924l3.85 6.416v16.04l-3.85 6.415h-1.924z" fill="#404040"/><g fill="#0f0"><path d="m149.5895 373.032005c.145.087.549.152.549.152h16.04c.193 0 .383-.053.549-.152l6.415-3.849c.322-.193.518-.54.518-.915v-1.925c0-.375-.196-.722-.518-.915l-6.415-3.849c-.166-.1-.356-.152-.549-.152h-16.04c-.193 0-.383.052-.549.152l-6.416 3.849c-.321.193-.517.54-.517.915v1.925c0 .375.196.722.517.915z"/><path d="m149.5895 336.532005.549.152h16.04c.193 0 .383-.053.549-.152l6.415-3.85c.322-.192.518-.54.518-.914v-1.925c0-.375-.196-.722-.518-.915l-6.415-3.849c-.166-.1-.356-.152-.549-.152h-16.04c-.193 0-.383.052-.549.152l-6.416 3.849c-.321.193-.517.54-.517.915v1.925c0 .374.196.722.517.914z"/><path d="m149.5895 300.052005.549.152h16.04c.193 0 .383-.053.549-.152l6.415-3.85c.322-.192.518-.54.518-.914v-1.925c0-.375-.196-.722-.518-.915l-6.415-3.849c-.166-.1-.356-.152-.549-.152h-16.04c-.193 0-.383.052-.549.152l-6.416 3.849c-.321.193-.517.54-.517.915v1.925c0 .374.196.722.517.914z"/><path d="m145.0335 357.427005c.1-.162.157-.353.157-.557v-16.04c0-.193-.053-.383-.152-.549l-3.85-6.415c-.192-.322-.54-.518-.914-.518h-1.925c-.375 0-.722.196-.915.518l-3.849 6.415c-.1.166-.152.356-.152.549v16.04c0 .193.052.383.152.549l3.849 6.415c.193.322.54.518.915.518h1.925c.374 0 .722-.196.914-.518z"/><path d="m145.0335 321.338005c.1-.162.157-.353.157-.557v-16.04c0-.193-.053-.383-.152-.549l-3.85-6.416c-.192-.321-.54-.517-.914-.517h-1.925c-.375 0-.722.196-.915.517l-3.849 6.416c-.1.166-.152.356-.152.549v16.04c0 .193.052.383.152.548l3.849 6.416c.193.322.54.518.915.518h1.925c.374 0 .722-.196.914-.518z"/></g><path d="m233.1438 356.869792v-16.04l3.849-6.415h1.925l3.85 6.415v16.04l-3.85 6.416h-1.925z" fill="#404040"/><path d="m243.6768 321.337792c.1-.162.157-.353.157-.557v-16.04c0-.193-.052-.383-.152-.549l-3.849-6.415c-.193-.322-.54-.518-.915-.518h-1.925c-.374 0-.722.196-.914.518l-3.85 6.415c-.099.166-.152.356-.152.549v16.04c0 .193.053.383.152.549l3.85 6.415c.192.322.54.518.914.518h1.925c.375 0 .722-.196.915-.518z" fill="#0f0"/><path d="m211.0888 373.183792c-.193 0-.383-.052-.549-.152l-6.415-3.849c-.322-.193-.518-.54-.518-.915v-1.925c0-.374.196-.722.518-.914l6.415-3.85c.166-.099.356-.152.549-.152h16.04c.193 0 .383.053.549.152l6.416 3.85c.321.192.517.54.517.914v1.925c0 .375-.196.722-.517.915l-6.416 3.849c-.166.1-.356.152-.549.152z" fill="#0f0"/><path d="m210.5398 336.531792c.146.087.549.152.549.152h16.04c.193 0 .383-.052.549-.152l6.416-3.849c.321-.193.517-.54.517-.915v-1.925c0-.374-.196-.722-.517-.914l-6.416-3.85c-.166-.099-.356-.152-.549-.152h-16.04c-.193 0-.383.053-.549.152l-6.415 3.85c-.322.192-.518.54-.518.914v1.925c0 .375.196.722.518.915z" fill="#0f0"/><path d="m210.5318 300.046792-6.407-3.844c-.322-.193-.518-.54-.518-.915v-1.925c0-.375.196-.722.518-.915l6.415-3.849c.166-.099.356-.152.549-.152h16.04c.193 0 .383.053.549.152l6.416 3.849c.321.193.517.54.517.915v1.925c0 .375-.196.722-.517.915l-6.416 3.849c-.166.1-.356.152-.549.152h-16.04z" fill="#0f0"/><path d="m194.3838 356.869792c0 .193.053.383.152.549l3.85 6.416c.192.321.539.517.914.517h1.925c.375 0 .722-.196.915-.517l3.849-6.416.152-.549v-16.04c0-.193-.052-.383-.152-.548l-3.849-6.416c-.193-.322-.54-.518-.915-.518h-1.925c-.375 0-.722.196-.914.518l-3.85 6.416c-.099.165-.152.355-.152.548z" fill="#0f0"/><path d="m195.4508 320.780792v-16.04l3.849-6.416h1.925l3.849 6.416v16.04l-3.849 6.416h-1.925z" fill="#404040"/><path d="m305.8591 356.869792c0 .193.053.383.152.549l3.85 6.416c.192.321.539.517.914.517h1.925c.375 0 .722-.196.915-.517l3.849-6.416.152-.549v-16.04c0-.193-.052-.383-.152-.548l-3.849-6.416c-.193-.322-.54-.518-.915-.518h-1.925c-.375 0-.722.196-.914.518l-3.85 6.416c-.099.165-.152.355-.152.548z" fill="#0f0"/><path d="m306.926 321.140213v-16.04l3.85-6.416h1.924l3.85 6.416v16.04l-3.85 6.415h-1.924z" fill="#404040"/><path d="m284.3222 373.381218c.145.087.549.152.549.152h16.04c.193 0 .383-.053.549-.152l6.415-3.849c.322-.193.518-.54.518-.915v-1.925c0-.375-.196-.722-.518-.915l-6.415-3.849c-.166-.1-.356-.152-.549-.152h-16.04c-.193 0-.383.052-.549.152l-6.416 3.849c-.321.193-.517.54-.517.915v1.925c0 .375.196.722.517.915z" fill="#0f0"/><path d="m284.3222 336.881218.549.152h16.04c.193 0 .383-.053.549-.152l6.415-3.85c.322-.192.518-.54.518-.914v-1.925c0-.375-.196-.722-.518-.915l-6.415-3.849c-.166-.1-.356-.152-.549-.152h-16.04c-.193 0-.383.052-.549.152l-6.416 3.849c-.321.193-.517.54-.517.915v1.925c0 .374.196.722.517.914z" fill="#0f0"/><path d="m284.3222 300.401218.549.152h16.04c.193 0 .383-.053.549-.152l6.415-3.85c.322-.192.518-.54.518-.914v-1.925c0-.375-.196-.722-.518-.915l-6.415-3.849c-.166-.1-.356-.152-.549-.152h-16.04c-.193 0-.383.052-.549.152l-6.416 3.849c-.321.193-.517.54-.517.915v1.925c0 .374.196.722.517.914z" fill="#0f0"/><path d="m269.2325 357.229v-16.04l3.85-6.415h1.924l3.85 6.415v16.04l-3.85 6.416h-1.924z" fill="#404040"/><path d="m279.7662 321.687218c.1-.162.157-.353.157-.557v-16.04c0-.193-.053-.383-.152-.549l-3.85-6.416c-.192-.321-.54-.517-.914-.517h-1.925c-.375 0-.722.196-.915.517l-3.849 6.416c-.1.166-.152.356-.152.549v16.04c0 .193.052.383.152.548l3.849 6.416c.193.322.54.518.915.518h1.925c.374 0 .722-.196.914-.518z" fill="#0f0"/><path d="m367.876 357.229v-16.04l3.85-6.415h1.924l3.85 6.415v16.04l-3.85 6.416h-1.924z" fill="#404040"/><path d="m367.876 321.14v-16.04l3.85-6.416h1.924l3.85 6.416v16.04l-3.85 6.416h-1.924z" fill="#404040"/><path d="m345.273 373.391213c.145.087.549.152.549.152h16.04c.193 0 .383-.053.549-.152l6.415-3.849c.322-.193.518-.54.518-.915v-1.925c0-.375-.196-.722-.518-.915l-6.415-3.849c-.166-.1-.356-.152-.549-.152h-16.04c-.193 0-.383.052-.549.152l-6.416 3.849c-.321.193-.517.54-.517.915v1.925c0 .375.196.722.517.915z" fill="#0f0"/><path d="m345.273 336.891213.549.152h16.04c.193 0 .383-.053.549-.152l6.415-3.85c.322-.192.518-.54.518-.914v-1.925c0-.375-.196-.722-.518-.915l-6.415-3.849c-.166-.1-.356-.152-.549-.152h-16.04c-.193 0-.383.052-.549.152l-6.416 3.849c-.321.193-.517.54-.517.915v1.925c0 .374.196.722.517.914z" fill="#0f0"/><path d="m345.822 288.806c-.194 0-.383.053-.549.152l-6.416 3.849c-.321.193-.518.54-.518.915v1.925c0 .375.197.722.518.915l6.416 3.849.549.152h16.039c.194 0 .383-.052.549-.152l6.416-3.849c.321-.193.518-.54.518-.915v-1.925c0-.375-.197-.722-.518-.915l-6.416-3.849c-.166-.099-.355-.152-.549-.152z" fill="#0f0"/><path d="m340.717 357.786213c.1-.162.157-.353.157-.557v-16.04c0-.193-.053-.383-.152-.549l-3.85-6.415c-.192-.322-.54-.518-.914-.518h-1.925c-.375 0-.722.196-.915.518l-3.849 6.415c-.1.166-.152.356-.152.549v16.04c0 .193.052.383.152.549l3.849 6.415c.193.322.54.518.915.518h1.925c.374 0 .722-.196.914-.518z" fill="#0f0"/><path d="m340.717 321.697213c.1-.162.157-.353.157-.557v-16.04c0-.193-.053-.383-.152-.549l-3.85-6.416c-.192-.321-.54-.517-.914-.517h-1.925c-.375 0-.722.196-.915.517l-3.849 6.416c-.1.166-.152.356-.152.549v16.04c0 .193.052.383.152.548l3.849 6.416c.193.322.54.518.915.518h1.925c.374 0 .722-.196.914-.518z" fill="#0f0"/><circle cx="397.5" cy="363.645" fill="#f00" r="9"/></svg>