<?xml version="1.0" encoding="UTF-8" standalone="no"?>
<svg
   viewBox="0 0 256 256"
   width="256"
   height="256"
   version="1.1"
   id="svg8"
   sodipodi:docname="france.tv.svg"
   inkscape:version="1.1 (c68e22c387, 2021-05-23)"
   xmlns:inkscape="http://www.inkscape.org/namespaces/inkscape"
   xmlns:sodipodi="http://sodipodi.sourceforge.net/DTD/sodipodi-0.dtd"
   xmlns="http://www.w3.org/2000/svg"
   xmlns:svg="http://www.w3.org/2000/svg">
  <defs
     id="defs12" />
  <sodipodi:namedview
     id="namedview10"
     pagecolor="#ffffff"
     bordercolor="#666666"
     borderopacity="1.0"
     inkscape:pageshadow="2"
     inkscape:pageopacity="0.0"
     inkscape:pagecheckerboard="true"
     showgrid="false"
     inkscape:zoom="2.2734375"
     inkscape:cx="207.61512"
     inkscape:cy="216.85223"
     inkscape:window-width="3840"
     inkscape:window-height="2054"
     inkscape:window-x="3829"
     inkscape:window-y="-11"
     inkscape:window-maximized="1"
     inkscape:current-layer="svg8" />
  <ellipse
     cx="126.04811"
     cy="127.3677"
     fill="#212121"
     id="circle2"
     rx="122.04811"
     ry="123.3677"
     style="stroke-width:6.13531" />
  <path
     fill="#ffffff"
     d="m 193.17457,102.69416 -20.05861,49.34708 -22.65823,-49.34708 H 107.74089 V 78.020618 H 89.433677 v 24.673542 l -18.313319,0.29608 v 18.20907 h 18.313319 v 37.01031 c 0,13.79251 15.310933,25.64815 36.034703,24.64887 3.82621,-0.18505 10.50224,-1.60995 10.50224,-1.60995 0,0 -2.91085,-18.12272 -2.93526,-18.07337 -14.03553,2.9855 -25.23344,-4.41656 -25.29447,-11.13393 -0.0793,-9.03669 0,-30.84193 0,-30.84193 h 30.51203 l 24.40962,61.68385 h 18.30722 l 36.61443,-80.189 z"
     id="path4"
     style="stroke-width:6.13531" />
  <ellipse
     cx="49.76804"
     cy="148.95705"
     fill="#ffffff"
     id="circle6"
     rx="21.358419"
     ry="21.589348"
     style="stroke-width:6.13531" />
</svg>
