<?xml version="1.0" encoding="UTF-8"?>
<svg width="46px" height="46px" style="flex:none;margin-bottom:0" viewBox="0 0 250 250" xml:space="preserve" xmlns="http://www.w3.org/2000/svg">
            <style type="text/css">
            	.st0{fill:#F08705;}
            	.st1{fill:#DF6C0C;}
            	.st2{fill:#FFFFFF;}
            </style>
            <path class="st0" d="m237.5 227.9c0 5.3-4.3 9.6-9.5 9.6h-205.9c-5.3 0-9.6-4.3-9.6-9.5v-205.9c0-5.3 4.3-9.6 9.5-9.6h205.9c5.3 0 9.6 4.3 9.6 9.5v205.9z"/>
            <path class="st1" d="m237.5 227.9c0 5.3-4.3 9.6-9.5 9.6h-138.4l-44.8-45.5 27.9-45.5 82.7-102.7 82.1 84.5v99.6z"/>
            <path class="st2" d="m197.1 138.3h-23.7l-25-42.7c5.7-1.2 9.8-6.2 9.7-12v-32.1c0-6.8-5.4-12.3-12.2-12.3h-0.1-41.7c-6.8 0-12.3 5.4-12.3 12.2v0.1 32.1c0 5.8 4 10.8 9.7 12l-25 42.7h-23.6c-6.8 0-12.3 5.4-12.3 12.2v0.1 32.1c0 6.8 5.4 12.3 12.2 12.3h0.1 41.7c6.8 0 12.3-5.4 12.3-12.2v-0.1-32.1c0-6.8-5.4-12.3-12.2-12.3h-0.1-4l24.8-42.4h19.3l24.9 42.4h-4.1c-6.8 0-12.3 5.4-12.3 12.2v0.1 32.1c0 6.8 5.4 12.3 12.2 12.3h0.1 41.7c6.8 0 12.3-5.4 12.3-12.2v-0.1-32.1c0-6.8-5.4-12.3-12.2-12.3h-0.2z"/>
          </svg>
