<?xml version="1.0" encoding="UTF-8" standalone="no"?>
<!-- Created with Inkscape (http://www.inkscape.org/) -->

<svg
   xmlns:dc="http://purl.org/dc/elements/1.1/"
   xmlns:cc="http://creativecommons.org/ns#"
   xmlns:rdf="http://www.w3.org/1999/02/22-rdf-syntax-ns#"
   xmlns:svg="http://www.w3.org/2000/svg"
   xmlns="http://www.w3.org/2000/svg"
   xmlns:xlink="http://www.w3.org/1999/xlink"
   xmlns:sodipodi="http://sodipodi.sourceforge.net/DTD/sodipodi-0.dtd"
   xmlns:inkscape="http://www.inkscape.org/namespaces/inkscape"
   width="32"
   height="32"
   viewBox="0 0 8.4666665 8.4666669"
   version="1.1"
   id="svg8"
   inkscape:version="0.92.2 2405546, 2018-03-11"
   sodipodi:docname="theink.svg">
  <defs
     id="defs2">
    <inkscape:path-effect
       effect="bspline"
       id="path-effect4748"
       is_visible="true"
       weight="33.333333"
       steps="2"
       helper_size="0"
       apply_no_weight="true"
       apply_with_weight="true"
       only_selected="false" />
    <inkscape:path-effect
       effect="bspline"
       id="path-effect4744"
       is_visible="true"
       weight="33.333333"
       steps="2"
       helper_size="0"
       apply_no_weight="true"
       apply_with_weight="true"
       only_selected="false" />
    <inkscape:path-effect
       effect="bspline"
       id="path-effect4728"
       is_visible="true"
       weight="33.333333"
       steps="2"
       helper_size="0"
       apply_no_weight="true"
       apply_with_weight="true"
       only_selected="false" />
    <inkscape:path-effect
       effect="bspline"
       id="path-effect4688"
       is_visible="true"
       weight="33.333333"
       steps="2"
       helper_size="0"
       apply_no_weight="true"
       apply_with_weight="true"
       only_selected="false" />
    <inkscape:path-effect
       effect="bspline"
       id="path-effect4684"
       is_visible="true"
       weight="33.333333"
       steps="2"
       helper_size="0"
       apply_no_weight="true"
       apply_with_weight="true"
       only_selected="false" />
    <inkscape:path-effect
       effect="spiro"
       id="path-effect1649"
       is_visible="true" />
    <linearGradient
       inkscape:collect="always"
       id="linearGradient825">
      <stop
         style="stop-color:#643200;stop-opacity:1"
         offset="0"
         id="stop821" />
      <stop
         style="stop-color:#c86400;stop-opacity:1"
         offset="1"
         id="stop823" />
    </linearGradient>
    <linearGradient
       inkscape:collect="always"
       xlink:href="#linearGradient825"
       id="linearGradient827"
       x1="0"
       y1="296.99997"
       x2="8.4666662"
       y2="288.53329"
       gradientUnits="userSpaceOnUse"
       gradientTransform="rotate(0.234917,4.2279801,292.73997)" />
  </defs>
  <sodipodi:namedview
     id="base"
     pagecolor="#ffffff"
     bordercolor="#666666"
     borderopacity="1.0"
     inkscape:pageopacity="0.0"
     inkscape:pageshadow="2"
     inkscape:zoom="22.627417"
     inkscape:cx="21.688701"
     inkscape:cy="19.148298"
     inkscape:document-units="mm"
     inkscape:current-layer="layer1"
     showgrid="true"
     units="px"
     inkscape:window-width="1920"
     inkscape:window-height="1046"
     inkscape:window-x="0"
     inkscape:window-y="0"
     inkscape:window-maximized="1">
    <inkscape:grid
       type="xygrid"
       id="grid815"
       empspacing="4" />
    <inkscape:grid
       type="xygrid"
       id="grid817"
       empspacing="1"
       originy="0.13229167"
       originx="0.13229167"
       dotted="true" />
  </sodipodi:namedview>
  <metadata
     id="metadata5">
    <rdf:RDF>
      <cc:Work
         rdf:about="">
        <dc:format>image/svg+xml</dc:format>
        <dc:type
           rdf:resource="http://purl.org/dc/dcmitype/StillImage" />
        <dc:title></dc:title>
      </cc:Work>
    </rdf:RDF>
  </metadata>
  <g
     inkscape:label="Layer 1"
     inkscape:groupmode="layer"
     id="layer1"
     transform="translate(0,-288.5333)">
    <path
       style="opacity:1;fill:url(#linearGradient827);fill-opacity:1;stroke:none;stroke-width:0.26458332;stroke-linecap:round;stroke-linejoin:round;stroke-miterlimit:4;stroke-dasharray:none;stroke-opacity:1;paint-order:normal"
       d="m 5.4254134,288.70594 a 4.233333,4.233333 0 0 0 -1.1746575,-0.17263 4.233333,4.233333 0 0 0 -1.0878006,0.13972 l -1.9144436,7.09035 a 4.233333,4.233333 0 0 0 2.9672474,1.23661 4.233333,4.233333 0 0 0 1.0968651,-0.14154 l 1.9132684,-7.0821 a 4.233333,4.233333 0 0 0 -1.8004792,-1.07041 z m 2.215403,1.55672 -0.1835961,0.68001 c 0.4805971,0.84957 0.6063656,1.85612 0.3497521,2.79834 -0.2550024,0.93631 -0.8675309,1.73349 -1.7044158,2.22286 l -0.1835909,0.67999 a 4.233333,4.233333 0 0 0 2.5477544,-3.86022 4.233333,4.233333 0 0 0 -0.8259096,-2.52098 z m -5.0841021,-1.3774 a 4.233333,4.233333 0 0 0 -2.55686197982,3.86416 4.233333,4.233333 0 0 0 0.83075993982,2.52875 z m 4.6832627,2.86295 -0.920848,3.41262 c 0.4690792,-0.40862 0.8112355,-0.94918 0.9772086,-1.5586 0.1672232,-0.614 0.1447445,-1.25976 -0.056355,-1.85402 z m -6.30267653,-0.9758 0.51061473,0.13889 -0.069529,0.25527 -0.51061202,-0.13889 z m -0.1390534,0.51058 0.51061213,0.13889 -0.34762699,1.27642 -0.32481348,0.18577 -0.18575709,-0.32483 z"
       id="path819"
       inkscape:connector-curvature="0" />
    <path
       style="color:#000000;font-style:normal;font-variant:normal;font-weight:normal;font-stretch:normal;font-size:medium;line-height:normal;font-family:sans-serif;font-variant-ligatures:normal;font-variant-position:normal;font-variant-caps:normal;font-variant-numeric:normal;font-variant-alternates:normal;font-feature-settings:normal;text-indent:0;text-align:start;text-decoration:none;text-decoration-line:none;text-decoration-style:solid;text-decoration-color:#000000;letter-spacing:normal;word-spacing:normal;text-transform:none;writing-mode:lr-tb;direction:ltr;text-orientation:mixed;dominant-baseline:auto;baseline-shift:baseline;text-anchor:start;white-space:normal;shape-padding:0;clip-rule:nonzero;display:inline;overflow:visible;visibility:visible;opacity:1;isolation:auto;mix-blend-mode:normal;color-interpolation:sRGB;color-interpolation-filters:linearRGB;solid-color:#000000;solid-opacity:1;vector-effect:none;fill:#ffffff;fill-opacity:1;fill-rule:nonzero;stroke:none;stroke-width:0.26499999;stroke-linecap:round;stroke-linejoin:round;stroke-miterlimit:4;stroke-dasharray:none;stroke-dashoffset:0;stroke-opacity:1;color-rendering:auto;image-rendering:auto;shape-rendering:auto;text-rendering:auto;enable-background:accumulate"
       d="m 3.9980469,289.11719 c -0.022966,-0.002 -0.043022,-0.002 -0.064453,0.002 -0.012231,5.8e-4 -0.024763,-6e-5 -0.037109,0.002 a 0.13251324,0.13251324 0 0 0 -0.00391,0.002 c -0.029481,0.006 -0.044932,0.0126 -0.0625,0.0195 -0.00546,0.002 -0.01397,0.002 -0.019531,0.004 a 0.13251324,0.13251324 0 0 0 -0.021484,0.008 c -0.012341,0.007 -0.024668,0.0142 -0.037109,0.0215 -0.00973,0.003 -0.022466,0.006 -0.03125,0.01 a 0.13251324,0.13251324 0 0 0 -0.048828,0.0332 c -0.016653,0.018 -0.03689,0.0399 -0.060547,0.0625 -0.0049,0.005 -0.012469,0.0125 -0.023437,0.0215 a 0.13251324,0.13251324 0 0 0 -0.023437,0.0215 c -0.0027,0.004 -0.00939,0.0131 -0.021484,0.0254 a 0.13251324,0.13251324 0 0 0 -0.011719,0.0137 c -0.018758,0.0251 -0.040781,0.0543 -0.066406,0.084 a 0.13251324,0.13251324 0 0 0 -0.021484,0.0312 c -0.010909,0.0245 -0.025147,0.0517 -0.042969,0.082 a 0.13251324,0.13251324 0 0 0 -0.017578,0.0605 c 0,0 -0.00195,0 -0.00195,0 a 0.13251324,0.13251324 0 0 0 -0.00977,0.0391 c -1.306e-4,0.001 -0.00102,0.009 -0.00586,0.0215 a 0.13251324,0.13251324 0 0 0 -0.00977,0.0352 c -1.306e-4,0.001 -0.00102,0.009 -0.00586,0.0215 a 0.13251324,0.13251324 0 0 0 -0.00977,0.041 c 0,0 -0.00195,0 -0.00195,0 a 0.13251324,0.13251324 0 0 0 -0.00586,0.084 c 0.0093,0.0377 0.015614,0.0789 0.019531,0.1211 a 0.13251324,0.13251324 0 0 0 0.015625,0.0488 0.13251324,0.13251324 0 0 0 0,0.002 0.13251324,0.13251324 0 0 0 0.03125,0.0644 c 0.013749,0.0152 0.024069,0.0317 0.033203,0.0488 a 0.13251324,0.13251324 0 0 0 0.076172,0.0625 c 0.011448,0.004 0.015607,0.008 0.015625,0.008 a 0.13251324,0.13251324 0 0 0 0.037109,0.0195 c 0.011448,0.004 0.01756,0.008 0.017578,0.008 a 0.13251324,0.13251324 0 0 0 0.041016,0.0195 c 0.033543,0.01 0.063208,0.0225 0.089844,0.0352 a 0.13251324,0.13251324 0 0 0 0.060547,0.0117 c 0.048488,-9.4e-4 0.092917,-1.1e-4 0.1347657,0.002 a 0.13251324,0.13251324 0 0 0 0.037109,-0.004 c 0.026271,-0.006 0.049393,-0.0111 0.066406,-0.0137 a 0.13251324,0.13251324 0 0 0 0.011719,-0.002 c 0.026271,-0.006 0.047439,-0.0111 0.064453,-0.0137 a 0.13251324,0.13251324 0 0 0 0.046875,-0.0156 c 0.022242,-0.0129 0.040515,-0.0239 0.056641,-0.0332 0.027227,-0.0157 0.05141,-0.0289 0.072266,-0.041 0.022243,-0.0129 0.040518,-0.0239 0.056641,-0.0332 a 0.13251324,0.13251324 0 0 0 0.035156,-0.0273 c 0.034599,-0.0399 0.06532,-0.0785 0.09375,-0.11524 a 0.13251324,0.13251324 0 0 0 0.011719,-0.0176 c 0.010927,-0.0196 0.017216,-0.0388 0.025391,-0.0586 l 0.013672,-0.0273 c 0.00905,-0.0169 0.01895,-0.0343 0.025391,-0.0527 a 0.13251324,0.13251324 0 0 0 0.00391,-0.0117 c 0.011804,-0.0494 0.02064,-0.0994 0.025391,-0.14649 a 0.13251324,0.13251324 0 0 0 0,-0.0137 c -2.413e-4,-0.0173 -0.00613,-0.0352 -0.00977,-0.0527 l -0.011719,-0.0508 c -0.00353,-0.0172 -0.00253,-0.0343 -0.00977,-0.0508 a 0.13251324,0.13251324 0 0 0 -0.00391,-0.008 c -0.00903,-0.0177 -0.024721,-0.0297 -0.037109,-0.0449 l -0.029297,-0.0391 c -0.010361,-0.0137 -0.018891,-0.0295 -0.03125,-0.041 l -0.00391,-0.004 c -0.025114,-0.0242 -0.053192,-0.0455 -0.082031,-0.0664 a 0.13251324,0.13251324 0 0 0 -0.056641,-0.13281 c -0.033979,-0.0234 -0.071116,-0.0447 -0.1113281,-0.0625 a 0.13251324,0.13251324 0 0 0 -0.042969,-0.01 c -0.013412,-9.5e-4 -0.01796,0.003 -0.027344,0.004 -0.013555,-0.003 -0.027138,-0.0104 -0.041016,-0.0117 a 0.13251324,0.13251324 0 0 0 -0.00391,0 c -0.01849,-0.001 -0.025447,0.004 -0.037109,0.006 -0.0039,-1.4e-4 -0.01017,-0.006 -0.013672,-0.006 z m -0.023437,0.26367 a 0.13251324,0.13251324 0 0 0 0.00195,0 0.13251324,0.13251324 0 0 0 0.017578,0.004 0.13251324,0.13251324 0 0 0 0.09375,0.10937 c 0.012684,0.004 0.015915,0.008 0.013672,0.006 a 0.13251324,0.13251324 0 0 0 0.039063,0.0215 c 0.011981,0.004 0.01561,0.007 0.013672,0.006 a 0.13251324,0.13251324 0 0 0 0.00781,0.004 c 0.027021,0.0182 0.049837,0.0386 0.070312,0.0586 a 0.13251324,0.13251324 0 0 0 0.00586,0.004 c 0.00394,0.003 0.00486,0.004 0.00586,0.006 a 0.13251324,0.13251324 0 0 0 0.029297,0.0391 c 0.0011,9.8e-4 0.00125,0.001 0.00195,0.002 a 0.13251324,0.13251324 0 0 0 0.00977,0.0469 0.13251324,0.13251324 0 0 0 0.00195,0.004 c 0,0 -0.00195,0 -0.00195,0 -0.00326,0.0267 -0.00886,0.0542 -0.015625,0.084 -0.00191,0.005 -0.00626,0.0133 -0.013672,0.0254 a 0.13251324,0.13251324 0 0 0 -0.011719,0.0273 c -0.00294,0.009 -0.00923,0.0216 -0.017578,0.0371 -8.882e-4,0.002 -9.981e-4,0.002 -0.00195,0.004 -0.017876,0.0227 -0.039445,0.0456 -0.060547,0.0703 -0.011892,0.007 -0.022257,0.0129 -0.037109,0.0215 a 0.13251324,0.13251324 0 0 0 0,0.002 c -0.020429,0.0119 -0.04529,0.0255 -0.072266,0.041 -0.00979,0.006 -0.022659,0.0143 -0.035156,0.0215 -0.020282,0.004 -0.04021,0.006 -0.0625,0.0117 -0.018748,0.003 -0.038269,0.009 -0.058594,0.0137 -0.033428,-0.001 -0.069109,-0.002 -0.1054687,-0.002 -0.032025,-0.0138 -0.06387,-0.0266 -0.099609,-0.0371 -0.00392,-0.002 -0.00777,-0.004 -0.011719,-0.006 l -0.037109,-0.0195 c -0.00184,-9.7e-4 -0.00401,-0.001 -0.00586,-0.002 -0.00832,-0.0125 -0.015973,-0.0253 -0.025391,-0.0371 -0.00395,-0.0382 -0.011833,-0.0747 -0.019531,-0.11133 0.00342,-0.0136 0.00882,-0.0256 0.00977,-0.041 l -0.00781,0.041 c 0.00723,-0.018 0.00926,-0.0377 0.013672,-0.0566 0.00679,-0.0169 0.011293,-0.035 0.015625,-0.0527 l 0.00586,-0.0273 c 0.00167,-0.005 0.00249,-0.0105 0.00391,-0.0156 0.016199,-0.0282 0.030299,-0.0548 0.042969,-0.082 0.01889,-0.0224 0.03662,-0.0434 0.052734,-0.0645 l 0.00781,-0.008 c 0.00133,-0.002 0.0026,-0.004 0.00391,-0.006 0.00483,-0.005 0.00917,-0.0105 0.013672,-0.0156 l 0.00391,-0.004 c 0.014244,-0.0119 0.026472,-0.0229 0.035156,-0.0312 0.018067,-0.0172 0.033459,-0.033 0.048828,-0.0488 a 0.13251324,0.13251324 0 0 0 0.03125,-0.0137 c 0.00893,-0.005 0.012902,-0.008 0.019531,-0.0117 4.937e-4,-2.9e-4 0.00148,2.8e-4 0.00195,0 a 0.13251324,0.13251324 0 0 0 0.029297,-0.01 c 0.012453,-0.005 0.015102,-0.006 0.013672,-0.006 h 0.00391 a 0.13251324,0.13251324 0 0 0 0.03125,-0.002 z"
       id="path4682"
       inkscape:connector-curvature="0" />
    <path
       style="color:#000000;font-style:normal;font-variant:normal;font-weight:normal;font-stretch:normal;font-size:medium;line-height:normal;font-family:sans-serif;font-variant-ligatures:normal;font-variant-position:normal;font-variant-caps:normal;font-variant-numeric:normal;font-variant-alternates:normal;font-feature-settings:normal;text-indent:0;text-align:start;text-decoration:none;text-decoration-line:none;text-decoration-style:solid;text-decoration-color:#000000;letter-spacing:normal;word-spacing:normal;text-transform:none;writing-mode:lr-tb;direction:ltr;text-orientation:mixed;dominant-baseline:auto;baseline-shift:baseline;text-anchor:start;white-space:normal;shape-padding:0;clip-rule:nonzero;display:inline;overflow:visible;visibility:visible;opacity:1;isolation:auto;mix-blend-mode:normal;color-interpolation:sRGB;color-interpolation-filters:linearRGB;solid-color:#000000;solid-opacity:1;vector-effect:none;fill:#ffffff;fill-opacity:1;fill-rule:nonzero;stroke:none;stroke-width:0.26499999;stroke-linecap:round;stroke-linejoin:round;stroke-miterlimit:4;stroke-dasharray:none;stroke-dashoffset:0;stroke-opacity:1;color-rendering:auto;image-rendering:auto;shape-rendering:auto;text-rendering:auto;enable-background:accumulate"
       d="m 5.6113281,290.16797 c -0.00818,-3.9e-4 -0.015729,0.002 -0.023437,0.002 -0.025196,-0.003 -0.045796,4.1e-4 -0.068359,0.004 -0.02648,0.003 -0.047936,0.008 -0.068359,0.0137 -0.031322,0.005 -0.064827,0.0113 -0.099609,0.0195 a 0.13251324,0.13251324 0 0 0 -0.013672,0.004 c -0.047489,0.0176 -0.098914,0.0374 -0.1523437,0.0586 -0.019411,0.007 -0.0372,0.0151 -0.056641,0.0234 -0.018491,0.007 -0.036051,0.0134 -0.054687,0.0215 a 0.13251324,0.13251324 0 0 0 -0.033203,0.0215 c -0.00735,0.006 -0.019622,0.0145 -0.03125,0.0234 -0.034181,0.0197 -0.069411,0.0414 -0.109375,0.0645 a 0.13251324,0.13251324 0 0 0 -0.019531,0.0137 c -0.00971,0.008 -0.023977,0.0185 -0.041016,0.0312 a 0.13251324,0.13251324 0 0 0 -0.00977,0.008 c -0.027209,0.0248 -0.057953,0.0513 -0.091797,0.0801 -0.00916,0.008 -0.022347,0.0188 -0.039062,0.0312 a 0.13251324,0.13251324 0 0 0 -0.027344,0.0273 c -0.018578,0.0249 -0.040603,0.0521 -0.066406,0.082 a 0.13251324,0.13251324 0 0 0 -0.00586,0.008 c -0.00293,0.004 -0.00955,0.0133 -0.021484,0.0254 a 0.13251324,0.13251324 0 0 0 -0.019531,0.0234 c -0.00464,0.007 -0.012334,0.0196 -0.025391,0.0351 a 0.13251324,0.13251324 0 0 0 -0.00586,0.006 c -0.00292,0.004 -0.011491,0.0133 -0.023438,0.0254 a 0.13251324,0.13251324 0 0 0 -0.029297,0.0488 c -0.0013,0.004 -0.00699,0.0151 -0.015625,0.0293 a 0.13251324,0.13251324 0 0 0 -0.00586,0.01 c -0.019548,0.0406 -0.042253,0.0838 -0.068359,0.12891 a 0.13251324,0.13251324 0 0 0 -0.017578,0.0586 c 0,0 -0.00195,0.002 -0.00195,0.002 a 0.13251324,0.13251324 0 0 0 -0.00391,0.0137 c -0.00751,0.0243 -0.01922,0.0499 -0.033203,0.0801 a 0.13251324,0.13251324 0 0 0 -0.00977,0.084 0.13251324,0.13251324 0 0 0 -0.00195,0.0137 c 0,0 -0.00195,0 -0.00195,0 a 0.13251324,0.13251324 0 0 0 -0.00781,0.0781 c -2.231e-4,-0.003 -0.00132,-0.007 -0.00195,-0.004 a 0.13251324,0.13251324 0 0 0 0,0.0527 0.13251324,0.13251324 0 0 0 0,0.0488 c -0.00146,-0.007 -0.00103,-0.009 -0.00195,-0.004 a 0.13251324,0.13251324 0 0 0 0.00977,0.0781 c 0,0 -0.00195,0 -0.00195,0 a 0.13251324,0.13251324 0 0 0 0.00391,0.0254 c -0.00146,-0.007 -0.00103,-0.009 -0.00195,-0.004 a 0.13251324,0.13251324 0 0 0 0.019531,0.0977 c 0.00114,0.002 9.81e-4,0.003 0.00195,0.008 a 0.13251324,0.13251324 0 0 0 0.013672,0.0332 c 0.010458,0.0205 0.017238,0.0441 0.023438,0.0684 a 0.13251324,0.13251324 0 0 0 0.023437,0.0449 c 0.013765,0.0186 0.02387,0.039 0.033203,0.0605 a 0.13251324,0.13251324 0 0 0 0.015625,0.0254 c 0.013765,0.0186 0.025823,0.039 0.035156,0.0605 a 0.13251324,0.13251324 0 0 0 0.015625,0.0274 0.13251324,0.13251324 0 0 0 0.00391,0.006 0.13251324,0.13251324 0 0 0 0.033203,0.043 0.13251324,0.13251324 0 0 0 0.00195,0.002 0.13251324,0.13251324 0 0 0 0.025391,0.0293 0.13251324,0.13251324 0 0 0 0.00195,0.004 0.13251324,0.13251324 0 0 0 0.056641,0.0488 0.13251324,0.13251324 0 0 0 0.015625,0.0117 c 0.018369,0.0113 0.032789,0.0229 0.044922,0.0352 a 0.13251324,0.13251324 0 0 0 0.037109,0.0254 0.13251324,0.13251324 0 0 0 0.068359,0.0332 0.13251324,0.13251324 0 0 0 0.00195,0.002 0.13251324,0.13251324 0 0 0 0.0625,0.0293 0.13251324,0.13251324 0 0 0 0.064453,0.0273 0.13251324,0.13251324 0 0 0 0.00781,0.002 0.13251324,0.13251324 0 0 0 0.03125,0.008 0.13251324,0.13251324 0 0 0 0.00195,0.002 0.13251324,0.13251324 0 0 0 0.070312,0.006 0.13251324,0.13251324 0 0 0 0.082031,0.01 0.13251324,0.13251324 0 0 0 0.027344,0 c 0.036503,-0.004 0.070246,-0.005 0.1015625,-0.006 a 0.13251324,0.13251324 0 0 0 0.00977,-0.002 c 0.00761,-7.8e-4 0.01111,0.001 0.015625,0.002 a 0.13251324,0.13251324 0 0 0 0.072266,-0.0117 c 0.023291,-0.0105 0.043725,-0.0183 0.060547,-0.0254 l 0.00586,-0.002 c 0.025673,-0.009 0.047998,-0.0179 0.066406,-0.0234 a 0.13251324,0.13251324 0 0 0 0.025391,-0.01 c 0.015886,-0.009 0.029137,-0.0164 0.03125,-0.0176 a 0.13251324,0.13251324 0 0 0 0,-0.002 c 0.031808,-0.0184 0.060368,-0.034 0.085937,-0.0488 0.031808,-0.0184 0.060116,-0.0338 0.085937,-0.0488 a 0.13251324,0.13251324 0 0 0 0.017578,-0.0117 c 0.010406,-0.008 0.018405,-0.0172 0.027344,-0.0254 0.010578,-0.006 0.0219,-0.0113 0.029297,-0.0156 a 0.13251324,0.13251324 0 0 0 0.017578,-0.0117 c 0.010406,-0.008 0.018576,-0.0174 0.027344,-0.0254 0.010805,-0.006 0.023734,-0.0113 0.03125,-0.0156 a 0.13251324,0.13251324 0 0 0 0.027344,-0.0215 c 0.017621,-0.0177 0.032611,-0.0354 0.046875,-0.0547 l -0.00977,0.0137 c 0.025029,-0.0265 0.046063,-0.0519 0.066406,-0.0762 l 0.00781,-0.01 c 0.013949,-0.0145 0.027258,-0.0289 0.039063,-0.0449 0.012035,-0.0128 0.02474,-0.025 0.035156,-0.0391 a 0.13251324,0.13251324 0 0 0 0.00195,-0.004 c 0.00755,-0.0109 0.013024,-0.0234 0.019531,-0.0352 0.013184,-0.0138 0.025851,-0.0277 0.037109,-0.043 a 0.13251324,0.13251324 0 0 0 0.00781,-0.0117 c 0.019132,-0.0325 0.034391,-0.0628 0.048828,-0.0937 l 0.00781,-0.0137 c 0.018492,-0.0323 0.035073,-0.0648 0.048828,-0.0957 a 0.13251324,0.13251324 0 0 0 0.00195,-0.006 c 0.00618,-0.0154 0.00753,-0.0327 0.011719,-0.0488 0.011538,-0.02 0.023307,-0.0407 0.03125,-0.0625 l 0.00195,-0.004 c 0.00781,-0.021 0.010976,-0.043 0.015625,-0.0645 l 0.00781,-0.0293 c 0.007,-0.0223 0.014457,-0.0434 0.017578,-0.0664 l -0.00586,0.0293 c 0.012158,-0.0319 0.020891,-0.0645 0.025391,-0.0977 a 0.13251324,0.13251324 0 0 0 0,-0.0273 c -0.00452,-0.069 -0.011863,-0.13555 -0.023437,-0.20118 a 0.13251324,0.13251324 0 0 0 -0.015625,-0.041 c -0.024332,-0.0442 -0.051022,-0.0864 -0.082031,-0.12695 l -0.00391,-0.004 c -0.021173,-0.0308 -0.045724,-0.0607 -0.074219,-0.0859 -0.024543,-0.0218 -0.053457,-0.0386 -0.082031,-0.0566 l -0.019531,-0.0137 c -8.038e-4,-4.7e-4 -0.00115,-0.001 -0.00195,-0.002 -0.02312,-0.0187 -0.045963,-0.037 -0.072266,-0.0527 l -0.00781,-0.006 c -0.030617,-0.0206 -0.062417,-0.0392 -0.097656,-0.0547 a 0.13251324,0.13251324 0 0 0 -0.021484,-0.006 c -0.012237,-0.003 -0.024805,-0.007 -0.037109,-0.01 a 0.13251324,0.13251324 0 0 0 -0.035156,-0.24024 c 0,0 -0.017217,-0.006 -0.046875,-0.0117 l 0.029297,0.01 c -0.029322,-0.0132 -0.060221,-0.0211 -0.09375,-0.0254 l 0.074219,0.0352 c -0.044799,-0.0427 -0.08419,-0.043 -0.1113282,-0.043 z m -0.052734,0.26562 a 0.13251324,0.13251324 0 0 0 0.013672,0.002 0.13251324,0.13251324 0 0 0 0.046875,0.23633 c 0.044971,0.0112 0.087431,0.0209 0.1289063,0.0312 7.392e-4,1.9e-4 0.00121,0.002 0.00195,0.002 0.023175,0.0104 0.044236,0.0198 0.060547,0.0312 a 0.13251324,0.13251324 0 0 0 0.00977,0.006 c 0.023196,0.0134 0.041953,0.0282 0.058594,0.043 a 0.13251324,0.13251324 0 0 0 0.021484,0.0156 c 0.023196,0.0134 0.043906,0.0282 0.060547,0.043 0.013684,0.0121 0.024349,0.0239 0.033203,0.0371 A 0.13251324,0.13251324 0 0 0 6,290.88867 c 0.019751,0.0253 0.036454,0.0526 0.052734,0.0801 0.00706,0.0436 0.01407,0.0887 0.017578,0.13477 -0.00161,0.008 -0.00274,0.016 -0.00781,0.0293 a 0.13251324,0.13251324 0 0 0 -0.00781,0.0293 c -0.00115,0.008 -0.0053,0.0222 -0.011719,0.0391 a 0.13251324,0.13251324 0 0 0 -0.00586,0.0293 c -0.00115,0.008 -0.0053,0.0222 -0.011719,0.0391 a 0.13251324,0.13251324 0 0 0 -0.00195,0.002 c -0.00136,0.004 -0.00514,0.0153 -0.013672,0.0293 a 0.13251324,0.13251324 0 0 0 -0.017578,0.0547 c -1.563e-4,0.001 -0.00291,0.009 -0.00781,0.0215 -0.01075,0.0237 -0.024148,0.0495 -0.041016,0.0781 a 0.13251324,0.13251324 0 0 0 -0.00586,0.0117 c -0.00995,0.0223 -0.023568,0.0493 -0.039063,0.0762 -0.00345,0.004 -0.00955,0.009 -0.019531,0.0195 a 0.13251324,0.13251324 0 0 0 -0.029297,0.0469 c 0.00114,-0.003 -8.574e-4,0.004 -0.00781,0.0137 -0.00326,0.004 -0.00908,0.011 -0.019531,0.0215 a 0.13251324,0.13251324 0 0 0 -0.013672,0.0156 c -0.00239,0.003 -0.0095,0.0114 -0.021484,0.0234 a 0.13251324,0.13251324 0 0 0 -0.00781,0.01 c -0.017539,0.0214 -0.039847,0.0443 -0.064453,0.0703 a 0.13251324,0.13251324 0 0 0 -0.00977,0.0137 c -0.00126,0.002 -0.00773,0.007 -0.011719,0.0117 -0.00817,0.005 -0.015021,0.01 -0.025391,0.0156 a 0.13251324,0.13251324 0 0 0 -0.029297,0.0215 c -0.00127,0.001 -0.00795,0.007 -0.015625,0.0137 -0.00204,0.002 -0.00152,0.002 -0.00391,0.004 -0.00796,0.005 -0.015365,0.008 -0.025391,0.0137 a 0.13251324,0.13251324 0 0 0 -0.029297,0.0215 c -6.496e-4,6.6e-4 -0.00726,0.006 -0.011719,0.01 -0.023391,0.0136 -0.048973,0.0301 -0.078125,0.0469 -0.025265,0.0146 -0.053998,0.0304 -0.085937,0.0488 -0.00451,0.003 -0.00801,0.006 -0.011719,0.008 -0.02356,0.007 -0.047295,0.0156 -0.074219,0.0254 a 0.13251324,0.13251324 0 0 0 -0.00781,0.002 c -0.013821,0.006 -0.029092,0.0145 -0.044922,0.0215 -0.011555,-9e-5 -0.020247,-0.001 -0.033203,0 l 0.00977,-0.002 c -0.036052,0.001 -0.077314,0.003 -0.1210937,0.008 h 0.029297 c -0.011496,-0.001 -0.02746,0.001 -0.041016,0.002 -0.013414,-0.003 -0.028025,-0.0102 -0.041016,-0.0117 h -0.00195 c -0.012163,-0.001 -0.028605,0.001 -0.042969,0.002 -5.926e-4,-1.1e-4 -0.00136,1.1e-4 -0.00195,0 -0.00785,-0.003 -0.015819,-0.004 -0.023437,-0.006 -1.772e-4,-4e-5 1.77e-4,-0.002 0,-0.002 -0.00682,-0.004 -0.010879,-0.0148 -0.017578,-0.0176 h -0.00195 c -0.016796,-0.007 -0.032712,-0.0104 -0.048828,-0.0137 -0.00725,-0.004 -0.014463,-0.0107 -0.021484,-0.0137 -0.010845,-0.005 -0.020817,-0.007 -0.03125,-0.01 -0.0268,-0.0263 -0.057069,-0.0501 -0.089844,-0.0703 l 0.035156,0.0293 c -0.014116,-0.0177 -0.032245,-0.0227 -0.048828,-0.0332 -7.636e-4,-4.8e-4 -0.00119,-0.001 -0.00195,-0.002 -0.012144,-0.0138 -0.022139,-0.0317 -0.035156,-0.041 -0.00354,-0.004 -0.00612,-0.008 -0.00977,-0.0117 -0.00863,-0.013 -0.011411,-0.0299 -0.021484,-0.0391 l 0.03125,0.0449 c -0.017223,-0.0397 -0.038644,-0.0785 -0.064453,-0.11329 -0.01169,-0.0233 -0.024249,-0.0468 -0.039063,-0.0684 -0.00979,-0.0314 -0.020342,-0.0627 -0.035156,-0.0918 -0.00242,-0.007 -0.00482,-0.0144 -0.00781,-0.0215 1.006e-4,-0.0117 0.00174,-0.023 0,-0.0351 -9.148e-4,-0.017 -0.00745,-0.0337 -0.011719,-0.0508 0.00115,-0.0186 0.00551,-0.037 0.00195,-0.0566 -3.678e-4,-0.002 4.279e-4,-0.004 0,-0.006 v -0.041 -0.004 c 0.00557,-0.0167 0.011771,-0.0331 0.013672,-0.0527 0.00172,-0.0104 -5.133e-4,-0.0223 0,-0.0332 0.011432,-0.0264 0.022861,-0.0524 0.03125,-0.0781 l 0.00195,-0.004 c 0.00486,-0.0116 0.00431,-0.0264 0.00781,-0.0391 0.024158,-0.0423 0.046792,-0.083 0.066406,-0.12304 l 0.00586,-0.0117 c 0.00664,-0.0114 0.012048,-0.0233 0.017578,-0.0352 0.00885,-0.01 0.017671,-0.0194 0.025391,-0.0293 l 0.00586,-0.006 c 0.010053,-0.0122 0.016786,-0.025 0.025391,-0.0371 l 0.00977,-0.01 c 0.00256,-0.004 0.00538,-0.008 0.00781,-0.0117 0.00744,-0.008 0.016821,-0.015 0.023437,-0.0234 l 0.00586,-0.008 c 0.021553,-0.0252 0.040335,-0.0504 0.058594,-0.0742 0.013478,-0.0103 0.028081,-0.02 0.039062,-0.0293 0.035976,-0.0306 0.069979,-0.0589 0.099609,-0.0859 0.00817,-0.006 0.014394,-0.0139 0.021484,-0.0195 l 0.00781,-0.004 c 0.038378,-0.0222 0.07497,-0.0438 0.1074219,-0.0625 a 0.13251324,0.13251324 0 0 0 0.013672,-0.01 c 0.013136,-0.01 0.022559,-0.0169 0.033203,-0.0254 0.011158,-0.005 0.024577,-0.0101 0.029297,-0.0117 a 0.13251324,0.13251324 0 0 0 0.00977,-0.004 c 0.020711,-0.009 0.037706,-0.0152 0.044922,-0.0176 a 0.13251324,0.13251324 0 0 0 0.00586,-0.004 c 0.05061,-0.0201 0.098654,-0.0364 0.1425781,-0.0527 0.00125,-4.6e-4 0.00266,-0.001 0.00391,-0.002 0.028003,-0.006 0.054154,-0.0121 0.076172,-0.0156 a 0.13251324,0.13251324 0 0 0 0.013672,-0.002 c 0.017886,-0.005 0.031078,-0.006 0.027344,-0.006 a 0.13251324,0.13251324 0 0 0 0.011719,-0.002 c 0,0 0,-0.002 0,-0.002 z"
       id="path4686"
       inkscape:connector-curvature="0" />
    <path
       style="color:#000000;font-style:normal;font-variant:normal;font-weight:normal;font-stretch:normal;font-size:medium;line-height:normal;font-family:sans-serif;font-variant-ligatures:normal;font-variant-position:normal;font-variant-caps:normal;font-variant-numeric:normal;font-variant-alternates:normal;font-feature-settings:normal;text-indent:0;text-align:start;text-decoration:none;text-decoration-line:none;text-decoration-style:solid;text-decoration-color:#000000;letter-spacing:normal;word-spacing:normal;text-transform:none;writing-mode:lr-tb;direction:ltr;text-orientation:mixed;dominant-baseline:auto;baseline-shift:baseline;text-anchor:start;white-space:normal;shape-padding:0;clip-rule:nonzero;display:inline;overflow:visible;visibility:visible;opacity:1;isolation:auto;mix-blend-mode:normal;color-interpolation:sRGB;color-interpolation-filters:linearRGB;solid-color:#000000;solid-opacity:1;vector-effect:none;fill:#ffffff;fill-opacity:1;fill-rule:nonzero;stroke:none;stroke-width:0.26499999;stroke-linecap:round;stroke-linejoin:round;stroke-miterlimit:4;stroke-dasharray:none;stroke-dashoffset:0;stroke-opacity:1;color-rendering:auto;image-rendering:auto;shape-rendering:auto;text-rendering:auto;enable-background:accumulate"
       d="m 3.9960938,292.80664 c -0.021418,-0.002 -0.039446,0.001 -0.058594,0.004 -0.017373,-0.001 -0.03383,-0.004 -0.054687,-0.002 -0.023721,3.1e-4 -0.047618,0.001 -0.072266,0.004 -0.00445,9e-5 -0.00932,0.002 -0.013672,0.002 -0.01341,-9.5e-4 -0.01796,0.003 -0.027344,0.004 -0.010584,-0.002 -0.023525,-0.009 -0.033203,-0.01 l 0.00195,0.002 c -0.01912,-0.001 -0.027211,0.002 -0.039062,0.004 -0.013476,-4e-4 -0.026357,0.002 -0.039063,0.004 -0.00425,-1.2e-4 -0.011866,-0.006 -0.015625,-0.006 -0.030609,-6.8e-4 -0.050902,0.003 -0.070312,0.01 l 0.039062,-0.008 c -0.022107,5.9e-4 -0.042804,0.005 -0.064453,0.008 -0.00378,-8e-5 -0.010292,-0.006 -0.013672,-0.006 -0.032713,-0.001 -0.050392,0.005 -0.070312,0.0117 l 0.050781,-0.006 c -0.038359,-0.003 -0.054633,0.004 -0.076172,0.0117 -0.00437,0.001 -0.00794,0.003 -0.011719,0.004 -0.00192,-1e-5 -0.00601,-0.002 -0.00781,-0.002 -0.030902,-7.4e-4 -0.050959,0.003 -0.070312,0.01 l 0.052734,-0.006 c -0.030715,-0.002 -0.045739,0.004 -0.0625,0.01 -0.00192,-10e-6 -0.00601,-0.002 -0.00781,-0.002 -0.014547,-3.5e-4 -0.023325,0.002 -0.033203,0.004 -0.00428,-9e-5 -0.011868,-0.006 -0.015625,-0.006 a 0.13251324,0.13251324 0 0 0 -0.027344,0.002 c -0.01196,0.002 -0.016983,0.005 -0.025391,0.008 -0.00256,-2e-5 -0.00741,-0.004 -0.00977,-0.004 a 0.13251324,0.13251324 0 0 0 -0.044922,0.008 0.13251324,0.13251324 0 0 0 -0.00781,0 c -0.00937,0.002 -0.012485,0.006 -0.019531,0.008 -0.00157,0 -0.00245,-4e-5 -0.00391,0 -0.00734,2e-4 -0.014186,0.001 -0.019531,0.002 a 0.13251324,0.13251324 0 0 0 -0.035156,0.01 c -3.65e-4,1.6e-4 -0.015908,0.007 -0.017578,0.008 0,0 -0.00195,0.002 -0.00195,0.002 a 0.13251324,0.13251324 0 0 0 -0.00781,0.004 c -0.00625,0.004 -0.014502,0.01 -0.021484,0.0137 a 0.13251324,0.13251324 0 0 0 -0.00195,0 0.13251324,0.13251324 0 0 0 -0.044922,0.0176 c -0.00633,0.004 -0.014398,0.01 -0.021484,0.0137 -9.469e-4,5.5e-4 -0.00295,-5.6e-4 -0.00391,0 a 0.13251324,0.13251324 0 0 0 -0.076172,0.043 0.13251324,0.13251324 0 0 0 -0.00195,0.002 c -0.012904,0.007 -0.025354,0.0143 -0.041016,0.0234 a 0.13251324,0.13251324 0 0 0 -0.039063,0.0352 0.13251324,0.13251324 0 0 0 -0.00391,0.006 0.13251324,0.13251324 0 0 0 -0.013672,0.0137 0.13251324,0.13251324 0 0 0 -0.00195,0.002 0.13251324,0.13251324 0 0 0 0,0.002 0.13251324,0.13251324 0 0 0 -0.027344,0.0371 0.13251324,0.13251324 0 0 0 -0.00195,0.002 0.13251324,0.13251324 0 0 0 0,0.002 0.13251324,0.13251324 0 0 0 -0.029297,0.0625 0.13251324,0.13251324 0 0 0 -0.00195,0.008 0.13251324,0.13251324 0 0 0 -0.00781,0.0684 0.13251324,0.13251324 0 0 0 0,0.002 0.13251324,0.13251324 0 0 0 0.00586,0.0527 0.13251324,0.13251324 0 0 0 0,0.004 0.13251324,0.13251324 0 0 0 0.050781,0.0899 0.13251324,0.13251324 0 0 0 0.019531,0.0351 0.13251324,0.13251324 0 0 0 0.00195,0.002 0.13251324,0.13251324 0 0 0 0.00195,0.004 0.13251324,0.13251324 0 0 0 0.050781,0.0547 0.13251324,0.13251324 0 0 0 0,0.002 0.13251324,0.13251324 0 0 0 0.048828,0.0488 0.13251324,0.13251324 0 0 0 0.025391,0.0254 0.13251324,0.13251324 0 0 0 0.00781,0.008 0.13251324,0.13251324 0 0 0 0.00195,0 0.13251324,0.13251324 0 0 0 0.060547,0.0332 0.13251324,0.13251324 0 0 0 0.00195,0 0.13251324,0.13251324 0 0 0 0,0.002 0.13251324,0.13251324 0 0 0 0.00586,0.006 0.13251324,0.13251324 0 0 0 0.050781,0.0332 0.13251324,0.13251324 0 0 0 0.0625,0.0274 0.13251324,0.13251324 0 0 0 0.00195,0 0.13251324,0.13251324 0 0 0 0.068359,0.0312 0.13251324,0.13251324 0 0 0 0.064453,0.0293 c 0.011431,0.002 0.016493,0.004 0.017578,0.004 1.154e-4,4e-5 0.00196,0 0.00195,0 a 0.13251324,0.13251324 0 0 0 0.068359,0.0312 c 0.012647,0.002 0.017623,0.004 0.017578,0.004 a 0.13251324,0.13251324 0 0 0 0.033203,0.01 c 0.027162,0.005 0.04949,0.0111 0.066406,0.0176 a 0.13251324,0.13251324 0 0 0 0.019531,0.006 c 0.05564,0.012 0.1076608,0.0272 0.15625,0.043 a 0.13251324,0.13251324 0 0 0 0.023437,0.004 c 0.012647,0.002 0.017623,0.006 0.017578,0.006 a 0.13251324,0.13251324 0 0 0 0.03125,0.008 0.13251324,0.13251324 0 0 0 0.00781,0.002 0.13251324,0.13251324 0 0 0 0.00586,0.002 0.13251324,0.13251324 0 0 0 0.052734,0.004 0.13251324,0.13251324 0 0 0 0.00195,0 0.13251324,0.13251324 0 0 0 0.072266,0.006 c 0.00658,0.002 0.016173,0.004 0.019531,0.006 a 0.13251324,0.13251324 0 0 0 0.025391,0.008 c 0.035579,0.007 0.066935,0.0158 0.09375,0.0254 a 0.13251324,0.13251324 0 0 0 0.027344,0.006 c 0.012647,0.002 0.019576,0.004 0.019531,0.004 a 0.13251324,0.13251324 0 0 0 0.072266,0.01 0.13251324,0.13251324 0 0 0 0.00977,0.002 c 0.017651,0.003 0.030786,0.007 0.037109,0.01 a 0.13251324,0.13251324 0 0 0 0.027344,0.008 c 0.027162,0.005 0.04949,0.0111 0.066406,0.0176 a 0.13251324,0.13251324 0 0 0 0.029297,0.008 0.13251324,0.13251324 0 0 0 0.050781,0.0254 0.13251324,0.13251324 0 0 0 0.00195,0 0.13251324,0.13251324 0 0 0 0.064453,0.0293 c 0.010773,0.002 0.014902,0.004 0.021484,0.006 a 0.13251324,0.13251324 0 0 0 0.068359,0.0312 c 0.00511,6.9e-4 0.00475,0.001 0.00781,0.002 a 0.13251324,0.13251324 0 0 0 0.064453,0.0293 0.13251324,0.13251324 0 0 0 0.025391,0.0156 0.13251324,0.13251324 0 0 0 0.00586,0.004 0.13251324,0.13251324 0 0 0 0.00391,0.002 0.13251324,0.13251324 0 0 0 0.00195,0.002 0.13251324,0.13251324 0 0 0 0.00781,0.01 0.13251324,0.13251324 0 0 0 -0.00391,0.002 0.13251324,0.13251324 0 0 0 -0.017578,0.006 c -0.00658,0.003 -0.011046,0.005 -0.015625,0.008 -0.00252,-2e-5 -0.00745,-0.004 -0.00977,-0.004 a 0.13251324,0.13251324 0 0 0 -0.037109,0.006 c -0.00172,2e-4 -0.00427,-2.2e-4 -0.00586,0 a 0.13251324,0.13251324 0 0 0 -0.013672,0.002 c -0.00143,-1e-5 -0.0045,-0.002 -0.00586,-0.002 a 0.13251324,0.13251324 0 0 0 -0.023437,0.004 c -6.206e-4,-1.1e-4 -0.00133,1e-4 -0.00195,0 -0.00673,-0.001 -0.012731,-0.005 -0.019531,-0.006 a 0.13251324,0.13251324 0 0 0 -0.00391,-0.002 c -0.013261,-9.2e-4 -0.018003,0.003 -0.027344,0.004 -0.025119,-0.009 -0.049776,-0.0172 -0.078125,-0.0215 a 0.13251324,0.13251324 0 0 0 -0.011719,0 c -0.010865,-7.7e-4 -0.013395,0.003 -0.021484,0.004 -0.020112,-0.006 -0.038489,-0.0143 -0.060547,-0.0176 a 0.13251324,0.13251324 0 0 0 -0.00977,0 c -0.013412,-9.5e-4 -0.01796,0.003 -0.027344,0.004 -0.013555,-0.003 -0.027137,-0.0104 -0.041016,-0.0117 a 0.13251324,0.13251324 0 0 0 -0.00391,0 c -0.011693,-8e-4 -0.014887,0.003 -0.023437,0.004 -0.00773,-0.001 -0.013082,-0.002 -0.017578,-0.002 -0.012112,-5.9e-4 -0.016708,0.003 -0.025391,0.004 -0.012528,-0.003 -0.02431,-0.009 -0.037109,-0.01 a 0.13251324,0.13251324 0 0 0 -0.00391,0 c -0.010598,-7.5e-4 -0.013541,0.003 -0.021484,0.004 -0.00838,-0.001 -0.014506,-0.004 -0.019531,-0.004 -0.00393,0 -0.0065,-2.2e-4 -0.00977,0 -0.00202,1.3e-4 -0.00404,0.002 -0.00586,0.002 -0.00999,-0.001 -0.025273,-0.0117 -0.033203,-0.0117 -0.00938,-2.2e-4 -0.014326,0.001 -0.021484,0.002 -0.015098,-0.004 -0.028896,-0.01 -0.044922,-0.0117 l 0.03125,0.0137 c -0.00233,5.2e-4 -0.0056,0.001 -0.00781,0.002 -0.021068,-0.007 -0.045854,-0.0215 -0.060547,-0.0215 -0.014547,-3.5e-4 -0.023325,0.002 -0.033203,0.004 -0.00416,-1.1e-4 -0.01194,-0.004 -0.015625,-0.004 -0.010216,-2.5e-4 -0.0158,8.9e-4 -0.023437,0.002 -0.00923,-0.002 -0.020772,-0.007 -0.029297,-0.008 -0.018699,-0.001 -0.025428,0.004 -0.037109,0.006 -0.00551,-1.9e-4 -0.014822,-0.008 -0.019531,-0.008 a 0.13251324,0.13251324 0 0 0 -0.033203,0.004 c -0.00101,0 -0.00293,-0.002 -0.00391,-0.002 a 0.13251324,0.13251324 0 0 0 -0.039063,0.006 0.13251324,0.13251324 0 0 0 -0.023437,0.006 0.13251324,0.13251324 0 0 0 -0.00195,0 c -0.00172,1.9e-4 -0.00427,-2.3e-4 -0.00586,0 a 0.13251324,0.13251324 0 0 0 -0.019531,0.004 c -0.00173,2e-4 -0.00426,-2.2e-4 -0.00586,0 a 0.13251324,0.13251324 0 0 0 -0.00586,0.002 c -0.00421,-4.5e-4 -0.00962,-0.004 -0.013672,-0.004 a 0.13251324,0.13251324 0 0 0 -0.041016,0.004 c -0.00145,-1e-5 -0.00448,-0.002 -0.00586,-0.002 a 0.13251324,0.13251324 0 0 0 -0.039063,0.006 0.13251324,0.13251324 0 0 0 -0.019531,0.004 c -0.00101,0 -0.00293,-0.002 -0.00391,-0.002 a 0.13251324,0.13251324 0 0 0 -0.037109,0.006 0.13251324,0.13251324 0 0 0 -0.00195,0 c -0.00172,1.9e-4 -0.00427,-2.3e-4 -0.00586,0 a 0.13251324,0.13251324 0 0 0 -0.039062,0.0137 0.13251324,0.13251324 0 0 0 -0.00195,0 0.13251324,0.13251324 0 0 0 -0.046875,0.0176 0.13251324,0.13251324 0 0 0 -0.00586,0.004 c -0.00189,9.3e-4 -0.00226,0.001 -0.00391,0.002 a 0.13251324,0.13251324 0 0 0 -0.041016,0.0137 c -0.016084,0.009 -0.028825,0.0161 -0.044922,0.0254 a 0.13251324,0.13251324 0 0 0 -0.00586,0.004 0.13251324,0.13251324 0 0 0 -0.00586,0.004 0.13251324,0.13251324 0 0 0 -0.054688,0.0566 0.13251324,0.13251324 0 0 0 -0.00195,0.004 0.13251324,0.13251324 0 0 0 -0.015625,0.0215 0.13251324,0.13251324 0 0 0 -0.00195,0.004 0.13251324,0.13251324 0 0 0 -0.035156,0.0781 c -1.306e-4,0.001 -0.00102,0.007 -0.00586,0.0195 a 0.13251324,0.13251324 0 0 0 -0.00977,0.0371 c -1.306e-4,0.001 -0.00102,0.007 -0.00586,0.0195 a 0.13251324,0.13251324 0 0 0 -0.00195,0.01 0.13251324,0.13251324 0 0 0 -0.00195,0.002 0.13251324,0.13251324 0 0 0 0,0.002 0.13251324,0.13251324 0 0 0 -0.00391,0.0117 0.13251324,0.13251324 0 0 0 -0.00195,0.006 0.13251324,0.13251324 0 0 0 0,0.002 0.13251324,0.13251324 0 0 0 0,0.002 0.13251324,0.13251324 0 0 0 0,0.002 0.13251324,0.13251324 0 0 0 0,0.002 0.13251324,0.13251324 0 0 0 0,0.0742 0.13251324,0.13251324 0 0 0 0.033203,0.0723 0.13251324,0.13251324 0 0 0 0.011719,0.0234 0.13251324,0.13251324 0 0 0 0.00195,0.006 0.13251324,0.13251324 0 0 0 0.00391,0.006 0.13251324,0.13251324 0 0 0 0.00391,0.006 0.13251324,0.13251324 0 0 0 0.00195,0.006 0.13251324,0.13251324 0 0 0 0.00195,0.002 0.13251324,0.13251324 0 0 0 0,0.002 0.13251324,0.13251324 0 0 0 0.03125,0.0371 0.13251324,0.13251324 0 0 0 0.00391,0.006 0.13251324,0.13251324 0 0 0 0.011719,0.0176 0.13251324,0.13251324 0 0 0 0.00195,0.004 0.13251324,0.13251324 0 0 0 0.029297,0.0332 0.13251324,0.13251324 0 0 0 0.00586,0.006 0.13251324,0.13251324 0 0 0 0.00391,0.004 0.13251324,0.13251324 0 0 0 0.00195,0 0.13251324,0.13251324 0 0 0 0.00195,0.002 0.13251324,0.13251324 0 0 0 0.00586,0.006 0.13251324,0.13251324 0 0 0 0.00391,0.004 0.13251324,0.13251324 0 0 0 0.039063,0.0293 0.13251324,0.13251324 0 0 0 0.00586,0.002 0.13251324,0.13251324 0 0 0 0.00195,0.002 0.13251324,0.13251324 0 0 0 0,0.002 0.13251324,0.13251324 0 0 0 0.00586,0.004 0.13251324,0.13251324 0 0 0 0.00391,0.004 0.13251324,0.13251324 0 0 0 0.00195,0 0.13251324,0.13251324 0 0 0 0.029297,0.0215 0.13251324,0.13251324 0 0 0 0.00195,0.002 0.13251324,0.13251324 0 0 0 0.00781,0.006 0.13251324,0.13251324 0 0 0 0.00977,0.008 0.13251324,0.13251324 0 0 0 0.00586,0.008 0.13251324,0.13251324 0 0 0 0.00195,0.002 0.13251324,0.13251324 0 0 0 0.027344,0.0293 0.13251324,0.13251324 0 0 0 0.00195,0.002 0.13251324,0.13251324 0 0 0 0.00781,0.006 0.13251324,0.13251324 0 0 0 0.00781,0.01 0.13251324,0.13251324 0 0 0 0.00195,0.002 0.13251324,0.13251324 0 0 0 0.054687,0.0469 0.13251324,0.13251324 0 0 0 0.00586,0.004 0.13251324,0.13251324 0 0 0 0.00391,0.004 0.13251324,0.13251324 0 0 0 0.039063,0.0293 0.13251324,0.13251324 0 0 0 0.00391,0 0.13251324,0.13251324 0 0 0 0.025391,0.0176 0.13251324,0.13251324 0 0 0 0.00195,0.002 0.13251324,0.13251324 0 0 0 0.00195,0 0.13251324,0.13251324 0 0 0 0.025391,0.0176 0.13251324,0.13251324 0 0 0 0.00195,0.002 0.13251324,0.13251324 0 0 0 0.042969,0.0254 0.13251324,0.13251324 0 0 0 0.00195,0 0.13251324,0.13251324 0 0 0 0.029297,0.0195 0.13251324,0.13251324 0 0 0 0.00586,0.002 0.13251324,0.13251324 0 0 0 0.00195,0.004 0.13251324,0.13251324 0 0 0 0.00977,0.008 0.13251324,0.13251324 0 0 0 0.00586,0.004 0.13251324,0.13251324 0 0 0 0.00391,0.004 0.13251324,0.13251324 0 0 0 0.00586,0.006 0.13251324,0.13251324 0 0 0 0.00391,0.004 0.13251324,0.13251324 0 0 0 0.00195,0 0.13251324,0.13251324 0 0 0 0.00195,0.002 0.13251324,0.13251324 0 0 0 0.00586,0.008 0.13251324,0.13251324 0 0 0 0.00586,0.004 0.13251324,0.13251324 0 0 0 0.00391,0.004 0.13251324,0.13251324 0 0 0 0.00195,0 0.13251324,0.13251324 0 0 0 0.00195,0.002 0.13251324,0.13251324 0 0 0 0.00391,0.006 0.13251324,0.13251324 0 0 0 0.00195,0.002 0.13251324,0.13251324 0 0 0 0.019531,0.0234 0.13251324,0.13251324 0 0 0 0,0.002 0.13251324,0.13251324 0 0 0 0.00195,0.008 0.13251324,0.13251324 0 0 0 -0.021484,0.0195 0.13251324,0.13251324 0 0 0 -0.048828,0.0234 0.13251324,0.13251324 0 0 0 -0.00195,0 c -0.0021,6.7e-4 -0.00572,-7.1e-4 -0.00781,0 -0.00144,0 -0.00449,-0.002 -0.00586,-0.002 a 0.13251324,0.13251324 0 0 0 -0.037109,0.006 c -0.00172,1.9e-4 -0.00427,-2.3e-4 -0.00586,0 a 0.13251324,0.13251324 0 0 0 -0.013672,0.002 0.13251324,0.13251324 0 0 0 -0.00391,0.002 c -0.00236,2.5e-4 -0.00569,-3e-4 -0.00781,0 a 0.13251324,0.13251324 0 0 0 -0.013672,0.004 c -0.00144,0 -0.00449,-0.002 -0.00586,-0.002 a 0.13251324,0.13251324 0 0 0 -0.052734,0.01 c -1.395e-4,6e-5 -0.00311,0.002 -0.00586,0.004 a 0.13251324,0.13251324 0 0 0 -0.025391,0.006 0.13251324,0.13251324 0 0 0 -0.046875,0.0156 c -0.00652,0.004 -0.014404,0.01 -0.021484,0.0137 -9.462e-4,5.5e-4 -0.00295,-5.5e-4 -0.00391,0 a 0.13251324,0.13251324 0 0 0 -0.078125,0.0469 c -0.00377,0.002 -0.00771,0.004 -0.011719,0.006 a 0.13251324,0.13251324 0 0 0 -0.00391,0.004 0.13251324,0.13251324 0 0 0 -0.00781,0.004 0.13251324,0.13251324 0 0 0 -0.00391,0.002 0.13251324,0.13251324 0 0 0 -0.039063,0.0352 0.13251324,0.13251324 0 0 0 -0.00977,0.0117 0.13251324,0.13251324 0 0 0 -0.00781,0.008 0.13251324,0.13251324 0 0 0 -0.00195,0.002 0.13251324,0.13251324 0 0 0 -0.029297,0.043 0.13251324,0.13251324 0 0 0 0,0.002 0.13251324,0.13251324 0 0 0 -0.00586,0.01 0.13251324,0.13251324 0 0 0 0,0.002 0.13251324,0.13251324 0 0 0 0,0.002 0.13251324,0.13251324 0 0 0 -0.00391,0.0176 0.13251324,0.13251324 0 0 0 -0.00195,0.006 0.13251324,0.13251324 0 0 0 -0.00391,0.0176 c -0.00112,0.008 -0.00525,0.0221 -0.011719,0.0391 a 0.13251324,0.13251324 0 0 0 -0.00195,0.01 0.13251324,0.13251324 0 0 0 -0.00195,0.002 0.13251324,0.13251324 0 0 0 0,0.006 0.13251324,0.13251324 0 0 0 0,0.002 0.13251324,0.13251324 0 0 0 -0.00195,0.002 0.13251324,0.13251324 0 0 0 0,0.004 0.13251324,0.13251324 0 0 0 0.013672,0.10156 0.13251324,0.13251324 0 0 0 0,0.002 0.13251324,0.13251324 0 0 0 0.019531,0.0293 c 0.00489,0.006 0.00903,0.0103 0.011719,0.0176 a 0.13251324,0.13251324 0 0 0 0.039063,0.0566 0.13251324,0.13251324 0 0 0 0.00977,0.0137 0.13251324,0.13251324 0 0 0 0,0.002 0.13251324,0.13251324 0 0 0 0.00195,0.002 0.13251324,0.13251324 0 0 0 0,0.002 0.13251324,0.13251324 0 0 0 -0.00195,0.0391 0.13251324,0.13251324 0 0 0 0,0.002 0.13251324,0.13251324 0 0 0 -0.021484,0.0527 0.13251324,0.13251324 0 0 0 -0.00195,0.002 0.13327524,0.13327524 0 1 0 0.2421875,0.11133 c 0.00355,-0.007 0.00281,-0.0193 0.00586,-0.0273 0.00643,-0.008 0.011213,-0.007 0.019531,-0.0234 a 0.13251324,0.13251324 0 0 0 0.00195,-0.006 c 0.010211,-0.0238 0.018366,-0.0505 0.021484,-0.0801 v -0.002 c 8.896e-4,-0.007 -0.00571,-0.0156 -0.00586,-0.0234 0.00573,-0.0181 0.012398,-0.0351 0.013672,-0.0566 a 0.13251324,0.13251324 0 0 0 0,-0.0254 c -5.41e-5,-4e-4 -0.013513,-0.0407 -0.013672,-0.041 -4.3e-5,-9e-5 -0.00488,-0.006 -0.00781,-0.01 -3.695e-4,-5.1e-4 3.962e-4,-0.001 0,-0.002 l -0.00391,-0.01 c -7.68e-5,-1.3e-4 -0.00609,-0.007 -0.011719,-0.0137 -0.00391,-0.0108 1.641e-4,-0.0218 -0.00586,-0.0312 -0.00807,-0.0112 -0.019349,-0.0252 -0.019531,-0.0254 -6.3e-5,-6e-5 -0.0049,-0.004 -0.00781,-0.006 -5.17e-5,-1.7e-4 6.9e-6,-0.002 0,-0.002 -1.169e-4,-2.4e-4 -0.011669,-0.0185 -0.019531,-0.0293 -0.00218,-0.003 -0.00521,-0.007 -0.00586,-0.008 a 0.13251324,0.13251324 0 0 0 0.00977,-0.0117 0.13251324,0.13251324 0 0 0 0.00977,-0.01 0.13251324,0.13251324 0 0 0 0.00781,-0.01 0.13251324,0.13251324 0 0 0 0.00195,-0.002 c 0.00118,-6.6e-4 0.00497,-0.001 0.00586,-0.002 a 0.13251324,0.13251324 0 0 0 0.011719,-0.008 0.13251324,0.13251324 0 0 0 0.00586,-0.004 c 0.00248,-0.001 0.00347,-0.003 0.00586,-0.004 0.00743,-0.004 0.013009,-0.006 0.019531,-0.01 a 0.13251324,0.13251324 0 0 0 0.019531,-0.004 0.13251324,0.13251324 0 0 0 0.035156,-0.01 0.13251324,0.13251324 0 0 0 0.035156,-0.004 0.13251324,0.13251324 0 0 0 0.00781,-0.002 0.13251324,0.13251324 0 0 0 0.017578,-0.004 0.13251324,0.13251324 0 0 0 0.011719,-0.002 0.13251324,0.13251324 0 0 0 0.00781,0 0.13251324,0.13251324 0 0 0 0.054687,-0.01 0.13251324,0.13251324 0 0 0 0.00391,0 0.13251324,0.13251324 0 0 0 0.076172,-0.0254 0.13251324,0.13251324 0 0 0 0.00586,-0.002 0.13251324,0.13251324 0 0 0 0.013672,-0.006 c 0.02281,-0.0132 0.042089,-0.0249 0.056641,-0.0332 a 0.13251324,0.13251324 0 0 0 0.00586,-0.006 0.13251324,0.13251324 0 0 0 0.00195,0 0.13251324,0.13251324 0 0 0 0.00195,-0.002 0.13251324,0.13251324 0 0 0 0.039063,-0.0312 0.13251324,0.13251324 0 0 0 0.00195,-0.002 0.13251324,0.13251324 0 0 0 0.044922,-0.0469 c 3.961e-4,-7.1e-4 -4.123e-4,-0.003 0,-0.004 a 0.13251324,0.13251324 0 0 0 0.023437,-0.0332 c 0.010667,-0.0224 0.017984,-0.0488 0.019531,-0.082 3.956e-4,-0.007 -0.010289,-0.0133 -0.011719,-0.0215 0.00408,-0.0181 0.015167,-0.0272 0.00977,-0.0527 a 0.13251324,0.13251324 0 0 0 -0.00781,-0.0254 c -0.00227,-0.005 -0.00891,-0.005 -0.011719,-0.01 -4.442e-4,-0.001 5.593e-4,-0.002 0,-0.004 l -0.00195,-0.004 c -0.00452,-0.0116 -0.00965,-0.0233 -0.00977,-0.0234 -9.5e-5,-1.6e-4 -0.00653,-0.009 -0.013672,-0.0176 -0.00378,-0.007 -0.00734,-0.0132 -0.011719,-0.0195 -7.223e-4,-0.001 -0.00315,-6.5e-4 -0.00391,-0.002 -7.014e-4,-0.002 -9.677e-4,-0.003 -0.00195,-0.006 -8.825e-4,-0.001 -0.00105,-0.003 -0.00195,-0.004 -5.116e-4,-0.002 4.498e-4,-0.002 0,-0.004 l -0.00195,-0.002 c -0.00171,-0.004 -8.229e-4,-0.007 -0.00195,-0.01 -2.87e-5,-6e-5 -0.00243,-0.006 -0.00391,-0.008 -6.51e-5,-1.1e-4 -0.00528,-0.006 -0.00977,-0.0117 -0.00684,-0.009 -0.013541,-0.0194 -0.013672,-0.0195 -2.79e-5,-2e-5 -0.00322,-0.001 -0.00391,-0.002 -0.00266,-0.002 -0.00685,-0.005 -0.013672,-0.01 -4.494e-4,-6.1e-4 -0.00193,-0.004 -0.00195,-0.004 -1.227e-4,-1.2e-4 -0.00795,-0.006 -0.015625,-0.0117 -0.0011,-0.002 -0.00387,-0.006 -0.00391,-0.006 -7.34e-5,-7e-5 -0.00603,-0.003 -0.00977,-0.006 -0.00179,-0.001 -0.00176,-0.002 -0.00391,-0.004 -0.00196,-0.003 -0.0058,-0.008 -0.00586,-0.008 -1.086e-4,-10e-5 -0.00706,-0.005 -0.013672,-0.01 -0.00196,-0.003 -0.0058,-0.008 -0.00586,-0.008 -2.626e-4,-2.5e-4 -0.032836,-0.0232 -0.033203,-0.0234 -7.17e-5,-4e-5 -0.0041,-0.001 -0.00586,-0.002 -0.00124,-4.6e-4 -0.00217,-0.001 -0.00391,-0.002 -0.00129,-0.002 -0.00305,-0.003 -0.00391,-0.004 -0.0011,-0.002 -0.00387,-0.006 -0.00391,-0.006 -2.626e-4,-2.5e-4 -0.032836,-0.0252 -0.033203,-0.0254 -3.154e-4,-1.6e-4 -0.019322,-0.006 -0.025391,-0.008 l 0.015625,0.01 c -0.00889,-0.008 -0.014759,-0.002 -0.023437,-0.008 -0.00116,-8.2e-4 -7.87e-4,-0.003 -0.00195,-0.004 -0.00299,-4.7e-4 -0.00762,-0.001 -0.013672,-0.002 -0.00296,-0.001 -0.00491,-0.003 -0.00781,-0.004 -0.00354,-0.003 -0.00415,-0.009 -0.00781,-0.0117 -0.00699,-0.004 -0.012802,-0.003 -0.019531,-0.006 -0.0037,-0.005 -0.00393,-0.006 -0.00781,-0.0117 -0.0015,-9.8e-4 -0.00242,-0.001 -0.00391,-0.002 -0.00342,-0.002 -0.00238,-0.01 -0.00586,-0.0117 -2.012e-4,-2e-4 -0.016227,-0.013 -0.025391,-0.0195 -0.00218,-0.002 -0.00369,-2.5e-4 -0.00586,-0.002 l 0.017578,0.0273 c -0.00143,-5.8e-4 -0.00249,-0.001 -0.00391,-0.002 -0.00723,-0.007 -0.006,-0.0213 -0.013672,-0.0254 -0.00217,-0.002 -0.00371,-4.3e-4 -0.00586,-0.002 -0.00109,-0.002 -0.00247,-0.002 -0.00391,-0.004 -0.00219,-8.3e-4 -0.00305,-9.1e-4 -0.00586,-0.002 -0.00112,-4.2e-4 -8.298e-4,-0.002 -0.00195,-0.002 -0.00162,-0.002 -2.873e-4,-0.006 -0.00195,-0.008 l 0.00586,0.006 c -0.00706,-0.01 -0.013536,-0.0194 -0.013672,-0.0195 -1.085e-4,-1.1e-4 -0.00704,-0.005 -0.013672,-0.01 -0.00185,-0.003 -0.00581,-0.008 -0.00586,-0.008 -7.34e-5,-7e-5 -0.00604,-0.003 -0.00977,-0.006 -0.00811,-0.0112 -0.017402,-0.0252 -0.017578,-0.0254 -1.085e-4,-1.1e-4 -0.00706,-0.005 -0.013672,-0.01 -0.00185,-0.003 -0.00581,-0.008 -0.00586,-0.008 -1.995e-4,-1.9e-4 -0.016136,-0.011 -0.025391,-0.0176 -0.00281,-0.002 -0.00502,1.8e-4 -0.00781,-0.002 -0.00303,-0.002 -0.00482,-0.002 -0.00781,-0.004 -0.00119,-0.002 -9.372e-4,-0.003 -0.00195,-0.004 -0.00174,-6.6e-4 -0.00196,-0.001 -0.00391,-0.002 -0.0023,-0.001 -0.00158,-0.007 -0.00391,-0.008 -2.347e-4,-2.3e-4 -0.023486,-0.0174 -0.029297,-0.0215 -0.0013,-0.001 -0.00261,9.8e-4 -0.00391,0 l 0.017578,0.0234 c -6.193e-4,-1e-4 -0.00287,1.6e-4 -0.00391,0 -0.00696,-0.006 -0.00636,-0.0198 -0.013672,-0.0234 -2.263e-4,-1.8e-4 2.262e-4,-0.002 0,-0.002 -9.27e-5,-4e-5 -0.0051,-9.3e-4 -0.00781,-0.002 -7.143e-4,-9.8e-4 -0.0013,-0.001 -0.00195,-0.002 -7.218e-4,-2.7e-4 -0.00118,2.9e-4 -0.00195,0 -7.055e-4,-4.9e-4 -0.00124,-0.001 -0.00195,-0.002 -0.00303,-0.002 -0.00279,-0.008 -0.00586,-0.01 -6.505e-4,-4.8e-4 -0.00461,-0.004 -0.00781,-0.006 -8.925e-4,-6.4e-4 -9.516e-4,-0.001 -0.00195,-0.002 -0.0012,-0.002 -7.136e-4,-0.002 -0.00195,-0.004 -0.00684,-0.009 -0.01354,-0.0194 -0.013672,-0.0195 -2.79e-5,-3e-5 -0.00322,-0.001 -0.00391,-0.002 -0.00111,-8e-4 -0.00355,-0.002 -0.00586,-0.004 -3.7e-4,-2.7e-4 3.907e-4,-0.002 0,-0.002 -9.13e-5,-1.9e-4 -0.00792,-0.0109 -0.015625,-0.0215 -0.00567,-0.008 -0.011608,-0.0155 -0.011719,-0.0156 -7.34e-5,-8e-5 -0.00603,-0.003 -0.00977,-0.006 8.2e-6,-5.1e-4 -6e-6,-0.002 0,-0.002 2.39e-5,-0.002 1.93e-5,-0.008 0,-0.008 0.00171,-0.006 0.00447,-0.0116 0.00586,-0.0176 l 0.00586,-0.0273 a 0.13251324,0.13251324 0 0 0 0.00195,-0.002 0.13251324,0.13251324 0 0 0 0.013672,-0.0195 c 3.977e-4,-7.1e-4 -4.129e-4,-0.003 0,-0.004 2.415e-4,-4.4e-4 0.00171,-0.002 0.00195,-0.002 a 0.13251324,0.13251324 0 0 0 0.00781,-0.01 0.13251324,0.13251324 0 0 0 0.00391,-0.004 0.13251324,0.13251324 0 0 0 0,-0.002 0.13251324,0.13251324 0 0 0 0.00195,0 0.13251324,0.13251324 0 0 0 0.023437,-0.01 0.13251324,0.13251324 0 0 0 0.00781,-0.002 0.13251324,0.13251324 0 0 0 0.035156,-0.0117 0.13251324,0.13251324 0 0 0 0.029297,-0.008 0.13251324,0.13251324 0 0 0 0.023437,-0.002 0.13251324,0.13251324 0 0 0 0.056641,-0.008 0.13251324,0.13251324 0 0 0 0.00195,0 0.13251324,0.13251324 0 0 0 0.0625,-0.002 0.13251324,0.13251324 0 0 0 0.00977,-0.002 0.13251324,0.13251324 0 0 0 0.019531,-0.004 0.13251324,0.13251324 0 0 0 0.015625,-0.002 0.13251324,0.13251324 0 0 0 0.052734,-0.006 0.13251324,0.13251324 0 0 0 0.00586,0 0.13251324,0.13251324 0 0 0 0.035156,-0.002 0.13251324,0.13251324 0 0 0 0.00195,0 0.13251324,0.13251324 0 0 0 0.056641,0.004 0.13251324,0.13251324 0 0 0 0.048828,0 0.13251324,0.13251324 0 0 0 0.00977,0.002 c 0.010784,0.001 0.015915,0.005 0.017578,0.006 a 0.13251324,0.13251324 0 0 0 0.072266,0.008 0.13251324,0.13251324 0 0 0 0.00195,0 0.13251324,0.13251324 0 0 0 0.00781,0.002 0.13251324,0.13251324 0 0 0 0.00977,0.004 0.13251324,0.13251324 0 0 0 0.00195,0 0.13251324,0.13251324 0 0 0 0.00195,0 0.13251324,0.13251324 0 0 0 0.064453,0.006 0.13251324,0.13251324 0 0 0 0.078125,0.006 0.13251324,0.13251324 0 0 0 0.00195,0 0.13251324,0.13251324 0 0 0 0.027344,-0.002 0.13251324,0.13251324 0 0 0 0.068359,0.008 c 0.00792,0.002 0.016565,0.002 0.021484,0.004 a 0.13251324,0.13251324 0 0 0 0.074219,0.008 c 0.00662,0.002 0.015219,0.004 0.019531,0.006 a 0.13251324,0.13251324 0 0 0 0.025391,0.008 0.13251324,0.13251324 0 0 0 0.00195,0 0.13251324,0.13251324 0 0 0 0.00195,0 0.13251324,0.13251324 0 0 0 0.068359,0.008 0.13251324,0.13251324 0 0 0 0.072266,0.006 0.13251324,0.13251324 0 0 0 0.046875,-0.006 0.13251324,0.13251324 0 0 0 0.00195,0 0.13251324,0.13251324 0 0 0 0.015625,-0.002 0.13251324,0.13251324 0 0 0 0.00195,0 0.13251324,0.13251324 0 0 0 0.068359,-0.0137 0.13251324,0.13251324 0 0 0 0.00195,0 0.13251324,0.13251324 0 0 0 0.011719,-0.004 0.13251324,0.13251324 0 0 0 0.03125,-0.006 0.13251324,0.13251324 0 0 0 0.052734,-0.0176 c 0.00937,-0.005 0.015327,-0.009 0.023437,-0.0137 5.113e-4,-3e-4 0.00145,2.9e-4 0.00195,0 a 0.13251324,0.13251324 0 0 0 0.035156,-0.0117 c 0.00442,-0.002 0.00641,-0.004 0.00977,-0.006 a 0.13251324,0.13251324 0 0 0 0.00781,-0.004 c 0.00202,-0.001 0.00401,-0.002 0.00391,-0.002 a 0.13251324,0.13251324 0 0 0 0.00195,-0.002 0.13251324,0.13251324 0 0 0 0.068359,-0.0723 c 0.011762,-0.0293 0.021941,-0.0592 0.025391,-0.0918 a 0.13251324,0.13251324 0 0 0 0,-0.002 c 3.904e-4,-0.005 -0.00742,-0.009 -0.00781,-0.0137 1.658e-4,-0.006 -1.878e-4,-0.008 0,-0.0156 1.389e-4,-0.004 -0.00547,-0.007 -0.00586,-0.0117 l -0.03125,-0.0547 c -8.65e-5,-6.5e-4 9.33e-5,-0.001 0,-0.002 -0.00127,-0.009 -0.0033,-0.0165 -0.00586,-0.0254 l 0.013672,0.0195 0.029297,0.0742 c 3.991e-4,-0.0164 8.22e-5,-0.0328 0,-0.0332 -7.99e-5,-3.7e-4 -0.015442,-0.0407 -0.015625,-0.041 -5.34e-5,-9e-5 -0.00449,-0.006 -0.00781,-0.01 -0.00148,-0.005 -0.00386,-0.0116 -0.00391,-0.0117 -1.396e-4,-2.9e-4 -0.018256,-0.0261 -0.023437,-0.0332 -0.00242,-0.004 -0.00107,-0.01 -0.00391,-0.0137 a 0.13251324,0.13251324 0 0 0 -0.017578,-0.0176 c -0.00376,-0.004 -0.00603,-8.9e-4 -0.00977,-0.004 -0.0018,-0.003 5.78e-5,-0.007 -0.00195,-0.01 a 0.13251324,0.13251324 0 0 0 -0.015625,-0.0195 c -0.00821,-0.008 -0.013437,-0.003 -0.021484,-0.008 -0.00441,-0.006 -0.00967,-0.0136 -0.00977,-0.0137 -1.995e-4,-1.9e-4 -0.016137,-0.011 -0.025391,-0.0176 -0.00155,-0.001 -0.00237,-7.1e-4 -0.00391,-0.002 l 0.017578,0.0254 c -0.00209,-8.5e-4 -0.0038,-0.001 -0.00586,-0.002 -0.00665,-0.006 -0.00471,-0.0197 -0.011719,-0.0234 -0.00503,-0.004 -0.00872,-7.8e-4 -0.013672,-0.004 -0.00114,-8.3e-4 -8.019e-4,-0.003 -0.00195,-0.004 -0.00794,-0.003 -0.015354,-0.006 -0.015625,-0.006 -1.864e-4,-5e-5 -0.0059,2.9e-4 -0.00781,0 -0.00729,-0.006 -0.00598,-0.0216 -0.013672,-0.0254 a 0.13251324,0.13251324 0 0 0 -0.00391,-0.002 c -0.020738,-0.01 -0.041518,-0.013 -0.0625,-0.0176 -0.00528,-0.003 -0.00846,-0.0113 -0.013672,-0.0137 -5.957e-4,-2.7e-4 -0.00136,2.7e-4 -0.00195,0 -0.00904,-0.004 -0.018268,-0.005 -0.027344,-0.008 -1.75e-5,-2e-5 -0.00166,-0.002 -0.00195,-0.002 -0.00374,-0.003 -0.025475,-0.0169 -0.029297,-0.0195 l 0.00977,0.0156 c -7.763e-4,-2e-4 -0.00118,-0.002 -0.00195,-0.002 -0.00413,-0.003 -0.00359,-0.0116 -0.00781,-0.0137 -2.955e-4,-2.1e-4 -0.00193,-0.002 -0.00195,-0.002 -3.667e-4,-1.8e-4 -0.026873,-0.01 -0.027344,-0.01 -4.242e-4,-1.1e-4 -0.010525,-9.9e-4 -0.017578,-0.002 -0.011162,-0.004 -0.02181,-0.007 -0.033203,-0.01 -0.00298,-0.002 -0.00283,-0.008 -0.00586,-0.01 -6.232e-4,-3.2e-4 -0.00133,3.2e-4 -0.00195,0 -0.015606,-0.008 -0.029911,-0.01 -0.044922,-0.0137 -0.00418,-0.003 -0.00354,-0.0116 -0.00781,-0.0137 a 0.13251324,0.13251324 0 0 0 -0.00391,-0.002 c -0.031029,-0.0142 -0.062083,-0.0211 -0.09375,-0.0254 l 0.029297,0.006 c -0.027311,-0.0105 -0.056939,-0.0151 -0.085937,-0.0215 l -0.017578,-0.006 c -0.00392,-7.6e-4 -0.00776,-0.001 -0.011719,-0.002 -0.023127,-0.008 -0.046157,-0.0158 -0.070312,-0.0195 l 0.070312,0.0351 c -0.043377,-0.0413 -0.083615,-0.0434 -0.1132813,-0.043 h -0.00195 c -0.00631,6e-5 -0.013126,0.003 -0.019531,0.004 -0.014354,-0.004 -0.028448,-0.01 -0.042969,-0.0117 l 0.027344,0.006 c -0.033165,-0.0119 -0.069444,-0.0193 -0.1054688,-0.0273 l -0.027344,-0.008 c -0.023699,-0.008 -0.047487,-0.0157 -0.072266,-0.0195 a 0.13251324,0.13251324 0 0 0 -0.019531,-0.002 c -0.00691,0 -0.014461,0.003 -0.021484,0.004 -0.011636,-0.003 -0.023839,-0.009 -0.035156,-0.01 a 0.13251324,0.13251324 0 0 0 -0.015625,0 c -0.00585,0 -0.011643,0.003 -0.017578,0.004 -0.015049,-0.005 -0.029723,-0.0107 -0.044922,-0.0137 l -0.023437,-0.006 c -0.044779,-0.0139 -0.092167,-0.0261 -0.140625,-0.0371 l -0.019531,-0.006 c -0.020372,-0.007 -0.041208,-0.0109 -0.0625,-0.0156 -0.012861,-0.006 -0.026121,-0.006 -0.039063,-0.01 -1.68e-5,-2e-5 -0.00169,-0.002 -0.00195,-0.002 -0.00389,-0.003 -0.03286,-0.0213 -0.033203,-0.0215 -9.8e-5,-5e-5 -0.00484,-8.4e-4 -0.00781,-0.002 -0.00816,-0.003 -0.019186,-0.01 -0.019531,-0.01 -7.946e-4,-2e-4 -0.019671,-0.003 -0.03125,-0.004 -0.0018,-5e-4 -0.00406,4.5e-4 -0.00586,0 -6.913e-4,-5.2e-4 -0.00126,-0.001 -0.00195,-0.002 -0.00411,-0.003 -0.00361,-0.0116 -0.00781,-0.0137 a 0.13251324,0.13251324 0 0 0 -0.00391,0 c -0.021398,-0.01 -0.042795,-0.015 -0.064453,-0.0195 -0.00609,-0.003 -0.00967,-0.0131 -0.015625,-0.0156 h -0.00195 c -0.00862,-0.004 -0.016952,-0.003 -0.025391,-0.006 -0.00722,-0.002 -0.014393,-0.004 -0.021484,-0.006 -3.682e-4,-2.2e-4 3.682e-4,-0.002 0,-0.002 -0.00191,-0.001 -0.00397,0.001 -0.00586,0 -0.00136,-2.6e-4 -0.00255,-0.002 -0.00391,-0.002 -0.00629,-0.003 -0.011538,-0.004 -0.017578,-0.006 -0.00982,-0.007 -0.015481,-0.0208 -0.025391,-0.0254 -7.76e-4,-4.9e-4 -0.00118,-0.001 -0.00195,-0.002 -6.526e-4,-5.7e-4 -0.0013,5.4e-4 -0.00195,0 -0.00529,-0.004 -0.00847,-0.002 -0.013672,-0.006 -0.00313,-0.004 -0.00441,-0.008 -0.00586,-0.01 -3.482e-4,-4.8e-4 -0.00176,-0.002 -0.00195,-0.002 -0.00514,-0.002 -0.010718,-0.008 -0.015625,-0.01 l 0.013672,0.008 c -1.819e-4,-1.7e-4 -0.013643,-0.009 -0.023437,-0.0156 -1.978e-4,-2.8e-4 2.436e-4,-0.002 0,-0.002 -5.26e-4,-3.8e-4 -0.00148,3.4e-4 -0.00195,0 -3.375e-4,-2.4e-4 3.103e-4,-0.002 0,-0.002 -3.131e-4,-4.3e-4 3.472e-4,-0.001 0,-0.002 -1.324e-4,-1.6e-4 -0.00179,2e-4 -0.00195,0 -5.302e-4,-0.001 4.202e-4,-0.003 0,-0.004 -9.3e-6,-2e-5 -0.00177,-0.002 -0.00195,-0.002 -5.466e-4,-0.001 -0.00193,-0.006 -0.00195,-0.006 -1.185e-4,-2e-4 -0.00939,-0.0117 -0.017578,-0.0215 -0.00288,-0.003 -0.00442,-0.006 -0.00586,-0.008 -1.72e-5,-10e-6 -0.00168,-0.002 -0.00195,-0.002 -0.00297,-0.002 -0.015059,-0.0116 -0.023437,-0.0176 -6.502e-4,-5.6e-4 -0.0013,5.5e-4 -0.00195,0 -2.273e-4,-1.9e-4 2.271e-4,-0.002 0,-0.002 -3.497e-4,-2.5e-4 -0.00167,2e-4 -0.00195,0 -2.196e-4,-1.5e-4 1.797e-4,-0.002 0,-0.002 -6.494e-4,-4.6e-4 -0.00387,-0.002 -0.00391,-0.002 -9.54e-5,-4e-5 -0.00497,-8.8e-4 -0.00781,-0.002 -0.00101,-0.002 -0.00285,-0.004 -0.00391,-0.006 l 0.011719,0.008 h 0.00391 c -0.00806,-0.0111 -0.017411,-0.0233 -0.017578,-0.0234 -8.52e-5,-9e-5 -0.00701,-0.004 -0.011719,-0.008 -0.00105,-0.002 -8.703e-4,-0.004 -0.00195,-0.006 2.102e-4,-3.8e-4 -2.132e-4,-0.002 0,-0.002 A 0.13251324,0.13251324 0 0 0 3,293.23438 c 5.228e-4,-6.5e-4 0.00142,-0.001 0.00195,-0.002 a 0.13251324,0.13251324 0 0 0 0.00781,-0.01 0.13251324,0.13251324 0 0 0 0.00781,-0.006 c 4.852e-4,-6e-4 0.00146,-0.001 0.00195,-0.002 0.00609,-0.004 0.014389,-0.009 0.019531,-0.0117 a 0.13251324,0.13251324 0 0 0 0.011719,-0.008 0.13251324,0.13251324 0 0 0 0.017578,-0.01 c 0.00995,-0.006 0.016855,-0.009 0.025391,-0.0137 a 0.13251324,0.13251324 0 0 0 0.044922,-0.0156 c 0.014385,-0.008 0.023778,-0.0149 0.035156,-0.0215 4.611e-4,-2.7e-4 0.0015,2.6e-4 0.00195,0 a 0.13251324,0.13251324 0 0 0 0.027344,-0.008 c 0.00353,-0.001 0.00101,-9.3e-4 0.00391,-0.002 a 0.13251324,0.13251324 0 0 0 0.021484,-0.002 0.13251324,0.13251324 0 0 0 0.00586,0 0.13251324,0.13251324 0 0 0 0.054687,-0.01 0.13251324,0.13251324 0 0 0 0.00195,0 0.13251324,0.13251324 0 0 0 0.037109,0 0.13251324,0.13251324 0 0 0 0.082031,-0.01 0.13251324,0.13251324 0 0 0 0.00391,-0.002 0.13251324,0.13251324 0 0 0 0.076172,-0.006 c 0.015566,-0.006 0.026987,-0.01 0.017578,-0.008 a 0.13251324,0.13251324 0 0 0 0.011719,-0.002 0.13251324,0.13251324 0 0 0 0.00977,-0.002 0.13251324,0.13251324 0 0 0 0.046875,0.002 c 0.020809,-0.003 0.037264,-0.006 0.044922,-0.006 a 0.13251324,0.13251324 0 0 0 0.017578,-0.002 0.13251324,0.13251324 0 0 0 0.048828,0.002 c 0,0 0,-0.002 0,-0.002 a 0.13251324,0.13251324 0 0 0 0.037109,-0.002 0.13251324,0.13251324 0 0 0 0.074219,0.002 0.13251324,0.13251324 0 0 0 0.00977,-0.002 c 0,0 0.00195,0 0.00195,0 a 0.13251324,0.13251324 0 0 0 0.027344,0 c 0.024397,-0.003 0.044265,-0.004 0.056641,-0.004 a 0.13251324,0.13251324 0 0 0 0.019531,0 c 0.00668,-7.6e-4 0.00911,-4.1e-4 0.011719,0 a 0.13251324,0.13251324 0 0 0 0.042969,0 c 0,0 0,-0.002 0,-0.002 a 0.13251324,0.13251324 0 0 0 0.00195,0 0.13251324,0.13251324 0 0 0 0.080078,0.0117 c 0,0 0,-0.002 0,-0.002 a 0.13251324,0.13251324 0 0 0 0.019531,0.002 c 0.033126,-9.3e-4 0.05934,-0.002 0.078125,0 a 0.13251324,0.13251324 0 0 0 0.029297,0 c 0.00671,-7.6e-4 0.00911,-4.1e-4 0.011719,0 a 0.13251324,0.13251324 0 0 0 0.00391,0 0.13251324,0.13251324 0 0 0 0.00391,0.002 0.13251324,0.13251324 0 0 0 0.00391,0 0.13251324,0.13251324 0 0 0 0.046875,0.01 c 0.033095,-9.4e-4 0.059346,-0.002 0.078125,0 0.00875,0.001 0.014137,0.003 0.015625,0.004 a 0.13251324,0.13251324 0 0 0 0.042969,0.0117 c 0.032267,0.003 0.061869,0.008 0.087891,0.0137 a 0.13251324,0.13251324 0 0 0 0.035156,0.002 c 0.012218,-5.3e-4 0.020938,4.4e-4 0.029297,0.002 a 0.13251324,0.13251324 0 0 0 0.011719,0.002 0.13251324,0.13251324 0 0 0 0.072266,0.0117 c 0.00667,-7.5e-4 0.011063,-4e-4 0.013672,0 a 0.13251324,0.13251324 0 0 0 0.00391,0.002 c 0.010783,0.001 0.015915,0.003 0.017578,0.004 a 0.13251324,0.13251324 0 0 0 0.039063,0.01 0.13251324,0.13251324 0 0 0 0.048828,0.0137 0.13251324,0.13251324 0 0 0 0.072266,0.0117 c 0.00668,-7.6e-4 0.011062,-4.1e-4 0.013672,0 0.024717,0.005 0.046261,0.0113 0.0625,0.0176 a 0.13251324,0.13251324 0 0 0 0.0625,0.008 c 0.00668,-7.6e-4 0.00911,-4.1e-4 0.011719,0 a 0.13251324,0.13251324 0 0 0 0.00781,0 0.13251324,0.13251324 0 0 0 0.035156,0.0117 c 0.026673,0.005 0.049222,0.011 0.066406,0.0176 a 0.13251324,0.13251324 0 0 0 0.025391,0.006 c 0.026672,0.005 0.047269,0.011 0.064453,0.0176 a 0.13251324,0.13251324 0 0 0 0.029297,0.008 0.13251324,0.13251324 0 0 0 0.060547,0.0273 c 0.018759,0.003 0.0328,0.007 0.046875,0.0117 a 0.13251324,0.13251324 0 0 0 0.00195,0.002 0.13251324,0.13251324 0 0 0 0.058594,0.0293 0.13251324,0.13251324 0 0 0 0.00195,0 0.13251324,0.13251324 0 0 0 0.00195,0 0.13251324,0.13251324 0 0 0 0.052734,0.008 c 0.00373,-2.2e-4 0.064453,-0.002 0.064453,-0.002 a 0.13282936,0.13282936 0 1 0 -0.00391,-0.26563 c 0,0 -0.026749,0.001 -0.046875,0.002 -0.00487,-0.003 -0.00936,-0.0119 -0.013672,-0.0137 a 0.13251324,0.13251324 0 0 0 -0.00391,0 c -0.030077,-0.0116 -0.061058,-0.0187 -0.09375,-0.0254 -0.00546,-0.003 -0.010452,-0.01 -0.015625,-0.0117 -0.030297,-0.0159 -0.059448,-0.0237 -0.083984,-0.0254 l 0.039063,0.008 c -0.028298,-0.0109 -0.059233,-0.0169 -0.089844,-0.0234 l -0.025391,-0.008 c -0.028953,-0.01 -0.05856,-0.0179 -0.089844,-0.0234 l 0.037109,0.0117 c -0.027888,-0.0143 -0.056315,-0.02 -0.085937,-0.0234 -0.012557,-0.002 -0.029286,-0.002 -0.044922,-0.002 -0.028953,-0.01 -0.05856,-0.0179 -0.089844,-0.0234 a 0.13251324,0.13251324 0 0 0 -0.00195,0 c -0.01546,-0.002 -0.036659,-0.002 -0.056641,-0.002 -6.114e-4,-1.6e-4 -0.00134,1.6e-4 -0.00195,0 -5.915e-4,-2.9e-4 -0.00136,2.8e-4 -0.00195,0 -0.028032,-0.0134 -0.056223,-0.0205 -0.085937,-0.0234 l 0.041016,0.01 c -0.028184,-0.0127 -0.057764,-0.021 -0.089844,-0.0254 h -0.00391 c -0.015823,-0.002 -0.036405,-0.003 -0.056641,-0.002 -0.010601,-0.003 -0.020445,-0.008 -0.03125,-0.01 -0.00109,-2e-4 -0.00279,1.9e-4 -0.00391,0 -0.014001,-0.002 -0.031765,-0.003 -0.048828,-0.004 -0.035418,-0.008 -0.075465,-0.0137 -0.1171875,-0.0176 -0.00179,-5.4e-4 -0.00406,5.2e-4 -0.00586,0 -0.017032,-0.005 -0.032542,-0.0133 -0.050781,-0.0156 a 0.13251324,0.13251324 0 0 0 -0.00391,0 c -0.03491,-0.004 -0.067864,-0.003 -0.1015625,-0.002 -0.0087,-0.002 -0.019259,-0.007 -0.027344,-0.008 -0.013793,-0.002 -0.03173,-0.002 -0.048828,-0.002 h -0.029297 c -0.022402,-0.001 -0.044368,-0.002 -0.066406,-0.002 H 4.0625 c -0.00741,-2.3e-4 -0.014448,0.001 -0.021484,0.002 -0.014194,-0.004 -0.028413,-0.0102 -0.042969,-0.0117 -7.177e-4,-8e-5 -0.00124,7e-5 -0.00195,0 z m -0.5019532,2.89258 c -0.00338,-0.0113 -0.00964,-0.033 -0.00977,-0.0332 -3.35e-5,-7e-5 -0.00391,-0.005 -0.00586,-0.008 z m 1.1015625,-1.55664 c -0.00305,2.8e-4 -0.00711,-3.8e-4 -0.00977,0 a 0.13251324,0.13251324 0 0 0 -0.033203,0.01 z m -1.4980469,-0.77344 0.00391,0.004 c -0.00147,-6.7e-4 -0.00245,-0.001 -0.00391,-0.002 z m 0.6308594,0.23633 0.029297,0.006 c -0.0033,3.8e-4 -0.00644,0.001 -0.00977,0.002 -0.0057,-1.9e-4 -0.014499,-0.008 -0.019531,-0.008 z m 0.875,0.5332 a 0.13251324,0.13251324 0 0 0 -0.00195,0.002 0.13251324,0.13251324 0 0 0 -0.00195,0 z m -0.2207031,0.0156 0.025391,0.006 c -0.00245,3.8e-4 -0.00553,-4.8e-4 -0.00781,0 -0.0047,-1.2e-4 -0.013494,-0.006 -0.017578,-0.006 z"
       id="path4726"
       inkscape:connector-curvature="0" />
    <path
       style="color:#000000;font-style:normal;font-variant:normal;font-weight:normal;font-stretch:normal;font-size:medium;line-height:normal;font-family:sans-serif;font-variant-ligatures:normal;font-variant-position:normal;font-variant-caps:normal;font-variant-numeric:normal;font-variant-alternates:normal;font-feature-settings:normal;text-indent:0;text-align:start;text-decoration:none;text-decoration-line:none;text-decoration-style:solid;text-decoration-color:#000000;letter-spacing:normal;word-spacing:normal;text-transform:none;writing-mode:lr-tb;direction:ltr;text-orientation:mixed;dominant-baseline:auto;baseline-shift:baseline;text-anchor:start;white-space:normal;shape-padding:0;clip-rule:nonzero;display:inline;overflow:visible;visibility:visible;opacity:1;isolation:auto;mix-blend-mode:normal;color-interpolation:sRGB;color-interpolation-filters:linearRGB;solid-color:#000000;solid-opacity:1;vector-effect:none;fill:#ffffff;fill-opacity:1;fill-rule:nonzero;stroke:none;stroke-width:0.26499999;stroke-linecap:round;stroke-linejoin:round;stroke-miterlimit:4;stroke-dasharray:none;stroke-dashoffset:0;stroke-opacity:1;color-rendering:auto;image-rendering:auto;shape-rendering:auto;text-rendering:auto;enable-background:accumulate"
       d="m 5.6015625,289.02734 a 0.13251324,0.13251324 0 0 0 -0.074219,0.0293 c -0.017372,0.008 -0.035815,0.0162 -0.058594,0.0273 a 0.13251324,0.13251324 0 0 0 -0.027344,0.0195 0.13251324,0.13251324 0 0 0 -0.00195,0 0.13251324,0.13251324 0 0 0 -0.00977,0.004 c -0.0036,0.002 -0.00672,0.004 -0.00977,0.006 -0.00523,0.002 -0.014186,1.5e-4 -0.019531,0.002 a 0.13251324,0.13251324 0 0 0 -0.041016,0.0234 c -0.00594,0.002 -0.013669,0.002 -0.019531,0.004 a 0.13251324,0.13251324 0 0 0 -0.035156,0.0176 c 0.00308,-0.002 -0.00989,0.005 -0.025391,0.0137 -0.014134,0.008 -0.027695,0.0146 -0.042969,0.0234 a 0.13251324,0.13251324 0 0 0 -0.035156,0.0312 0.13251324,0.13251324 0 0 0 -0.00391,0.004 0.13251324,0.13251324 0 0 0 -0.025391,0.0215 0.13251324,0.13251324 0 0 0 -0.00195,0.002 c -0.00815,0.005 -0.016391,0.008 -0.025391,0.0137 a 0.13251324,0.13251324 0 0 0 -0.054687,0.0625 0.13251324,0.13251324 0 0 0 -0.015625,0.0156 0.13251324,0.13251324 0 0 0 -0.00195,0.002 0.13251324,0.13251324 0 0 0 -0.021484,0.0176 c -0.0049,0.005 -0.012469,0.0125 -0.023437,0.0215 a 0.13251324,0.13251324 0 0 0 -0.03125,0.0332 c -0.00138,8.1e-4 -5.035e-4,0.001 -0.00195,0.002 a 0.13251324,0.13251324 0 0 0 -0.033203,0.0293 0.13251324,0.13251324 0 0 0 -0.00586,0.004 0.13251324,0.13251324 0 0 0 -0.00391,0.002 0.13251324,0.13251324 0 0 0 -0.00195,0.002 0.13251324,0.13251324 0 0 0 -0.0625,0.0527 0.13251324,0.13251324 0 0 0 -0.00195,0.002 0.13251324,0.13251324 0 0 0 -0.039063,0.0488 0.13251324,0.13251324 0 0 0 -0.013672,0.0176 0.13251324,0.13251324 0 0 0 -0.035156,0.0293 0.13251324,0.13251324 0 0 0 -0.00195,0.002 0.13251324,0.13251324 0 0 0 0.056641,0.24414 c 0.037647,0.004 0.045133,0.005 0.066406,0.008 a 0.13251324,0.13251324 0 0 0 0.095703,0.0293 c 0.00761,-7.8e-4 0.013066,-6.3e-4 0.017578,0 0.016177,0.003 0.026884,0.005 0.033203,0.008 a 0.13251324,0.13251324 0 0 0 0.027344,0.008 c 0.035579,0.007 0.066935,0.0158 0.09375,0.0254 a 0.13251324,0.13251324 0 0 0 0.023437,0.006 c 0.017651,0.003 0.030786,0.007 0.037109,0.01 a 0.13251324,0.13251324 0 0 0 0.072266,0.008 0.13251324,0.13251324 0 0 0 0.00195,0 0.13251324,0.13251324 0 0 0 0.070312,0.008 0.13251324,0.13251324 0 0 0 0.00781,0.002 c 0.012647,0.002 0.019576,0.004 0.019531,0.004 a 0.13251324,0.13251324 0 0 0 0.027344,0.01 c 0.059646,0.013 0.1153104,0.028 0.1679687,0.0449 a 0.13251324,0.13251324 0 0 0 0.060547,0.004 0.13251324,0.13251324 0 0 0 0.017578,0.004 c 0.022664,0.004 0.039215,0.009 0.050781,0.0137 a 0.13251324,0.13251324 0 0 0 0.074219,0.008 c 1.405e-4,5e-5 0.00196,0 0.00195,0 a 0.13251324,0.13251324 0 0 0 0.021484,0.008 0.13251324,0.13251324 0 0 0 0.00195,0 0.13251324,0.13251324 0 0 0 0.00977,0.002 0.13251324,0.13251324 0 0 0 0.00195,0.002 0.13251324,0.13251324 0 0 0 0.00195,0 0.13251324,0.13251324 0 0 0 0.00195,0 0.13251324,0.13251324 0 0 0 0.00781,0.002 0.13251324,0.13251324 0 0 0 0.00195,0 0.13251324,0.13251324 0 0 0 0.048828,0.002 0.13251324,0.13251324 0 0 0 0.00195,0 0.13251324,0.13251324 0 0 0 0.1640624,-0.16993 c -1.724e-4,-5e-4 -0.00608,-0.0141 -0.00781,-0.0176 -0.00174,-0.003 -0.00412,-0.007 -0.00586,-0.01 -0.00121,-0.002 -0.00452,-0.006 -0.00586,-0.008 -0.00187,-0.004 3.599e-4,-0.008 -0.00195,-0.0117 -0.0023,-0.004 -0.00526,-0.004 -0.00781,-0.008 -8.443e-4,-0.001 -0.00306,-0.002 -0.00391,-0.004 l -0.00195,-0.004 v -0.002 c -5.595e-4,-0.001 -0.00592,-0.008 -0.00781,-0.0117 3e-7,-4.6e-4 9.5e-6,-0.004 0,-0.004 -4.47e-5,-2e-4 -0.00594,-0.0105 -0.00977,-0.0176 -0.0013,-0.002 0.00144,-0.005 0,-0.008 -8.086e-4,-0.001 -0.0011,-0.003 -0.00195,-0.004 v -0.002 c -0.00137,-0.002 -0.00233,-0.002 -0.00391,-0.004 -0.00364,-0.008 -0.00936,-0.0154 -0.013672,-0.0234 v -0.002 c 3.02e-5,-0.002 2.31e-5,-0.01 0,-0.01 -5.51e-5,-2.4e-4 -0.00644,-0.0117 -0.011719,-0.0215 -0.00116,-0.003 -5.076e-4,-0.006 -0.00195,-0.01 v -0.002 c -0.00214,-0.005 -0.00114,-0.009 -0.00391,-0.0137 -0.00312,-0.005 -0.00815,-0.005 -0.011719,-0.01 -0.00315,-0.007 -0.00619,-0.0132 -0.00977,-0.0195 7.2e-6,-9.8e-4 1.43e-5,-0.006 0,-0.006 -5.83e-5,-2.5e-4 -0.00598,-0.0128 -0.011719,-0.0234 -0.00302,-0.009 -7.8e-4,-0.0168 -0.00586,-0.0254 -0.00307,-0.005 -0.00817,-0.005 -0.011719,-0.01 -0.00406,-0.01 3.214e-4,-0.0204 -0.00586,-0.0293 -0.00777,-0.0158 -0.017211,-0.0306 -0.027344,-0.0449 -0.00384,-0.0112 -0.006,-0.0227 -0.011719,-0.0332 -0.00491,-0.01 -0.013024,-0.0115 -0.019531,-0.0195 -0.00485,-0.0116 -0.011033,-0.0225 -0.017578,-0.0332 l -0.00391,-0.004 c -0.00495,-0.0109 -0.014414,-0.0124 -0.021484,-0.0215 -0.00378,-0.009 -0.010725,-0.0166 -0.015625,-0.0254 l -0.017578,-0.0312 c -2.508e-4,-5.2e-4 2.546e-4,-0.001 0,-0.002 3.02e-5,-0.002 2.31e-5,-0.01 0,-0.01 -7.29e-5,-3.1e-4 -0.00791,-0.0151 -0.015625,-0.0293 -0.00569,-0.0105 -0.00777,-0.0143 -0.011719,-0.0215 -0.010195,-0.0188 -0.023072,-0.0406 -0.023437,-0.041 a 0.13251324,0.13251324 0 0 0 -0.00391,-0.004 c -0.00296,-0.003 -0.00489,5e-4 -0.00781,-0.002 l 0.00391,0.006 0.015625,0.0254 c -0.00162,-0.004 -0.00585,-0.004 -0.00781,-0.008 -0.00123,-0.002 -0.00266,-0.002 -0.00391,-0.004 -0.0049,-0.009 -0.00471,-0.0139 -0.00781,-0.0195 -3.94e-4,-7.2e-4 -0.00162,-0.001 -0.00195,-0.002 -6.652e-4,-5.3e-4 -0.00129,5.2e-4 -0.00195,0 -0.00586,-0.0108 -0.00703,-0.0149 -0.011719,-0.0234 l 0.00781,0.0137 0.00586,0.01 c -0.00363,-0.009 -0.00927,-0.0168 -0.013672,-0.0254 a 0.13251324,0.13251324 0 0 0 0.019531,-0.0508 0.13251324,0.13251324 0 0 0 0,-0.0391 0.13251324,0.13251324 0 0 0 0,-0.002 0.13251324,0.13251324 0 0 0 0,-0.002 0.13251324,0.13251324 0 0 0 -0.00586,-0.0195 0.13251324,0.13251324 0 0 0 -0.019531,-0.0391 0.13251324,0.13251324 0 0 0 -0.1152344,-0.0527 z m 0.4375,0.79493 0.00586,0.0117 c -0.00378,-0.0122 -0.00965,-0.031 -0.00977,-0.0312 -1.86e-5,-3e-5 -0.00322,-0.003 -0.00391,-0.004 l 0.00195,0.004 z M 5.4941406,289.375 a 0.13251324,0.13251324 0 0 0 0.013672,0.0234 0.13251324,0.13251324 0 0 0 0.00195,0.002 0.13251324,0.13251324 0 0 0 0.00195,0.004 0.13251324,0.13251324 0 0 0 0.035156,0.0469 0.13251324,0.13251324 0 0 0 0,0.002 0.13251324,0.13251324 0 0 0 0.021484,0.0293 0.13251324,0.13251324 0 0 0 0.023437,0.043 0.13251324,0.13251324 0 0 0 0.00195,0.002 0.13251324,0.13251324 0 0 0 0.039063,0.0566 0.13251324,0.13251324 0 0 0 0.00391,0.004 0.13251324,0.13251324 0 0 0 0.00195,0.002 0.13251324,0.13251324 0 0 0 0.029297,0.0469 0.13251324,0.13251324 0 0 0 0,0.002 0.13251324,0.13251324 0 0 0 0.025391,0.0469 c 0.00514,0.006 0.00704,0.0122 0.00977,0.0195 a 0.13251324,0.13251324 0 0 0 0.00195,0.006 0.13251324,0.13251324 0 0 0 0.00195,0.0117 0.13251324,0.13251324 0 0 0 0.015625,0.0527 c -0.011774,-0.002 -0.024076,-0.0111 -0.035156,-0.0117 a 0.13251324,0.13251324 0 0 0 -0.00781,0 c -0.00569,0 -0.011811,0.003 -0.017578,0.004 -0.052097,-0.0158 -0.10361,-0.0326 -0.1601563,-0.0449 l 0.025391,0.01 c -0.031029,-0.0142 -0.062083,-0.0211 -0.09375,-0.0254 l 0.074219,0.0352 c -0.043307,-0.0413 -0.085434,-0.0435 -0.1152344,-0.043 h -0.00195 c -0.00571,1.1e-4 -0.011793,0.003 -0.017578,0.004 -0.011636,-0.003 -0.023839,-0.009 -0.035156,-0.01 a 0.13251324,0.13251324 0 0 0 -0.015625,-0.002 c -0.00586,0 -0.011643,0.003 -0.017578,0.004 -0.010466,-0.003 -0.020579,-0.008 -0.03125,-0.01 L 5.25,289.67969 c -0.026673,-0.009 -0.053572,-0.0152 -0.082031,-0.0215 -0.00939,-0.004 -0.019715,-0.005 -0.029297,-0.008 0.00114,-9.9e-4 0.00271,-0.005 0.00391,-0.006 0.00553,-0.003 0.010295,-0.006 0.019531,-0.0117 a 0.13251324,0.13251324 0 0 0 0.029297,-0.0273 c 0.00586,-0.007 0.010538,-0.0163 0.015625,-0.0234 0.00404,-0.003 0.00823,-0.007 0.011719,-0.01 9.684e-4,-8.8e-4 0.00298,-0.001 0.00391,-0.002 a 0.13251324,0.13251324 0 0 0 0.025391,-0.0195 c 0.00154,-0.001 0.00422,-0.006 0.00586,-0.008 a 0.13251324,0.13251324 0 0 0 0.042969,-0.041 c 0.00411,-0.006 0.00598,-0.0135 0.00977,-0.0195 0.00295,-0.002 0.00991,-0.005 0.011719,-0.006 a 0.13251324,0.13251324 0 0 0 0.027344,-0.0195 c 0.00175,-0.002 0.00399,-0.008 0.00586,-0.01 a 0.13251324,0.13251324 0 0 0 0.00391,-0.002 0.13251324,0.13251324 0 0 0 0.021484,-0.0156 c 0.00217,-0.002 0.00544,-0.01 0.00781,-0.0117 0.00904,-0.005 0.021409,-0.0115 0.025391,-0.0137 a 0.13251324,0.13251324 0 0 0 0.00391,-0.002 c 0.00386,-0.002 0.00807,-0.006 0.011719,-0.008 0.00263,-5.3e-4 0.011192,-0.002 0.00977,-0.002 a 0.13251324,0.13251324 0 0 0 0.058594,-0.0176 z m 0.515625,0.39062 0.00586,0.01 c -0.0023,-0.003 -0.00517,-0.007 -0.00586,-0.008 1.1e-5,-6.7e-4 -9.4e-6,-0.001 0,-0.002 z m -0.703125,0.1875 a 0.13251324,0.13251324 0 0 0 0.00781,0.004 h -0.00586 c 0.00724,7.9e-4 0.00648,4.8e-4 -0.00195,-0.004 z"
       id="path4742"
       inkscape:connector-curvature="0" />
    <path
       style="color:#000000;font-style:normal;font-variant:normal;font-weight:normal;font-stretch:normal;font-size:medium;line-height:normal;font-family:sans-serif;font-variant-ligatures:normal;font-variant-position:normal;font-variant-caps:normal;font-variant-numeric:normal;font-variant-alternates:normal;font-feature-settings:normal;text-indent:0;text-align:start;text-decoration:none;text-decoration-line:none;text-decoration-style:solid;text-decoration-color:#000000;letter-spacing:normal;word-spacing:normal;text-transform:none;writing-mode:lr-tb;direction:ltr;text-orientation:mixed;dominant-baseline:auto;baseline-shift:baseline;text-anchor:start;white-space:normal;shape-padding:0;clip-rule:nonzero;display:inline;overflow:visible;visibility:visible;opacity:1;isolation:auto;mix-blend-mode:normal;color-interpolation:sRGB;color-interpolation-filters:linearRGB;solid-color:#000000;solid-opacity:1;vector-effect:none;fill:#ffffff;fill-opacity:1;fill-rule:nonzero;stroke:none;stroke-width:0.26458332px;stroke-linecap:round;stroke-linejoin:round;stroke-miterlimit:4;stroke-dasharray:none;stroke-dashoffset:0;stroke-opacity:1;color-rendering:auto;image-rendering:auto;shape-rendering:auto;text-rendering:auto;enable-background:accumulate"
       d="m 3.1855469,290.43555 c -0.028983,-0.001 -0.049841,-4.8e-4 -0.072266,0.002 a 0.13230489,0.13230489 0 0 0 -0.1171874,0.11133 0.13230489,0.13230489 0 0 0 0,0.002 0.13230489,0.13230489 0 0 0 -0.00977,0.0332 0.13230489,0.13230489 0 0 0 0,0.002 0.13230489,0.13230489 0 0 0 -0.00586,0.0586 0.13230489,0.13230489 0 0 0 -0.00391,0.0195 c -0.00332,0.0194 -0.00836,0.0423 -0.017578,0.0684 a 0.13230489,0.13230489 0 0 0 -0.00586,0.0254 0.13230489,0.13230489 0 0 0 -0.00977,0.0332 0.13230489,0.13230489 0 0 0 0,0.004 0.13230489,0.13230489 0 0 0 -0.00195,0.004 0.13230489,0.13230489 0 0 0 -0.00586,0.0684 c 4.545e-4,-0.002 7.8e-6,0.001 0,0.002 a 0.13230489,0.13230489 0 0 0 -0.00195,0.01 0.13230489,0.13230489 0 0 0 -0.00977,0.0703 0.13230489,0.13230489 0 0 0 0,0.008 0.13230489,0.13230489 0 0 0 0,0.004 0.13230489,0.13230489 0 0 0 -0.00977,0.0703 c -0.0014,0.008 -0.00203,0.0199 -0.00781,0.0352 a 0.13230489,0.13230489 0 0 0 -0.00781,0.0644 0.13230489,0.13230489 0 0 0 0,0.002 0.13230489,0.13230489 0 0 0 -0.00391,0.0176 c -0.00333,0.0195 -0.00843,0.0426 -0.017578,0.0684 a 0.13230489,0.13230489 0 0 0 -0.00586,0.0645 0.13230489,0.13230489 0 0 0 0,0.004 c -9.53e-4,0.003 -2.012e-4,0.003 -0.00195,0.008 a 0.13230489,0.13230489 0 0 0 -0.00781,0.0742 c -9.529e-4,0.003 -2.011e-4,0.003 -0.00195,0.008 a 0.13230489,0.13230489 0 0 0 -0.00391,0.0137 0.13230489,0.13230489 0 0 0 -0.00195,0.006 0.13230489,0.13230489 0 0 0 -0.00195,0.008 0.13230489,0.13230489 0 0 0 -0.00195,0.006 0.13230489,0.13230489 0 0 0 -0.00391,0.0586 0.13230489,0.13230489 0 0 0 -0.017578,0.0312 0.13230489,0.13230489 0 0 0 -0.00195,0.002 0.13230489,0.13230489 0 0 0 -0.00781,0.0215 0.13230489,0.13230489 0 0 0 0,0.002 0.13230489,0.13230489 0 0 0 0,0.002 0.13230489,0.13230489 0 0 0 0.082031,0.15821 0.13230489,0.13230489 0 0 0 0.041016,0.0234 0.13230489,0.13230489 0 0 0 0.00195,0 0.13230489,0.13230489 0 0 0 0.023437,0.008 0.13230489,0.13230489 0 0 0 0.00195,0 0.13230489,0.13230489 0 0 0 0.00391,0 0.13230489,0.13230489 0 0 0 0.00195,0.002 0.13230489,0.13230489 0 0 0 0.029297,0.006 c 0.012662,0.002 0.019552,0.006 0.019531,0.006 a 0.13230489,0.13230489 0 0 0 0.027344,0.008 c 0.051757,0.011 0.098403,0.0244 0.1425782,0.0391 a 0.13230489,0.13230489 0 0 0 0.027344,0.006 c 0,0 0.00195,0 0.00195,0 a 0.13230489,0.13230489 0 0 0 0.041016,0.0117 0.13230489,0.13230489 0 0 0 0.046875,0.01 c 0.021688,6.9e-4 0.041977,0.004 0.060547,0.008 a 0.13230489,0.13230489 0 0 0 0.00781,0.002 0.13230489,0.13230489 0 0 0 0.00391,0 0.13230489,0.13230489 0 0 0 0.027344,0.008 0.13230489,0.13230489 0 0 0 0.00781,0.002 0.13230489,0.13230489 0 0 0 0.070312,0.006 0.13230489,0.13230489 0 0 0 0.035156,0.0117 c 0.027171,0.005 0.049475,0.0111 0.066406,0.0176 a 0.13230489,0.13230489 0 0 0 0.033203,0.008 0.13230489,0.13230489 0 0 0 0.080078,0.0117 0.13230489,0.13230489 0 0 0 0.00195,0 0.13230489,0.13230489 0 0 0 0.066406,0.002 0.13230489,0.13230489 0 0 0 0.066406,-0.0137 0.13230489,0.13230489 0 0 0 0.00586,-0.002 0.13230489,0.13230489 0 0 0 0.00195,0 0.13230489,0.13230489 0 0 0 0.095703,-0.0801 c 0.011653,-0.0291 0.019969,-0.0593 0.023438,-0.0918 a 0.13230489,0.13230489 0 0 0 0.00195,-0.002 c 5.603e-4,-0.006 -0.00536,-0.0158 -0.00586,-0.0234 0.00483,-0.0174 0.011244,-0.0349 0.013672,-0.0527 a 0.13230489,0.13230489 0 0 0 0.00195,-0.006 c 5.602e-4,-0.006 -0.00536,-0.0158 -0.00586,-0.0234 0.00467,-0.0168 0.011241,-0.0335 0.013672,-0.0508 v -0.002 c 8.724e-4,-0.007 -0.00582,-0.0159 -0.00586,-0.0234 0.0059,-0.0184 0.01307,-0.0368 0.015625,-0.0566 9.393e-4,-0.007 -0.00589,-0.016 -0.00586,-0.0234 0.00773,-0.0238 0.016195,-0.0477 0.019531,-0.0723 8.15e-4,-0.006 -0.00588,-0.0145 -0.00586,-0.0215 0.00955,-0.0299 0.018424,-0.0605 0.023437,-0.0899 0.00353,-0.0182 0.00339,-0.0378 0.00391,-0.0566 0.017861,-0.0588 0.033838,-0.11538 0.046875,-0.17187 l 0.00391,-0.0156 c 0.00997,-0.0295 0.018841,-0.0584 0.023437,-0.0879 0.00267,-0.007 0.00575,-0.0152 0.00586,-0.0156 1.295e-4,-4.8e-4 0.0016,-0.0177 0.00195,-0.0352 3.94e-5,-0.002 -3.68e-5,-0.002 0,-0.004 2.028e-4,-0.0104 -2.61e-5,-0.0179 0,-0.0215 0.00359,-0.0142 0.00974,-0.0284 0.011719,-0.043 a 0.13230489,0.13230489 0 0 0 0,-0.006 c 8.394e-4,-0.01 -0.00614,-0.0231 -0.00781,-0.0351 2.296e-4,-0.0115 -2.86e-5,-0.0195 0,-0.0234 v -0.002 c -2.567e-4,-8.4e-4 3.703e-4,-0.003 0,-0.004 -1.34e-5,-6e-5 -0.00151,-0.005 -0.00195,-0.006 -0.00386,-0.0124 -0.00966,-0.0271 -0.00977,-0.0273 -1.334e-4,-2.7e-4 -0.017346,-0.0231 -0.023437,-0.0312 -0.0011,-0.001 -0.00387,-0.006 -0.00391,-0.006 -1.019e-4,-10e-5 -0.00811,-0.004 -0.011719,-0.006 -0.00354,-0.005 -0.00773,-0.0116 -0.00781,-0.0117 -2.244e-4,-2.2e-4 -0.013065,-0.007 -0.025391,-0.0137 -0.00228,-0.001 -0.00158,-0.003 -0.00391,-0.004 l -0.00391,-0.004 c -0.00572,-0.004 -0.010461,-0.013 -0.015625,-0.0156 -0.017443,-0.009 -0.036506,-0.0113 -0.054687,-0.0156 l -0.039063,-0.01 c -0.01977,-0.006 -0.038901,-0.0143 -0.060547,-0.0176 a 0.13230489,0.13230489 0 0 0 -0.00977,-0.002 c -0.015267,-0.001 -0.021015,0.002 -0.03125,0.004 -0.00916,-0.002 -0.02083,-0.007 -0.029297,-0.008 -0.015647,-0.001 -0.020847,0.002 -0.03125,0.004 -0.00816,-0.001 -0.017787,-0.007 -0.025391,-0.008 h -0.00195 c -0.024127,-0.004 -0.049364,-0.008 -0.080078,-0.008 a 0.13230489,0.13230489 0 0 0 -0.00391,0 c -0.022094,5.9e-4 -0.04281,0.005 -0.064453,0.008 -0.018926,-0.002 -0.03764,-0.005 -0.060547,-0.004 a 0.13230489,0.13230489 0 0 0 -0.00391,0 c -0.020047,0.001 -0.033726,0.006 -0.048828,0.01 -0.00355,-7e-5 -0.010482,-0.004 -0.013672,-0.004 -0.013991,-3.2e-4 -0.021644,0.002 -0.03125,0.004 -0.00415,-1.1e-4 -0.011943,-0.004 -0.015625,-0.004 -0.00768,-1.9e-4 -0.011445,0.001 -0.017578,0.002 -0.00772,-0.001 -0.013088,-0.002 -0.017578,-0.002 -0.011395,-4.1e-4 -0.017069,0.003 -0.025391,0.004 -0.00916,-0.002 -0.02083,-0.007 -0.029297,-0.008 a 0.13230489,0.13230489 0 0 0 -0.1269531,-0.10937 z m 0.4589843,0.36914 c 0.017037,0 0.031428,0.001 0.044922,0.004 a 0.13230489,0.13230489 0 0 0 0.00586,0 0.13230489,0.13230489 0 0 0 0.072266,0.01 0.13230489,0.13230489 0 0 0 0.058594,0.004 c 6.743e-4,1.5e-4 0.0013,-1.6e-4 0.00195,0 0.00492,0.001 0.00988,0.003 0.013672,0.004 a 0.13230489,0.13230489 0 0 0 0,0.043 0.13230489,0.13230489 0 0 0 0,0.004 c -0.0022,0.0141 -0.00776,0.0332 -0.015625,0.0547 a 0.13230489,0.13230489 0 0 0 -0.00391,0.0156 c -0.013067,0.0584 -0.029391,0.11883 -0.048828,0.18164 a 0.13230489,0.13230489 0 0 0 -0.00586,0.0547 c 1.733e-4,0.002 2.997e-4,0.007 -0.00195,0.0176 a 0.13230489,0.13230489 0 0 0 0,0.004 c -0.00332,0.0194 -0.010314,0.0423 -0.019531,0.0684 a 0.13230489,0.13230489 0 0 0 -0.00586,0.0684 c -0.00177,0.007 -0.00206,0.0134 -0.00586,0.0234 a 0.13230489,0.13230489 0 0 0 -0.00586,0.0723 c -9.576e-4,0.003 -1.792e-4,0.003 -0.00195,0.008 a 0.13230489,0.13230489 0 0 0 -0.00781,0.0742 c -0.00176,0.007 -0.00231,0.0122 -0.00586,0.0215 a 0.13230489,0.13230489 0 0 0 -0.00586,0.0703 0.13230489,0.13230489 0 0 0 -0.03125,0.002 0.13230489,0.13230489 0 0 0 -0.00391,0 c -0.00638,-0.001 -0.013246,-0.005 -0.019531,-0.006 -0.026787,-0.008 -0.053645,-0.0183 -0.082031,-0.0234 l 0.037109,0.0137 c -0.031853,-0.0166 -0.062273,-0.0222 -0.091797,-0.0254 -0.014031,-0.002 -0.03185,5.6e-4 -0.048828,0.002 -0.00955,-0.002 -0.020209,-0.009 -0.029297,-0.01 -0.010759,-0.002 -0.023013,-0.009 -0.033203,-0.01 -0.024112,-0.004 -0.050237,-0.008 -0.080078,-0.01 -5.936e-4,-1.2e-4 -0.00136,1.1e-4 -0.00195,0 h -0.00391 c -0.00973,-0.002 -0.020037,-0.009 -0.029297,-0.01 -0.012964,-0.003 -0.026492,-0.0104 -0.039063,-0.0117 l 0.027344,0.006 c -0.045843,-0.0152 -0.094636,-0.0257 -0.1445313,-0.0371 l -0.017578,-0.006 c 8.7e-5,-6.2e-4 -8.39e-5,-0.001 0,-0.002 a 0.13230489,0.13230489 0 0 0 0,-0.006 c 3.259e-4,-0.004 -0.00564,-0.008 -0.00586,-0.0117 0.00869,-0.0238 0.014426,-0.0482 0.017578,-0.0742 8.779e-4,-0.006 -0.00393,-0.0145 -0.00391,-0.0215 0.00637,-0.0196 0.011107,-0.0394 0.013672,-0.0605 8.012e-4,-0.006 -0.004,-0.0132 -0.00391,-0.0195 0.0101,-0.0311 0.018245,-0.0614 0.023437,-0.0918 l -0.011719,0.0332 c 0.01042,-0.0219 0.017674,-0.048 0.019531,-0.0801 4.192e-4,-0.005 -0.00387,-0.0105 -0.00391,-0.0156 0.00677,-0.0211 0.014271,-0.0427 0.017578,-0.0645 0.00234,-0.0132 -0.00363,-0.0299 -0.00391,-0.0449 0.00373,-0.0122 0.00886,-0.0234 0.00977,-0.0391 0.00189,-0.013 0.00205,-0.0273 0.00195,-0.041 0.00379,-0.012 0.00674,-0.0237 0.00781,-0.0391 0.00179,-0.0117 -2.054e-4,-0.0248 0,-0.0371 l 0.00195,-0.004 c 5e-7,-6.5e-4 4.8e-6,-0.001 0,-0.002 0.00496,-0.0157 0.011799,-0.0289 0.011719,-0.0508 a 0.13230489,0.13230489 0 0 0 0.00391,0 0.13230489,0.13230489 0 0 0 0.039063,0.002 0.13230489,0.13230489 0 0 0 0.060547,0.002 0.13230489,0.13230489 0 0 0 0.00195,0 0.13230489,0.13230489 0 0 0 0.050781,0 0.13230489,0.13230489 0 0 0 0.033203,0 0.13230489,0.13230489 0 0 0 0.00391,0 0.13230489,0.13230489 0 0 0 0.044922,0 0.13230489,0.13230489 0 0 0 0.060547,-0.002 c 0.015276,-0.004 0.020895,-0.006 0.021484,-0.006 0.012235,-5.3e-4 0.022878,4.3e-4 0.03125,0.002 a 0.13230489,0.13230489 0 0 0 0.044922,0.002 c 0.019035,-0.003 0.032732,-0.005 0.041016,-0.006 z m 0.4511719,0.12695 -0.00977,0.0293 c 0.00223,-0.004 0.0016,-0.0134 0.00391,-0.0176 0.00216,-0.003 0.00311,-0.007 0.00586,-0.0117 z m -0.984375,0.4668 -0.00391,0.0605 c -2.926e-4,-0.003 -0.00529,-0.005 -0.00586,-0.008 0.00406,-0.0181 0.015096,-0.0275 0.00977,-0.0527 z"
       id="path4746"
       inkscape:connector-curvature="0" />
  </g>
</svg>
