<?xml version="1.0" encoding="UTF-8" standalone="no"?>
<!-- Created with Inkscape (http://www.inkscape.org/) -->

<svg
   xmlns:dc="http://purl.org/dc/elements/1.1/"
   xmlns:cc="http://creativecommons.org/ns#"
   xmlns:rdf="http://www.w3.org/1999/02/22-rdf-syntax-ns#"
   xmlns:svg="http://www.w3.org/2000/svg"
   xmlns="http://www.w3.org/2000/svg"
   xmlns:sodipodi="http://sodipodi.sourceforge.net/DTD/sodipodi-0.dtd"
   xmlns:inkscape="http://www.inkscape.org/namespaces/inkscape"
   id="svg2"
   version="1.1"
   inkscape:version="0.48.5 r10040"
   width="512"
   height="512"
   sodipodi:docname="cs-session-properties.svg">
  <metadata
     id="metadata8">
    <rdf:RDF>
      <cc:Work
         rdf:about="">
        <dc:format>image/svg+xml</dc:format>
        <dc:type
           rdf:resource="http://purl.org/dc/dcmitype/StillImage" />
        <dc:title />
      </cc:Work>
    </rdf:RDF>
  </metadata>
  <defs
     id="defs6" />
  <sodipodi:namedview
     pagecolor="#ffffff"
     bordercolor="#666666"
     borderopacity="1"
     objecttolerance="10"
     gridtolerance="10"
     guidetolerance="10"
     inkscape:pageopacity="0"
     inkscape:pageshadow="2"
     inkscape:window-width="1214"
     inkscape:window-height="657"
     id="namedview4"
     showgrid="false"
     inkscape:zoom="0.65186406"
     inkscape:cx="102.2167"
     inkscape:cy="315.9612"
     inkscape:window-x="15"
     inkscape:window-y="39"
     inkscape:window-maximized="0"
     inkscape:current-layer="svg2" />
  <path
     style="fill:#ececec;fill-opacity:1;fill-rule:nonzero;stroke:none"
     d="m 104.92921,455.38729 c -3.40731,-31.81718 2.56379,-42.01976 11.73962,-20.05893 6.3686,15.24216 12.75846,17.33634 31.34088,10.27131 18.78873,-7.14346 14.25271,-1.00766 -8.77927,11.87557 -12.38855,6.92973 -24.55334,15.0938 -27.03291,18.14241 -3.57394,4.39424 -5.08024,0.20163 -7.26832,-20.23036 z"
     id="path3009"
     inkscape:connector-curvature="0" />
  <path
     style="fill:#f03916;fill-opacity:1"
     d="m 188.98576,478.96903 c -5.53925,-3.87982 -4.96295,-7.35983 2.28076,-13.77295 12.41239,-10.98909 17.092,-35.47562 9.69856,-50.74845 -2.04246,-4.21913 -3.44987,-8.77311 -3.12761,-10.12 0.74574,-3.11681 42.7895,-42.64073 52.82854,-49.66226 7.19207,-5.03042 7.81722,-5.15761 12.76742,-2.59771 14.19451,7.34022 23.35482,22.61357 23.41738,39.0443 0.0483,12.61229 -2.77572,19.72071 -13.12523,33.04357 -15.90827,20.4784 -37.24611,37.83694 -60.27595,49.03493 -17.52753,8.52259 -19.78496,9.0558 -24.46387,5.77857 z"
     id="path3023"
     inkscape:connector-curvature="0" />
  <path
     style="fill:#f03916;fill-opacity:1"
     d="m 78.081405,410.91176 c -6.12622,-6.12621 -2.64702,-43.74457 6.28263,-67.92969 4.43189,-12.00341 15.48381,-31.7787 22.262905,-39.83519 5.91045,-7.02418 20.99651,-14.33778 32.34834,-15.68223 12.10588,-1.43375 27.60974,3.19069 35.77062,10.6696 l 6.30193,5.77527 -3.07605,10.67207 c -1.69181,5.86961 -7.01085,21.93143 -11.82005,35.6929 l -8.74402,25.02086 -16.49335,0 c -14.944,0 -17.39298,0.4983 -26.0706,5.30469 -10.9745,6.07858 -20.986305,16.87168 -22.641675,24.40861 -1.7434,7.93755 -9.03714,10.98668 -14.12068,5.90311 z"
     id="path3019"
     inkscape:connector-curvature="0" />
  <path
     style="fill:#f03916;fill-opacity:1"
     d="m 313.30461,218.58687 c -31.79629,-5.43655 -55.00496,-30.59524 -55.0085,-60.62371 -10e-4,-24.3566 16.71991,-47.62217 40.90064,-56.90286 17.12632,-6.573094 37.52022,-5.947878 53.75191,1.64788 24.03264,11.24622 37.34077,31.00213 37.34077,55.43206 0,28.55676 -22.56132,55.16468 -50.70242,59.79626 -14.77806,2.43227 -17.25123,2.19455 -26.2824,0.65037 z"
     id="path3017"
     inkscape:connector-curvature="0"
     sodipodi:nodetypes="scsssss" />
  <path
     style="fill:#f03916;fill-opacity:1"
     d="M 397.78119,96.147365 C 384.91584,93.352261 368.49089,85.084246 358.0506,76.147839 351.45332,70.500818 340.12117,56.055201 340.12117,53.29238 c 0,-2.137599 23.31909,-11.700742 35.31552,-14.482915 29.31908,-6.79956 42.11743,5.220182 44.61771,41.90381 1.33916,19.648255 0.33297,20.345465 -22.27321,15.43409 z"
     id="path2986"
     inkscape:connector-curvature="0" />
  <path
     inkscape:connector-curvature="0"
     id="path2984"
     d="m 315.35691,203.83408 c -39.19105,-7.47641 -54.59049,-51.35516 -27.52274,-78.42278 25.04924,-25.04922 68.66275,-18.0867 83.54355,13.33701 16.30467,34.43024 -16.5606,72.61352 -56.02081,65.08577 z"
     style="fill:#00bbf2;fill-opacity:1" />
  <ellipse
     style="fill:#ffcc00;fill-opacity:1;fill-rule:nonzero;stroke:none"
     id="path3005"
     transform="matrix(0.66693516,-1.0641003,1.0641003,0.66693512,-69.696963,-62.927324)"
     cx="-232.80733"
     cy="352.22955"
     rx="60.855618"
     ry="27.289515"
     sodipodi:cx="-232.80733"
     sodipodi:cy="352.22955"
     sodipodi:rx="60.855618"
     sodipodi:ry="27.289515" />
  <path
     style="fill:#394050;fill-opacity:1;fill-rule:nonzero;stroke:none"
     d="m 171.41924,390.83134 c -6.68049,-4.88489 -2.62848,-2.06367 18.09089,-32.4884 21.43876,-31.48107 29.03885,-37.19382 16.81371,-37.19382 -5.6047,0 -8.24233,10.47924 -34.33936,48.50903 -12.4076,18.08093 -8.4237,17.49244 -23.76785,6.92039 -7.73814,-5.33157 -9.44938,-2.76637 2.45438,-41.08202 14.51992,-46.73652 46.55461,-126.09696 61.03721,-151.20923 27.47015,-47.63216 66.1957,-91.616154 102.77065,-116.725531 12.14493,-8.337795 23.61826,-15.15963 25.49606,-15.15963 1.87782,0 7.6144,4.470864 12.74795,9.935278 13.93304,14.831109 32.14358,24.925028 50.89224,28.208938 l 16.73359,2.930985 -0.50237,19.20495 c -0.70631,27.00279 -20.61599,74.73253 -41.40242,108.18303 -9.7047,15.61715 -31.15736,45.86028 -50.6343,65.42985 -36.60961,36.78371 -99.35929,99.13679 -129.7724,117.48943 -1.67575,1.01122 -22.70775,-10.09402 -26.61798,-12.95325 z M 342.71472,215.48778 c 19.93894,-5.53551 40.35779,-30.30938 42.59582,-45.21928 6.64072,-44.24075 -18.32434,-71.338477 -59.95636,-71.338477 -57.38873,0 -86.17711,62.077257 -46.26016,99.752497 10.95841,10.34286 30.03134,18.19266 41.35487,19.0998 3.19876,0.1503 13.78394,0.0601 22.26583,-2.29454 z"
     id="path3007"
     inkscape:connector-curvature="0"
     sodipodi:nodetypes="ssssssssssscssssssssscs" />
  <path
     style="fill:#f03916;fill-opacity:1"
     d="m 136.15903,425.08424 c 0,-2.2466 11.33031,-21.34734 25.17849,-42.44609 43.54827,-66.34924 41.33593,-63.32407 46.76664,-63.94873 5.91109,-0.67993 8.06739,3.27473 5.2077,9.55105 -1.07471,2.35874 -11.44156,17.38698 -23.03748,33.39611 -11.59589,16.00909 -23.97804,33.53081 -27.51585,38.9371 -16.11306,24.62306 -26.5995,34.28594 -26.5995,24.51056 z"
     id="path3021"
     inkscape:connector-curvature="0" />
</svg>
