<svg viewBox="0 0 449.53 379" xmlns="http://www.w3.org/2000/svg"><g transform="translate(-31.47 -67)"><path d="m360 443v-107h118v107zm-143 0v-265h-8.45c-18.39.27-34 4.72-45.13 12.86-10.83 7.93-16.57 18.86-16.59 31.6 0 20.06 8 32.36 14.8 39.14 8.61 8.63 17.81 11.42 20.92 11.42h8.45v91h-16v-.35c-46.57-1.16-70.25-14-97.2-37.1-28.76-24.87-43.33-59-43.33-101.43 0-47.75 14.11-84.73 43.14-113.06 34.66-40.08 103.94-42.08 117.49-42.08h140.9v148l124-1.83v74.83h-123l-.6 152zm143-265v-107h118v107z" fill="#006982"/><path d="m195.1 73h137.9v148l124-1.82v68.82h-123l-.59 152h-113.41v-265h-11.45c-38.82.57-64.67 19.45-64.72 47.45-.07 39.76 30.11 53.57 38.72 53.57h.55 4.9v85h-10v-.29c-47-.66-70.79-12.91-98.25-36.44-28.06-24.29-42.28-57.7-42.28-99.17 0-46.92 13.84-83.25 42.33-111 30.07-34.85 89.43-41.12 115.3-41.12m279.9 1v101h-112v-101zm0 265v101h-112v-101zm-279.9-272c-13.77 0-84.1 2.07-119.67 43-29.58 28.91-44 66.57-44 115.12 0 43.35 14.92 78.23 44.35 103.69 16.05 13.74 29.05 22.06 43.5 27.83 15 6 31.86 9.17 52.68 9.92v.44h22v-97h-11.1-.25-.06c-2.21 0-10.77-2.5-18.8-10.54-6.37-6.38-13.95-18-13.92-37 0-11.74 5.34-21.83 15.37-29.18 10.6-7.77 25.61-12 43.39-12.28h5.41v265h125.38v-6l.62-146h123v-80.91l-6.09.09-117.91 1.73v-147.91zm285.9 1h-124v113h124zm0 265h-124v113h124z" fill="#fff"/></g></svg>