<svg id="Capa_1" enable-background="new 0 0 502 502" height="512" viewBox="0 0 502 502" width="512" xmlns="http://www.w3.org/2000/svg" xmlns:xlink="http://www.w3.org/1999/xlink"><linearGradient id="lg1"><stop offset="0" stop-color="#7ed99e"/><stop offset=".2532" stop-color="#81daa3"/><stop offset=".5725" stop-color="#88ddb3"/><stop offset=".9261" stop-color="#95e2cd"/><stop offset="1" stop-color="#98e3d3"/></linearGradient><linearGradient id="SVGID_1_" gradientUnits="userSpaceOnUse" x1="159.961" x2="58.999" xlink:href="#lg1" y1="361.16" y2="361.16"/><linearGradient id="lg2"><stop offset="0" stop-color="#cdd4d4"/><stop offset="1" stop-color="#f3f3f3"/></linearGradient><linearGradient id="SVGID_2_" gradientUnits="userSpaceOnUse" x1="299.955" x2="299.955" xlink:href="#lg2" y1="366.652" y2="478.293"/><linearGradient id="lg3"><stop offset="0" stop-color="#e08243"/><stop offset="1" stop-color="#f0bb78"/></linearGradient><linearGradient id="SVGID_3_" gradientUnits="userSpaceOnUse" x1="288.299" x2="331.841" xlink:href="#lg3" y1="481.597" y2="481.597"/><linearGradient id="SVGID_4_" gradientUnits="userSpaceOnUse" x1="217.123" x2="217.123" xlink:href="#lg2" y1="357.3" y2="476.783"/><linearGradient id="SVGID_5_" gradientUnits="userSpaceOnUse" x1="176.445" x2="221.481" xlink:href="#lg3" y1="479.62" y2="479.62"/><linearGradient id="SVGID_6_" gradientUnits="userSpaceOnUse" x1="353.908" x2="404.403" xlink:href="#lg2" y1="326.27" y2="326.27"/><linearGradient id="SVGID_7_" gradientUnits="userSpaceOnUse" x1="414.373" x2="414.373" xlink:href="#lg3" y1="386.969" y2="345.17"/><linearGradient id="lg4"><stop offset="0" stop-color="#b39bdb"/><stop offset="1" stop-color="#d0c3e8"/></linearGradient><linearGradient id="SVGID_8_" gradientUnits="userSpaceOnUse" x1="156.389" x2="39.508" xlink:href="#lg4" y1="164.134" y2="164.134"/><linearGradient id="SVGID_9_" gradientUnits="userSpaceOnUse" x1="241.723" x2="241.723" xlink:href="#lg4" y1="91.811" y2="11.166"/><linearGradient id="SVGID_10_" gradientUnits="userSpaceOnUse" x1="332.283" x2="332.283" xlink:href="#lg2" y1="126.571" y2="45.888"/><linearGradient id="SVGID_11_" gradientUnits="userSpaceOnUse" x1="258.532" x2="258.532" xlink:href="#lg2" y1="245.976" y2="414.77"/><linearGradient id="lg5"><stop offset="0" stop-color="#6ac65e"/><stop offset="1" stop-color="#afd986"/></linearGradient><linearGradient id="SVGID_12_" gradientUnits="userSpaceOnUse" x1="298.537" x2="298.537" xlink:href="#lg5" y1="358.29" y2="318.951"/><linearGradient id="SVGID_13_" gradientUnits="userSpaceOnUse" x1="246.685" x2="359.519" xlink:href="#lg5" y1="402.942" y2="402.942"/><linearGradient id="lg6"><stop offset="0" stop-color="#d9e0e0"/><stop offset="1" stop-color="#f3f3f3"/></linearGradient><linearGradient id="SVGID_14_" gradientUnits="userSpaceOnUse" x1="78.271" x2="388.588" xlink:href="#lg6" y1="194.969" y2="194.969"/><linearGradient id="SVGID_15_" gradientUnits="userSpaceOnUse" x1="199.567" x2="445.588" y1="180.126" y2="180.126"><stop offset="0" stop-color="#4e5660"/><stop offset="1" stop-color="#64768d"/></linearGradient><linearGradient id="SVGID_16_" gradientUnits="userSpaceOnUse" x1="256.354" x2="355.924" y1="104.547" y2="104.547"><stop offset="0" stop-color="#f4d952"/><stop offset="1" stop-color="#f9edaf"/></linearGradient><linearGradient id="SVGID_17_" gradientUnits="userSpaceOnUse" x1="256.35" x2="335.876" y1="65.913" y2="65.913"><stop offset="0" stop-color="#ec6f80"/><stop offset="1" stop-color="#eca0aa"/></linearGradient><linearGradient id="SVGID_18_" gradientUnits="userSpaceOnUse" x1="271.945" x2="333.287" xlink:href="#lg1" y1="26.691" y2="26.691"/><linearGradient id="SVGID_19_" gradientUnits="userSpaceOnUse" x1="175.614" x2="175.614" xlink:href="#lg2" y1="176.585" y2="81.081"/><linearGradient id="SVGID_20_" gradientUnits="userSpaceOnUse" x1="243.933" x2="243.933" xlink:href="#lg6" y1="389.168" y2="339.721"/><linearGradient id="SVGID_21_" gradientUnits="userSpaceOnUse" x1="307.41" x2="307.41" xlink:href="#lg3" y1="396.532" y2="346.347"/><g><path d="m170.171 409.78c27.463-12.806 39.344-45.45 26.538-72.913s-45.451-39.344-72.913-26.538c-23.668 11.036-37.426 38.117-64.767 39.506-9.516.483-15.225 10.877-10.089 18.903 30.315 47.376 85.881 57.526 121.231 41.042z" fill="url(#SVGID_1_)"/><g fill="#a7f2d2"><path d="m128.351 407.088c-.345 0-.693-.018-1.044-.054-4.205-.436-8.497-1.214-12.756-2.311-5.348-1.379-8.566-6.831-7.188-12.179s6.83-8.566 12.179-7.188c3.301.851 6.607 1.451 9.828 1.785 5.494.57 9.485 5.485 8.915 10.978-.533 5.142-4.875 8.969-9.934 8.969z"/><path d="m84.702 389.126c-2.2 0-4.415-.723-6.262-2.209-5.359-4.312-10.3-9.253-14.684-14.686-3.468-4.298-2.796-10.594 1.502-14.062s10.594-2.794 14.062 1.503c3.487 4.322 7.409 8.246 11.656 11.663 4.303 3.462 4.985 9.757 1.523 14.06-1.975 2.455-4.874 3.731-7.797 3.731z"/></g><path d="m295.568 476.102c19.16 5.494 37.393.681 49.422-14.75-9.293-25.942-23.653-53.841-42.785-83.056-7.789-11.895-23.746-15.225-35.642-7.434-11.895 7.79-15.224 23.747-7.434 35.643 16.263 24.835 28.489 48.2 36.439 69.597z" fill="url(#SVGID_2_)"/><path d="m347.363 468.229c-.745-2.274-1.546-4.571-2.372-6.876-14.627-1.434-37.813 7.073-49.422 14.75 1.023 2.753 1.984 5.477 2.865 8.163 4.428 13.512 18.97 20.875 32.483 16.447 13.51-4.429 20.874-18.972 16.446-32.484z" fill="url(#SVGID_3_)"/><path d="m187.841 457.241c10.9 16.753 31.55 22.379 48.146 18.239 17.022-41.891 8.908-65.296 5.254-95.519-1.706-14.116-14.537-24.182-28.647-22.471-14.116 1.705-24.177 14.531-22.471 28.647 3.893 32.228 9.493 43.182-2.282 71.104z" fill="url(#SVGID_4_)"/><path d="m230.704 487.399c1.992-4.144 3.732-8.101 5.284-11.919-9.698-8.996-35.053-16.329-48.146-18.239-1.046 2.48-2.214 5.08-3.548 7.855-6.159 12.815-.762 28.197 12.054 34.357 12.799 6.15 28.189.778 34.356-12.054z" fill="url(#SVGID_5_)"/><path d="m420.476 325.021c-22.929-15.856-53.149-26.349-78.084-35.992-13.261-5.131-28.171 1.462-33.299 14.724-5.129 13.261 1.463 28.17 14.724 33.299 18.45 7.137 46.119 16.836 64.141 28.2 16.259-8.158 26.415-25.11 32.518-40.231z" fill="url(#SVGID_6_)"/><path d="m432.353 334.382c-3.658-3.322-7.643-6.433-11.877-9.361-13.972 6.495-28.982 28.603-32.518 40.231 3.722 2.347 7.043 4.763 9.775 7.245 10.514 9.551 26.798 8.789 36.368-1.747 9.559-10.526 8.777-26.808-1.748-36.368z" fill="url(#SVGID_7_)"/><path d="m236.754 142.16c.126-40.119-32.663-74.062-72.782-74.072-40.216-.01-72.82 32.589-72.82 72.802 0 12.584-.123 37.554-19.994 49.153-18.495 10.796-18.62 37.67-.254 48.683 39.902 23.925 98.097 32.521 145.058 1.046 0 .001 20.56-23.518 20.792-97.612z" fill="url(#SVGID_8_)"/><circle cx="241.723" cy="85.019" fill="url(#SVGID_9_)" r="72.802"/><path d="m355.821 50.108c-21.317-7.759-56.941 24.247-66.318 62.111-5.453 22.02 5.783 37.879 27.1 45.638s40.118 2.832 50.095-17.541c17.157-35.032 10.44-82.449-10.877-90.208z" fill="url(#SVGID_10_)"/><path d="m312.694 255.352c66.276 64.358 57.609 129.632 39.256 148.979s-48.431 28.104-93.418 28.104-75.065-8.757-93.418-28.104-27.02-84.621 39.256-148.979z" fill="url(#SVGID_11_)"/><path d="m310.952 374.906c10.814-4.991 39.077-43.327 22.211-54.295-13.308-8.654-22.398 9.447-34.626 9.447s-21.318-18.101-34.626-9.447c-16.865 10.968 11.398 49.304 22.211 54.295z" fill="url(#SVGID_12_)"/><path d="m352.644 416.808c0-24.792-24.225-58.755-54.107-58.755-29.883 0-54.107 33.964-54.107 58.755s24.225 31.023 54.107 31.023c29.882-.001 54.107-6.232 54.107-31.023z" fill="url(#SVGID_13_)"/><path d="m292.23 389.922c-13.001-.73-24.835-2.606-36.422-5.89-5.618 8.222-9.446 17.402-10.813 26.007 14.572 4.424 29.412 6.926 45.686 7.839 8.059.452 14.865-5.903 14.865-13.975 0-7.466-5.862-13.563-13.316-13.981z" fill="#04b048"/><path d="m445.588 178.508c-16.049-8.464-31.109-23.723-41.036-47.446-35.823-27.79-85.272-46.043-129.827-46.043-83.359 0-125.99 50.92-125.99 113.734s40.46 106.167 150.933 106.167 152.33-30.002 155.223-85.296c.74-14.131-2.691-27.987-9.303-41.116z" fill="url(#SVGID_14_)"/><path d="m404.551 131.062c-6.538-1.927-13.262-2.935-19.691-2.935-34.834 0-50.266 23.52-62.279 23.52s-27.445-23.52-62.279-23.52c-27.614 0-60.736 18.377-60.736 50 0 27.614 21.135 54 60.736 54 43.716 0 42.782-33.454 62.279-33.454s18.563 33.454 62.279 33.454c39.418 0 60.533-26.143 60.727-53.618-8.793-17.462-23.228-33.633-41.036-47.447z" fill="url(#SVGID_15_)"/><g><ellipse cx="234.696" cy="207.744" fill="#eaadcd" rx="14.936" ry="12.003"/><ellipse cx="410.467" cy="207.744" fill="#eaadcd" rx="14.936" ry="12.003"/><circle cx="260.303" cy="178.126" fill="#fff" r="29.618"/><circle cx="384.861" cy="178.126" fill="#fff" r="29.618"/><path d="m250.52 188.557c-1.222 0-2.46-.299-3.606-.929-3.63-1.996-4.955-6.556-2.959-10.186 3.279-5.963 9.543-9.668 16.349-9.668 6.806 0 13.07 3.705 16.348 9.668 1.996 3.63.671 8.19-2.959 10.186-3.631 1.996-8.19.67-10.186-2.959-.94-1.71-2.554-1.895-3.204-1.895s-2.265.185-3.205 1.895c-1.365 2.483-3.931 3.888-6.578 3.888z" fill="#3b3b44"/><path d="m394.644 188.557c-2.647 0-5.213-1.404-6.579-3.888-.94-1.71-2.554-1.895-3.204-1.895s-2.264.185-3.204 1.895c-1.996 3.629-6.557 4.954-10.185 2.959-3.63-1.996-4.955-6.556-2.959-10.186 3.278-5.963 9.543-9.668 16.348-9.668 6.806-.001 13.07 3.704 16.349 9.668 1.996 3.629.671 8.19-2.959 10.186-1.147.629-2.385.929-3.607.929z" fill="#3b3b44"/><g><path d="m369.409 267.136h-23.342c-6.508 0-11.784-5.276-11.784-11.784 0-6.508 5.276-11.784 11.784-11.784h23.342c6.508 0 11.784 5.276 11.784 11.784 0 6.508-5.276 11.784-11.784 11.784z" fill="#3b3b44"/></g></g><g><path d="m258.625 98.824c-1.457 14.436 15.155 29.066 37.965 33.088 23.489 4.142 44.652-4.534 47.269-19.377 1.592-9.028 2.122-21.111 1.631-34.011-30.965-5.885-55.293-1.465-86.865 20.3z" fill="url(#SVGID_16_)"/><path d="m291.568 101.185c-1.899-.937-3.362-1.909-4.369-2.738.245-1.032.529-2.115.831-3.22-9.705-.861-17.472-.66-29.404 3.596-1.059 10.49 7.419 21.082 20.888 27.633 8.326 4.049 18.217-1.022 19.825-10.139l.016-.091c1.093-6.196-2.145-12.256-7.787-15.041z" fill="#fcb500"/><path d="m339.587 33.344c-22.517-1.543-44.524 1.631-65.608 20.039-7.398 15.883-13.075 32.212-15.18 44.155-.076.429-.131.857-.174 1.287 26.219-1.881 56.437-7.463 86.865-20.3-.577-15.141-2.564-31.402-5.903-45.181z" fill="url(#SVGID_17_)"/><path d="m287.459 56.285c-7.114-2.825-15.189.585-18.113 7.659-5.099 12.336-8.907 24.293-10.547 33.593-.076.428-.129.858-.172 1.286 9.348-.67 19.211-1.824 29.404-3.596 1.665-6.09 4.161-13.215 7.19-20.551 2.984-7.229-.493-15.505-7.762-18.391z" fill="#e05d6f"/><path d="m339.587 33.344c-4.343-17.924-10.972-31.644-19.764-33.194-13.691-2.414-32.548 24.687-45.844 53.232 20.776-3.031 43.386-9.047 65.608-20.038z" fill="url(#SVGID_18_)"/></g><path d="m152.076 50.138c21.317-7.759 56.941 24.247 66.318 62.111 5.453 22.02-5.783 37.879-27.1 45.638s-40.118 2.832-50.095-17.541c-17.157-35.032-10.44-82.449 10.877-90.208z" fill="url(#SVGID_19_)"/><path d="m288.896 338.081c-17.258-1.678-33.092-6.855-55.685-20.64-12.141-7.408-27.983-3.569-35.387 8.569-7.406 12.138-3.569 27.981 8.569 35.387 29.02 17.706 52.642 26.056 81.885 28.264 6.351-16.591 8.103-34.979.618-51.58z" fill="url(#SVGID_20_)"/><path d="m331.292 364.533c0-14.219-11.527-25.745-25.745-25.745-5.848 0-11.317-.188-16.651-.707-5.224 10.685-8.59 38.167-.618 51.58 5.531.418 11.261.618 17.269.618 14.218 0 25.745-11.527 25.745-25.746z" fill="url(#SVGID_21_)"/></g></svg>