<?xml version="1.0" encoding="UTF-8" standalone="no"?>
<svg
   xmlns:dc="http://purl.org/dc/elements/1.1/"
   xmlns:cc="http://creativecommons.org/ns#"
   xmlns:rdf="http://www.w3.org/1999/02/22-rdf-syntax-ns#"
   xmlns:svg="http://www.w3.org/2000/svg"
   xmlns="http://www.w3.org/2000/svg"
   xmlns:sodipodi="http://sodipodi.sourceforge.net/DTD/sodipodi-0.dtd"
   xmlns:inkscape="http://www.inkscape.org/namespaces/inkscape"
   width="1450"
   height="1450"
   viewBox="0 0 383.64584 383.64585"
   version="1.1"
   id="svg8"
   inkscape:version="1.0 (1.0+r73+1)"
   sodipodi:docname="Elpida-icon-minimal-circle-bg.svg"
   inkscape:export-filename="/media/klapeto/Αρχεία/Code/elpida/apps/Qt/Images/Elpida-icon-2.png"
   inkscape:export-xdpi="52.965519"
   inkscape:export-ydpi="52.965519">
  <title
     id="title994">Elpida</title>
  <defs
     id="defs2">
    <clipPath
       clipPathUnits="userSpaceOnUse"
       id="clipPath1037">
      <rect
         y="-246.38968"
         x="370.11816"
         height="256.93884"
         width="256.93884"
         id="rect1039"
         style="opacity:1;fill:#fbbb07;stroke:#ffffff;stroke-width:0.224816;stroke-linecap:round;stroke-linejoin:round" />
    </clipPath>
  </defs>
  <sodipodi:namedview
     id="base"
     pagecolor="#ffffff"
     bordercolor="#666666"
     borderopacity="1.0"
     inkscape:pageopacity="0.0"
     inkscape:pageshadow="2"
     inkscape:zoom="0.088388351"
     inkscape:cx="-2936.1394"
     inkscape:cy="5817.0578"
     inkscape:document-units="px"
     inkscape:current-layer="layer2"
     showgrid="false"
     inkscape:window-width="3840"
     inkscape:window-height="2055"
     inkscape:window-x="3840"
     inkscape:window-y="0"
     inkscape:window-maximized="1"
     fit-margin-top="5"
     fit-margin-left="5"
     fit-margin-right="5"
     fit-margin-bottom="0"
     inkscape:measure-start="772.654,759.868"
     inkscape:measure-end="694.75,989.625"
     inkscape:snap-nodes="false"
     inkscape:snap-others="false"
     showguides="false"
     units="px"
     scale-x="1"
     inkscape:object-paths="true"
     inkscape:document-rotation="0" />
  <metadata
     id="metadata5">
    <rdf:RDF>
      <cc:Work
         rdf:about="">
        <dc:format>image/svg+xml</dc:format>
        <dc:type
           rdf:resource="http://purl.org/dc/dcmitype/StillImage" />
        <dc:title>Elpida</dc:title>
        <cc:license
           rdf:resource="http://creativecommons.org/licenses/by-nc/4.0/" />
        <dc:creator>
          <cc:Agent>
            <dc:title>Ioannis Panagiotopoulos</dc:title>
          </cc:Agent>
        </dc:creator>
        <dc:rights>
          <cc:Agent>
            <dc:title>Ioannis Panagiotopoulos</dc:title>
          </cc:Agent>
        </dc:rights>
      </cc:Work>
      <cc:License
         rdf:about="http://creativecommons.org/licenses/by-nc/4.0/">
        <cc:permits
           rdf:resource="http://creativecommons.org/ns#Reproduction" />
        <cc:permits
           rdf:resource="http://creativecommons.org/ns#Distribution" />
        <cc:requires
           rdf:resource="http://creativecommons.org/ns#Notice" />
        <cc:requires
           rdf:resource="http://creativecommons.org/ns#Attribution" />
        <cc:prohibits
           rdf:resource="http://creativecommons.org/ns#CommercialUse" />
        <cc:permits
           rdf:resource="http://creativecommons.org/ns#DerivativeWorks" />
      </cc:License>
    </rdf:RDF>
  </metadata>
  <g
     inkscape:groupmode="layer"
     id="layer2"
     inkscape:label="χρώματα"
     transform="translate(-712.53195,311.4691)">
    <path
       transform="matrix(0.26458334,0,0,0.26458334,712.53195,-311.4691)"
       d="M 698.10742,0.5 A 724.99999,724.99999 0 0 0 0.5,698.10547 v 53.78711 A 724.99999,724.99999 0 0 0 725,1450 724.99999,724.99999 0 0 0 1450,725 724.99999,724.99999 0 0 0 751.89453,0.5 Z"
       style="fill:#e5e8fd;fill-opacity:1;stroke:#ffffff;stroke-width:0.999999;stroke-linecap:round;stroke-linejoin:round"
       id="rect994-2" />
    <path
       id="path1118-9"
       style="fill:#c7cdf9;fill-opacity:1;stroke:none;stroke-width:4.31199px;stroke-linecap:butt;stroke-linejoin:miter;stroke-opacity:1"
       d="M 698.10742,0.5 A 724.99999,724.99999 0 0 0 66.605469,421.45508 l 188.640621,561.42383 12.73243,12.38281 3.02343,-3.08789 -2.19531,-2.13086 1016.06446,75.22263 v 3.0469 h 78.6914 A 724.99999,724.99999 0 0 0 1450,725 724.99999,724.99999 0 0 0 751.89453,0.5 Z"
       transform="matrix(0.26458334,0,0,0.26458334,712.53195,-311.4691)" />
    <path
       id="path1090-3-7"
       style="fill:#898ee2;fill-opacity:1;stroke:none;stroke-width:4.31199px;stroke-linecap:butt;stroke-linejoin:miter;stroke-opacity:1"
       d="m 497.56836,1135.1289 -45.57031,0.051 -0.12891,13.0137 -0.48437,-0.3301 v -6.1465 h -4.25196 v 252.9199 a 724.99999,724.99999 0 0 0 179.14453,48.6094 l 39.65625,-12.4238 5.92774,-208.7871 -174.63672,-46.6504 z"
       transform="matrix(0.26458334,0,0,0.26458334,712.53195,-311.4691)" />
    <path
       id="path1071-5-7-1"
       style="fill:#898ee2;fill-opacity:1;stroke:none;stroke-width:4.31199px;stroke-linecap:butt;stroke-linejoin:miter;stroke-opacity:1"
       d="m 435.86523,427.39453 c 0,0 -98.05763,34.85186 -152.29101,48.5918 -9.66898,265.538 -29.04984,529.61907 -26.77149,802.56247 a 724.99999,724.99999 0 0 0 147.1543,96.4942 c -0.82752,-19.4755 -1.43133,-38.3564 -1.85547,-56.4239 -3.28577,-139.9689 8.00767,-434.83271 14.9668,-559.73433 7.19834,-129.19525 14.43927,-245.49858 18.79687,-331.49024 z"
       transform="matrix(0.26458334,0,0,0.26458334,712.53195,-311.4691)" />
    <path
       id="path909-3"
       style="fill:#cbc7f7;fill-opacity:1;stroke:none;stroke-width:4.31879;stroke-linecap:butt;stroke-linejoin:miter;stroke-miterlimit:4;stroke-dasharray:none;stroke-opacity:1"
       d="m 527.30664,433.84961 8.57422,13.14844 15.24609,21.53515 12.95899,20.58008 8.57422,15.81641 10.09961,19.4375 8.0039,19.6289 8.19531,24.20118 3.23829,14.48437 3.24023,18.10352 -1.33398,13.33984 -8.76563,-37.54297 -10.48242,-31.44141 -15.43555,-32.01562 -19.4375,-32.77734 -13.91015,-19.4375 -18.86719,-20.00977 0.57226,5.14649 7.05078,17.53124 7.8125,21.72461 8.00391,22.29493 7.62305,28.20507 7.43164,33.72852 1.04883,9.625 4.38281,24.86719 0.57226,25.82226 -2.95312,1.81055 -3.33594,-21.15234 -8.09765,-53.16797 -11.24414,-40.49414 -14.00586,-41.63868 -14.96094,-32.20703 -21.62891,40.78125 -15.14844,45.44922 L 457.16797,581 l -7.00781,44.73828 -1.74805,34.1211 -0.57227,33.1582 0.95313,27.63281 -5.33594,-6.28906 -16.57812,-29.72852 -18.86524,-39.25586 -16.19922,-45.54492 -7.24023,-32.58594 -2.66797,13.14844 -0.19141,26.67774 3.04883,33.92187 4.38281,28.39453 3.04883,17.15039 -6.28711,-7.05078 -14.48437,-41.92383 -12.00586,-44.97461 -3.61914,-38.68359 0.57226,-35.06445 1.29493,-11.88477 -12.12696,25.87109 -10.6914,30.60743 -16.00782,57.93164 -9.52734,40.9707 -7.62305,50.5 -5.03711,46.6543 -1.78906,4.52148 c 13.23795,47.85808 13.32137,102.51677 13.59766,128.88281 0.1629,15.30917 0.50544,36.17449 1.02539,59.43164 0.49391,22.10938 0.319,35.01291 3.11328,51.86328 1.96354,11.8375 6.27843,34.5242 19.29883,55.3984 7.72554,12.3856 14.02509,20.8927 25.66211,33.504 12.22737,13.2506 30.90124,33.1508 68.7207,64.2734 18.90939,15.5613 38.08639,30.7805 54.49219,43.0683 16.40564,12.2877 29.93419,21.634 37.97461,25.6543 25.19916,12.5996 38.7015,14.5248 60.84375,12.3262 l 0.73828,1.1074 3.77344,21.0196 1.49218,19.5332 0.42969,32.5566 -1.86133,-0.2207 c 0,0 -0.0977,6.4268 -0.14453,15.9805 l -24.50781,93.3262 0.86719,9.3437 A 724.99999,724.99999 0 0 0 725,1450 a 724.99999,724.99999 0 0 0 73.38281,-3.7246 c 30.62095,-29.4449 65.27127,-54.6564 113.22266,-80.7168 l 29.82812,-15.9043 11.18555,-11.7695 0.59961,-54.6875 4.38281,-520.05082 0.52149,-56.36328 0.10547,-10.01953 c 0,0 3.58582,-41.5396 0.44726,-49.79492 l 0.0684,-7.30859 -2.15039,6.45117 c -4.12955,5.18445 -14.46926,43.96843 -17.44727,48.26953 l 0.54297,-16.98828 0.0606,-2.82422 c 0.80152,-5.23306 1.30273,-10.71124 0.33789,-15.6543 l 0.36328,-16.77734 -1.90625,-38.30274 -4.76367,-34.30078 -9.71875,-40.78125 -10.09961,-27.82226 -14.67383,-30.49024 -3.04883,-2.09765 1.83985,16.41797 c -1.42443,26.91722 -5.51099,102.32965 -10.57227,180.10156 l -3.08203,16.5332 -9.71875,32.58594 -0.95312,-20.39063 -6.48047,-41.73437 -6.66992,-30.10938 -10.67188,-30.87109 -11.43359,-28.01172 -10.09961,-20.96289 2.0957,16.57813 2.47852,18.67578 1.52343,19.24804 -0.76171,25.34375 -4.76563,-15.8164 -5.14453,-24.58203 -6.86133,-22.29688 -12.57617,-33.72851 -1.52344,-0.57227 -1.90625,19.4375 -4.19141,29.91797 -6.86132,26.48828 -10.09961,28.39453 -21.34375,40.20899 -2.66797,-15.62696 -7.24024,-45.92578 -11.8164,-46.6875 -12.95703,-34.87305 -12.95899,-29.15625 -16.96093,-30.10937 -17.1504,-21.34375 12.00586,33.53906 3.04883,18.10352 5.33594,36.39843 2.0957,32.77735 -0.18945,30.67969 -4.76563,41.35351 -7.8125,49.35547 -12.57812,46.11719 -3.61914,-19.24805 -6.28906,-36.96875 -9.5293,-34.68359 -16.00781,-48.97461 -13.71875,-32.20508 -23.0586,-44.97266 -22.86914,-31.63476 -17.15039,-21.53321 z"
       transform="matrix(0.26458334,0,0,0.26458334,712.53195,-311.4691)" />
    <path
       sodipodi:nodetypes="cssssssc"
       inkscape:connector-curvature="0"
       id="path4569-6"
       d="m 799.12996,-132.15748 c 2.62299,-1.5025 8.70939,-3.18327 13.2933,-3.20871 4.5839,-0.0258 12.58021,2.82671 14.82119,4.07456 1.73963,0.96865 1.59177,0.0215 0.91682,-0.38204 -3.23421,-1.93544 -9.29514,-5.04226 -15.40699,-5.14415 -4.48861,-0.075 -11.19624,1.12832 -14.92308,3.64164 -0.87358,0.5891 -2.13293,2.98436 1.29876,1.01861 z"
       style="display:inline;fill:#898ee2;fill-opacity:1;stroke:none;stroke-width:0.342264;stroke-linecap:butt;stroke-linejoin:miter;stroke-miterlimit:4;stroke-dasharray:none;stroke-opacity:1" />
    <path
       sodipodi:nodetypes="ssssssss"
       inkscape:connector-curvature="0"
       id="path4571-9"
       d="m 903.7465,-132.12707 c 6.04842,-2.70944 15.16213,-4.10579 21.75279,-4.57385 5.78385,-0.41094 18.65542,-0.25225 23.62545,5.04205 0.5926,0.63122 1.74912,-0.26045 0.72028,-1.51265 -4.64582,-5.65427 -19.48379,-5.11401 -24.63389,-4.96995 -5.15003,0.14397 -20.45335,3.0076 -23.66147,5.79828 -1.3988,1.2168 -3.2934,2.6755 2.19684,0.21603 z"
       style="display:inline;fill:#898ee2;fill-opacity:1;stroke:none;stroke-width:0.342264;stroke-linecap:butt;stroke-linejoin:miter;stroke-miterlimit:4;stroke-dasharray:none;stroke-opacity:1" />
    <path
       id="path1122-36-3"
       style="fill:#c7cdf9;fill-opacity:1;stroke:none;stroke-width:4.31199px;stroke-linecap:butt;stroke-linejoin:miter;stroke-opacity:1"
       d="m 584.13867,1276.8867 c -0.008,0.01 -60.98375,62.7817 -84.28711,105.0723 -4.61438,8.3742 -9.42937,17.5867 -14.21484,27.3867 a 724.99999,724.99999 0 0 0 104.84766,28.0645 l -1.27149,-16.5254 -1.91016,-39.8145 -2.12695,-70.459 -1.39453,-24.9043 c 1.16402,-2.0331 2.16463,-3.9284 2.9668,-5.6621 l -2.60743,-3.1582 z m 369.8711,55.5137 -2.60938,1.3047 c -0.43359,0.2167 -0.70775,0.4109 -1.40039,0.8281 -0.69264,0.4172 -1.65843,0.9989 -2.86523,1.7188 -2.41365,1.4406 -5.82956,3.4783 -10.2168,5.9531 -8.77478,4.9498 -21.36136,11.6917 -37.17774,19.2246 -31.6326,15.0657 -76.20302,33.211 -129.04296,46.123 l -0.44336,0.1309 -0.35157,0.2539 c 0,0 -24.50516,18.5473 -48.28515,42.0547 A 724.99999,724.99999 0 0 0 725,1450 724.99999,724.99999 0 0 0 952.90234,1413.248 l 0.71875,-55.3476 0.34961,-9.6758 0.51953,-12.9238 z"
       transform="matrix(0.26458334,0,0,0.26458334,712.53195,-311.4691)" />
    <path
       sodipodi:nodetypes="czccccccc"
       inkscape:connector-curvature="0"
       id="path1092-1"
       d="m 851.60764,-65.438382 c 0,0 5.36225,5.927471 5.43212,9.123773 0.0698,3.19626 -5.22117,6.381351 -5.22117,6.381351 l -1.4239,-3.058837 -2.00409,-1.74036 -0.42171,-1.423947 2.00404,-1.845875 1.00207,-3.638928 z"
       style="fill:#cbc7f7;fill-opacity:1;stroke:none;stroke-width:1.14088px;stroke-linecap:butt;stroke-linejoin:miter;stroke-opacity:1" />
    <path
       sodipodi:nodetypes="cccccccc"
       inkscape:connector-curvature="0"
       id="path988-9"
       d="m 866.43199,15.504397 -1.07454,0.35652 c 0.85287,2.475598 1.30878,7.5336 1.51598,11.900089 0.20696,4.366489 0.2174,8.098627 0.2174,8.098627 l 1.16302,2.021493 c 0,0 -0.0285,-5.770319 -0.23542,-10.170658 -0.20871,-4.400337 -0.62447,-9.412896 -1.58673,-12.206245 z"
       style="color:#000000;font-style:normal;font-variant:normal;font-weight:normal;font-stretch:normal;font-size:medium;line-height:normal;font-family:sans-serif;font-variant-ligatures:normal;font-variant-position:normal;font-variant-caps:normal;font-variant-numeric:normal;font-variant-alternates:normal;font-feature-settings:normal;text-indent:0;text-align:start;text-decoration:none;text-decoration-line:none;text-decoration-style:solid;text-decoration-color:#000000;letter-spacing:normal;word-spacing:normal;text-transform:none;writing-mode:lr-tb;direction:ltr;text-orientation:mixed;dominant-baseline:auto;baseline-shift:baseline;text-anchor:start;white-space:normal;shape-padding:0;clip-rule:nonzero;display:inline;overflow:visible;visibility:visible;isolation:auto;mix-blend-mode:normal;color-interpolation:sRGB;color-interpolation-filters:linearRGB;solid-color:#000000;solid-opacity:1;vector-effect:none;fill:#cbc7f7;fill-opacity:1;fill-rule:nonzero;stroke:none;stroke-width:1.14088px;stroke-linecap:butt;stroke-linejoin:miter;stroke-miterlimit:4;stroke-dasharray:none;stroke-dashoffset:0;stroke-opacity:1;color-rendering:auto;image-rendering:auto;shape-rendering:auto;text-rendering:auto;enable-background:accumulate" />
    <path
       d="m 823.18515,-107.93113 c -3.54576,-3e-5 -6.20725,2.51718 -8.22121,6.26887 -2.07892,3.872708 -3.34783,8.893621 -3.26181,13.682365 0.085,4.733021 0.66606,9.616856 2.48202,13.386782 1.81594,3.769882 4.86947,6.472352 9.39374,6.531383 4.54246,0.05951 7.68176,-2.754056 9.53275,-6.586678 1.85098,-3.832622 2.36396,-8.745077 2.24999,-13.192477 -0.11427,-4.466574 -1.094,-9.361207 -3.10213,-13.265855 -2.00814,-3.90465 -5.01586,-6.64793 -8.72764,-6.81664 -0.11623,-0.005 -0.23133,-0.008 -0.34571,-0.008 z"
       style="display:inline;fill:#898ee2;fill-opacity:1;stroke:none;stroke-width:1.25497px;stroke-linecap:butt;stroke-linejoin:miter;stroke-opacity:1"
       id="path939-7-2" />
    <path
       sodipodi:nodetypes="sssssssssssss"
       inkscape:connector-curvature="0"
       id="path51-0"
       d="m 812.15122,-112.1615 c 4.59261,-1.02793 7.43034,-0.27942 11.14334,1.90724 6.38752,3.7619 11.62748,11.04476 12.02388,11.632737 0.62684,0.929846 2.10162,1.612435 1.26208,-0.569822 -0.51088,-1.327885 -4.6359,-9.109845 -10.54048,-13.738935 -4.7935,-3.75794 -10.28908,-4.32454 -13.70051,-4.06521 -4.39054,0.33374 -8.35723,2.42765 -10.45591,5.40662 -1.8605,2.64088 -3.21403,6.58747 -3.39833,7.95653 -0.39195,2.9133 2.22491,8.0763 2.79137,9.523097 0.56647,1.446804 2.29307,2.850755 1.57491,0.617485 -1.1554,-3.592966 -0.3855,-6.917982 -0.1195,-8.337022 0.47979,-2.56072 1.78525,-4.49312 2.99933,-6.17997 1.75394,-2.43693 4.06688,-3.62608 6.4198,-4.15275 z"
       style="display:inline;fill:#898ee2;fill-opacity:1;stroke:none;stroke-width:0.37649;stroke-linecap:butt;stroke-linejoin:miter;stroke-miterlimit:4;stroke-dasharray:none;stroke-opacity:1" />
    <path
       d="m 907.64666,-108.83754 c -3.51996,1e-5 -8.07502,2.09417 -10.74198,5.77846 -2.66692,3.684293 -4.46216,9.222263 -4.60385,16.740068 -0.14144,7.50992 1.30674,12.664885 3.7424,16.017626 2.43563,3.352742 6.35302,4.704136 9.89346,4.879806 3.67006,0.181965 8.33612,-1.387152 10.63036,-5.432742 2.29419,-4.045593 4.43947,-10.35284 4.43952,-17.410309 0,-7.042359 -1.91247,-12.294129 -3.95583,-15.594399 -2.04341,-3.30028 -5.92129,-4.97851 -9.40408,-4.97851 z"
       style="display:inline;fill:#898ee2;fill-opacity:1;stroke:none;stroke-width:1.25497px;stroke-linecap:butt;stroke-linejoin:miter;stroke-opacity:1"
       id="path937-8-6" />
    <path
       sodipodi:nodetypes="cssssssssssssc"
       inkscape:connector-curvature="0"
       id="path4565-2"
       d="m 892.11352,-97.880394 c 1.35923,-2.417866 3.92504,-5.372296 6.98697,-7.841296 2.9848,-2.40687 6.44521,-4.34118 9.39931,-5.71964 3.74694,-1.74846 10.97146,-4.14955 19.1058,-0.1371 4.75608,2.34593 8.22956,6.73234 8.98644,10.52841 0.75283,3.775699 -1.49864,11.318665 -0.46441,11.10487 1.75706,-0.363068 7.2632,-11.45299 6.31879,-14.14294 -3.54648,-10.10117 -13.86562,-13.98445 -16.48018,-14.42023 -1.3983,-0.23284 -5.74193,-0.79689 -9.96648,-0.24275 -3.67502,0.48199 -7.16363,1.94974 -9.76229,3.45178 -2.60857,1.50781 -7.17014,5.18283 -10.67514,8.94388 -3.29922,3.54023 -5.15204,7.363539 -5.63218,8.480342 -1.13583,2.642249 -0.004,4.064908 2.18337,-0.0045 z"
       style="display:inline;fill:#898ee2;fill-opacity:1;stroke:none;stroke-width:0.37649;stroke-linecap:butt;stroke-linejoin:miter;stroke-miterlimit:4;stroke-dasharray:none;stroke-opacity:1" />
    <path
       id="path911-0"
       style="fill:#898ee2;fill-opacity:1;stroke:none;stroke-width:4.31199px;stroke-linecap:butt;stroke-linejoin:miter;stroke-opacity:1"
       d="m 561.33984,122.92578 c -7.0682,0.0113 -13.18462,0.0508 -18.21679,0.0508 v -0.002 c -38.26923,0 -111.17958,9.3479 -172.93555,33.77344 -37.35367,14.77394 -71.28464,33.60097 -96.57422,49.30468 -25.28946,15.70364 -41.75315,28.13969 -44.7539,30.6211 -1.72835,1.4293 -3.42862,3.86198 -5.63477,7.51172 -2.20634,3.64977 -4.78453,8.45254 -7.60742,14.26172 -5.64571,11.6183 -12.30021,27.2539 -18.875,45.58007 -12.64271,35.23847 -26.55236,95.94614 -31.01367,142.48047 -2.5942,19.24188 -4.01159,38.87238 -4.3711,58.58008 -6.59187,22.72845 -8.12079,66.21545 -4.84961,109.63867 1.14078,15.1465 3.51292,30.62809 5.5,45.9043 3.1705,24.3719 6.55983,48.56607 15.34961,69.92773 1.95402,4.74924 5.29457,4.5857 4.10742,-1.24218 -8.461,-41.53259 -10.03997,-81.67766 -10.15234,-103.8125 13.72826,75.89223 40.2743,142.15424 72.98438,177.31054 2.38265,2.56098 5.50286,2.26506 4.07617,-1.43554 -42.91007,-111.27893 -19.64343,-214.62121 20.81445,-296.33399 -17.55129,64.39003 -22.97835,173.3357 24.54297,263.86914 3.6949,5.95408 3.47616,1.52512 4.04101,-0.82812 8.4536,-106.05335 29.87506,-182.18897 49.14649,-231.75782 2.86874,-7.37877 5.66116,-14.09648 8.35547,-20.30859 -7.08174,61.50595 8.56174,119.48586 38.30859,183.94922 3.64275,6.21335 4.84642,2.51547 4.16992,-1.08203 -14.32044,-55.26546 -14.5268,-100.68023 -13.25,-123.81445 10.49333,51.59278 31.95481,98.35859 62.52344,147.75195 2.60122,3.42716 3.5204,1.75886 3.97852,-1.30664 -10.33214,-132.54708 34.7503,-234.95635 56.03906,-275.07422 10.2796,19.05762 23.23373,53.97094 33.375,93.73633 10.75181,42.15896 18.39304,89.85853 16.77344,130.21875 -0.034,8.61422 3.28872,3.85674 4.29687,-0.22266 7.50784,-42.676 -0.80544,-95.71925 -12.73242,-140.94726 -5.99365,-22.72785 -12.89514,-43.45721 -19.12891,-59.8418 -3.56987,-9.38359 -6.88147,-17.25356 -9.74023,-23.36914 11.53432,11.60659 27.56349,32.33012 42.39844,58.57422 19.04893,33.69902 36.18836,76.55031 40.93359,121.17968 0.74479,7.01311 3.37865,8.24939 4.19922,-0.92382 3.44364,-38.49596 -12.76576,-83.4577 -32.6582,-121.30664 -10.01893,-19.06258 -21.05578,-36.31895 -31.25782,-49.97461 -3.16452,-4.23564 -6.22143,-8.0751 -9.16406,-11.56836 64.22691,50.90362 121.00137,166.94448 137.76172,296.54883 0.44149,3.41812 2.60649,6.35809 4.23437,0.25585 31.97118,-119.82553 32.50058,-208.68106 7.6836,-281.61328 31.78254,45.77216 60.54446,107.88922 71.92383,212.69922 0.55086,5.07288 2.36141,3.31209 3.94726,0.98828 17.45129,-25.57836 34.04315,-64.93782 40.90235,-108.28711 1.63441,-10.32941 2.69904,-20.89146 3.08398,-31.54882 7.38293,17.72976 24.81556,63.1108 26.42383,100.14257 0.1629,3.72329 1.06662,7.97015 1.8164,7.63086 0.86865,-0.39299 1.67989,-2.39374 2.48047,-7.98242 4.57811,-31.96252 0.002,-61.55073 -3.95508,-78.9375 22.46601,44.4127 40.66984,102.21367 41.80079,165.16797 0.034,1.47492 0.034,5.16075 1.44921,5.39062 1.27609,0.20863 1.76983,-1.16082 2.78516,-4.8496 13.98236,-50.81152 21.62092,-97.00597 24.64844,-138.45118 3.2222,55.40228 6.78216,115.94942 10.33594,179.73243 6.95913,124.9016 18.25061,419.76546 14.96484,559.73436 -0.76151,32.4387 -2.06922,67.4114 -4.32031,104.0157 a 724.99999,724.99999 0 0 0 362.05661,-236.3965 c -0.1592,-18.3009 -0.076,-35.5785 0.3145,-51.4317 2.2957,-93.1661 29.0142,-346.94092 37.3379,-398.39257 l 0.064,-0.44336 -0.1289,-0.41406 c -1.1928,-4.55263 -4.8488,-14.53515 -10.5683,-29.0293 -5.7188,-14.49411 -13.4643,-33.37829 -22.6621,-55.19531 -18.3961,-43.63396 -42.6296,-99.03817 -68.2442,-154.57031 C 1169.6547,386.57659 1107.206,305.36938 1072.6875,279.29688 1035.1393,250.93587 920.71675,183.59976 802.66797,150.82812 706.83918,124.22486 610.81726,122.85299 561.33984,122.92578 Z"
       transform="matrix(0.26458334,0,0,0.26458334,712.53195,-311.4691)" />
  </g>
</svg>
