<svg id="Layer_1" data-name="Layer 1" xmlns="http://www.w3.org/2000/svg" xmlns:xlink="http://www.w3.org/1999/xlink" viewBox="0 0 512 512"><defs><style>.cls-1{opacity:0.47;}.cls-2{fill:#6b2828;}.cls-3{fill:url(#linear-gradient);}</style><linearGradient id="linear-gradient" x1="190.2" y1="-28.99" x2="392.12" y2="471.34" gradientUnits="userSpaceOnUse"><stop offset="0" stop-color="#d36c6c"/><stop offset="1" stop-color="#6b2828"/></linearGradient></defs><g class="cls-1"><path class="cls-2" d="M244.48,306.21a92.58,92.58,0,0,1-29.64-4.74C198.51,296,187.05,286,176,276.39l-3.24-2.85C158.36,261.13,138.78,254,119,254a76.14,76.14,0,0,0-17,1.88C88.32,259,76.3,267.5,63.57,276.5,50,286.07,36,295.88,18.75,300.79a16.15,16.15,0,0,1-4,.53A14.65,14.65,0,0,1,2,279.49a14.46,14.46,0,0,1,8.8-6.95C23.32,269,34.62,261,46.56,252.6c14.64-10.35,29.64-20.93,48.89-25.33a107.29,107.29,0,0,1,23.66-2.6,112.4,112.4,0,0,1,27.08,3.3,109.2,109.2,0,0,1,45.28,23l3.57,3.13c9.4,8.2,18.26,15.93,29.19,19.61a63.6,63.6,0,0,0,20.4,3.28c20.24,0,43.39-8.45,70.76-25.82,18-11.44,32.33-19.8,52.91-23.07a119.41,119.41,0,0,1,18.8-1.46,128.38,128.38,0,0,1,41,6.76A138.88,138.88,0,0,1,465.82,253c25.47,18.61,32.41,20.67,32.69,20.75a4,4,0,0,1,.49,0,12.91,12.91,0,0,1,8.6,3.92,14.73,14.73,0,0,1,.08,20.76,15.37,15.37,0,0,1-11.1,4.46c-4.91,0-9.37-2-11.51-2.93-8.26-3.76-20.54-11.55-36.52-23.23a109.8,109.8,0,0,0-29.85-15.52,99,99,0,0,0-31.59-5.26A91.81,91.81,0,0,0,372.9,257c-15,2.4-26.29,9-41.8,18.85-19.2,12.2-36.68,20.5-53.45,25.33A118.62,118.62,0,0,1,244.48,306.21Z"/><path class="cls-2" d="M14.74,296.53a10.5,10.5,0,0,0,2.7-.36c16.54-4.69,30.12-14.26,43.37-23.58s25.55-18.06,40.09-21.38a81.17,81.17,0,0,1,18.1-2c20.92,0,41.66,7.56,56.89,20.72l3.11,2.72c10.76,9.36,21.87,19,37.37,24.28a88.1,88.1,0,0,0,28.11,4.49,114.12,114.12,0,0,0,31.84-4.82c16.36-4.72,33.43-12.83,52.23-24.77,16-10.15,27.7-17,43.6-19.53a95.11,95.11,0,0,1,15-1.17,103.58,103.58,0,0,1,33.12,5.5,114.1,114.1,0,0,1,31.14,16.2c15.72,11.47,27.7,19.11,35.65,22.71,2,.89,5.72,2.52,9.56,2.52a10.5,10.5,0,0,0,7.7-3,9.93,9.93,0,0,0,0-14,9.28,9.28,0,0,0-6.75-2.7h-.27c-1.29-.35-9.05-3.1-34.23-21.49a134.08,134.08,0,0,0-36.46-18.94,123.39,123.39,0,0,0-39.44-6.52,116.36,116.36,0,0,0-18.05,1.4c-19.68,3.14-33.58,11.26-51.09,22.39-28.18,17.88-52.17,26.56-73.33,26.56a68.27,68.27,0,0,1-21.93-3.52c-11.85-4-21.06-12-30.82-20.55l-3.52-3.1a104.47,104.47,0,0,0-43.32-22,107.76,107.76,0,0,0-25.93-3.17,101.79,101.79,0,0,0-22.6,2.5c-18.34,4.17-33,14.51-47.08,24.49-12.33,8.7-24,16.93-37.38,20.71a9.74,9.74,0,0,0-5.93,4.68,9.87,9.87,0,0,0,8.62,14.7Z"/><path class="cls-2" d="M244.48,364.59a92.49,92.49,0,0,1-29.64-4.74c-16.33-5.5-27.78-15.46-38.86-25.08l-3.24-2.85c-14.38-12.41-34-19.54-53.75-19.54a77,77,0,0,0-17,1.88c-13.64,3.11-25.66,11.62-38.39,20.62C50,344.45,36,354.26,18.75,359.17a16.15,16.15,0,0,1-4,.53A14.64,14.64,0,0,1,2,337.86a14.57,14.57,0,0,1,8.78-7C23.32,327.38,34.57,319.43,46.5,311c14.7-10.4,29.7-21,49-25.38a107.29,107.29,0,0,1,23.66-2.6,112.4,112.4,0,0,1,27.08,3.3,109.2,109.2,0,0,1,45.28,23l3.62,3.16c9.34,8.17,18.18,15.89,29.14,19.58a63.6,63.6,0,0,0,20.4,3.28c20.22,0,43.37-8.45,70.78-25.8,18-11.46,32.3-19.82,52.89-23.07A116.71,116.71,0,0,1,387.11,285a128.54,128.54,0,0,1,41,6.76,139,139,0,0,1,37.75,19.63C491,329.8,498.17,332,498.47,332.1h.46a12.79,12.79,0,0,1,8.73,4,14.42,14.42,0,0,1,4.27,10.32,14.6,14.6,0,0,1-4.25,10.37,15.35,15.35,0,0,1-11.12,4.44c-4.92,0-9.26-1.95-11.58-3-8.18-3.68-20.42-11.48-36.43-23.17a109.8,109.8,0,0,0-29.85-15.52,99,99,0,0,0-31.59-5.26,91.81,91.81,0,0,0-14.21,1.11c-15,2.4-26.29,9-41.8,18.85-19.14,12.17-36.63,20.46-53.42,25.34A119.6,119.6,0,0,1,244.48,364.59Z"/><path class="cls-2" d="M504.26,339.48a9.2,9.2,0,0,0-6.81-2.75h-.23c-.78-.2-8.37-2.6-34.22-21.48a134.38,134.38,0,0,0-36.46-18.95,123.51,123.51,0,0,0-39.43-6.52,113.25,113.25,0,0,0-18.06,1.42c-19.68,3.12-33.58,11.24-51.09,22.39-28.18,17.86-52.17,26.54-73.33,26.54a68.27,68.27,0,0,1-21.93-3.52c-11.83-4-21-12-30.77-20.52L188.36,313A104.47,104.47,0,0,0,145,291a107.76,107.76,0,0,0-25.93-3.17,101.79,101.79,0,0,0-22.6,2.5c-18.34,4.17-33,14.51-47.08,24.49-12.33,8.7-24,16.93-37.38,20.7a9.93,9.93,0,0,0-6.82,12.2,9.92,9.92,0,0,0,9.51,7.19,10.5,10.5,0,0,0,2.7-.36C34,349.86,47.56,340.29,60.81,331s25.55-18.06,40.09-21.38a81.74,81.74,0,0,1,18.09-2c20.92,0,41.65,7.56,56.91,20.72L179,331c10.76,9.36,21.87,19,37.37,24.28a88.1,88.1,0,0,0,28.11,4.49A114.46,114.46,0,0,0,276.34,355c16.37-4.75,33.44-12.86,52.21-24.78,16-10.15,27.7-17,43.6-19.53a95.11,95.11,0,0,1,15-1.17,103.62,103.62,0,0,1,33.12,5.5,114.1,114.1,0,0,1,31.14,16.2c15.73,11.49,27.69,19.11,35.54,22.65,2,.9,5.74,2.58,9.65,2.58a10.47,10.47,0,0,0,7.72-3A9.86,9.86,0,0,0,504.26,339.48Z"/></g><path class="cls-3" d="M410.93,6.92H293.27l-4.51,3.31-32.38,103L224.78,10.26l-4.53-3.34h-119l-4.46,6.29,98.92,283.53V500.35l4.73,4.73H311.74l4.73-4.73V296.74L415.4,13.21ZM226.85,290.65l-88-252.26h61.62l51.05,166.27,9,0,52.31-166.3h60.4l-88,252.26-.26,1.56v181.4H227.12V292.21Z"/></svg>