<svg xmlns="http://www.w3.org/2000/svg" width="1024" height="1024" viewBox="0 0 1024 1024"><title>ynotbit signal-shield application, 1024px optical master</title><defs><linearGradient id="paper" x2="0" y2="1"><stop stop-color="#FFFDF5"/><stop offset="1" stop-color="#EDE6D5"/></linearGradient><linearGradient id="flap" x2="0" y2="1"><stop stop-color="#FFFDF7"/><stop offset="1" stop-color="#F5EFDF"/></linearGradient><linearGradient id="navy" x2=".7" y2="1"><stop stop-color="#345A7A"/><stop offset=".5" stop-color="#193650"/><stop offset="1" stop-color="#0D2135"/></linearGradient><clipPath id="env"><rect x="61.44" y="61.44" width="901.12" height="901.12" rx="194.56" fill="white" /></clipPath></defs><rect x="61.44" y="79.872" width="901.12" height="901.12" rx="194.56" fill="#BDB4A2" opacity="0.28"/><rect x="61.44" y="61.44" width="901.12" height="901.12" rx="194.56" fill="url(#paper)" /><rect x="66.56" y="66.56" width="890.88" height="890.88" rx="194.56" fill="none" stroke="#B9B7AD" stroke-width="6.656000000000001"/><g clip-path="url(#env)"><path d="M61.44 306.3808l81.92 61.44v194.56l-81.92 -61.44z" fill="#DB5149"/><path d="M962.56 306.3808l-81.92 61.44v194.56l81.92 -61.44z" fill="#2871B8"/><path d="M61.44 594.7392l81.92 61.44v194.56l-81.92 -61.44z" fill="#2871B8"/><path d="M962.56 594.7392l-81.92 61.44v194.56l81.92 -61.44z" fill="#DB5149"/></g><g clip-path="url(#env)"><path d="M61.44 295.7312L512 548.0448L962.56 295.7312" fill="none" stroke="#19334B" stroke-width="47.104" stroke-linecap="round" stroke-linejoin="round"/><path d="M512 548.0448V773.3248000000001" fill="none" stroke="#19334B" stroke-width="47.104" stroke-linecap="round" stroke-linejoin="round"/></g><path d="M512 430.28479999999996Q469.6064 467.96799999999996 394.24 479.74399999999997V552.7552Q394.24 663.4495999999999 512 715.264Q629.76 663.4495999999999 629.76 552.7552V479.74399999999997Q554.3936 467.96799999999996 512 430.28479999999996Z" fill="#19334B" stroke="#FFF9EC" stroke-width="16.384" stroke-linejoin="round" paint-order="stroke"/><circle cx="512" cy="536.2687999999999" r="29.44" fill="#FFF9EC"/><path d="M498.752 548.0447999999999L490.8032 603.9807999999999H533.1968L525.248 548.0447999999999Z" fill="#FFF9EC"/></svg>