<?xml version="1.0" encoding="UTF-8" standalone="no"?>
<!-- Generator: flash2svg, http://dissentgraphics.com/tools/flash2svg -->

<svg
   xmlns:dc="http://purl.org/dc/elements/1.1/"
   xmlns:cc="http://creativecommons.org/ns#"
   xmlns:rdf="http://www.w3.org/1999/02/22-rdf-syntax-ns#"
   xmlns:svg="http://www.w3.org/2000/svg"
   xmlns="http://www.w3.org/2000/svg"
   xmlns:sodipodi="http://sodipodi.sourceforge.net/DTD/sodipodi-0.dtd"
   xmlns:inkscape="http://www.inkscape.org/namespaces/inkscape"
   id="Neutron"
   image-rendering="optimizeSpeed"
   version="1.1"
   x="0px"
   y="0px"
   width="500"
   height="500"
   viewBox="0 0 500 500"
   enable-background="new 0 0 1024 1024"
   inkscape:version="0.92.4 5da689c313, 2019-01-14"
   sodipodi:docname="coreuniverse.svg">
  <metadata
     id="metadata37">
    <rdf:RDF>
      <cc:Work
         rdf:about="">
        <dc:format>image/svg+xml</dc:format>
        <dc:type
           rdf:resource="http://purl.org/dc/dcmitype/StillImage" />
        <dc:title />
      </cc:Work>
    </rdf:RDF>
  </metadata>
  <sodipodi:namedview
     pagecolor="#ffffff"
     bordercolor="#666666"
     borderopacity="1"
     objecttolerance="10"
     gridtolerance="10"
     guidetolerance="10"
     inkscape:pageopacity="0"
     inkscape:pageshadow="2"
     inkscape:window-width="1366"
     inkscape:window-height="714"
     id="namedview35"
     showgrid="false"
     inkscape:zoom="0.74459136"
     inkscape:cx="39.070236"
     inkscape:cy="300.50847"
     inkscape:window-x="0"
     inkscape:window-y="0"
     inkscape:window-maximized="1"
     inkscape:current-layer="Neutron" />
  <defs
     transform="matrix(1 0 0 1 0 0) "
     id="defs3" />
  <g
     style="fill:#45d03f;fill-opacity:1;stroke:none;overflow:visible"
     overflow="visible"
     id="Symbole.__208_4"
     transform="matrix(0.66753071,0,0,0.66753071,-92.738393,-91.775752)" />
  <g
     id="Calque.__215"
     transform="matrix(0.65958169,0,0,0.60552483,-62.695741,-59.67123)"
     style="fill:#45d0c6;fill-opacity:1;stroke:none">
    <g
       id="shape25"
       style="fill:#45d0c6;fill-opacity:1;stroke:none">
      <path
         id="path19"
         d="m 389.23561,480.03084 c -45.43417,-13.19907 -83.25115,-30.67687 -113.43181,-52.39368 -33.32287,-23.97756 -47.90076,-46.3056 -43.72387,-67.05113 2.42975,-21.25406 22.45086,-33.53011 60.07492,-36.89669 34.07629,-3.04886 73.84655,2.01271 119.28073,15.21178 45.43417,13.19906 83.25131,30.67753 113.45663,52.401 33.3229,23.97755 47.8764,46.29806 43.6992,67.04447 -2.4294,21.25319 -22.4262,33.53676 -60.05024,36.90335 -34.10097,3.0422 -73.87139,-2.02003 -119.30556,-15.2191 z M 281.53995,412.91383 c 29.34569,21.04775 66.09666,38.00404 110.25734,50.8334 44.16116,12.82913 82.82578,17.7819 115.93931,14.87938 29.62591,-2.63894 45.92971,-10.53201 48.87221,-23.76109 0.8059,-8.53275 -3.735,-18.05531 -13.6081,-28.58049 -5.9878,-6.38331 -13.93691,-13.13541 -23.84401,-20.25914 -29.34585,-21.0484 -66.12147,-38.01136 -110.28264,-50.84049 -44.16068,-12.82936 -82.80064,-17.77547 -115.91401,-14.87229 -29.65117,2.63184 -45.95502,10.52491 -48.89748,23.754 -1.27813,13.69333 11.21008,29.97427 37.46466,48.84284 z"
         inkscape:connector-curvature="0"
         style="fill:#45d0c6;fill-opacity:1;stroke:none;stroke-width:0.59519839"
         sodipodi:nodetypes="scccscccsccccscccccc" />
    </g>
  </g>
  <g
     id="shape26"
     transform="matrix(0.75986798,0,0,1.0109256,-125.9132,-281.72298)"
     style="fill:#45003f;fill-opacity:1;stroke:none">
    <path
       style="fill:#45003f;fill-opacity:1;stroke:none"
       inkscape:connector-curvature="0"
       d="m 564.001,602.135 c 78.806,-45.5 141.519,-92.273 188.121,-140.253 51.454,-52.975 68.71,-92.383 51.72,-118.31 -13.96,-27.678 -56.716,-32.436 -128.32,-14.361 -64.852,16.371 -136.715,47.297 -215.521,92.797 -78.806,45.5 -141.519,92.274 -188.164,140.278 -51.454,52.975 -68.668,92.358 -51.677,118.286 13.959,27.677 56.673,32.46 128.277,14.385 64.895,-16.395 136.758,-47.322 215.564,-92.822 z M 734.899,445.153 c -45.343,46.559 -106.301,91.974 -182.898,136.199 -76.598,44.225 -146.449,74.335 -209.442,90.326 -56.377,14.249 -90.261,13.259 -101.615,-3.106 -8.496,-18.015 7.588,-47.855 48.115,-89.556 45.343,-46.56 106.344,-91.999 182.942,-136.224 76.597,-44.225 146.405,-74.311 209.398,-90.301 56.421,-14.274 90.305,-13.284 101.659,3.081 q 12.688,27.008 -48.137,89.568 z"
       id="path20" />
  </g>
  <g
     style="overflow:visible;fill:#00bbf2;fill-opacity:1"
     overflow="visible"
     id="Symbole.__212_2"
     transform="matrix(0.99695041,0,0,0.98428033,-319.15104,-211.64649)">
    <g
       id="Calque.__217"
       style="fill:#00bbf2;fill-opacity:1">
      <g
         id="shape27"
         style="fill:#00bbf2;fill-opacity:1">
        <path
           style="fill:#00bbf2;fill-opacity:1"
           inkscape:connector-curvature="0"
           d="M 549.45,549.45 Q 565,533.95 565,512 c 0,-14.65 -5.2,-27.15 -15.55,-37.5 C 539.1,464.15 526.65,459 512,459 c -14.65,0 -27.15,5.15 -37.5,15.5 -10.35,10.35 -15.5,22.85 -15.5,37.5 0,14.65 5.15,27.1 15.5,37.45 10.35,10.35 22.85,15.55 37.5,15.55 14.65,0 27.1,-5.2 37.45,-15.55 z"
           id="path21" />
      </g>
    </g>
  </g>
  <g
     style="overflow:visible;fill:#b33916;fill-opacity:1"
     overflow="visible"
     id="Symbole.__212_2-3"
     transform="matrix(0.37612103,0,0,0.35078106,-93.862102,-32.142269)">
    <g
       id="Calque.__217-6"
       style="fill:#b33916;fill-opacity:1">
      <g
         id="shape27-7"
         style="fill:#b33916;fill-opacity:1">
        <path
           style="fill:#b33916;fill-opacity:1"
           inkscape:connector-curvature="0"
           d="M 549.45,549.45 Q 565,533.95 565,512 c 0,-14.65 -5.2,-27.15 -15.55,-37.5 C 539.1,464.15 526.65,459 512,459 c -14.65,0 -27.15,5.15 -37.5,15.5 -10.35,10.35 -15.5,22.85 -15.5,37.5 0,14.65 5.15,27.1 15.5,37.45 10.35,10.35 22.85,15.55 37.5,15.55 14.65,0 27.1,-5.2 37.45,-15.55 z"
           id="path21-5" />
      </g>
    </g>
  </g>
  <g
     style="overflow:visible;fill:#00ff00"
     overflow="visible"
     id="Symbole.__212_2-35"
     transform="matrix(0.55350083,0,0,0.54083085,164.98647,-219.42565)">
    <g
       id="Calque.__217-62"
       style="fill:#00ff00">
      <g
         id="shape27-9"
         style="fill:#00ff00">
        <path
           style="fill:#00ff00;fill-opacity:1"
           inkscape:connector-curvature="0"
           d="M 549.45,549.45 Q 565,533.95 565,512 c 0,-14.65 -5.2,-27.15 -15.55,-37.5 C 539.1,464.15 526.65,459 512,459 c -14.65,0 -27.15,5.15 -37.5,15.5 -10.35,10.35 -15.5,22.85 -15.5,37.5 0,14.65 5.15,27.1 15.5,37.45 10.35,10.35 22.85,15.55 37.5,15.55 14.65,0 27.1,-5.2 37.45,-15.55 z"
           id="path21-1" />
      </g>
    </g>
  </g>
</svg>
