<?xml version="1.0" encoding="UTF-8" standalone="no"?>
<!-- Created with Inkscape (http://www.inkscape.org/) -->

<svg
   xmlns:dc="http://purl.org/dc/elements/1.1/"
   xmlns:cc="http://creativecommons.org/ns#"
   xmlns:rdf="http://www.w3.org/1999/02/22-rdf-syntax-ns#"
   xmlns:svg="http://www.w3.org/2000/svg"
   xmlns="http://www.w3.org/2000/svg"
   xmlns:sodipodi="http://sodipodi.sourceforge.net/DTD/sodipodi-0.dtd"
   xmlns:inkscape="http://www.inkscape.org/namespaces/inkscape"
   width="256"
   height="256"
   id="svg3012"
   version="1.1"
   inkscape:version="0.48.3.1 r9886"
   sodipodi:docname="manaplus-icon.svg">
  <defs
     id="defs3014" />
  <sodipodi:namedview
     id="base"
     pagecolor="#ffffff"
     bordercolor="#666666"
     borderopacity="1.0"
     inkscape:pageopacity="0.0"
     inkscape:pageshadow="2"
     inkscape:zoom="1.375"
     inkscape:cx="-6.4966419"
     inkscape:cy="130.6424"
     inkscape:current-layer="layer1"
     showgrid="true"
     inkscape:document-units="px"
     inkscape:grid-bbox="true"
     inkscape:window-width="1680"
     inkscape:window-height="991"
     inkscape:window-x="0"
     inkscape:window-y="27"
     inkscape:window-maximized="1" />
  <metadata
     id="metadata3017">
    <rdf:RDF>
      <cc:Work
         rdf:about="">
        <dc:format>image/svg+xml</dc:format>
        <dc:type
           rdf:resource="http://purl.org/dc/dcmitype/StillImage" />
        <dc:title></dc:title>
      </cc:Work>
    </rdf:RDF>
  </metadata>
  <g
     id="layer1"
     inkscape:label="Layer 1"
     inkscape:groupmode="layer"
     transform="translate(0,192)">
    <path
       d="m 114.40989,-116.42156 c 4.88098,1.3e-4 9.6559,0.53069 14.32477,1.59166 4.77492,1.06121 8.86005,3.07728 12.25569,6.04826 l 0.15919,0 c 0.84878,0.74289 1.69767,1.11426 2.54666,1.11414 1.06089,1.2e-4 2.28119,-0.42429 3.66079,-1.2733 1.37928,-0.9549 3.23624,-1.96292 5.57067,-3.02413 2.33433,-1.16709 5.30542,-2.17513 8.91318,-3.02412 3.71382,-0.95487 8.43561,-1.43238 14.16569,-1.43251 6.79086,1.3e-4 12.57386,0.84901 17.34889,2.54668 4.77482,1.69785 8.5948,4.08529 11.45994,7.16239 2.97089,3.07726 5.0931,6.897236 6.36664,11.459856 1.37917,4.456682 2.06887,9.443816 2.06897,14.961461 -1e-4,4.138354 -0.31838,8.594935 -0.95494,13.369806 l -6.36664,45.839401 c -0.10627,0.848895 -0.53071,1.85694 -1.27322,3.024125 -0.74304,1.061105 -1.59192,2.122211 -2.54665,3.183275 -0.95516,1.061127 -1.96323,1.96304 -3.02413,2.705835 -0.95515,0.742764 -1.75101,1.114135 -2.38756,1.114135 l -22.91968,0 c -0.42455,0 -0.63677,-0.212253 -0.63666,-0.636663 l 0,-0.477472 c 0.31817,-2.440543 0.74272,-5.411597 1.27333,-8.913235 0.53039,-3.607718 1.061,-7.427667 1.5916,-11.459837 0.5305,-4.13825 1.11414,-8.329591 1.75091,-12.574025 0.63655,-4.35047 1.16705,-8.48872 1.5916,-12.414822 0.42434,-4.032128 0.79565,-7.745945 1.11414,-11.141526 0.31817,-3.395433 0.47736,-6.207358 0.47747,-8.435722 -1.1e-4,-4.66876 -0.47758,-8.488667 -1.43242,-11.459858 -0.84899,-3.077091 -1.96323,-5.464528 -3.34251,-7.162398 -1.37949,-1.80377 -2.91806,-3.02402 -4.61573,-3.66077 -1.59171,-0.742656 -3.13039,-1.114056 -4.61573,-1.114136 -2.01626,8e-5 -3.76706,0.37148 -5.25239,1.114136 -1.48576,0.63675 -2.38768,1.27341 -2.70585,1.90996 -1.06121,1.91007 -2.01615,4.0853 -2.86493,6.525746 -0.84899,2.440586 -1.64485,5.040311 -2.38746,7.799059 -0.63677,2.758917 -1.22041,5.517792 -1.75091,8.276583 -0.5306,2.758896 -0.95505,5.411629 -1.27322,7.958209 l -6.36663,45.839401 c -0.10627,0.848895 -0.53061,1.85694 -1.27333,3.024125 -0.74283,1.061105 -1.59171,2.122211 -2.54655,3.183275 -0.95515,1.061127 -1.96323,1.96304 -3.02423,2.705835 -0.95505,0.742764 -1.7509,1.114135 -2.38746,1.114135 l -22.91968,0 c -0.42444,0 -0.63666,-0.265377 -0.63666,-0.795845 l 0,-0.31829 c 0.31828,-2.440543 0.74272,-5.411597 1.27333,-8.913235 0.5305,-3.607718 1.0611,-7.427667 1.59171,-11.459837 0.63656,-4.13825 1.22009,-8.329591 1.7508,-12.574025 0.63656,-4.35047 1.16706,-8.48872 1.5916,-12.414822 0.5305,-4.032128 0.90181,-7.745945 1.11414,-11.141526 0.31828,-3.395433 0.47747,-6.207358 0.47747,-8.435722 0,-4.66876 -0.47758,-8.488667 -1.43241,-11.459858 -0.84899,-3.077091 -1.96313,-5.464528 -3.34251,-7.162398 -1.37949,-1.80377 -2.91807,-3.02402 -4.61573,-3.66077 -1.59172,-0.742656 -3.13029,-1.114056 -4.61584,-1.114136 -1.90999,8e-5 -3.60776,0.37148 -5.0932,1.114136 -1.48555,0.63675 -2.4406,1.27341 -2.86494,1.90996 -1.06121,1.91007 -2.06929,4.0853 -3.02412,6.525746 -0.84899,2.440586 -1.64485,5.040311 -2.387466,7.799059 -0.636769,2.758917 -1.220404,5.517792 -1.750904,8.276583 -0.424442,2.758896 -0.795856,5.411629 -1.114134,7.958209 l -6.207337,45.839401 c -0.106375,0.848895 -0.583741,1.85694 -1.43252,3.024125 -0.742826,1.061105 -1.591711,2.122211 -2.546653,3.183275 -0.955048,1.061127 -1.96302,1.96304 -3.024126,2.705835 -0.955048,0.742764 -1.750798,1.114135 -2.387461,1.114135 l -22.760482,0 c -0.530606,0 -0.795856,-0.371371 -0.795856,-1.114135 l 12.573972,-91.678779 c 0.106163,-0.84881 0.5305,-1.85684 1.273327,-3.02416 0.742721,-1.16708 1.591606,-2.2282 2.546654,-3.18328 0.954942,-1.06098 1.909885,-1.9629 2.864933,-2.70579 1.061106,-0.74266 1.90999,-1.11406 2.546654,-1.11414 l 3.183317,0 10.345702,0 c 2.016049,8e-5 3.55452,0.15914 4.615731,0.47746 1.061,0.21225 2.016049,0.31845 2.864933,0.31834 0.636664,1.1e-4 1.167166,-0.10609 1.591716,-0.31834 6.1542,-2.01595 12.78609,-3.02401 19.89555,-3.02414 l 0.15908,0"
       id="text2395"
       style="font-size:66.33274078px;font-style:normal;font-variant:normal;font-weight:normal;font-stretch:normal;text-align:start;line-height:125%;writing-mode:lr-tb;text-anchor:start;fill:#ff6600;fill-opacity:1;stroke:none;font-family:Beroga;-inkscape-font-specification:Beroga"
       sodipodi:nodetypes="ccccscccssccsccsssccccsssssscccscsscsccsssccccsccccscccscccccccsssccccscsccccsccc"
       inkscape:connector-curvature="0"
       inkscape:export-filename="/home/dan/evolonline/manaplus-android/project/res/drawable/publisherlogo.png"
       inkscape:export-xdpi="89"
       inkscape:export-ydpi="89" />
    <path
       style="fill:#ff6600;fill-opacity:1;fill-rule:evenodd;stroke:none;stroke-width:8;marker:none;visibility:visible;display:inline;overflow:visible;enable-background:accumulate"
       d="m 131.2755,-191.94644 c -2.07583,0.0657 -4.13424,0.17245 -6.13624,0.36097 C 56.070406,-185.08419 -22.330365,-94.238284 14.144843,-12.911642 55.793642,79.950253 171.22442,83.234948 231.35083,26.252226 284.3121,-23.939864 217.7355,-58.353273 184.4265,12.265118 155.45055,73.696743 34.181626,66.476692 27.409986,-32.493581 18.800927,-158.32019 146.26398,-217.64547 223.04885,-156.4824 c -22.0316,-23.72166 -60.63525,-36.45264 -91.77335,-35.46404 z m 99.35352,172.898511 c 4.41323,-0.282965 8.07962,1.068258 10.19686,4.15101 4.83989,7.0462706 -0.32894,20.5961428 -11.55047,30.23017 -11.22173,9.63408 -24.2173,11.738746 -29.05708,4.692454 -4.83978,-7.04626 0.32905,-20.59613226 11.55058,-30.230191 6.31223,-5.41914 13.1857,-8.479476 18.86011,-8.843443 z"
       id="path2406"
       inkscape:connector-curvature="0"
       inkscape:export-filename="/home/dan/evolonline/manaplus-android/project/res/drawable/publisherlogo.png"
       inkscape:export-xdpi="89"
       inkscape:export-ydpi="89" />
    <g
       id="g3760"
       transform="matrix(-0.22563454,0.78651078,-0.78651078,-0.22563454,180.07086,-336.7049)"
       style="stroke:#ff6600;stroke-width:16;stroke-linecap:round;stroke-miterlimit:4;stroke-opacity:1;stroke-dasharray:none">
      <path
         inkscape:connector-curvature="0"
         id="path2984"
         d="m 192.91312,-119.95914 56.93945,0"
         style="fill:none;stroke:#ff6600;stroke-width:16;stroke-linecap:round;stroke-linejoin:miter;stroke-miterlimit:4;stroke-opacity:1;stroke-dasharray:none" />
      <path
         style="fill:none;stroke:#ff6600;stroke-width:16;stroke-linecap:round;stroke-linejoin:miter;stroke-miterlimit:4;stroke-opacity:1;stroke-dasharray:none"
         d="m 221.38285,-148.42886 0,56.939445"
         id="path2986"
         inkscape:connector-curvature="0" />
    </g>
  </g>
</svg>
