<?xml version="1.0" encoding="UTF-8"?>
<!-- Created with Inkscape (http://www.inkscape.org/) -->
<svg width="405.29mm" height="162.51mm" version="1.1" viewBox="0 0 405.29 162.51" xmlns="http://www.w3.org/2000/svg" xmlns:cc="http://creativecommons.org/ns#" xmlns:dc="http://purl.org/dc/elements/1.1/" xmlns:rdf="http://www.w3.org/1999/02/22-rdf-syntax-ns#" xmlns:xlink="http://www.w3.org/1999/xlink">
<style type="text/css">
  #dots01 {
      fill: url(#linearGradientCycleA);
      visibility: visible;
  }
</style>
 <defs>
  <linearGradient id="linearGradientCycleA" x1="952.34" x2="1035.1" y1="2749.3" y2="2895.8" gradientTransform="translate(-5.4511e-5 164.8)" gradientUnits="userSpaceOnUse">
   <stop stop-color="#00d3ff" stop-opacity="0.99" offset="0">
    <animate attributeName="stop-color" values="#00d3ff;#8c46a8;#ff0002;#8c46a8;#00d3ff" dur="20s" repeatCount="indefinite" />
    <animate attributeName="x1"         values="952.34;1494.9;952.34;1494.9;952.34"      dur="20s" repeatCount="indefinite" />
    <animate attributeName="x2"         values="1035.1;1588.3;1035.1;1588.3;1035.1"      dur="20s" repeatCount="indefinite" />
    <animate attributeName="y1"         values="2749.3;2764.8;2749.3;2764.8;2749.3"      dur="20s" repeatCount="indefinite" />
    <animate attributeName="y2"         values="2895.8;2818.2;2895.8;2818.2;2895.8"      dur="20s" repeatCount="indefinite" />
   </stop>
   <stop stop-color="#00da04" stop-opacity="0.99" offset="1">
    <animate attributeName="stop-color" values="#00da04;#4ec5d5;#ffff02;#4ec5d5;#00da04" dur="20s" repeatCount="indefinite" />
    <animate attributeName="x1"         values="952.34;1494.9;952.34;1494.9;952.34"      dur="20s" repeatCount="indefinite" />
    <animate attributeName="x2"         values="1035.1;1588.3;1035.1;1588.3;1035.1"      dur="20s" repeatCount="indefinite" />
    <animate attributeName="y1"         values="2749.3;2764.8;2749.3;2764.8;2749.3"      dur="20s" repeatCount="indefinite" />
    <animate attributeName="y2"         values="2895.8;2818.2;2895.8;2818.2;2895.8"      dur="20s" repeatCount="indefinite" />
   </stop>
  </linearGradient>
 </defs>
 <metadata>
  <rdf:RDF>
   <cc:Work rdf:about="">
    <dc:format>image/svg+xml</dc:format>
    <dc:type rdf:resource="http://purl.org/dc/dcmitype/StillImage"/>
    <dc:title/>
   </cc:Work>
  </rdf:RDF>
 </metadata>
 <g transform="translate(77.273 -237.34)">
  <g transform="translate(-964.3 -2662.9)">
   <g transform="translate(0 631.98)">
    <path d="m902.26 2404.5c-0.9968 0.056-1.3048 1.378-0.43555 1.8692 23.385 13.674 52.732 19.224 94.666 9.771 1.374-0.2446 1.2969-0.6525-0.0492-0.2839-41.552 9.3671-70.62 2.2276-93.607-11.214-0.17264-0.1044-0.37281-0.1541-0.57421-0.1426z" style="color-rendering:auto;color:#000000;dominant-baseline:auto;fill-rule:evenodd;font-feature-settings:normal;font-variant-alternates:normal;font-variant-caps:normal;font-variant-ligatures:normal;font-variant-numeric:normal;font-variant-position:normal;image-rendering:auto;isolation:auto;mix-blend-mode:normal;shape-padding:0;shape-rendering:auto;solid-color:#000000;text-decoration-color:#000000;text-decoration-line:none;text-decoration-style:solid;text-indent:0;text-orientation:mixed;text-transform:none;white-space:normal"/>
    <path d="m906.09 2368.2c-0.8492 0.048-1.2542 1.0674-0.66992 1.6855 18.996 20.704 46.445 34.922 90.978 35.846 1.3882 0.087 1.3913-0.3857 6.9e-4 -0.3556-44.11-0.9154-70.834-16.494-89.504-36.842-0.20309-0.2285-0.49951-0.3515-0.80469-0.334z" style="color-rendering:auto;color:#000000;dominant-baseline:auto;fill-rule:evenodd;font-feature-settings:normal;font-variant-alternates:normal;font-variant-caps:normal;font-variant-ligatures:normal;font-variant-numeric:normal;font-variant-position:normal;image-rendering:auto;isolation:auto;mix-blend-mode:normal;shape-padding:0;shape-rendering:auto;solid-color:#000000;text-decoration-color:#000000;text-decoration-line:none;text-decoration-style:solid;text-indent:0;text-orientation:mixed;text-transform:none;white-space:normal"/>
    <path d="m921.6 2334c-0.75897-0.024-1.2666 0.7735-0.92382 1.4511 12.579 25.769 35.198 47.078 77.809 59.602 1.3055 0.4264 1.363 0.056 0.0347-0.2925-42.181-12.397-63.677-34.848-76.047-60.188-0.1605-0.3395-0.49768-0.5605-0.87305-0.5722z" style="color-rendering:auto;color:#000000;dominant-baseline:auto;fill-rule:evenodd;font-feature-settings:normal;font-variant-alternates:normal;font-variant-caps:normal;font-variant-ligatures:normal;font-variant-numeric:normal;font-variant-position:normal;image-rendering:auto;isolation:auto;mix-blend-mode:normal;shape-padding:0;shape-rendering:auto;solid-color:#000000;text-decoration-color:#000000;text-decoration-line:none;text-decoration-style:solid;text-indent:0;text-orientation:mixed;text-transform:none;white-space:normal"/>
    <path d="m945.99 2302.8c-0.63115-0.015-1.1177 0.5522-1.0078 1.1739 4.8428 29.589 20.455 57.54 57.887 81.149 1.1385 0.7602 1.2983 0.4372 0.1215-0.2622-37.022-23.351-51.264-52.068-56.034-81.209-0.0721-0.4813-0.48026-0.8408-0.9668-0.8516z" style="color-rendering:auto;color:#000000;dominant-baseline:auto;fill-rule:evenodd;font-feature-settings:normal;font-variant-alternates:normal;font-variant-caps:normal;font-variant-ligatures:normal;font-variant-numeric:normal;font-variant-position:normal;image-rendering:auto;isolation:auto;mix-blend-mode:normal;shape-padding:0;shape-rendering:auto;solid-color:#000000;text-decoration-color:#000000;text-decoration-line:none;text-decoration-style:solid;text-indent:0;text-orientation:mixed;text-transform:none;white-space:normal"/>
    <path d="m978.18 2282.3c-0.51355 0.01-0.93735 0.4042-0.98047 0.916-3.1111 31.232 4.2663 63.146 33.472 94.213 0.9107 1.0262 1.1629 0.8227 0.1953-0.15-28.833-30.67-34.747-63.048-31.677-93.866 0.0684-0.5998-0.40615-1.123-1.0098-1.1133z" style="color-rendering:auto;color:#000000;dominant-baseline:auto;fill-rule:evenodd;font-feature-settings:normal;font-variant-alternates:normal;font-variant-caps:normal;font-variant-ligatures:normal;font-variant-numeric:normal;font-variant-position:normal;image-rendering:auto;isolation:auto;mix-blend-mode:normal;shape-padding:0;shape-rendering:auto;solid-color:#000000;text-decoration-color:#000000;text-decoration-line:none;text-decoration-style:solid;text-indent:0;text-orientation:mixed;text-transform:none;white-space:normal"/>
    <path d="m1010.7 2377.3c-11.042 7.1549-15.682 22.082-14.212 38.706" style="fill:none;stroke-linecap:round;stroke-width:.3;stroke:#000"/>
    <path d="m1000.2 2364.9c-19.59 16.156-22.516 30.876-18.458 53.937" style="fill:none;stroke-linecap:round;stroke-width:.6;stroke:#000"/>
    <path d="m978.1 2283.4c-34.598 8.2602-82.755 75.883-75.692 122.33" style="fill:none;stroke-linecap:round;stroke-width:2;stroke:#000"/>
    <path d="m979.54 2318.4c-29.667 14.654-54.765 66.199-45.201 99.516" style="fill:none;stroke-linecap:round;stroke-width:1.7;stroke:#000"/>
    <path d="m988.75 2346.2c-28.427 22.264-34.486 46.067-27.834 74.16" style="fill:none;stroke-linecap:round;stroke:#000"/>
   </g>
   <g id="dots01"> 
   <path d="m1014.7 3008.6a3.9347 3.9347 0 0 0-4.7072-2.9676 3.9347 3.9347 0 0 0-2.9675 4.7072 3.9347 3.9347 0 0 0 4.7071 2.9674 3.9347 3.9347 0 0 0 2.9676-4.707zm-8.0931 7.5347a3.9347 3.9347 0 0 0-4.7072-2.9675 3.9347 3.9347 0 0 0-2.9675 4.7071 3.9347 3.9347 0 0 0 4.7072 2.9676 3.9347 3.9347 0 0 0 2.9675-4.7072zm-4.2911 9.9186a3.9347 3.9347 0 0 0-4.7072-2.9675 3.9347 3.9347 0 0 0-2.9675 4.7071 3.9347 3.9347 0 0 0 4.7072 2.9676 3.9347 3.9347 0 0 0 2.9676-4.7072zm-1.9916 10.398a3.9347 3.9347 0 0 0-4.7072-2.9675 3.9347 3.9347 0 0 0-2.9675 4.7071 3.9347 3.9347 0 0 0 4.7072 2.9676 3.9347 3.9347 0 0 0 2.9676-4.7072zm0.1191 10.604a3.9347 3.9347 0 0 0-4.7072-2.9675 3.9347 3.9347 0 0 0-2.9675 4.7071 3.9347 3.9347 0 0 0 4.7072 2.9676 3.9347 3.9347 0 0 0 2.9676-4.7072zm-12.641 2.7312a6.0136 6.0136 0 0 0-7.1941-4.5353 6.0136 6.0136 0 0 0-4.5354 7.1941 6.0136 6.0136 0 0 0 7.1942 4.5354 6.0136 6.0136 0 0 0 4.5354-7.1942zm-1.4246-14.833a6.0136 6.0136 0 0 0-7.1942-4.5355 6.0136 6.0136 0 0 0-4.5354 7.1942 6.0136 6.0136 0 0 0 7.1942 4.5355 6.0136 6.0136 0 0 0 4.5354-7.1942zm1.7382-14.754a6.0136 6.0136 0 0 0-7.1942-4.5354 6.0136 6.0136 0 0 0-4.5354 7.1941 6.0136 6.0136 0 0 0 7.1941 4.5354 6.0136 6.0136 0 0 0 4.5354-7.1941zm7.0939-13.372a6.0136 6.0136 0 0 0-7.1941-4.5354 6.0136 6.0136 0 0 0-4.5354 7.1941 6.0136 6.0136 0 0 0 7.1942 4.5355 6.0136 6.0136 0 0 0 4.5354-7.1942zm10.856-10.823a6.0136 6.0136 0 0 0-7.1942-4.5354 6.0136 6.0136 0 0 0-4.5354 7.1941 6.0136 6.0136 0 0 0 7.1942 4.5354 6.0136 6.0136 0 0 0 4.5354-7.1941zm-7.297-19.207a9.4881 9.4881 0 0 0-11.351-7.156 9.4881 9.4881 0 0 0-7.1559 11.351 9.4881 9.4881 0 0 0 11.351 7.1559 9.4881 9.4881 0 0 0 7.1559-11.351zm-15.834 14.383a9.4881 9.4881 0 0 0-11.351-7.1558 9.4881 9.4881 0 0 0-7.1559 11.351 9.4881 9.4881 0 0 0 11.351 7.156 9.4881 9.4881 0 0 0 7.1559-11.351zm-10.769 18.363a9.4881 9.4881 0 0 0-11.351-7.1559 9.4881 9.4881 0 0 0-7.1559 11.351 9.4881 9.4881 0 0 0 11.351 7.1558 9.4881 9.4881 0 0 0 7.1559-11.351zm-4.1461 20.51a9.4881 9.4881 0 0 0-11.351-7.1558 9.4881 9.4881 0 0 0-7.1559 11.351 9.4881 9.4881 0 0 0 11.351 7.1559 9.4881 9.4881 0 0 0 7.1559-11.351zm2.3856 21.027a9.4881 9.4881 0 0 0-11.351-7.1558 9.4881 9.4881 0 0 0-7.1559 11.351 9.4881 9.4881 0 0 0 11.351 7.1559 9.4881 9.4881 0 0 0 7.1559-11.351zm-24.132-3.9238a12.294 12.294 0 0 0-14.708-9.2723 12.294 12.294 0 0 0-9.2724 14.708 12.294 12.294 0 0 0 14.708 9.2724 12.294 12.294 0 0 0 9.2724-14.708zm-1.1158-28.017a12.294 12.294 0 0 0-14.708-9.2725 12.294 12.294 0 0 0-9.2724 14.708 12.294 12.294 0 0 0 14.708 9.2724 12.294 12.294 0 0 0 9.2724-14.708zm8.8542-26.289a12.294 12.294 0 0 0-14.708-9.2725 12.294 12.294 0 0 0-9.2724 14.708 12.294 12.294 0 0 0 14.708 9.2724 12.294 12.294 0 0 0 9.2724-14.708zm15.503-25.706a12.294 12.294 0 0 0-14.708-9.2724 12.294 12.294 0 0 0-9.2724 14.708 12.294 12.294 0 0 0 14.708 9.2724 12.294 12.294 0 0 0 9.2724-14.708zm22.178-18.962a12.294 12.294 0 0 0-14.708-9.2724 12.294 12.294 0 0 0-9.2724 14.708 12.294 12.294 0 0 0 14.708 9.2724 12.294 12.294 0 0 0 9.2724-14.708zm1.8776-35.751a15.502 15.502 0 0 0-18.545-11.691 15.502 15.502 0 0 0-11.691 18.545 15.502 15.502 0 0 0 18.545 11.691 15.502 15.502 0 0 0 11.691-18.545zm-32.16 20.586a15.502 15.502 0 0 0-18.545-11.691 15.502 15.502 0 0 0-11.691 18.545 15.502 15.502 0 0 0 18.545 11.691 15.502 15.502 0 0 0 11.691-18.545zm-24.027 30.933a15.502 15.502 0 0 0-18.545-11.691 15.502 15.502 0 0 0-11.691 18.545 15.502 15.502 0 0 0 18.545 11.691 15.502 15.502 0 0 0 11.691-18.545zm-16.195 33.03a15.502 15.502 0 0 0-18.545-11.691 15.502 15.502 0 0 0-11.691 18.545 15.502 15.502 0 0 0 18.545 11.691 15.502 15.502 0 0 0 11.691-18.545zm-3.4603 36.638a15.502 15.502 0 0 0-18.545-11.691 15.502 15.502 0 0 0-11.691 18.545 15.502 15.502 0 0 0 18.545 11.691 15.502 15.502 0 0 0 11.691-18.545z"/>
   </g>
   <g aria-label="DICOM automaton">
    <path d="m1066.7 2964.8c0-13.948-10.443-25.34-23.441-25.34h-27.604v2.2638h1.7526c5.6229 0 5.769 0.8033 5.769 3.4322v38.484c0 2.6289-0.1461 3.4321-5.769 3.4321h-1.7526v2.2638h27.604c12.852 0 23.441-10.808 23.441-24.536zm-7.3025 0c0 7.3755-1.3145 12.633-4.7466 16.577-2.9941 3.3591-7.6677 5.6959-13.364 5.6959h-8.2518c-3.4322 0-3.5783-0.5111-3.5783-2.921v-39.506c0-2.4098 0.1461-2.921 3.5783-2.921h8.2518c4.0894 0 9.7853 1.2414 14.021 6.8644 3.2861 4.3084 4.0894 10.662 4.0894 16.212z" style="stroke-width:.26458px"/>
    <path d="m1097.9 2989.3v-2.2638h-1.8986c-5.769 0-5.9881-0.8032-5.9881-3.4321v-38.484c0-2.6289 0.2191-3.4322 5.9881-3.4322h1.8986v-2.2638c-2.5559 0.2191-8.3248 0.2191-11.1 0.2191-2.848 0-8.6169 0-11.173-0.2191v2.2638h1.8986c5.769 0 5.9881 0.8033 5.9881 3.4322v38.484c0 2.6289-0.2191 3.4321-5.9881 3.4321h-1.8986v2.2638c2.5559-0.2191 8.3248-0.2191 11.1-0.2191 2.848 0 8.6169 0 11.173 0.2191z" style="stroke-width:.26458px"/>
    <path d="m1153.7 2972.3c0-0.7303 0-1.2414-0.9494-1.2414-0.8032 0-0.8032 0.4381-0.8763 1.1684-0.5842 10.589-9.1281 16.431-17.307 16.431-6.4262 0-20.155-3.7973-20.155-24.244 0-21.542 14.97-24.317 20.009-24.317 7.8136 0 15.262 6.061 16.942 17.307 0.146 1.0223 0.219 1.2414 1.1684 1.2414 1.1684 0 1.1684-0.2191 1.1684-1.7526v-17.307c0-1.2414 0-1.7526-0.8033-1.7526-0.2921 0-0.5842 0-1.1684 0.8763l-3.7973 5.6229c-2.4098-2.4828-6.8644-6.4992-14.386-6.4992-14.386 0-26.654 11.684-26.654 26.508 0 14.897 12.268 26.581 26.727 26.581 12.341 0 20.082-9.9314 20.082-18.621z" style="stroke-width:.26458px"/>
    <path d="m1215.3 2964.6c0-14.97-11.684-26.727-25.486-26.727-14.094 0-25.559 11.903-25.559 26.727 0 14.751 11.611 26.362 25.486 26.362 14.094 0 25.559-11.757 25.559-26.362zm-7.5215-1.0953c0 19.06-10.516 25.559-17.964 25.559-7.8867 0-18.037-6.8643-18.037-25.559 0-17.818 10.589-23.806 17.964-23.806 7.6676 0 18.037 6.2071 18.037 23.806z" style="stroke-width:.26458px"/>
    <path d="m1288.5 2989.3v-2.2638h-1.7526c-5.623 0-5.769-0.8032-5.769-3.4321v-38.484c0-2.6289 0.146-3.4322 5.769-3.4322h1.7526v-2.2638h-12.341c-1.6795 0-1.8986 0-2.4828 1.3875l-16.942 41.551-16.942-41.624c-0.5112-1.3145-0.9494-1.3145-2.4829-1.3145h-12.341v2.2638h1.7526c5.6229 0 5.769 0.8033 5.769 3.4322v36.512c0 1.9717 0 5.4038-7.5216 5.4038v2.2638l8.5439-0.2191 8.5439 0.2191v-2.2638c-7.5215 0-7.5215-3.4321-7.5215-5.4038v-39.506l0.073-0.073 18.694 45.933c0.2921 0.6572 0.6572 1.3144 1.3875 1.3144 0.7302 0 1.0953-0.6572 1.3874-1.3144l18.914-46.444 0.073 0.073v41.989c0 2.6289-0.1461 3.4321-5.769 3.4321h-1.7526v2.2638c2.7019-0.2191 7.6676-0.2191 10.516-0.2191s7.7406 0 10.443 0.2191z" style="stroke-width:.26458px"/>
    <path d="m1041 3038.2v-1.27c-2.8448 0-3.302-0.254-3.9624-2.032l-8.7376-22.555c-0.3048-0.8128-0.5588-1.1176-1.1176-1.1176-0.7112 0-0.8128 0.3048-1.0668 0.9652l-8.1788 20.98c-0.5588 1.3716-1.4224 3.6576-4.6228 3.7592v1.27c1.1176-0.1016 2.5908-0.1524 3.7084-0.1524l4.2164 0.1524v-1.27c-2.1336-0.1016-2.286-1.8288-2.286-2.286 0-0.4064 0-0.508 1.7272-5.0292h10.516l1.1176 2.8448c0.4064 1.016 1.0668 2.7432 1.0668 3.048 0 1.4224-1.8288 1.4224-2.6924 1.4224v1.27l5.3848-0.1524c1.7272 0 3.7084 0.1016 4.9276 0.1524zm-10.312-9.8552h-9.4996l4.7752-12.243z" style="stroke-width:.26458px"/>
    <path d="m1070.6 3013.3v-1.27c-1.27 0.1016-3.9624 0.1524-4.2672 0.1524-1.4224 0-2.8956-0.051-4.318-0.1524v1.27c3.6576 0 3.6576 2.6924 3.6576 3.8608v11.938c0 5.8928-4.3688 8.4836-7.8232 8.4836-1.524 0-6.7056-0.6096-6.7056-8.2296v-13.665c0-2.0828 0.254-2.3876 3.6576-2.3876v-1.27l-5.4864 0.1524-5.4864-0.1524v1.27c3.4544 0 3.6576 0.3048 3.6576 2.4892v11.024c0 1.27 0 3.1496 0.1016 3.81 0.4572 4.1148 4.5212 8.2296 10.16 8.2296 5.8928 0 9.144-5.1816 9.1948-8.89v-13.513c0.051-2.032 1.3716-3.1496 3.6576-3.1496z" style="stroke-width:.26458px"/>
    <path d="m1101 3021-0.7112-8.5852h-24.943l-0.7112 8.5852h1.27c0.4572-6.4008 1.4732-7.3152 7.112-7.3152 2.8448 0 2.9972 0 2.9972 2.1844v18.491c0 2.032-0.2032 2.5908-4.1148 2.5908h-1.0668v1.27c1.9812-0.1524 4.9784-0.1524 7.0104-0.1524s5.0292 0 7.0104 0.1524v-1.27h-1.0668c-3.9116 0-4.1148-0.5588-4.1148-2.5908v-18.491c0-2.1844 0.1524-2.1844 2.9972-2.1844 5.4864 0 6.604 0.8636 7.0612 7.3152z" style="stroke-width:.26458px"/>
    <path d="m1132.5 3025.2c0-7.5692-6.0452-13.868-13.564-13.868-7.5692 0-13.564 6.2992-13.564 13.868 0 7.6708 6.1468 13.665 13.564 13.665s13.564-5.9944 13.564-13.665zm-4.3688-0.5588c0 10.008-5.588 12.903-9.1948 12.903s-9.1948-2.8956-9.1948-12.903c0-9.5504 5.7912-12.04 9.1948-12.04 3.4544 0 9.1948 2.54 9.1948 12.04z" style="stroke-width:.26458px"/>
    <path d="m1170.7 3038.2v-1.27c-3.4036 0-3.6576-0.3048-3.6576-2.3876v-18.796c0-2.0828 0.254-2.3876 3.6576-2.3876v-1.27h-6.1468c-1.1684 0-1.3208 0-1.7272 0.9652l-8.6868 21.336-8.7376-21.387c-0.3556-0.9144-0.6604-0.9144-1.7272-0.9144h-6.1468v1.27c3.4036 0 3.6576 0.3048 3.6576 2.3876v17.323c0 1.1684 0 3.8608-3.6576 3.8608v1.27l4.3688-0.1524c0.762 0 3.0988 0.051 4.3688 0.1524v-1.27c-3.6576 0-3.6576-2.6924-3.6576-3.8608v-19.101l0.051-0.051 9.4996 23.368c0.2032 0.4572 0.4572 0.9144 0.9652 0.9144s0.762-0.4572 0.9652-0.9144l9.652-23.724 0.051 0.051v20.93c0 2.0828-0.254 2.3876-3.6576 2.3876v1.27l5.2832-0.1524c1.778 0 3.6068 0.1016 5.2832 0.1524z" style="stroke-width:.26458px"/>
    <path d="m1202.5 3038.2v-1.27c-2.8448 0-3.302-0.254-3.9624-2.032l-8.7376-22.555c-0.3048-0.8128-0.5588-1.1176-1.1176-1.1176-0.7112 0-0.8128 0.3048-1.0668 0.9652l-8.1788 20.98c-0.5588 1.3716-1.4224 3.6576-4.6228 3.7592v1.27c1.1176-0.1016 2.5908-0.1524 3.7084-0.1524l4.2164 0.1524v-1.27c-2.1336-0.1016-2.286-1.8288-2.286-2.286 0-0.4064 0-0.508 1.7272-5.0292h10.516l1.1176 2.8448c0.4064 1.016 1.0668 2.7432 1.0668 3.048 0 1.4224-1.8288 1.4224-2.6924 1.4224v1.27l5.3848-0.1524c1.7272 0 3.7084 0.1016 4.9276 0.1524zm-10.312-9.8552h-9.4996l4.7752-12.243z" style="stroke-width:.26458px"/>
    <path d="m1229 3021-0.7112-8.5852h-24.943l-0.7112 8.5852h1.27c0.4572-6.4008 1.4732-7.3152 7.112-7.3152 2.8448 0 2.9972 0 2.9972 2.1844v18.491c0 2.032-0.2032 2.5908-4.1148 2.5908h-1.0668v1.27c1.9812-0.1524 4.9784-0.1524 7.0104-0.1524s5.0292 0 7.0104 0.1524v-1.27h-1.0668c-3.9116 0-4.1148-0.5588-4.1148-2.5908v-18.491c0-2.1844 0.1524-2.1844 2.9972-2.1844 5.4864 0 6.604 0.8636 7.0612 7.3152z" style="stroke-width:.26458px"/>
    <path d="m1260.6 3025.2c0-7.5692-6.0452-13.868-13.564-13.868-7.5692 0-13.564 6.2992-13.564 13.868 0 7.6708 6.1468 13.665 13.564 13.665s13.564-5.9944 13.564-13.665zm-4.3688-0.5588c0 10.008-5.588 12.903-9.1948 12.903s-9.1948-2.8956-9.1948-12.903c0-9.5504 5.7912-12.04 9.1948-12.04 3.4544 0 9.1948 2.54 9.1948 12.04z" style="stroke-width:.26458px"/>
    <path d="m1292.2 3013.3v-1.27l-4.3688 0.1524c-0.762 0-3.0988-0.051-4.3688-0.1524v1.27c3.6576 0 3.6576 2.6924 3.6576 3.8608v15.088l-14.072-19.558c-0.4572-0.6604-0.5588-0.6604-1.524-0.6604h-6.096v1.27c1.2192 0 2.6416 0 3.6576 0.3556v19.355c0 1.1684 0 3.8608-3.6576 3.8608v1.27l4.3688-0.1524c0.762 0 3.0988 0.051 4.3688 0.1524v-1.27c-3.6576 0-3.6576-2.6924-3.6576-3.8608v-18.186l0.508 0.6096 15.951 22.149c0.4064 0.5588 0.5588 0.5588 0.8636 0.5588 0.7112 0 0.7112-0.3556 0.7112-1.3208v-19.66c0-1.1684 0-3.8608 3.6576-3.8608z" style="stroke-width:.26458px"/>
   </g>
   <flowRoot style="fill:black;font-family:'Latin Modern Roman';font-size:13.75px;letter-spacing:0px;line-height:125%;stroke-width:1px;word-spacing:0px;writing-mode:lr" xml:space="preserve"><flowRegion><rect x="194.29" y="-198.65" width="124.29" height="102.86"/></flowRegion><flowPara/></flowRoot>
  </g>
 </g>
</svg>
