<?xml version="1.0" encoding="UTF-8" standalone="no"?>
<!-- Generator: Adobe Illustrator 16.0.0, SVG Export Plug-In . SVG Version: 6.00 Build 0)  -->

<svg
   xmlns:dc="http://purl.org/dc/elements/1.1/"
   xmlns:cc="http://creativecommons.org/ns#"
   xmlns:rdf="http://www.w3.org/1999/02/22-rdf-syntax-ns#"
   xmlns:svg="http://www.w3.org/2000/svg"
   xmlns="http://www.w3.org/2000/svg"
   xmlns:sodipodi="http://sodipodi.sourceforge.net/DTD/sodipodi-0.dtd"
   xmlns:inkscape="http://www.inkscape.org/namespaces/inkscape"
   version="1.1"
   id="Capa_1"
   x="0px"
   y="0px"
   width="256"
   height="256"
   viewBox="0 0 256 256"
   xml:space="preserve"
   inkscape:version="0.91 r13725"
   sodipodi:docname="appicon.svg"
   inkscape:export-filename="/home/alexander/projects/stereophotoview/images/appico-48.png"
   inkscape:export-xdpi="16.875"
   inkscape:export-ydpi="16.875"><metadata
     id="metadata13"><rdf:RDF><cc:Work
         rdf:about=""><dc:format>image/svg+xml</dc:format><dc:type
           rdf:resource="http://purl.org/dc/dcmitype/StillImage" /><dc:title /></cc:Work></rdf:RDF></metadata><defs
     id="defs11" /><sodipodi:namedview
     pagecolor="#ffffff"
     bordercolor="#666666"
     borderopacity="1"
     objecttolerance="10"
     gridtolerance="10"
     guidetolerance="10"
     inkscape:pageopacity="0"
     inkscape:pageshadow="2"
     inkscape:window-width="1880"
     inkscape:window-height="1048"
     id="namedview9"
     showgrid="false"
     inkscape:zoom="2.8284271"
     inkscape:cx="125.98543"
     inkscape:cy="143.99227"
     inkscape:window-x="0"
     inkscape:window-y="0"
     inkscape:window-maximized="1"
     inkscape:current-layer="Capa_1" /><g
     id="g4137"
     transform="matrix(1.0011305,0,0,1.0011305,-2.0420315,-0.14470804)"><rect
       y="128.52342"
       x="14.801419"
       height="54.89032"
       width="95.391914"
       id="rect4141"
       style="fill:#ff0000;fill-opacity:0.498155;stroke:none" /><rect
       y="127.19114"
       x="150.42847"
       height="54.89032"
       width="95.391914"
       id="rect4141-3"
       style="fill:#00ffff;fill-opacity:0.49803922;stroke:none" /><g
       style="fill:#141414;fill-opacity:1;stroke:#ffffff;stroke-opacity:1"
       transform="matrix(4.1513791,0,0,4.1513791,4.1431047,-13.765065)"
       id="g3"><g
         style="fill:#141414;fill-opacity:1;stroke:#ffffff;stroke-opacity:1"
         id="g5"><path
           sodipodi:nodetypes="sccccsscccsccccccccscccssccsscccccccssccc"
           style="fill:#141414;fill-opacity:1;stroke:#ffffff;stroke-opacity:1;stroke-width:0.3"
           inkscape:connector-curvature="0"
           id="path7"
           d="m 6.492,50.137542 18.772,0 2.913,-6.548 c 1.17,-2.627 3.141,-2.663 4.401,-0.077 l 3.234,6.625 18.288,0 c 3.585,0 6.491,-2.907 6.491,-6.491 L 60.591,31.328 42.816,19.002941 c -0.999,-1.029 -2.877,-1.24 -3.456,0.071 -0.463,1.046 -0.841,2.637 -0.841,5.046 0,1.963 0.284,3.17 0.672,3.903 0.673,1.267 1.894,-0.22 2.206,-1.619 0.216,-0.976 0.751,-1.756 1.988,-1.31 2.706,0.974 7.574,6.235059 7.574,6.235059 l -41.329,0 c 0,0 4.869,-5.260059 7.574,-6.235059 1.239,-0.445 1.773,0.334 1.989,1.31 0.312,1.399 1.534,2.885 2.206,1.619 0.388,-0.733 0.673,-1.938 0.673,-3.903 0,-2.408 -0.379,-3.999 -0.843,-5.046 -0.579,-1.311 -2.456,-1.1 -3.454,-0.071 L 0,31.328 0,43.646542 c 0,3.584 2.906,6.491 6.492,6.491 z M 35.300551,34.356 l 22.746449,0 0,7.233542 c 0,3.048 -2.905,5.52 -6.491,5.52 l -13.367107,0 -2.870371,-5.269855 z M 2.813,34.573 l 22.553893,-0.04539 -0.06419,7.385439 -2.374859,5.412489 -13.621849,0 c -3.585,0 -6.491,-2.472 -6.491,-5.518 l 0,-7.235542 -0.002,0 z" /></g></g></g></svg>
