<svg id="Layer_1" data-name="Layer 1" xmlns="http://www.w3.org/2000/svg" xmlns:xlink="http://www.w3.org/1999/xlink" viewBox="0 0 512 512"><defs><style>.cls-1{fill:url(#linear-gradient);}</style><linearGradient id="linear-gradient" x1="31.35" y1="256" x2="480.65" y2="256" gradientUnits="userSpaceOnUse"><stop offset="0" stop-color="#d3a595"/><stop offset="1" stop-color="#93594a"/></linearGradient></defs><path class="cls-1" d="M408,254.54,479,131.66l-4.21-7.3H332.86L261.06,0h-8.42L180.85,124.36H35.56l-4.21,7.3L104,257.48,33.06,380.35l4.21,7.3H179.16L250.94,512h8.42l71.79-124.35H476.44l4.21-7.3ZM69.22,364.35l48.24-83.56,48.24,83.56Zm98.17-216.68-49.93,86.51L67.51,147.67Zm40.38-23.31,49.08-85,49.09,85ZM319.4,147.67l25.11,43.47H169.2l25.09-43.47ZM331,214.45,255.15,345.9,179.27,214.45Zm-177,2.94,84.84,147H192.6L130.92,257.48Zm150.2,170.26-49.1,85-49.08-85Zm-32.82-23.3L358,214.45l23.15,40.09L317.71,364.35ZM442.8,147.67l-48.24,83.56-48.24-83.56ZM394.56,277.84l49.93,86.51H344.62Z"/></svg>