<svg xmlns="http://www.w3.org/2000/svg" xmlns:xlink="http://www.w3.org/1999/xlink" width="1080" height="1080"><defs><linearGradient id="b"><stop offset="0" stop-color="#3c88f5"/><stop offset="1" stop-color="#4e77eb"/></linearGradient><linearGradient id="a"><stop offset="0" stop-color="#7550dc"/><stop offset=".299" stop-color="#7550dc"/><stop offset="1" stop-color="#3e87f5"/></linearGradient><linearGradient xlink:href="#a" id="c" x1="814.435" x2="399.131" y1="147.145" y2="814.537" gradientTransform="translate(4.012 -8.11)" gradientUnits="userSpaceOnUse"/><linearGradient xlink:href="#b" id="d" x1="97.108" x2="962.926" y1="915.934" y2="915.934" gradientTransform="translate(4.012 -8.11)" gradientUnits="userSpaceOnUse"/><linearGradient xlink:href="#b" id="e" x1="97.108" x2="962.926" y1="915.934" y2="915.934" gradientTransform="translate(4.012 78.458)" gradientUnits="userSpaceOnUse"/></defs><path fill="url(#c)" d="M276.737 42.338c-15.982.206-29.211 4.524-39.549 14.096-11.453 10.603-13.365 17.301-12.062 42.252.824 15.795 4.033 80.831 9.052 183.455l2.239 45.75h344.595v-2.975c0-5.757-5.708-104.161-9.619-179.025-2.032-38.895-1.529-53.39-2.803-53.643-100.284-19.846-181.662-36.16-274.959-48.787-5.934-.803-11.567-1.192-16.894-1.123m360.656 62.851c-.193.206 12.262 221.996 12.492 222.452.07.137 48.459.25 107.532.25h107.406l-.41-3.75c-2.48-22.702-5.046-130.29-11.338-148.565-4.753-13.801-19.17-31.232-34.627-36.54-27.815-9.555-81.604-14.23-173.9-32.659-3.831-.765-7.05-1.298-7.155-1.187m230.113 277.87c-.53-.541-213.568 3.574-214.13 4.136-.72.72 11.66 218.633 11.644 222.553-.006 1.78.396 2.202 1.64 1.725 2.107-.808 150.11-30.84 156.801-32.082 16.086-2.988 25.99-7.923 36.098-17.985 8.073-8.036 12.4-15.771 15.008-26.83 1.706-7.235 1.665-8.537-2.5-79.271-2.329-39.553-4.382-72.064-4.56-72.246m-282.908 4.832c-88.166.146-217.61 4.71-344.463 6.586-.538.476 10.728 229.785 11.914 242.513.775 8.303 1.618 11.895 3.889 16.584 7.315 15.1 23.723 25.704 43.574 28.157 10.265 1.268 15.874.57 49-6.09 488.681-98.264-111.97 22.511 248.5-50.155 0-7.089-1.84-44.335-6.957-135.595-1.888-33.997-3.639-68-5.457-102m375.877 215c-2.539 0-9.418 1.106-15.289 2.457-190.461 43.825-728.605 151.97-743.592 164.781-5.59 4.778-7.72 9.378-7.824 16.889-.064 4.645 1.01 8.398 6.152 21.5l10.748 27.373c8.233 20.96 7.935 20.462 13.743 22.869 23.627 9.793 33.477 31.551 45.916 24.976 1.201-.635 6.77-5.524 12.377-10.865 57.863-55.124 122.299-26.23 145.806-1.955 17.564 18.137 21.448 18.356 37.573 2.111 38.658-38.946 101.203-45.568 147.214-1.123 5.068 4.895 11.076 9.904 13.354 11.133 6.486 3.5 10.424 1.813 22.248-9.533 32.379-31.07 93.011-54.016 148.68-.404 16.668 16.052 18.759 15.99 36.25-1.067 8.986-8.763 16.572-14.13 30.048-21.27 7.53-3.988 4.824.596 30.032-50.872 26.004-53.088 52.048-106.156 78.074-159.233 3.662-7.437 6.476-14.561 6.766-17.13 1.272-11.292-7.004-20.637-18.276-20.637"/><path fill="url(#d)" d="M542.192 864.585c-20.616-.692-42.49 7.635-63.37 28.264-24.95 24.651-43.183 18.238-62.89-.707-56.52-54.332-105.68-14.323-121.752 2.105-24.796 25.344-46.797 11.372-55.668 3.53-20.686-18.287-40.176-26.234-64.5-26.297-21.057-.055-39.89 5.89-55.768 17.603-16.326 12.044-20.282 20.719-14.808 32.475 3.449 7.407 10.87 12.334 18.578 12.334 6.383 0 9.483-1.432 17.955-8.297 28.368-22.984 55.782-10.271 69.516 2.324 31.026 28.458 76.405 32.951 113.027-2.918 19.075-19.65 39.808-25.429 61.064-5.623 19.243 19.001 28.862 24.929 47.7 29.387 6.645 1.573 25.948 1.407 33.736-.289 16.764-3.65 26.21-9.348 44.764-27.004 25.934-24.68 43.815-15.813 62.736 2.555 10.45 10.144 12.162 11.539 19.406 15.81 11.797 6.956 23.79 10.053 38.904 10.053 25.248-.608 43.835-9.23 60.809-27.096 24.237-23.237 40.514-20.44 62.88 1.082 57.877 55.69 108.781 10.585 120.12-.99 14.645-16.24 35.598-20.929 54.125-7.24 10.132 8.273 14.799 9.661 23.604 7.023 5.727-1.715 12.165-8.19 13.644-13.722 2.893-10.815-.797-18.729-13.008-27.895-25.943-19.475-60.416-21.217-88.244-4.46-4.888 2.943-12.012 8.732-18.414 14.962-21.103 20.54-38.496 25.695-63.978.664-33.864-33.263-66.547-28.973-82.348-23.87-15.21 4.91-24.233 10.734-38.254 24.689-26.79 26.662-45.797 14.892-63.746-2.602-15.847-15.446-35.205-25.157-55.82-25.85"/><path fill="url(#e)" d="M542.192 951.152c-20.616-.692-42.49 7.635-63.37 28.264-24.95 24.651-43.183 18.238-62.89-.707-56.52-54.332-105.68-14.323-121.752 2.105-24.796 25.345-46.797 11.372-55.668 3.53-20.686-18.287-40.176-26.234-64.5-26.297-21.057-.055-39.89 5.89-55.768 17.603-16.326 12.044-20.282 20.719-14.808 32.475 3.448 7.407 10.87 12.334 18.578 12.334 6.383 0 9.483-1.432 17.955-8.297 28.368-22.985 55.782-10.271 69.515 2.324 31.027 28.458 76.406 32.952 113.028-2.918 19.075-19.65 39.808-25.429 61.064-5.623 19.242 19.002 28.862 24.929 47.7 29.387 6.645 1.573 25.948 1.407 33.736-.289 16.764-3.65 26.21-9.348 44.764-27.004 25.934-24.68 43.815-15.813 62.736 2.555 10.45 10.144 12.162 11.539 19.406 15.81 11.797 6.956 23.79 10.053 38.904 10.053 25.248-.608 43.835-9.23 60.809-27.096 24.237-23.237 40.514-20.44 62.88 1.082 57.877 55.69 108.781 10.585 120.12-.99 14.645-16.24 35.598-20.929 54.125-7.24 10.132 8.273 14.799 9.661 23.604 7.023 5.727-1.715 12.165-8.19 13.644-13.722 2.893-10.815-.797-18.729-13.008-27.895-25.943-19.475-60.416-21.217-88.244-4.46-4.888 2.943-12.012 8.732-18.414 14.962-21.103 20.54-38.496 25.695-63.978.664-33.864-33.263-66.547-28.973-82.348-23.87-15.21 4.91-24.233 10.734-38.254 24.689-26.79 26.662-45.797 14.892-63.746-2.602-15.847-15.446-35.205-25.157-55.82-25.85"/></svg>