<svg width="150" height="150" viewBox="0 0 150 150" fill="none" xmlns="http://www.w3.org/2000/svg">
<path d="M149.968 80.1008H76.7538L64.764 121.459H50.2232C49.8724 121.459 49.5536 121.236 49.4579 120.885L23.2143 28.5383H41.486L51.148 62.5625H69.3878L54.7194 11H0L32.5893 125.7C34.8214 133.545 42.0599 139.029 50.2232 139.029H77.9656L89.9554 97.6709H132.462V120.694C132.462 120.917 132.398 121.108 132.239 121.268C132.079 121.427 131.888 121.491 131.665 121.491H101.276L96.1735 139.029H131.665C136.575 139.029 141.167 137.116 144.643 133.64C148.119 130.165 150 125.573 150 120.662V80.1008H149.968Z" fill="#00758A"/>
<path d="M144.993 62.5625H149.968V29.3673C149.968 24.4566 148.054 19.8648 144.611 16.389C141.167 12.9133 136.543 11 131.632 11H96.8427L81.8555 62.5625H144.993ZM110.012 28.5383H131.664C131.887 28.5383 132.079 28.602 132.238 28.7615C132.398 28.9209 132.461 29.1122 132.461 29.3355V45.0242H105.229L110.044 28.5064L110.012 28.5383Z" fill="#F29111"/>
</svg>
