<?xml version="1.0" encoding="UTF-8" standalone="no"?>
<!-- Created with Inkscape (http://www.inkscape.org/) -->

<svg
   xmlns:dc="http://purl.org/dc/elements/1.1/"
   xmlns:cc="http://creativecommons.org/ns#"
   xmlns:rdf="http://www.w3.org/1999/02/22-rdf-syntax-ns#"
   xmlns:svg="http://www.w3.org/2000/svg"
   xmlns="http://www.w3.org/2000/svg"
   xmlns:sodipodi="http://sodipodi.sourceforge.net/DTD/sodipodi-0.dtd"
   xmlns:inkscape="http://www.inkscape.org/namespaces/inkscape"
   width="48"
   height="48"
   id="svg2"
   version="1.1"
   inkscape:version="0.48.4 r9939"
   viewBox="0 0 13.546666 13.546668"
   sodipodi:docname="radit.svg">
  <defs
     id="defs4" />
  <sodipodi:namedview
     id="base"
     pagecolor="#ffffff"
     bordercolor="#666666"
     borderopacity="1.0"
     inkscape:pageopacity="0"
     inkscape:pageshadow="2"
     inkscape:zoom="5.6568543"
     inkscape:cx="26.471348"
     inkscape:cy="33.993083"
     inkscape:document-units="px"
     inkscape:current-layer="g2998"
     showgrid="false"
     inkscape:showpageshadow="false"
     borderlayer="true"
     units="px"
     fit-margin-top="0"
     fit-margin-left="0"
     fit-margin-right="0"
     fit-margin-bottom="0"
     showguides="true"
     inkscape:window-width="1366"
     inkscape:window-height="717"
     inkscape:window-x="-2"
     inkscape:window-y="24"
     inkscape:window-maximized="1">
    <sodipodi:guide
       position="-6.6748425e-06,47.999999"
       orientation="47.999977,0"
       id="guide4120" />
    <sodipodi:guide
       position="-6.6748425e-06,2.2810037e-05"
       orientation="0,48.000004"
       id="guide4122" />
    <sodipodi:guide
       position="47.999997,2.2810037e-05"
       orientation="-47.999977,0"
       id="guide4124" />
    <sodipodi:guide
       position="47.999997,47.999999"
       orientation="0,-48.000004"
       id="guide4126" />
    <sodipodi:guide
       position="3.9999733,44.000154"
       orientation="39.999962,0"
       id="guide4138" />
    <sodipodi:guide
       position="3.9999733,4.0001921"
       orientation="0,40.000003"
       id="guide4140" />
    <sodipodi:guide
       position="43.999976,4.0001921"
       orientation="-39.999962,0"
       id="guide4142" />
    <sodipodi:guide
       position="43.999976,44.000154"
       orientation="0,-40.000003"
       id="guide4144" />
    <sodipodi:guide
       position="40.999998,47.999999"
       orientation="0,-34.000006"
       id="guide4154" />
    <sodipodi:guide
       position="1.9999969,4.0000839"
       orientation="0,44.000003"
       id="guide3281" />
    <sodipodi:guide
       position="46,44.000046"
       orientation="0,-44.000003"
       id="guide3285" />
    <sodipodi:guide
       position="0,0"
       orientation="0,48"
       id="guide3147" />
    <sodipodi:guide
       position="48,0"
       orientation="-48,0"
       id="guide3149" />
    <sodipodi:guide
       position="48,48"
       orientation="0,-48"
       id="guide3151" />
    <sodipodi:guide
       position="0,48"
       orientation="48,0"
       id="guide3153" />
    <inkscape:grid
       type="xygrid"
       id="grid3163" />
  </sodipodi:namedview>
  <metadata
     id="metadata7">
    <rdf:RDF>
      <cc:Work
         rdf:about="">
        <dc:format>image/svg+xml</dc:format>
        <dc:type
           rdf:resource="http://purl.org/dc/dcmitype/StillImage" />
        <dc:title />
      </cc:Work>
    </rdf:RDF>
  </metadata>
  <g
     inkscape:label="Capa 1"
     inkscape:groupmode="layer"
     id="layer1"
     transform="translate(38.119153,-397.84494)">
    <g
       id="layer1-1"
       inkscape:label="Capa 1"
       transform="matrix(0.28367991,0,0,0.28273264,-107.88536,276.25482)">
      <g
         transform="translate(242.41755,429.62489)"
         id="g2998"
         style="display:inline">
        <path
           style="fill:#5273a4;stroke:#5273a4;stroke-width:0.88745576000000004;stroke-miterlimit:4;stroke-opacity:1;fill-opacity:1"
           d="m 9.8464927,35.626262 0,-1.366383 c 0,-0.739997 0.5845453,-1.335736 1.3106403,-1.335736 l 0,0 0,0 6.441363,0 c 0.726094,0 1.31064,0.59574 1.31064,1.335736 l 0,6.421535 c 0,0.739998 -0.584546,1.335736 -1.31064,1.335736 l -6.441363,0 c -0.726095,0 -1.3106403,-0.595738 -1.3106403,-1.335736 l 0,-5.362189"
           id="path3954"
           inkscape:connector-curvature="0"
           sodipodi:nodetypes="cscccssssssc" />
        <path
           style="fill:#d2edb3;stroke:#d2edb3;stroke-width:0.88790537999999986;stroke-miterlimit:4;stroke-opacity:1;stroke-dasharray:none;fill-opacity:1"
           d="m 9.8672239,22.710426 0,-1.366382 c 0,-0.739997 0.5845451,-1.335737 1.3106391,-1.335737 l 0,0 0,0 6.441363,0 c 0.726094,0 1.31064,0.59574 1.31064,1.335737 l 0,6.421535 c 0,0.739998 -0.584546,1.335736 -1.31064,1.335736 l -6.441363,0 c -0.726094,0 -1.3106391,-0.595738 -1.3106391,-1.335736 l 0,-5.362189"
           id="path3954-9"
           inkscape:connector-curvature="0"
           sodipodi:nodetypes="cscccssssssc" />
        <path
           style="fill:#ff6f69;stroke:#ff6f69;stroke-width:0.88745576000000004;stroke-miterlimit:4;stroke-opacity:1;fill-opacity:1"
           d="m 9.8879569,10.147507 0,-1.3663829 c 0,-0.739997 0.5845461,-1.335736 1.3106391,-1.335736 l 0,0 0,0 6.441364,0 c 0.726094,0 1.31064,0.595739 1.31064,1.335736 l 0,6.4215339 c 0,0.739997 -0.584546,1.335736 -1.31064,1.335736 l -6.441364,0 c -0.726093,0 -1.3106391,-0.595739 -1.3106391,-1.335736 l 0,-5.3621876"
           id="path3954-9-1"
           inkscape:connector-curvature="0"
           sodipodi:nodetypes="cscccssssssc" />
        <path
           style="fill:#da9cdf;stroke:#da9cdf;stroke-width:0.88745576000000004;stroke-miterlimit:4;stroke-opacity:1;fill-opacity:1"
           d="m 23.063599,35.626263 0,-1.366383 c 0,-0.739997 0.584545,-1.335736 1.31064,-1.335736 l 0,0 0,0 6.441363,0 c 0.726094,0 1.31064,0.59574 1.31064,1.335736 l 0,6.421535 c 0,0.739998 -0.584546,1.335736 -1.31064,1.335736 l -6.441363,0 c -0.726095,0 -1.31064,-0.595738 -1.31064,-1.335736 l 0,-5.362189"
           id="path3954-1"
           inkscape:connector-curvature="0"
           sodipodi:nodetypes="cscccssssssc" />
        <path
           style="fill:#51cb6b;stroke:#51cb6b;stroke-width:0.88745576000000004;stroke-miterlimit:4;stroke-opacity:1;fill-opacity:1"
           d="m 23.08433,22.710426 0,-1.366382 c 0,-0.739996 0.584545,-1.335737 1.310639,-1.335737 l 0,0 0,0 6.441363,0 c 0.726094,0 1.31064,0.595741 1.31064,1.335737 l 0,6.421535 c 0,0.739999 -0.584546,1.335737 -1.31064,1.335737 l -6.441363,0 c -0.726094,0 -1.310639,-0.595738 -1.310639,-1.335737 l 0,-5.362188"
           id="path3954-9-7"
           inkscape:connector-curvature="0"
           sodipodi:nodetypes="cscccssssssc" />
        <path
           style="fill:#ffbc7e;stroke:#ffbc7e;stroke-width:0.88790537999999986;stroke-miterlimit:4;stroke-opacity:1;stroke-dasharray:none;fill-opacity:1"
           d="m 23.105063,10.147507 0,-1.3663829 c 0,-0.739997 0.584546,-1.335736 1.310639,-1.335736 l 0,0 0,0 6.441364,0 c 0.726094,0 1.31064,0.595739 1.31064,1.335736 l 0,6.4215339 c 0,0.739997 -0.584546,1.335736 -1.31064,1.335736 l -6.441364,0 c -0.726093,0 -1.310639,-0.595739 -1.310639,-1.335736 l 0,-5.3621876"
           id="path3954-9-1-6"
           inkscape:connector-curvature="0"
           sodipodi:nodetypes="cscccssssssc" />
        <path
           style="fill:#ff77b1;stroke:#ff77b1;stroke-width:0.88745576000000004;stroke-miterlimit:4;stroke-opacity:1;fill-opacity:1"
           d="m 36.257454,35.62609 0,-1.366383 c 0,-0.739997 0.584545,-1.335736 1.31064,-1.335736 l 0,0 0,0 6.441363,0 c 0.726094,0 1.31064,0.59574 1.31064,1.335736 l 0,6.421535 c 0,0.739998 -0.584546,1.335736 -1.31064,1.335736 l -6.441363,0 c -0.726095,0 -1.31064,-0.595738 -1.31064,-1.335736 l 0,-5.362189"
           id="path3954-14"
           inkscape:connector-curvature="0"
           sodipodi:nodetypes="cscccssssssc" />
        <path
           style="fill:#61b5f7;stroke:#61b5f7;stroke-width:0.88790537999999997;stroke-miterlimit:4;stroke-opacity:1;fill-opacity:1;stroke-dasharray:none"
           d="m 36.278185,22.710253 0,-1.366382 c 0,-0.739996 0.584545,-1.335737 1.310639,-1.335737 l 0,0 0,0 6.441363,0 c 0.726094,0 1.31064,0.595741 1.31064,1.335737 l 0,6.421535 c 0,0.739999 -0.584546,1.335737 -1.31064,1.335737 l -6.441363,0 c -0.726094,0 -1.310639,-0.595738 -1.310639,-1.335737 l 0,-5.362188"
           id="path3954-9-5"
           inkscape:connector-curvature="0"
           sodipodi:nodetypes="cscccssssssc" />
        <path
           style="fill:#f5d966;stroke:#f5d966;stroke-width:0.88790537999999986;stroke-miterlimit:4;stroke-opacity:1;stroke-dasharray:none;fill-opacity:1"
           d="m 36.298918,10.147333 0,-1.3663828 c 0,-0.739997 0.584546,-1.3357361 1.310639,-1.3357361 l 0,0 0,0 6.441364,0 c 0.726094,0 1.31064,0.5957391 1.31064,1.3357361 l 0,6.4215348 c 0,0.739997 -0.584546,1.335736 -1.31064,1.335736 l -6.441364,0 c -0.726093,0 -1.310639,-0.595739 -1.310639,-1.335736 l 0,-5.3621886"
           id="path3954-9-1-7"
           inkscape:connector-curvature="0"
           sodipodi:nodetypes="cscccssssssc" />
        <text
           xml:space="preserve"
           style="font-size:45.80050278px;font-style:normal;font-variant:normal;font-weight:bold;font-stretch:normal;line-height:125%;letter-spacing:0px;word-spacing:0px;fill:#000000;fill-opacity:1;stroke:none;font-family:Artifika;-inkscape-font-specification:Artifika Bold"
           x="10.197767"
           y="40.468246"
           id="text4054"
           sodipodi:linespacing="125%"
           transform="scale(0.99832899,1.0016738)"><tspan
             sodipodi:role="line"
             id="tspan4056"
             x="10.197767"
             y="40.468246"
             style="fill:#808080">R</tspan></text>
      </g>
    </g>
  </g>
</svg>
