<svg xmlns="http://www.w3.org/2000/svg"
    width="128" height="128">
    <g stroke="#b5b500" stroke-width="11" stroke-linecap="round" stroke-linejoin="miter"  fill="none" transform="scale(0.85,0.85) translate(12,14)">
        <path d="M36,45 L63,29 91,45 91,78 63,94 36,78 Z" fill="yellow"/>
        <line x1="50" y1="53" x2="62" y2="45" />
        <line x1="78" y1="54" x2="78" y2="69" />
        <line x1="50" y1="70" x2="62" y2="77" />

        <line x1="36" y1="45" x2="14" y2="31" />
        <line x1="63" y1="29" x2="63" y2="3" />
        <line x1="91" y1="45" x2="114" y2="32" />
        <line x1="91" y1="78" x2="114" y2="91" />
        <line x1="63" y1="94" x2="63" y2="120" />
        <line x1="36" y1="78" x2="14" y2="91" />

        <circle cx="14" cy="31" r="9" fill="violet" stroke-width="5" />
        <circle cx="63" cy="3" r="9" fill="#00aaff" stroke-width="5" />
        <circle cx="114" cy="32" r="9" fill="#44ff44" stroke-width="5" />
        <circle cx="114" cy="91" r="9" fill="yellow" stroke-width="5" />
        <circle cx="63" cy="120" r="9" fill="orange" stroke-width="5" />
        <circle cx="14" cy="91" r="9" fill="red" stroke-width="5" />
    </g>
    <g stroke="black" stroke-width="8" stroke-linecap="round" stroke-linejoin="miter"  fill="none" transform="scale(0.85,0.85) translate(12,14)">
        <path d="M36,45 L63,29 91,45 91,78 63,94 36,78 Z" fill="yellow"/>
        <line x1="50" y1="53" x2="62" y2="45" />
        <line x1="78" y1="54" x2="78" y2="69" />
        <line x1="50" y1="70" x2="62" y2="77" />

        <line x1="36" y1="45" x2="14" y2="31" />
        <line x1="63" y1="29" x2="63" y2="3" />
        <line x1="91" y1="45" x2="114" y2="32" />
        <line x1="91" y1="78" x2="114" y2="91" />
        <line x1="63" y1="94" x2="63" y2="120" />
        <line x1="36" y1="78" x2="14" y2="91" />

        <circle cx="14" cy="31" r="9" fill="violet" stroke-width="2" />
        <circle cx="63" cy="3" r="9" fill="#00aaff" stroke-width="2" />
        <circle cx="114" cy="32" r="9" fill="#44ff44" stroke-width="2" />
        <circle cx="114" cy="91" r="9" fill="yellow" stroke-width="2" />
        <circle cx="63" cy="120" r="9" fill="orange" stroke-width="2" />
        <circle cx="14" cy="91" r="9" fill="red" stroke-width="2" />
    </g>
</svg>
